<svg width="19" height="18" viewBox="0 0 19 18" fill="none" xmlns="http://www.w3.org/2000/svg">
<path d="M8.49999 3.0193e-07C7.23875 -0.000357534 5.99778 0.31736 4.89188 0.923764C3.78598 1.53017 2.85087 2.40567 2.17304 3.46929C1.49521 4.53291 1.09656 5.7503 1.01397 7.00883C0.931368 8.26737 1.16749 9.52641 1.70049 10.6695L1.01499 14.103C0.990908 14.224 0.997037 14.349 1.03284 14.4671C1.06864 14.5851 1.133 14.6925 1.22023 14.7798C1.30746 14.867 1.41485 14.9314 1.5329 14.9672C1.65095 15.003 1.77601 15.0091 1.89699 14.985L5.32899 14.2995C6.34648 14.7731 7.45728 15.0123 8.57952 14.9995C9.70175 14.9867 10.8068 14.7222 11.8132 14.2255C12.8196 13.7288 13.7017 13.0126 14.3945 12.1296C15.0873 11.2466 15.5731 10.2194 15.816 9.12372C16.059 8.02803 16.053 6.89178 15.7984 5.79872C15.5438 4.70567 15.0472 3.68369 14.3451 2.80811C13.643 1.93254 12.7533 1.22569 11.7417 0.739687C10.7301 0.253683 9.6223 0.000908992 8.49999 3.0193e-07ZM2.49999 7.5C2.50032 6.19256 2.92771 4.921 3.71713 3.87878C4.50655 2.83656 5.6148 2.08072 6.87327 1.72625C8.13175 1.37177 9.47157 1.43807 10.6889 1.91505C11.9062 2.39202 12.9345 3.25358 13.6171 4.36864C14.2998 5.4837 14.5996 6.79123 14.4708 8.09232C14.3421 9.39341 13.7919 10.6168 12.9039 11.5765C12.016 12.5361 10.8388 13.1795 9.55163 13.4086C8.26442 13.6378 6.93759 13.4402 5.77299 12.846C5.62228 12.769 5.44994 12.7452 5.28399 12.7785L2.70549 13.2945L3.22149 10.7145C3.25447 10.549 3.23069 10.3773 3.15399 10.227C2.72256 9.38282 2.49838 8.44803 2.49999 7.5ZM11.5 18C9.7858 18.0028 8.12279 17.416 6.78999 16.338C7.90046 16.5519 9.04121 16.5554 10.153 16.3485C11.5279 16.664 12.97 16.4862 14.227 15.846C14.3777 15.769 14.55 15.7452 14.716 15.7785L17.2945 16.2945L16.7785 13.7145C16.7455 13.549 16.7693 13.3773 16.846 13.227C17.4855 11.9698 17.6634 10.5279 17.3485 9.153C17.5548 8.04216 17.5512 6.90252 17.338 5.793C18.4155 7.12494 19.0023 8.78682 19 10.5C19.0009 11.5955 18.7618 12.6778 18.2995 13.671L18.985 17.103C19.0091 17.224 19.003 17.349 18.9672 17.4671C18.9314 17.5851 18.867 17.6925 18.7798 17.7798C18.6925 17.867 18.5851 17.9314 18.4671 17.9672C18.349 18.003 18.224 18.0091 18.103 17.985L14.6695 17.2995C13.6771 17.7625 12.5951 18.0016 11.5 18Z" fill="#504D51"/>
</svg>
