<svg width="68" height="62" viewBox="0 0 68 62" fill="none" xmlns="http://www.w3.org/2000/svg">
<path d="M32.5 48.9583H10.0417C8.33986 48.9583 6.70776 48.2823 5.5044 47.0789C4.30104 45.8756 3.625 44.2435 3.625 42.5417V10.4583C3.625 8.75652 4.30104 7.12441 5.5044 5.92105C6.70776 4.7177 8.33986 4.04166 10.0417 4.04166H54.9583C56.6601 4.04166 58.2922 4.7177 59.4956 5.92105C60.699 7.12441 61.375 8.75652 61.375 10.4583V28.1042M54.9583 58.5833V39.3333M54.9583 39.3333L64.5833 48.9583M54.9583 39.3333L45.3333 48.9583" stroke="#803785" stroke-width="6.41667" stroke-linecap="round" stroke-linejoin="round"/>
<path d="M3.625 10.4583L32.5 29.7083L61.375 10.4583" stroke="#803785" stroke-width="6.41667" stroke-linecap="round" stroke-linejoin="round"/>
</svg>
