<svg width="100" height="100" viewBox="0 0 100 100" fill="none" xmlns="http://www.w3.org/2000/svg">
<path d="M15.3977 50.8121C12.8465 50.8121 10.7497 52.8877 11.0551 55.4205C12.0812 63.9319 15.9288 71.9072 22.053 78.0314C29.272 85.2505 39.0631 89.3061 49.2724 89.3061C59.4816 89.3061 69.2727 85.2505 76.4918 78.0315C82.616 71.9072 86.4636 63.9319 87.4897 55.4205C87.7951 52.8877 85.6983 50.8121 83.1471 50.8121L15.3977 50.8121Z" fill="#B58BB8"/>
<path d="M49.2724 21.5566C65.4298 21.5566 78.5279 34.6547 78.5279 50.812C78.5279 66.9694 65.4298 80.0675 49.2724 80.0675C33.1151 80.0675 20.017 66.9694 20.017 50.812C20.017 34.6547 33.1151 21.5566 49.2724 21.5566Z" fill="url(#paint0_linear_3295_8647)"/>
<path d="M40.0339 46.9626C40.0339 46.5374 39.6892 46.1927 39.264 46.1927C38.8388 46.1927 38.4941 46.5374 38.4941 46.9626V58.9728C38.4941 59.398 38.8388 59.7426 39.264 59.7426C39.6892 59.7426 40.0339 59.398 40.0339 58.9728L40.0339 46.9626Z" fill="white"/>
<path d="M40.0339 62.6682C40.0339 62.243 39.6892 61.8983 39.264 61.8983C38.8388 61.8983 38.4941 62.243 38.4941 62.6682V64.5159C38.4941 64.9411 38.8388 65.2858 39.264 65.2858C39.6892 65.2858 40.0339 64.9411 40.0339 64.5159L40.0339 62.6682Z" fill="white"/>
<path d="M59.2809 47.1166C59.7061 47.1166 60.0508 47.4613 60.0508 47.8865V57.1251C60.0508 57.5503 59.7061 57.8949 59.2809 57.8949C58.8557 57.8949 58.511 57.5503 58.511 57.1251V47.8865C58.511 47.4613 58.8557 47.1166 59.2809 47.1166Z" fill="white"/>
<path d="M60.0508 60.8205C60.0508 60.3953 59.7061 60.0506 59.2809 60.0506C58.8557 60.0506 58.511 60.3953 58.511 60.8205V64.5159C58.511 64.9411 58.8557 65.2858 59.2809 65.2858C59.7061 65.2858 60.0508 64.9411 60.0508 64.5159V60.8205Z" fill="white"/>
<path d="M49.2724 50.812C49.6976 50.812 50.0423 51.1567 50.0423 51.5819V62.6682C50.0423 63.0934 49.6976 63.4381 49.2724 63.4381C48.8472 63.4381 48.5026 63.0934 48.5026 62.6682V51.5819C48.5026 51.1567 48.8472 50.812 49.2724 50.812Z" fill="white"/>
<path d="M50.0423 66.3636C50.0423 65.9384 49.6976 65.5937 49.2724 65.5937C48.8472 65.5937 48.5026 65.9384 48.5026 66.3636V70.059C48.5026 70.4842 48.8472 70.8289 49.2724 70.8289C49.6976 70.8289 50.0423 70.4842 50.0423 70.059V66.3636Z" fill="white"/>
<path d="M26.176 16.3599C26.176 15.5095 25.4831 14.8086 24.6416 14.9319C23.7793 15.0582 22.9338 15.2909 22.125 15.6259C20.8406 16.1579 19.6737 16.9377 18.6907 17.9206C17.7077 18.9036 16.9279 20.0706 16.3959 21.3549C16.0609 22.1638 15.8283 23.0092 15.7019 23.8716C15.5787 24.713 16.2795 25.406 17.1299 25.406L24.6362 25.406C25.4866 25.406 26.176 24.7166 26.176 23.8662V16.3599Z" fill="#F2EBF3"/>
<path d="M21.3643 11.5482C21.3643 10.6978 20.6713 9.99694 19.8299 10.1202C18.9675 10.2465 18.1221 10.4792 17.3132 10.8142C16.0289 11.3462 14.8619 12.126 13.8789 13.1089C12.8959 14.0919 12.1162 15.2589 11.5842 16.5432C11.2492 17.3521 11.0165 18.1975 10.8902 19.0599C10.7669 19.9013 11.4678 20.5943 12.3182 20.5943L19.8245 20.5943C20.6749 20.5943 21.3643 19.9049 21.3643 19.0545V11.5482Z" fill="#F2EBF3"/>
<path d="M32.335 24.9322L49.2599 34.7038V54.2469L32.335 44.4753V24.9322Z" fill="#F2EBF3"/>
<path d="M49.2724 54.2469L66.1972 44.4753V24.9322L49.2724 34.7038V54.2469Z" fill="#F2EBF3"/>
<path d="M49.2724 15.1607L66.2098 24.9323L49.2724 34.7038L32.335 24.9323L49.2724 15.1607Z" fill="#B58BB8"/>
<path d="M77.3 13.7472C77.1983 15.0187 76.085 15.967 74.8135 15.8652C73.542 15.7635 72.5937 14.6503 72.6954 13.3788C72.7972 12.1072 73.9104 11.1589 75.1819 11.2607C76.4534 11.3624 77.4017 12.4757 77.3 13.7472Z" fill="#B58BB8"/>
<path d="M76.686 21.4215C76.5842 22.693 75.471 23.6413 74.1995 23.5395C72.9279 23.4378 71.9797 22.3245 72.0814 21.053C72.1831 19.7815 73.2964 18.8332 74.5679 18.935C75.8394 19.0367 76.7877 20.1499 76.686 21.4215Z" fill="#B58BB8"/>
<path d="M84.3602 22.0355C84.2585 23.307 83.1453 24.2553 81.8737 24.1536C80.6022 24.0518 79.6539 22.9386 79.7557 21.6671C79.8574 20.3955 80.9706 19.4473 82.2422 19.549C83.5137 19.6507 84.462 20.764 84.3602 22.0355Z" fill="#B58BB8"/>
<defs>
<linearGradient id="paint0_linear_3295_8647" x1="49.2724" y1="21.5566" x2="49.2724" y2="80.0675" gradientUnits="userSpaceOnUse">
<stop stop-color="#F3F8FF"/>
<stop offset="1" stop-color="#803785"/>
</linearGradient>
</defs>
</svg>
