<svg width="16" height="18" viewBox="0 0 16 18" fill="none" xmlns="http://www.w3.org/2000/svg">
<path d="M12.125 16.5V2.625C12.125 2.32663 12.0065 2.04048 11.7955 1.8295C11.5845 1.61853 11.2984 1.5 11 1.5H2C1.70163 1.5 1.41548 1.61853 1.2045 1.8295C0.993526 2.04048 0.875 2.32663 0.875 2.625V15.375C0.875 15.6734 0.993526 15.9595 1.2045 16.1705C1.41548 16.3815 1.70163 16.5 2 16.5H12.125ZM12.125 16.5H14C14.2984 16.5 14.5845 16.3815 14.7955 16.1705C15.0065 15.9595 15.125 15.6734 15.125 15.375V9C15.125 8.80109 15.046 8.61032 14.9053 8.46967C14.7647 8.32902 14.5739 8.25 14.375 8.25H12.875C12.6761 8.25 12.4853 8.32902 12.3447 8.46967C12.204 8.61032 12.125 8.80109 12.125 9V16.5Z" stroke="#007A71" stroke-width="1.33333" stroke-linejoin="round"/>
<path d="M3.125 4.5H6.125M3.125 7.125H7.625" stroke="#007A71" stroke-width="1.33333" stroke-linecap="round" stroke-linejoin="round"/>
</svg>
