<svg width="11" height="12" viewBox="0 0 11 12" fill="none" xmlns="http://www.w3.org/2000/svg">
<path d="M10.8126 1.5V8.8125C10.8126 8.96168 10.7533 9.10476 10.6478 9.21025C10.5423 9.31574 10.3993 9.375 10.2501 9.375C10.1009 9.375 9.95781 9.31574 9.85232 9.21025C9.74683 9.10476 9.68757 8.96168 9.68757 8.8125V2.85773L1.64804 10.898C1.54249 11.0035 1.39934 11.0628 1.25007 11.0628C1.1008 11.0628 0.957648 11.0035 0.8521 10.898C0.746552 10.7924 0.687256 10.6493 0.687256 10.5C0.687256 10.3507 0.746552 10.2076 0.8521 10.102L8.89233 2.0625H2.93757C2.78838 2.0625 2.64531 2.00324 2.53982 1.89775C2.43433 1.79226 2.37507 1.64918 2.37507 1.5C2.37507 1.35082 2.43433 1.20774 2.53982 1.10225C2.64531 0.996763 2.78838 0.9375 2.93757 0.9375H10.2501C10.3993 0.9375 10.5423 0.996763 10.6478 1.10225C10.7533 1.20774 10.8126 1.35082 10.8126 1.5Z" fill="white"/>
</svg>
