<svg width="376" height="246" viewBox="0 0 376 246" fill="none" xmlns="http://www.w3.org/2000/svg">
<g filter="url(#filter0_d_3294_8600)">
<g clip-path="url(#clip0_3294_8600)">
<rect x="16.5" y="7" width="343" height="212" rx="16" fill="#5A275D"/>
<g opacity="0.045">
<path d="M247.053 190.457L309.549 35.4357L408.755 109.011L247.053 190.457Z" fill="#CBADCD"/>
<path d="M389.5 239.576L290.717 211.94L196.815 392.002L389.5 239.576Z" fill="#CBADCD"/>
<path d="M188 -82.63L115.564 96.6298L-10.4866 74.0432L188 -82.63Z" fill="#CBADCD"/>
<path d="M-48.9668 392.002L57.4909 127.935L226.48 253.264L-48.9668 392.002Z" fill="#CBADCD"/>
</g>
<path d="M153.398 82.8121C150.846 82.8121 148.75 84.8877 149.055 87.4205C150.081 95.9319 153.929 103.907 160.053 110.031C167.272 117.25 177.063 121.306 187.272 121.306C197.482 121.306 207.273 117.25 214.492 110.031C220.616 103.907 224.464 95.9319 225.49 87.4205C225.795 84.8877 223.698 82.8121 221.147 82.8121L153.398 82.8121Z" fill="#B58BB8"/>
<path d="M187.272 53.5566C203.43 53.5566 216.528 66.6547 216.528 82.812C216.528 98.9694 203.43 112.067 187.272 112.067C171.115 112.067 158.017 98.9694 158.017 82.812C158.017 66.6547 171.115 53.5566 187.272 53.5566Z" fill="url(#paint0_linear_3294_8600)"/>
<path d="M178.034 78.9626C178.034 78.5374 177.689 78.1927 177.264 78.1927C176.839 78.1927 176.494 78.5374 176.494 78.9626V90.9728C176.494 91.398 176.839 91.7426 177.264 91.7426C177.689 91.7426 178.034 91.398 178.034 90.9728L178.034 78.9626Z" fill="white"/>
<path d="M178.034 94.6682C178.034 94.243 177.689 93.8983 177.264 93.8983C176.839 93.8983 176.494 94.243 176.494 94.6682V96.5159C176.494 96.9411 176.839 97.2858 177.264 97.2858C177.689 97.2858 178.034 96.9411 178.034 96.5159L178.034 94.6682Z" fill="white"/>
<path d="M197.281 79.1166C197.706 79.1166 198.051 79.4613 198.051 79.8865V89.1251C198.051 89.5503 197.706 89.8949 197.281 89.8949C196.856 89.8949 196.511 89.5503 196.511 89.1251V79.8865C196.511 79.4613 196.856 79.1166 197.281 79.1166Z" fill="white"/>
<path d="M198.051 92.8205C198.051 92.3953 197.706 92.0506 197.281 92.0506C196.856 92.0506 196.511 92.3953 196.511 92.8205V96.5159C196.511 96.9411 196.856 97.2858 197.281 97.2858C197.706 97.2858 198.051 96.9411 198.051 96.5159V92.8205Z" fill="white"/>
<path d="M187.272 82.812C187.698 82.812 188.042 83.1567 188.042 83.5819V94.6682C188.042 95.0934 187.698 95.4381 187.272 95.4381C186.847 95.4381 186.503 95.0934 186.503 94.6682V83.5819C186.503 83.1567 186.847 82.812 187.272 82.812Z" fill="white"/>
<path d="M188.042 98.3636C188.042 97.9384 187.698 97.5937 187.272 97.5937C186.847 97.5937 186.503 97.9384 186.503 98.3636V102.059C186.503 102.484 186.847 102.829 187.272 102.829C187.698 102.829 188.042 102.484 188.042 102.059V98.3636Z" fill="white"/>
<path d="M164.176 48.3599C164.176 47.5095 163.483 46.8086 162.642 46.9319C161.779 47.0582 160.934 47.2909 160.125 47.6259C158.841 48.1579 157.674 48.9377 156.691 49.9206C155.708 50.9036 154.928 52.0706 154.396 53.3549C154.061 54.1638 153.828 55.0092 153.702 55.8716C153.579 56.713 154.28 57.406 155.13 57.406L162.636 57.406C163.487 57.406 164.176 56.7166 164.176 55.8662V48.3599Z" fill="#F2EBF3"/>
<path d="M159.364 43.5482C159.364 42.6978 158.671 41.9969 157.83 42.1202C156.968 42.2465 156.122 42.4792 155.313 42.8142C154.029 43.3462 152.862 44.126 151.879 45.1089C150.896 46.0919 150.116 47.2589 149.584 48.5432C149.249 49.3521 149.017 50.1975 148.89 51.0599C148.767 51.9013 149.468 52.5943 150.318 52.5943L157.824 52.5943C158.675 52.5943 159.364 51.9049 159.364 51.0545V43.5482Z" fill="#F2EBF3"/>
<path d="M170.335 56.9322L187.26 66.7038V86.2469L170.335 76.4753V56.9322Z" fill="#F2EBF3"/>
<path d="M187.272 86.2469L204.197 76.4753V56.9322L187.272 66.7038V86.2469Z" fill="#F2EBF3"/>
<path d="M187.272 47.1607L204.21 56.9323L187.272 66.7038L170.335 56.9323L187.272 47.1607Z" fill="#B58BB8"/>
<path d="M215.3 45.7472C215.198 47.0187 214.085 47.967 212.814 47.8652C211.542 47.7635 210.594 46.6503 210.695 45.3788C210.797 44.1072 211.91 43.1589 213.182 43.2607C214.453 43.3624 215.402 44.4757 215.3 45.7472Z" fill="#B58BB8"/>
<path d="M214.686 53.4215C214.584 54.693 213.471 55.6413 212.199 55.5395C210.928 55.4378 209.98 54.3245 210.081 53.053C210.183 51.7815 211.296 50.8332 212.568 50.935C213.839 51.0367 214.788 52.1499 214.686 53.4215Z" fill="#B58BB8"/>
<path d="M222.36 54.0355C222.258 55.307 221.145 56.2553 219.874 56.1536C218.602 56.0518 217.654 54.9386 217.756 53.6671C217.857 52.3955 218.971 51.4473 220.242 51.549C221.514 51.6507 222.462 52.764 222.36 54.0355Z" fill="#B58BB8"/>
<path d="M73.4907 144.77L76.2857 149.58L79.1067 144.77H80.3807L76.8707 150.633V154H75.7007V150.607L72.2037 144.77H73.4907ZM83.2596 154.13C82.7483 154.13 82.2846 154.039 81.8686 153.857C81.4526 153.666 81.093 153.411 80.7896 153.09C80.4863 152.761 80.2523 152.384 80.0876 151.959C79.923 151.534 79.8406 151.088 79.8406 150.62C79.8406 150.143 79.923 149.693 80.0876 149.268C80.2523 148.843 80.4863 148.471 80.7896 148.15C81.093 147.821 81.4526 147.565 81.8686 147.383C82.2933 147.192 82.7613 147.097 83.2726 147.097C83.7753 147.097 84.2346 147.192 84.6506 147.383C85.0666 147.565 85.4263 147.821 85.7296 148.15C86.0416 148.471 86.28 148.843 86.4446 149.268C86.6093 149.693 86.6916 150.143 86.6916 150.62C86.6916 151.088 86.6093 151.534 86.4446 151.959C86.28 152.384 86.046 152.761 85.7426 153.09C85.4393 153.411 85.0753 153.666 84.6506 153.857C84.2346 154.039 83.771 154.13 83.2596 154.13ZM81.0106 150.633C81.0106 151.101 81.1103 151.526 81.3096 151.907C81.5176 152.288 81.7906 152.592 82.1286 152.817C82.4666 153.034 82.8436 153.142 83.2596 153.142C83.6756 153.142 84.0526 153.029 84.3906 152.804C84.7373 152.579 85.0103 152.275 85.2096 151.894C85.4176 151.504 85.5216 151.075 85.5216 150.607C85.5216 150.139 85.4176 149.714 85.2096 149.333C85.0103 148.952 84.7373 148.648 84.3906 148.423C84.0526 148.198 83.6756 148.085 83.2596 148.085C82.8436 148.085 82.4666 148.202 82.1286 148.436C81.7906 148.661 81.5176 148.965 81.3096 149.346C81.1103 149.727 81.0106 150.156 81.0106 150.633ZM88.0128 151.283V147.214H89.1568V151.062C89.1568 151.755 89.2782 152.275 89.5208 152.622C89.7635 152.969 90.1232 153.142 90.5998 153.142C90.9118 153.142 91.2108 153.077 91.4968 152.947C91.7915 152.808 92.0558 152.613 92.2898 152.362C92.5238 152.111 92.7058 151.812 92.8358 151.465V147.214H93.9798V152.7C93.9798 152.839 94.0058 152.943 94.0578 153.012C94.1185 153.073 94.2138 153.107 94.3438 153.116V154C94.2138 154.017 94.1098 154.026 94.0318 154.026C93.9625 154.035 93.8932 154.039 93.8238 154.039C93.6072 154.039 93.4208 153.974 93.2648 153.844C93.1088 153.705 93.0265 153.536 93.0178 153.337L92.9918 152.544C92.6972 153.047 92.2985 153.437 91.7958 153.714C91.3018 153.991 90.7602 154.13 90.1708 154.13C89.4602 154.13 88.9228 153.892 88.5588 153.415C88.1948 152.93 88.0128 152.219 88.0128 151.283ZM99.4735 148.215C98.9015 148.224 98.3945 148.371 97.9525 148.657C97.5191 148.934 97.2115 149.32 97.0295 149.814V154H95.8855V147.214H96.9515V148.787C97.1855 148.319 97.4931 147.942 97.8745 147.656C98.2645 147.361 98.6718 147.197 99.0965 147.162C99.1831 147.162 99.2568 147.162 99.3175 147.162C99.3781 147.162 99.4301 147.166 99.4735 147.175V148.215ZM107.18 148.215C106.608 148.224 106.101 148.371 105.659 148.657C105.225 148.934 104.918 149.32 104.736 149.814V154H103.592V147.214H104.658V148.787C104.892 148.319 105.199 147.942 105.581 147.656C105.971 147.361 106.378 147.197 106.803 147.162C106.889 147.162 106.963 147.162 107.024 147.162C107.084 147.162 107.136 147.166 107.18 147.175V148.215ZM111.165 154.13C110.653 154.13 110.185 154.039 109.761 153.857C109.345 153.666 108.981 153.411 108.669 153.09C108.365 152.761 108.127 152.384 107.954 151.959C107.789 151.534 107.707 151.084 107.707 150.607C107.707 149.966 107.854 149.381 108.149 148.852C108.443 148.323 108.851 147.899 109.371 147.578C109.899 147.257 110.502 147.097 111.178 147.097C111.862 147.097 112.456 147.262 112.959 147.591C113.47 147.912 113.864 148.336 114.142 148.865C114.428 149.385 114.571 149.948 114.571 150.555C114.571 150.642 114.566 150.728 114.558 150.815C114.558 150.893 114.553 150.954 114.545 150.997H108.916C108.95 151.439 109.072 151.833 109.28 152.18C109.496 152.518 109.774 152.787 110.112 152.986C110.45 153.177 110.814 153.272 111.204 153.272C111.62 153.272 112.01 153.168 112.374 152.96C112.746 152.752 113.002 152.479 113.141 152.141L114.129 152.414C113.981 152.743 113.76 153.038 113.466 153.298C113.18 153.558 112.837 153.762 112.439 153.909C112.049 154.056 111.624 154.13 111.165 154.13ZM108.877 150.204H113.505C113.47 149.762 113.344 149.372 113.128 149.034C112.911 148.696 112.634 148.432 112.296 148.241C111.958 148.05 111.585 147.955 111.178 147.955C110.779 147.955 110.411 148.05 110.073 148.241C109.735 148.432 109.457 148.696 109.241 149.034C109.033 149.372 108.911 149.762 108.877 150.204ZM118.546 154.078C118.087 154.078 117.662 153.987 117.272 153.805C116.891 153.614 116.562 153.359 116.284 153.038C116.007 152.709 115.79 152.336 115.634 151.92C115.487 151.504 115.413 151.071 115.413 150.62C115.413 150.143 115.487 149.693 115.634 149.268C115.79 148.843 116.007 148.471 116.284 148.15C116.57 147.821 116.904 147.565 117.285 147.383C117.667 147.192 118.091 147.097 118.559 147.097C119.123 147.097 119.612 147.236 120.028 147.513C120.453 147.79 120.808 148.141 121.094 148.566V147.214H122.108V153.922C122.108 154.563 121.952 155.105 121.64 155.547C121.337 155.989 120.921 156.323 120.392 156.548C119.872 156.782 119.292 156.899 118.65 156.899C117.888 156.899 117.264 156.765 116.778 156.496C116.293 156.227 115.89 155.863 115.569 155.404L116.232 154.819C116.501 155.218 116.848 155.517 117.272 155.716C117.706 155.915 118.165 156.015 118.65 156.015C119.066 156.015 119.448 155.937 119.794 155.781C120.15 155.634 120.431 155.404 120.639 155.092C120.856 154.78 120.964 154.39 120.964 153.922V152.726C120.713 153.142 120.366 153.471 119.924 153.714C119.491 153.957 119.032 154.078 118.546 154.078ZM118.897 153.142C119.14 153.142 119.374 153.099 119.599 153.012C119.825 152.925 120.033 152.813 120.223 152.674C120.414 152.527 120.574 152.362 120.704 152.18C120.834 151.998 120.921 151.812 120.964 151.621V149.671C120.843 149.359 120.67 149.086 120.444 148.852C120.219 148.609 119.963 148.423 119.677 148.293C119.391 148.154 119.097 148.085 118.793 148.085C118.447 148.085 118.135 148.159 117.857 148.306C117.589 148.453 117.359 148.653 117.168 148.904C116.978 149.147 116.83 149.42 116.726 149.723C116.622 150.026 116.57 150.334 116.57 150.646C116.57 150.984 116.631 151.305 116.752 151.608C116.874 151.903 117.038 152.167 117.246 152.401C117.454 152.635 117.701 152.817 117.987 152.947C118.273 153.077 118.577 153.142 118.897 153.142ZM123.955 154V147.214H125.099V154H123.955ZM123.955 145.94V144.51H125.099V145.94H123.955ZM129.278 154.13C128.715 154.13 128.186 154.039 127.692 153.857C127.198 153.666 126.773 153.385 126.418 153.012L126.86 152.206C127.25 152.57 127.64 152.83 128.03 152.986C128.42 153.142 128.819 153.22 129.226 153.22C129.694 153.22 130.075 153.133 130.37 152.96C130.665 152.778 130.812 152.514 130.812 152.167C130.812 151.916 130.734 151.729 130.578 151.608C130.431 151.487 130.218 151.387 129.941 151.309C129.664 151.222 129.334 151.127 128.953 151.023C128.485 150.884 128.091 150.737 127.77 150.581C127.449 150.425 127.207 150.23 127.042 149.996C126.877 149.762 126.795 149.467 126.795 149.112C126.795 148.679 126.908 148.315 127.133 148.02C127.358 147.717 127.666 147.487 128.056 147.331C128.455 147.175 128.905 147.097 129.408 147.097C129.911 147.097 130.366 147.175 130.773 147.331C131.18 147.487 131.531 147.717 131.826 148.02L131.306 148.813C131.037 148.536 130.743 148.332 130.422 148.202C130.101 148.063 129.742 147.994 129.343 147.994C129.109 147.994 128.879 148.024 128.654 148.085C128.429 148.137 128.242 148.237 128.095 148.384C127.948 148.523 127.874 148.722 127.874 148.982C127.874 149.199 127.93 149.372 128.043 149.502C128.164 149.623 128.338 149.727 128.563 149.814C128.797 149.901 129.079 149.996 129.408 150.1C129.919 150.247 130.361 150.395 130.734 150.542C131.115 150.689 131.41 150.88 131.618 151.114C131.826 151.348 131.93 151.673 131.93 152.089C131.93 152.73 131.687 153.233 131.202 153.597C130.717 153.952 130.075 154.13 129.278 154.13ZM136.809 153.662C136.713 153.705 136.583 153.762 136.419 153.831C136.254 153.9 136.063 153.961 135.847 154.013C135.63 154.065 135.4 154.091 135.158 154.091C134.88 154.091 134.625 154.043 134.391 153.948C134.157 153.844 133.97 153.688 133.832 153.48C133.693 153.263 133.624 152.995 133.624 152.674V148.111H132.701V147.214H133.624V144.952H134.768V147.214H136.289V148.111H134.768V152.323C134.785 152.566 134.867 152.748 135.015 152.869C135.162 152.982 135.335 153.038 135.535 153.038C135.76 153.038 135.968 152.999 136.159 152.921C136.349 152.843 136.475 152.787 136.536 152.752L136.809 153.662ZM140.783 154.13C140.272 154.13 139.804 154.039 139.379 153.857C138.963 153.666 138.599 153.411 138.287 153.09C137.984 152.761 137.745 152.384 137.572 151.959C137.407 151.534 137.325 151.084 137.325 150.607C137.325 149.966 137.472 149.381 137.767 148.852C138.062 148.323 138.469 147.899 138.989 147.578C139.518 147.257 140.12 147.097 140.796 147.097C141.481 147.097 142.074 147.262 142.577 147.591C143.088 147.912 143.483 148.336 143.76 148.865C144.046 149.385 144.189 149.948 144.189 150.555C144.189 150.642 144.185 150.728 144.176 150.815C144.176 150.893 144.172 150.954 144.163 150.997H138.534C138.569 151.439 138.69 151.833 138.898 152.18C139.115 152.518 139.392 152.787 139.73 152.986C140.068 153.177 140.432 153.272 140.822 153.272C141.238 153.272 141.628 153.168 141.992 152.96C142.365 152.752 142.62 152.479 142.759 152.141L143.747 152.414C143.6 152.743 143.379 153.038 143.084 153.298C142.798 153.558 142.456 153.762 142.057 153.909C141.667 154.056 141.242 154.13 140.783 154.13ZM138.495 150.204H143.123C143.088 149.762 142.963 149.372 142.746 149.034C142.529 148.696 142.252 148.432 141.914 148.241C141.576 148.05 141.203 147.955 140.796 147.955C140.397 147.955 140.029 148.05 139.691 148.241C139.353 148.432 139.076 148.696 138.859 149.034C138.651 149.372 138.53 149.762 138.495 150.204ZM149.049 148.215C148.477 148.224 147.97 148.371 147.528 148.657C147.094 148.934 146.787 149.32 146.605 149.814V154H145.461V147.214H146.527V148.787C146.761 148.319 147.068 147.942 147.45 147.656C147.84 147.361 148.247 147.197 148.672 147.162C148.758 147.162 148.832 147.162 148.893 147.162C148.953 147.162 149.005 147.166 149.049 147.175V148.215ZM153.034 154.13C152.523 154.13 152.055 154.039 151.63 153.857C151.214 153.666 150.85 153.411 150.538 153.09C150.235 152.761 149.996 152.384 149.823 151.959C149.658 151.534 149.576 151.084 149.576 150.607C149.576 149.966 149.723 149.381 150.018 148.852C150.313 148.323 150.72 147.899 151.24 147.578C151.769 147.257 152.371 147.097 153.047 147.097C153.732 147.097 154.325 147.262 154.828 147.591C155.339 147.912 155.734 148.336 156.011 148.865C156.297 149.385 156.44 149.948 156.44 150.555C156.44 150.642 156.436 150.728 156.427 150.815C156.427 150.893 156.423 150.954 156.414 150.997H150.785C150.82 151.439 150.941 151.833 151.149 152.18C151.366 152.518 151.643 152.787 151.981 152.986C152.319 153.177 152.683 153.272 153.073 153.272C153.489 153.272 153.879 153.168 154.243 152.96C154.616 152.752 154.871 152.479 155.01 152.141L155.998 152.414C155.851 152.743 155.63 153.038 155.335 153.298C155.049 153.558 154.707 153.762 154.308 153.909C153.918 154.056 153.493 154.13 153.034 154.13ZM150.746 150.204H155.374C155.339 149.762 155.214 149.372 154.997 149.034C154.78 148.696 154.503 148.432 154.165 148.241C153.827 148.05 153.454 147.955 153.047 147.955C152.648 147.955 152.28 148.05 151.942 148.241C151.604 148.432 151.327 148.696 151.11 149.034C150.902 149.372 150.781 149.762 150.746 150.204ZM157.27 150.62C157.27 149.979 157.4 149.394 157.66 148.865C157.928 148.328 158.292 147.899 158.752 147.578C159.22 147.257 159.753 147.097 160.351 147.097C160.897 147.097 161.386 147.24 161.82 147.526C162.253 147.812 162.591 148.159 162.834 148.566V144.51H163.978V152.7C163.978 152.839 164.004 152.943 164.056 153.012C164.116 153.073 164.212 153.107 164.342 153.116V154C164.125 154.035 163.956 154.052 163.835 154.052C163.609 154.052 163.41 153.974 163.237 153.818C163.072 153.662 162.99 153.489 162.99 153.298V152.726C162.721 153.159 162.361 153.502 161.911 153.753C161.46 154.004 160.992 154.13 160.507 154.13C160.039 154.13 159.605 154.039 159.207 153.857C158.817 153.666 158.474 153.406 158.18 153.077C157.894 152.748 157.668 152.375 157.504 151.959C157.348 151.534 157.27 151.088 157.27 150.62ZM162.834 151.621V149.671C162.73 149.376 162.561 149.112 162.327 148.878C162.093 148.635 161.828 148.445 161.534 148.306C161.248 148.159 160.962 148.085 160.676 148.085C160.338 148.085 160.03 148.159 159.753 148.306C159.484 148.445 159.25 148.635 159.051 148.878C158.86 149.112 158.713 149.381 158.609 149.684C158.505 149.987 158.453 150.304 158.453 150.633C158.453 150.971 158.509 151.292 158.622 151.595C158.743 151.898 158.908 152.167 159.116 152.401C159.332 152.635 159.579 152.817 159.857 152.947C160.143 153.077 160.45 153.142 160.78 153.142C160.988 153.142 161.2 153.103 161.417 153.025C161.642 152.947 161.854 152.839 162.054 152.7C162.253 152.561 162.422 152.401 162.561 152.219C162.699 152.028 162.79 151.829 162.834 151.621ZM172.686 153.662C172.59 153.705 172.46 153.762 172.296 153.831C172.131 153.9 171.94 153.961 171.724 154.013C171.507 154.065 171.277 154.091 171.035 154.091C170.757 154.091 170.502 154.043 170.268 153.948C170.034 153.844 169.847 153.688 169.709 153.48C169.57 153.263 169.501 152.995 169.501 152.674V148.111H168.578V147.214H169.501V144.952H170.645V147.214H172.166V148.111H170.645V152.323C170.662 152.566 170.744 152.748 170.892 152.869C171.039 152.982 171.212 153.038 171.412 153.038C171.637 153.038 171.845 152.999 172.036 152.921C172.226 152.843 172.352 152.787 172.413 152.752L172.686 153.662ZM177.334 148.215C176.762 148.224 176.255 148.371 175.813 148.657C175.379 148.934 175.072 149.32 174.89 149.814V154H173.746V147.214H174.812V148.787C175.046 148.319 175.353 147.942 175.735 147.656C176.125 147.361 176.532 147.197 176.957 147.162C177.043 147.162 177.117 147.162 177.178 147.162C177.238 147.162 177.29 147.166 177.334 147.175V148.215ZM177.935 152.037C177.935 151.604 178.057 151.231 178.299 150.919C178.551 150.598 178.893 150.351 179.326 150.178C179.76 150.005 180.262 149.918 180.834 149.918C181.138 149.918 181.458 149.944 181.796 149.996C182.134 150.039 182.433 150.109 182.693 150.204V149.71C182.693 149.19 182.537 148.783 182.225 148.488C181.913 148.185 181.471 148.033 180.899 148.033C180.527 148.033 180.167 148.102 179.82 148.241C179.482 148.371 179.123 148.562 178.741 148.813L178.325 148.007C178.767 147.704 179.209 147.478 179.651 147.331C180.093 147.175 180.553 147.097 181.029 147.097C181.896 147.097 182.581 147.34 183.083 147.825C183.586 148.302 183.837 148.969 183.837 149.827V152.7C183.837 152.839 183.863 152.943 183.915 153.012C183.976 153.073 184.071 153.107 184.201 153.116V154C184.089 154.017 183.989 154.03 183.902 154.039C183.824 154.048 183.759 154.052 183.707 154.052C183.439 154.052 183.235 153.978 183.096 153.831C182.966 153.684 182.893 153.528 182.875 153.363L182.849 152.934C182.555 153.315 182.169 153.61 181.692 153.818C181.216 154.026 180.743 154.13 180.275 154.13C179.825 154.13 179.422 154.039 179.066 153.857C178.711 153.666 178.434 153.415 178.234 153.103C178.035 152.782 177.935 152.427 177.935 152.037ZM182.355 152.518C182.459 152.397 182.542 152.275 182.602 152.154C182.663 152.024 182.693 151.916 182.693 151.829V150.984C182.425 150.88 182.143 150.802 181.848 150.75C181.554 150.689 181.263 150.659 180.977 150.659C180.397 150.659 179.924 150.776 179.56 151.01C179.205 151.235 179.027 151.547 179.027 151.946C179.027 152.163 179.084 152.375 179.196 152.583C179.318 152.782 179.491 152.947 179.716 153.077C179.95 153.207 180.236 153.272 180.574 153.272C180.93 153.272 181.268 153.203 181.588 153.064C181.909 152.917 182.165 152.735 182.355 152.518ZM188.67 154.13C188.158 154.13 187.69 154.039 187.266 153.857C186.85 153.666 186.486 153.406 186.174 153.077C185.87 152.748 185.632 152.371 185.459 151.946C185.294 151.521 185.212 151.071 185.212 150.594C185.212 149.953 185.355 149.368 185.641 148.839C185.927 148.31 186.33 147.89 186.85 147.578C187.37 147.257 187.972 147.097 188.657 147.097C189.324 147.097 189.905 147.249 190.399 147.552C190.901 147.847 191.274 148.245 191.517 148.748L190.399 149.099C190.225 148.778 189.983 148.531 189.671 148.358C189.359 148.176 189.012 148.085 188.631 148.085C188.215 148.085 187.833 148.193 187.487 148.41C187.149 148.627 186.88 148.926 186.681 149.307C186.481 149.68 186.382 150.109 186.382 150.594C186.382 151.071 186.481 151.504 186.681 151.894C186.889 152.275 187.162 152.579 187.5 152.804C187.846 153.029 188.228 153.142 188.644 153.142C188.912 153.142 189.168 153.094 189.411 152.999C189.662 152.904 189.879 152.778 190.061 152.622C190.251 152.457 190.381 152.28 190.451 152.089L191.569 152.427C191.43 152.756 191.218 153.051 190.932 153.311C190.654 153.562 190.321 153.762 189.931 153.909C189.549 154.056 189.129 154.13 188.67 154.13ZM197.649 154L195.296 150.698L194.009 151.907V154H192.865V144.51H194.009V150.711L197.519 147.227H198.754L196.05 150.035L198.884 154H197.649ZM211.295 147.214H212.4L209.514 154H208.513L207.2 150.802L205.9 154H204.899L202.013 147.214H203.105L205.445 152.869L206.537 150.087L205.393 147.227H206.394L207.2 149.385L208.006 147.227H209.007L207.876 150.087L208.968 152.869L211.295 147.214ZM213.469 154V147.214H214.613V154H213.469ZM213.469 145.94V144.51H214.613V145.94H213.469ZM216.492 144.51H217.636V152.245C217.636 152.618 217.688 152.847 217.792 152.934C217.896 153.021 218.021 153.064 218.169 153.064C218.351 153.064 218.524 153.047 218.689 153.012C218.853 152.969 218.992 152.925 219.105 152.882L219.287 153.818C219.096 153.896 218.871 153.961 218.611 154.013C218.351 154.065 218.121 154.091 217.922 154.091C217.48 154.091 217.129 153.965 216.869 153.714C216.617 153.463 216.492 153.112 216.492 152.661V144.51ZM220.211 144.51H221.355V152.245C221.355 152.618 221.407 152.847 221.511 152.934C221.615 153.021 221.741 153.064 221.888 153.064C222.07 153.064 222.244 153.047 222.408 153.012C222.573 152.969 222.712 152.925 222.824 152.882L223.006 153.818C222.816 153.896 222.59 153.961 222.33 154.013C222.07 154.065 221.841 154.091 221.641 154.091C221.199 154.091 220.848 153.965 220.588 153.714C220.337 153.463 220.211 153.112 220.211 152.661V144.51ZM230.284 154.13C229.755 154.13 229.274 154 228.841 153.74C228.407 153.48 228.065 153.142 227.814 152.726V154H226.8V144.51H227.944V148.566C228.23 148.124 228.581 147.769 228.997 147.5C229.413 147.231 229.898 147.097 230.453 147.097C230.921 147.097 231.341 147.197 231.714 147.396C232.086 147.587 232.403 147.851 232.663 148.189C232.931 148.518 233.135 148.895 233.274 149.32C233.421 149.736 233.495 150.174 233.495 150.633C233.495 151.11 233.412 151.56 233.248 151.985C233.092 152.401 232.866 152.774 232.572 153.103C232.277 153.424 231.935 153.675 231.545 153.857C231.163 154.039 230.743 154.13 230.284 154.13ZM229.998 153.142C230.336 153.142 230.648 153.073 230.934 152.934C231.22 152.795 231.467 152.609 231.675 152.375C231.883 152.141 232.043 151.872 232.156 151.569C232.268 151.266 232.325 150.954 232.325 150.633C232.325 150.191 232.229 149.775 232.039 149.385C231.857 148.995 231.597 148.683 231.259 148.449C230.929 148.206 230.544 148.085 230.102 148.085C229.781 148.085 229.482 148.159 229.205 148.306C228.927 148.453 228.68 148.648 228.464 148.891C228.256 149.125 228.082 149.385 227.944 149.671V151.634C227.987 151.851 228.078 152.05 228.217 152.232C228.355 152.414 228.524 152.574 228.724 152.713C228.923 152.843 229.131 152.947 229.348 153.025C229.573 153.103 229.79 153.142 229.998 153.142ZM237.902 154.13C237.391 154.13 236.923 154.039 236.498 153.857C236.082 153.666 235.718 153.411 235.406 153.09C235.103 152.761 234.864 152.384 234.691 151.959C234.526 151.534 234.444 151.084 234.444 150.607C234.444 149.966 234.591 149.381 234.886 148.852C235.181 148.323 235.588 147.899 236.108 147.578C236.637 147.257 237.239 147.097 237.915 147.097C238.6 147.097 239.193 147.262 239.696 147.591C240.207 147.912 240.602 148.336 240.879 148.865C241.165 149.385 241.308 149.948 241.308 150.555C241.308 150.642 241.304 150.728 241.295 150.815C241.295 150.893 241.291 150.954 241.282 150.997H235.653C235.688 151.439 235.809 151.833 236.017 152.18C236.234 152.518 236.511 152.787 236.849 152.986C237.187 153.177 237.551 153.272 237.941 153.272C238.357 153.272 238.747 153.168 239.111 152.96C239.484 152.752 239.739 152.479 239.878 152.141L240.866 152.414C240.719 152.743 240.498 153.038 240.203 153.298C239.917 153.558 239.575 153.762 239.176 153.909C238.786 154.056 238.361 154.13 237.902 154.13ZM235.614 150.204H240.242C240.207 149.762 240.082 149.372 239.865 149.034C239.648 148.696 239.371 148.432 239.033 148.241C238.695 148.05 238.322 147.955 237.915 147.955C237.516 147.955 237.148 148.05 236.81 148.241C236.472 148.432 236.195 148.696 235.978 149.034C235.77 149.372 235.649 149.762 235.614 150.204ZM245.426 150.62C245.426 149.979 245.556 149.394 245.816 148.865C246.085 148.328 246.449 147.899 246.908 147.578C247.376 147.257 247.909 147.097 248.507 147.097C249.053 147.097 249.543 147.24 249.976 147.526C250.409 147.812 250.747 148.159 250.99 148.566V144.51H252.134V152.7C252.134 152.839 252.16 152.943 252.212 153.012C252.273 153.073 252.368 153.107 252.498 153.116V154C252.281 154.035 252.112 154.052 251.991 154.052C251.766 154.052 251.566 153.974 251.393 153.818C251.228 153.662 251.146 153.489 251.146 153.298V152.726C250.877 153.159 250.518 153.502 250.067 153.753C249.616 154.004 249.148 154.13 248.663 154.13C248.195 154.13 247.762 154.039 247.363 153.857C246.973 153.666 246.631 153.406 246.336 153.077C246.05 152.748 245.825 152.375 245.66 151.959C245.504 151.534 245.426 151.088 245.426 150.62ZM250.99 151.621V149.671C250.886 149.376 250.717 149.112 250.483 148.878C250.249 148.635 249.985 148.445 249.69 148.306C249.404 148.159 249.118 148.085 248.832 148.085C248.494 148.085 248.186 148.159 247.909 148.306C247.64 148.445 247.406 148.635 247.207 148.878C247.016 149.112 246.869 149.381 246.765 149.684C246.661 149.987 246.609 150.304 246.609 150.633C246.609 150.971 246.665 151.292 246.778 151.595C246.899 151.898 247.064 152.167 247.272 152.401C247.489 152.635 247.736 152.817 248.013 152.947C248.299 153.077 248.607 153.142 248.936 153.142C249.144 153.142 249.356 153.103 249.573 153.025C249.798 152.947 250.011 152.839 250.21 152.7C250.409 152.561 250.578 152.401 250.717 152.219C250.856 152.028 250.947 151.829 250.99 151.621ZM254.044 154V147.214H255.188V154H254.044ZM254.044 145.94V144.51H255.188V145.94H254.044ZM259.367 154.13C258.803 154.13 258.275 154.039 257.781 153.857C257.287 153.666 256.862 153.385 256.507 153.012L256.949 152.206C257.339 152.57 257.729 152.83 258.119 152.986C258.509 153.142 258.907 153.22 259.315 153.22C259.783 153.22 260.164 153.133 260.459 152.96C260.753 152.778 260.901 152.514 260.901 152.167C260.901 151.916 260.823 151.729 260.667 151.608C260.519 151.487 260.307 151.387 260.03 151.309C259.752 151.222 259.423 151.127 259.042 151.023C258.574 150.884 258.179 150.737 257.859 150.581C257.538 150.425 257.295 150.23 257.131 149.996C256.966 149.762 256.884 149.467 256.884 149.112C256.884 148.679 256.996 148.315 257.222 148.02C257.447 147.717 257.755 147.487 258.145 147.331C258.543 147.175 258.994 147.097 259.497 147.097C259.999 147.097 260.454 147.175 260.862 147.331C261.269 147.487 261.62 147.717 261.915 148.02L261.395 148.813C261.126 148.536 260.831 148.332 260.511 148.202C260.19 148.063 259.83 147.994 259.432 147.994C259.198 147.994 258.968 148.024 258.743 148.085C258.517 148.137 258.331 148.237 258.184 148.384C258.036 148.523 257.963 148.722 257.963 148.982C257.963 149.199 258.019 149.372 258.132 149.502C258.253 149.623 258.426 149.727 258.652 149.814C258.886 149.901 259.167 149.996 259.497 150.1C260.008 150.247 260.45 150.395 260.823 150.542C261.204 150.689 261.499 150.88 261.707 151.114C261.915 151.348 262.019 151.673 262.019 152.089C262.019 152.73 261.776 153.233 261.291 153.597C260.805 153.952 260.164 154.13 259.367 154.13ZM267.04 154.13C266.486 154.13 265.992 153.991 265.558 153.714C265.125 153.437 264.783 153.086 264.531 152.661V156.769H263.387V147.214H264.401V148.488C264.67 148.072 265.021 147.738 265.454 147.487C265.888 147.227 266.36 147.097 266.871 147.097C267.339 147.097 267.768 147.192 268.158 147.383C268.548 147.574 268.886 147.834 269.172 148.163C269.458 148.492 269.679 148.869 269.835 149.294C270 149.71 270.082 150.148 270.082 150.607C270.082 151.248 269.952 151.838 269.692 152.375C269.441 152.912 269.086 153.341 268.626 153.662C268.167 153.974 267.638 154.13 267.04 154.13ZM266.689 153.142C267.027 153.142 267.331 153.073 267.599 152.934C267.877 152.787 268.111 152.596 268.301 152.362C268.501 152.119 268.652 151.846 268.756 151.543C268.86 151.24 268.912 150.928 268.912 150.607C268.912 150.269 268.852 149.948 268.73 149.645C268.618 149.342 268.453 149.073 268.236 148.839C268.028 148.605 267.781 148.423 267.495 148.293C267.218 148.154 266.915 148.085 266.585 148.085C266.377 148.085 266.161 148.124 265.935 148.202C265.719 148.28 265.511 148.393 265.311 148.54C265.112 148.679 264.943 148.839 264.804 149.021C264.666 149.203 264.575 149.398 264.531 149.606V151.543C264.661 151.838 264.835 152.106 265.051 152.349C265.268 152.592 265.519 152.787 265.805 152.934C266.091 153.073 266.386 153.142 266.689 153.142ZM271.513 144.51H272.657V152.245C272.657 152.618 272.709 152.847 272.813 152.934C272.917 153.021 273.043 153.064 273.19 153.064C273.372 153.064 273.545 153.047 273.71 153.012C273.875 152.969 274.013 152.925 274.126 152.882L274.308 153.818C274.117 153.896 273.892 153.961 273.632 154.013C273.372 154.065 273.142 154.091 272.943 154.091C272.501 154.091 272.15 153.965 271.89 153.714C271.639 153.463 271.513 153.112 271.513 152.661V144.51ZM274.674 152.037C274.674 151.604 274.795 151.231 275.038 150.919C275.289 150.598 275.631 150.351 276.065 150.178C276.498 150.005 277.001 149.918 277.573 149.918C277.876 149.918 278.197 149.944 278.535 149.996C278.873 150.039 279.172 150.109 279.432 150.204V149.71C279.432 149.19 279.276 148.783 278.964 148.488C278.652 148.185 278.21 148.033 277.638 148.033C277.265 148.033 276.905 148.102 276.559 148.241C276.221 148.371 275.861 148.562 275.48 148.813L275.064 148.007C275.506 147.704 275.948 147.478 276.39 147.331C276.832 147.175 277.291 147.097 277.768 147.097C278.634 147.097 279.319 147.34 279.822 147.825C280.324 148.302 280.576 148.969 280.576 149.827V152.7C280.576 152.839 280.602 152.943 280.654 153.012C280.714 153.073 280.81 153.107 280.94 153.116V154C280.827 154.017 280.727 154.03 280.641 154.039C280.563 154.048 280.498 154.052 280.446 154.052C280.177 154.052 279.973 153.978 279.835 153.831C279.705 153.684 279.631 153.528 279.614 153.363L279.588 152.934C279.293 153.315 278.907 153.61 278.431 153.818C277.954 154.026 277.482 154.13 277.014 154.13C276.563 154.13 276.16 154.039 275.805 153.857C275.449 153.666 275.172 153.415 274.973 153.103C274.773 152.782 274.674 152.427 274.674 152.037ZM279.094 152.518C279.198 152.397 279.28 152.275 279.341 152.154C279.401 152.024 279.432 151.916 279.432 151.829V150.984C279.163 150.88 278.881 150.802 278.587 150.75C278.292 150.689 278.002 150.659 277.716 150.659C277.135 150.659 276.663 150.776 276.299 151.01C275.943 151.235 275.766 151.547 275.766 151.946C275.766 152.163 275.822 152.375 275.935 152.583C276.056 152.782 276.229 152.947 276.455 153.077C276.689 153.207 276.975 153.272 277.313 153.272C277.668 153.272 278.006 153.203 278.327 153.064C278.647 152.917 278.903 152.735 279.094 152.518ZM282.501 155.846C282.614 155.855 282.727 155.863 282.839 155.872C282.952 155.889 283.039 155.898 283.099 155.898C283.238 155.898 283.359 155.85 283.463 155.755C283.567 155.66 283.68 155.473 283.801 155.196C283.931 154.927 284.096 154.529 284.295 154L281.422 147.214H282.631L284.919 152.843L286.986 147.214H288.117L284.815 155.781C284.737 155.98 284.62 156.167 284.464 156.34C284.317 156.522 284.126 156.665 283.892 156.769C283.658 156.873 283.377 156.925 283.047 156.925C282.969 156.925 282.887 156.921 282.8 156.912C282.722 156.903 282.623 156.886 282.501 156.86V155.846ZM292.035 154.13C291.524 154.13 291.056 154.039 290.631 153.857C290.215 153.666 289.851 153.411 289.539 153.09C289.236 152.761 288.997 152.384 288.824 151.959C288.659 151.534 288.577 151.084 288.577 150.607C288.577 149.966 288.724 149.381 289.019 148.852C289.314 148.323 289.721 147.899 290.241 147.578C290.77 147.257 291.372 147.097 292.048 147.097C292.733 147.097 293.326 147.262 293.829 147.591C294.34 147.912 294.735 148.336 295.012 148.865C295.298 149.385 295.441 149.948 295.441 150.555C295.441 150.642 295.437 150.728 295.428 150.815C295.428 150.893 295.424 150.954 295.415 150.997H289.786C289.821 151.439 289.942 151.833 290.15 152.18C290.367 152.518 290.644 152.787 290.982 152.986C291.32 153.177 291.684 153.272 292.074 153.272C292.49 153.272 292.88 153.168 293.244 152.96C293.617 152.752 293.872 152.479 294.011 152.141L294.999 152.414C294.852 152.743 294.631 153.038 294.336 153.298C294.05 153.558 293.708 153.762 293.309 153.909C292.919 154.056 292.494 154.13 292.035 154.13ZM289.747 150.204H294.375C294.34 149.762 294.215 149.372 293.998 149.034C293.781 148.696 293.504 148.432 293.166 148.241C292.828 148.05 292.455 147.955 292.048 147.955C291.649 147.955 291.281 148.05 290.943 148.241C290.605 148.432 290.328 148.696 290.111 149.034C289.903 149.372 289.782 149.762 289.747 150.204ZM296.271 150.62C296.271 149.979 296.401 149.394 296.661 148.865C296.929 148.328 297.293 147.899 297.753 147.578C298.221 147.257 298.754 147.097 299.352 147.097C299.898 147.097 300.387 147.24 300.821 147.526C301.254 147.812 301.592 148.159 301.835 148.566V144.51H302.979V152.7C302.979 152.839 303.005 152.943 303.057 153.012C303.117 153.073 303.213 153.107 303.343 153.116V154C303.126 154.035 302.957 154.052 302.836 154.052C302.61 154.052 302.411 153.974 302.238 153.818C302.073 153.662 301.991 153.489 301.991 153.298V152.726C301.722 153.159 301.362 153.502 300.912 153.753C300.461 154.004 299.993 154.13 299.508 154.13C299.04 154.13 298.606 154.039 298.208 153.857C297.818 153.666 297.475 153.406 297.181 153.077C296.895 152.748 296.669 152.375 296.505 151.959C296.349 151.534 296.271 151.088 296.271 150.62ZM301.835 151.621V149.671C301.731 149.376 301.562 149.112 301.328 148.878C301.094 148.635 300.829 148.445 300.535 148.306C300.249 148.159 299.963 148.085 299.677 148.085C299.339 148.085 299.031 148.159 298.754 148.306C298.485 148.445 298.251 148.635 298.052 148.878C297.861 149.112 297.714 149.381 297.61 149.684C297.506 149.987 297.454 150.304 297.454 150.633C297.454 150.971 297.51 151.292 297.623 151.595C297.744 151.898 297.909 152.167 298.117 152.401C298.333 152.635 298.58 152.817 298.858 152.947C299.144 153.077 299.451 153.142 299.781 153.142C299.989 153.142 300.201 153.103 300.418 153.025C300.643 152.947 300.855 152.839 301.055 152.7C301.254 152.561 301.423 152.401 301.562 152.219C301.7 152.028 301.791 151.829 301.835 151.621ZM74.1749 172H73.0309V168.204C73.0309 167.511 72.9052 166.991 72.6539 166.644C72.4112 166.297 72.0602 166.124 71.6009 166.124C71.3062 166.124 71.0072 166.202 70.7039 166.358C70.4092 166.514 70.1492 166.726 69.9239 166.995C69.6985 167.255 69.5339 167.558 69.4299 167.905V172H68.2859V162.51H69.4299V166.67C69.6985 166.185 70.0625 165.803 70.5219 165.526C70.9899 165.24 71.4925 165.097 72.0299 165.097C72.4372 165.097 72.7752 165.171 73.0439 165.318C73.3212 165.457 73.5422 165.656 73.7069 165.916C73.8715 166.176 73.9885 166.479 74.0579 166.826C74.1359 167.164 74.1749 167.537 74.1749 167.944V172ZM78.9568 172.13C78.4455 172.13 77.9775 172.039 77.5528 171.857C77.1368 171.666 76.7728 171.411 76.4608 171.09C76.1575 170.761 75.9192 170.384 75.7458 169.959C75.5812 169.534 75.4988 169.084 75.4988 168.607C75.4988 167.966 75.6462 167.381 75.9408 166.852C76.2355 166.323 76.6428 165.899 77.1628 165.578C77.6915 165.257 78.2938 165.097 78.9698 165.097C79.6545 165.097 80.2482 165.262 80.7508 165.591C81.2622 165.912 81.6565 166.336 81.9338 166.865C82.2198 167.385 82.3628 167.948 82.3628 168.555C82.3628 168.642 82.3585 168.728 82.3498 168.815C82.3498 168.893 82.3455 168.954 82.3368 168.997H76.7078C76.7425 169.439 76.8638 169.833 77.0718 170.18C77.2885 170.518 77.5658 170.787 77.9038 170.986C78.2418 171.177 78.6058 171.272 78.9958 171.272C79.4118 171.272 79.8018 171.168 80.1658 170.96C80.5385 170.752 80.7942 170.479 80.9328 170.141L81.9208 170.414C81.7735 170.743 81.5525 171.038 81.2578 171.298C80.9718 171.558 80.6295 171.762 80.2308 171.909C79.8408 172.056 79.4162 172.13 78.9568 172.13ZM76.6688 168.204H81.2968C81.2622 167.762 81.1365 167.372 80.9198 167.034C80.7032 166.696 80.4258 166.432 80.0878 166.241C79.7498 166.05 79.3772 165.955 78.9698 165.955C78.5712 165.955 78.2028 166.05 77.8648 166.241C77.5268 166.432 77.2495 166.696 77.0328 167.034C76.8248 167.372 76.7035 167.762 76.6688 168.204ZM87.2225 166.215C86.6505 166.224 86.1435 166.371 85.7015 166.657C85.2682 166.934 84.9605 167.32 84.7785 167.814V172H83.6345V165.214H84.7005V166.787C84.9345 166.319 85.2422 165.942 85.6235 165.656C86.0135 165.361 86.4208 165.197 86.8455 165.162C86.9322 165.162 87.0058 165.162 87.0665 165.162C87.1272 165.162 87.1792 165.166 87.2225 165.175V166.215ZM91.2078 172.13C90.6965 172.13 90.2285 172.039 89.8038 171.857C89.3878 171.666 89.0238 171.411 88.7118 171.09C88.4085 170.761 88.1701 170.384 87.9968 169.959C87.8321 169.534 87.7498 169.084 87.7498 168.607C87.7498 167.966 87.8971 167.381 88.1918 166.852C88.4865 166.323 88.8938 165.899 89.4138 165.578C89.9425 165.257 90.5448 165.097 91.2208 165.097C91.9055 165.097 92.4991 165.262 93.0018 165.591C93.5131 165.912 93.9075 166.336 94.1848 166.865C94.4708 167.385 94.6138 167.948 94.6138 168.555C94.6138 168.642 94.6095 168.728 94.6008 168.815C94.6008 168.893 94.5965 168.954 94.5878 168.997H88.9588C88.9935 169.439 89.1148 169.833 89.3228 170.18C89.5395 170.518 89.8168 170.787 90.1548 170.986C90.4928 171.177 90.8568 171.272 91.2468 171.272C91.6628 171.272 92.0528 171.168 92.4168 170.96C92.7895 170.752 93.0451 170.479 93.1838 170.141L94.1718 170.414C94.0245 170.743 93.8035 171.038 93.5088 171.298C93.2228 171.558 92.8805 171.762 92.4818 171.909C92.0918 172.056 91.6671 172.13 91.2078 172.13ZM88.9198 168.204H93.5478C93.5131 167.762 93.3875 167.372 93.1708 167.034C92.9541 166.696 92.6768 166.432 92.3388 166.241C92.0008 166.05 91.6281 165.955 91.2208 165.955C90.8221 165.955 90.4538 166.05 90.1158 166.241C89.7778 166.432 89.5005 166.696 89.2838 167.034C89.0758 167.372 88.9545 167.762 88.9198 168.204ZM102.138 172.13C101.626 172.13 101.163 172.039 100.747 171.857C100.331 171.666 99.9709 171.411 99.6675 171.09C99.3642 170.761 99.1302 170.384 98.9655 169.959C98.8009 169.534 98.7185 169.088 98.7185 168.62C98.7185 168.143 98.8009 167.693 98.9655 167.268C99.1302 166.843 99.3642 166.471 99.6675 166.15C99.9709 165.821 100.331 165.565 100.747 165.383C101.171 165.192 101.639 165.097 102.151 165.097C102.653 165.097 103.113 165.192 103.529 165.383C103.945 165.565 104.304 165.821 104.608 166.15C104.92 166.471 105.158 166.843 105.323 167.268C105.487 167.693 105.57 168.143 105.57 168.62C105.57 169.088 105.487 169.534 105.323 169.959C105.158 170.384 104.924 170.761 104.621 171.09C104.317 171.411 103.953 171.666 103.529 171.857C103.113 172.039 102.649 172.13 102.138 172.13ZM99.8885 168.633C99.8885 169.101 99.9882 169.526 100.188 169.907C100.396 170.288 100.669 170.592 101.007 170.817C101.345 171.034 101.722 171.142 102.138 171.142C102.554 171.142 102.931 171.029 103.269 170.804C103.615 170.579 103.888 170.275 104.088 169.894C104.296 169.504 104.4 169.075 104.4 168.607C104.4 168.139 104.296 167.714 104.088 167.333C103.888 166.952 103.615 166.648 103.269 166.423C102.931 166.198 102.554 166.085 102.138 166.085C101.722 166.085 101.345 166.202 101.007 166.436C100.669 166.661 100.396 166.965 100.188 167.346C99.9882 167.727 99.8885 168.156 99.8885 168.633ZM112.845 172H111.701V168.204C111.701 167.485 111.588 166.96 111.363 166.631C111.146 166.293 110.812 166.124 110.362 166.124C110.05 166.124 109.738 166.202 109.426 166.358C109.122 166.514 108.849 166.726 108.607 166.995C108.373 167.255 108.204 167.558 108.1 167.905V172H106.956V165.214H107.996V166.67C108.178 166.349 108.412 166.072 108.698 165.838C108.984 165.604 109.309 165.422 109.673 165.292C110.037 165.162 110.418 165.097 110.817 165.097C111.207 165.097 111.532 165.171 111.792 165.318C112.06 165.457 112.268 165.656 112.416 165.916C112.572 166.167 112.68 166.466 112.741 166.813C112.81 167.16 112.845 167.537 112.845 167.944V172ZM117.627 172.13C117.115 172.13 116.647 172.039 116.223 171.857C115.807 171.666 115.443 171.406 115.131 171.077C114.827 170.748 114.589 170.371 114.416 169.946C114.251 169.521 114.169 169.071 114.169 168.594C114.169 167.953 114.312 167.368 114.598 166.839C114.884 166.31 115.287 165.89 115.807 165.578C116.327 165.257 116.929 165.097 117.614 165.097C118.281 165.097 118.862 165.249 119.356 165.552C119.858 165.847 120.231 166.245 120.474 166.748L119.356 167.099C119.182 166.778 118.94 166.531 118.628 166.358C118.316 166.176 117.969 166.085 117.588 166.085C117.172 166.085 116.79 166.193 116.444 166.41C116.106 166.627 115.837 166.926 115.638 167.307C115.438 167.68 115.339 168.109 115.339 168.594C115.339 169.071 115.438 169.504 115.638 169.894C115.846 170.275 116.119 170.579 116.457 170.804C116.803 171.029 117.185 171.142 117.601 171.142C117.869 171.142 118.125 171.094 118.368 170.999C118.619 170.904 118.836 170.778 119.018 170.622C119.208 170.457 119.338 170.28 119.408 170.089L120.526 170.427C120.387 170.756 120.175 171.051 119.889 171.311C119.611 171.562 119.278 171.762 118.888 171.909C118.506 172.056 118.086 172.13 117.627 172.13ZM124.762 172.13C124.25 172.13 123.782 172.039 123.358 171.857C122.942 171.666 122.578 171.411 122.266 171.09C121.962 170.761 121.724 170.384 121.551 169.959C121.386 169.534 121.304 169.084 121.304 168.607C121.304 167.966 121.451 167.381 121.746 166.852C122.04 166.323 122.448 165.899 122.968 165.578C123.496 165.257 124.099 165.097 124.775 165.097C125.459 165.097 126.053 165.262 126.556 165.591C127.067 165.912 127.461 166.336 127.739 166.865C128.025 167.385 128.168 167.948 128.168 168.555C128.168 168.642 128.163 168.728 128.155 168.815C128.155 168.893 128.15 168.954 128.142 168.997H122.513C122.547 169.439 122.669 169.833 122.877 170.18C123.093 170.518 123.371 170.787 123.709 170.986C124.047 171.177 124.411 171.272 124.801 171.272C125.217 171.272 125.607 171.168 125.971 170.96C126.343 170.752 126.599 170.479 126.738 170.141L127.726 170.414C127.578 170.743 127.357 171.038 127.063 171.298C126.777 171.558 126.434 171.762 126.036 171.909C125.646 172.056 125.221 172.13 124.762 172.13ZM122.474 168.204H127.102C127.067 167.762 126.941 167.372 126.725 167.034C126.508 166.696 126.231 166.432 125.893 166.241C125.555 166.05 125.182 165.955 124.775 165.955C124.376 165.955 124.008 166.05 123.67 166.241C123.332 166.432 123.054 166.696 122.838 167.034C122.63 167.372 122.508 167.762 122.474 168.204ZM132.727 172V165.214H133.871V172H132.727ZM132.727 163.94V162.51H133.871V163.94H132.727ZM139.233 171.662C139.138 171.705 139.008 171.762 138.843 171.831C138.679 171.9 138.488 171.961 138.271 172.013C138.055 172.065 137.825 172.091 137.582 172.091C137.305 172.091 137.049 172.043 136.815 171.948C136.581 171.844 136.395 171.688 136.256 171.48C136.118 171.263 136.048 170.995 136.048 170.674V166.111H135.125V165.214H136.048V162.952H137.192V165.214H138.713V166.111H137.192V170.323C137.21 170.566 137.292 170.748 137.439 170.869C137.587 170.982 137.76 171.038 137.959 171.038C138.185 171.038 138.393 170.999 138.583 170.921C138.774 170.843 138.9 170.787 138.96 170.752L139.233 171.662ZM140.242 165.487V162.666H141.23V165.487H140.242ZM145.249 172.13C144.685 172.13 144.157 172.039 143.663 171.857C143.169 171.666 142.744 171.385 142.389 171.012L142.831 170.206C143.221 170.57 143.611 170.83 144.001 170.986C144.391 171.142 144.789 171.22 145.197 171.22C145.665 171.22 146.046 171.133 146.341 170.96C146.635 170.778 146.783 170.514 146.783 170.167C146.783 169.916 146.705 169.729 146.549 169.608C146.401 169.487 146.189 169.387 145.912 169.309C145.634 169.222 145.305 169.127 144.924 169.023C144.456 168.884 144.061 168.737 143.741 168.581C143.42 168.425 143.177 168.23 143.013 167.996C142.848 167.762 142.766 167.467 142.766 167.112C142.766 166.679 142.878 166.315 143.104 166.02C143.329 165.717 143.637 165.487 144.027 165.331C144.425 165.175 144.876 165.097 145.379 165.097C145.881 165.097 146.336 165.175 146.744 165.331C147.151 165.487 147.502 165.717 147.797 166.02L147.277 166.813C147.008 166.536 146.713 166.332 146.393 166.202C146.072 166.063 145.712 165.994 145.314 165.994C145.08 165.994 144.85 166.024 144.625 166.085C144.399 166.137 144.213 166.237 144.066 166.384C143.918 166.523 143.845 166.722 143.845 166.982C143.845 167.199 143.901 167.372 144.014 167.502C144.135 167.623 144.308 167.727 144.534 167.814C144.768 167.901 145.049 167.996 145.379 168.1C145.89 168.247 146.332 168.395 146.705 168.542C147.086 168.689 147.381 168.88 147.589 169.114C147.797 169.348 147.901 169.673 147.901 170.089C147.901 170.73 147.658 171.233 147.173 171.597C146.687 171.952 146.046 172.13 145.249 172.13ZM152.492 169.283V165.214H153.636V169.062C153.636 169.755 153.758 170.275 154 170.622C154.243 170.969 154.603 171.142 155.079 171.142C155.391 171.142 155.69 171.077 155.976 170.947C156.271 170.808 156.535 170.613 156.769 170.362C157.003 170.111 157.185 169.812 157.315 169.465V165.214H158.459V170.7C158.459 170.839 158.485 170.943 158.537 171.012C158.598 171.073 158.693 171.107 158.823 171.116V172C158.693 172.017 158.589 172.026 158.511 172.026C158.442 172.035 158.373 172.039 158.303 172.039C158.087 172.039 157.9 171.974 157.744 171.844C157.588 171.705 157.506 171.536 157.497 171.337L157.471 170.544C157.177 171.047 156.778 171.437 156.275 171.714C155.781 171.991 155.24 172.13 154.65 172.13C153.94 172.13 153.402 171.892 153.038 171.415C152.674 170.93 152.492 170.219 152.492 169.283ZM164.018 172.13C163.463 172.13 162.969 171.991 162.536 171.714C162.103 171.437 161.76 171.086 161.509 170.661V174.769H160.365V165.214H161.379V166.488C161.648 166.072 161.999 165.738 162.432 165.487C162.865 165.227 163.338 165.097 163.849 165.097C164.317 165.097 164.746 165.192 165.136 165.383C165.526 165.574 165.864 165.834 166.15 166.163C166.436 166.492 166.657 166.869 166.813 167.294C166.978 167.71 167.06 168.148 167.06 168.607C167.06 169.248 166.93 169.838 166.67 170.375C166.419 170.912 166.063 171.341 165.604 171.662C165.145 171.974 164.616 172.13 164.018 172.13ZM163.667 171.142C164.005 171.142 164.308 171.073 164.577 170.934C164.854 170.787 165.088 170.596 165.279 170.362C165.478 170.119 165.63 169.846 165.734 169.543C165.838 169.24 165.89 168.928 165.89 168.607C165.89 168.269 165.829 167.948 165.708 167.645C165.595 167.342 165.431 167.073 165.214 166.839C165.006 166.605 164.759 166.423 164.473 166.293C164.196 166.154 163.892 166.085 163.563 166.085C163.355 166.085 163.138 166.124 162.913 166.202C162.696 166.28 162.488 166.393 162.289 166.54C162.09 166.679 161.921 166.839 161.782 167.021C161.643 167.203 161.552 167.398 161.509 167.606V169.543C161.639 169.838 161.812 170.106 162.029 170.349C162.246 170.592 162.497 170.787 162.783 170.934C163.069 171.073 163.364 171.142 163.667 171.142ZM168.491 162.51H169.635V170.245C169.635 170.618 169.687 170.847 169.791 170.934C169.895 171.021 170.02 171.064 170.168 171.064C170.35 171.064 170.523 171.047 170.688 171.012C170.852 170.969 170.991 170.925 171.104 170.882L171.286 171.818C171.095 171.896 170.87 171.961 170.61 172.013C170.35 172.065 170.12 172.091 169.921 172.091C169.479 172.091 169.128 171.965 168.868 171.714C168.616 171.463 168.491 171.112 168.491 170.661V162.51ZM175.148 172.13C174.637 172.13 174.173 172.039 173.757 171.857C173.341 171.666 172.982 171.411 172.678 171.09C172.375 170.761 172.141 170.384 171.976 169.959C171.812 169.534 171.729 169.088 171.729 168.62C171.729 168.143 171.812 167.693 171.976 167.268C172.141 166.843 172.375 166.471 172.678 166.15C172.982 165.821 173.341 165.565 173.757 165.383C174.182 165.192 174.65 165.097 175.161 165.097C175.664 165.097 176.123 165.192 176.539 165.383C176.955 165.565 177.315 165.821 177.618 166.15C177.93 166.471 178.169 166.843 178.333 167.268C178.498 167.693 178.58 168.143 178.58 168.62C178.58 169.088 178.498 169.534 178.333 169.959C178.169 170.384 177.935 170.761 177.631 171.09C177.328 171.411 176.964 171.666 176.539 171.857C176.123 172.039 175.66 172.13 175.148 172.13ZM172.899 168.633C172.899 169.101 172.999 169.526 173.198 169.907C173.406 170.288 173.679 170.592 174.017 170.817C174.355 171.034 174.732 171.142 175.148 171.142C175.564 171.142 175.941 171.029 176.279 170.804C176.626 170.579 176.899 170.275 177.098 169.894C177.306 169.504 177.41 169.075 177.41 168.607C177.41 168.139 177.306 167.714 177.098 167.333C176.899 166.952 176.626 166.648 176.279 166.423C175.941 166.198 175.564 166.085 175.148 166.085C174.732 166.085 174.355 166.202 174.017 166.436C173.679 166.661 173.406 166.965 173.198 167.346C172.999 167.727 172.899 168.156 172.899 168.633ZM179.434 170.037C179.434 169.604 179.555 169.231 179.798 168.919C180.049 168.598 180.391 168.351 180.825 168.178C181.258 168.005 181.761 167.918 182.333 167.918C182.636 167.918 182.957 167.944 183.295 167.996C183.633 168.039 183.932 168.109 184.192 168.204V167.71C184.192 167.19 184.036 166.783 183.724 166.488C183.412 166.185 182.97 166.033 182.398 166.033C182.025 166.033 181.665 166.102 181.319 166.241C180.981 166.371 180.621 166.562 180.24 166.813L179.824 166.007C180.266 165.704 180.708 165.478 181.15 165.331C181.592 165.175 182.051 165.097 182.528 165.097C183.394 165.097 184.079 165.34 184.582 165.825C185.084 166.302 185.336 166.969 185.336 167.827V170.7C185.336 170.839 185.362 170.943 185.414 171.012C185.474 171.073 185.57 171.107 185.7 171.116V172C185.587 172.017 185.487 172.03 185.401 172.039C185.323 172.048 185.258 172.052 185.206 172.052C184.937 172.052 184.733 171.978 184.595 171.831C184.465 171.684 184.391 171.528 184.374 171.363L184.348 170.934C184.053 171.315 183.667 171.61 183.191 171.818C182.714 172.026 182.242 172.13 181.774 172.13C181.323 172.13 180.92 172.039 180.565 171.857C180.209 171.666 179.932 171.415 179.733 171.103C179.533 170.782 179.434 170.427 179.434 170.037ZM183.854 170.518C183.958 170.397 184.04 170.275 184.101 170.154C184.161 170.024 184.192 169.916 184.192 169.829V168.984C183.923 168.88 183.641 168.802 183.347 168.75C183.052 168.689 182.762 168.659 182.476 168.659C181.895 168.659 181.423 168.776 181.059 169.01C180.703 169.235 180.526 169.547 180.526 169.946C180.526 170.163 180.582 170.375 180.695 170.583C180.816 170.782 180.989 170.947 181.215 171.077C181.449 171.207 181.735 171.272 182.073 171.272C182.428 171.272 182.766 171.203 183.087 171.064C183.407 170.917 183.663 170.735 183.854 170.518ZM186.723 168.62C186.723 167.979 186.853 167.394 187.113 166.865C187.381 166.328 187.745 165.899 188.205 165.578C188.673 165.257 189.206 165.097 189.804 165.097C190.35 165.097 190.839 165.24 191.273 165.526C191.706 165.812 192.044 166.159 192.287 166.566V162.51H193.431V170.7C193.431 170.839 193.457 170.943 193.509 171.012C193.569 171.073 193.665 171.107 193.795 171.116V172C193.578 172.035 193.409 172.052 193.288 172.052C193.062 172.052 192.863 171.974 192.69 171.818C192.525 171.662 192.443 171.489 192.443 171.298V170.726C192.174 171.159 191.814 171.502 191.364 171.753C190.913 172.004 190.445 172.13 189.96 172.13C189.492 172.13 189.058 172.039 188.66 171.857C188.27 171.666 187.927 171.406 187.633 171.077C187.347 170.748 187.121 170.375 186.957 169.959C186.801 169.534 186.723 169.088 186.723 168.62ZM192.287 169.621V167.671C192.183 167.376 192.014 167.112 191.78 166.878C191.546 166.635 191.281 166.445 190.987 166.306C190.701 166.159 190.415 166.085 190.129 166.085C189.791 166.085 189.483 166.159 189.206 166.306C188.937 166.445 188.703 166.635 188.504 166.878C188.313 167.112 188.166 167.381 188.062 167.684C187.958 167.987 187.906 168.304 187.906 168.633C187.906 168.971 187.962 169.292 188.075 169.595C188.196 169.898 188.361 170.167 188.569 170.401C188.785 170.635 189.032 170.817 189.31 170.947C189.596 171.077 189.903 171.142 190.233 171.142C190.441 171.142 190.653 171.103 190.87 171.025C191.095 170.947 191.307 170.839 191.507 170.7C191.706 170.561 191.875 170.401 192.014 170.219C192.152 170.028 192.243 169.829 192.287 169.621ZM198.344 172.13C197.832 172.13 197.364 172.039 196.94 171.857C196.524 171.666 196.16 171.411 195.848 171.09C195.544 170.761 195.306 170.384 195.133 169.959C194.968 169.534 194.886 169.084 194.886 168.607C194.886 167.966 195.033 167.381 195.328 166.852C195.622 166.323 196.03 165.899 196.55 165.578C197.078 165.257 197.681 165.097 198.357 165.097C199.041 165.097 199.635 165.262 200.138 165.591C200.649 165.912 201.043 166.336 201.321 166.865C201.607 167.385 201.75 167.948 201.75 168.555C201.75 168.642 201.745 168.728 201.737 168.815C201.737 168.893 201.732 168.954 201.724 168.997H196.095C196.129 169.439 196.251 169.833 196.459 170.18C196.675 170.518 196.953 170.787 197.291 170.986C197.629 171.177 197.993 171.272 198.383 171.272C198.799 171.272 199.189 171.168 199.553 170.96C199.925 170.752 200.181 170.479 200.32 170.141L201.308 170.414C201.16 170.743 200.939 171.038 200.645 171.298C200.359 171.558 200.016 171.762 199.618 171.909C199.228 172.056 198.803 172.13 198.344 172.13ZM196.056 168.204H200.684C200.649 167.762 200.523 167.372 200.307 167.034C200.09 166.696 199.813 166.432 199.475 166.241C199.137 166.05 198.764 165.955 198.357 165.955C197.958 165.955 197.59 166.05 197.252 166.241C196.914 166.432 196.636 166.696 196.42 167.034C196.212 167.372 196.09 167.762 196.056 168.204ZM202.579 168.62C202.579 167.979 202.709 167.394 202.969 166.865C203.238 166.328 203.602 165.899 204.061 165.578C204.529 165.257 205.062 165.097 205.66 165.097C206.206 165.097 206.696 165.24 207.129 165.526C207.563 165.812 207.901 166.159 208.143 166.566V162.51H209.287V170.7C209.287 170.839 209.313 170.943 209.365 171.012C209.426 171.073 209.521 171.107 209.651 171.116V172C209.435 172.035 209.266 172.052 209.144 172.052C208.919 172.052 208.72 171.974 208.546 171.818C208.382 171.662 208.299 171.489 208.299 171.298V170.726C208.031 171.159 207.671 171.502 207.22 171.753C206.77 172.004 206.302 172.13 205.816 172.13C205.348 172.13 204.915 172.039 204.516 171.857C204.126 171.666 203.784 171.406 203.489 171.077C203.203 170.748 202.978 170.375 202.813 169.959C202.657 169.534 202.579 169.088 202.579 168.62ZM208.143 169.621V167.671C208.039 167.376 207.87 167.112 207.636 166.878C207.402 166.635 207.138 166.445 206.843 166.306C206.557 166.159 206.271 166.085 205.985 166.085C205.647 166.085 205.34 166.159 205.062 166.306C204.794 166.445 204.56 166.635 204.36 166.878C204.17 167.112 204.022 167.381 203.918 167.684C203.814 167.987 203.762 168.304 203.762 168.633C203.762 168.971 203.819 169.292 203.931 169.595C204.053 169.898 204.217 170.167 204.425 170.401C204.642 170.635 204.889 170.817 205.166 170.947C205.452 171.077 205.76 171.142 206.089 171.142C206.297 171.142 206.51 171.103 206.726 171.025C206.952 170.947 207.164 170.839 207.363 170.7C207.563 170.561 207.732 170.401 207.87 170.219C208.009 170.028 208.1 169.829 208.143 169.621ZM211.106 172V170.544H212.068V172H211.106ZM220.218 162.822H221.323L222.545 166.033L223.78 162.822H224.885L223.286 166.839L224.872 170.648L227.992 162.77H229.266L225.405 172H224.391L222.558 167.645L220.712 172H219.698L215.85 162.77H217.111L220.244 170.648L221.817 166.839L220.218 162.822ZM232.405 172.13C231.894 172.13 231.426 172.039 231.001 171.857C230.585 171.666 230.221 171.411 229.909 171.09C229.606 170.761 229.367 170.384 229.194 169.959C229.029 169.534 228.947 169.084 228.947 168.607C228.947 167.966 229.094 167.381 229.389 166.852C229.684 166.323 230.091 165.899 230.611 165.578C231.14 165.257 231.742 165.097 232.418 165.097C233.103 165.097 233.696 165.262 234.199 165.591C234.71 165.912 235.105 166.336 235.382 166.865C235.668 167.385 235.811 167.948 235.811 168.555C235.811 168.642 235.807 168.728 235.798 168.815C235.798 168.893 235.794 168.954 235.785 168.997H230.156C230.191 169.439 230.312 169.833 230.52 170.18C230.737 170.518 231.014 170.787 231.352 170.986C231.69 171.177 232.054 171.272 232.444 171.272C232.86 171.272 233.25 171.168 233.614 170.96C233.987 170.752 234.242 170.479 234.381 170.141L235.369 170.414C235.222 170.743 235.001 171.038 234.706 171.298C234.42 171.558 234.078 171.762 233.679 171.909C233.289 172.056 232.864 172.13 232.405 172.13ZM230.117 168.204H234.745C234.71 167.762 234.585 167.372 234.368 167.034C234.151 166.696 233.874 166.432 233.536 166.241C233.198 166.05 232.825 165.955 232.418 165.955C232.019 165.955 231.651 166.05 231.313 166.241C230.975 166.432 230.698 166.696 230.481 167.034C230.273 167.372 230.152 167.762 230.117 168.204ZM236.878 165.487V162.666H237.866V165.487H236.878ZM243.248 166.215C242.676 166.224 242.169 166.371 241.727 166.657C241.294 166.934 240.986 167.32 240.804 167.814V172H239.66V165.214H240.726V166.787C240.96 166.319 241.268 165.942 241.649 165.656C242.039 165.361 242.446 165.197 242.871 165.162C242.958 165.162 243.031 165.162 243.092 165.162C243.153 165.162 243.205 165.166 243.248 165.175V166.215ZM247.233 172.13C246.722 172.13 246.254 172.039 245.829 171.857C245.413 171.666 245.049 171.411 244.737 171.09C244.434 170.761 244.196 170.384 244.022 169.959C243.858 169.534 243.775 169.084 243.775 168.607C243.775 167.966 243.923 167.381 244.217 166.852C244.512 166.323 244.919 165.899 245.439 165.578C245.968 165.257 246.57 165.097 247.246 165.097C247.931 165.097 248.525 165.262 249.027 165.591C249.539 165.912 249.933 166.336 250.21 166.865C250.496 167.385 250.639 167.948 250.639 168.555C250.639 168.642 250.635 168.728 250.626 168.815C250.626 168.893 250.622 168.954 250.613 168.997H244.984C245.019 169.439 245.14 169.833 245.348 170.18C245.565 170.518 245.842 170.787 246.18 170.986C246.518 171.177 246.882 171.272 247.272 171.272C247.688 171.272 248.078 171.168 248.442 170.96C248.815 170.752 249.071 170.479 249.209 170.141L250.197 170.414C250.05 170.743 249.829 171.038 249.534 171.298C249.248 171.558 248.906 171.762 248.507 171.909C248.117 172.056 247.693 172.13 247.233 172.13ZM244.945 168.204H249.573C249.539 167.762 249.413 167.372 249.196 167.034C248.98 166.696 248.702 166.432 248.364 166.241C248.026 166.05 247.654 165.955 247.246 165.955C246.848 165.955 246.479 166.05 246.141 166.241C245.803 166.432 245.526 166.696 245.309 167.034C245.101 167.372 244.98 167.762 244.945 168.204ZM258.202 172.13C257.691 172.13 257.223 172.039 256.798 171.857C256.382 171.666 256.018 171.406 255.706 171.077C255.403 170.748 255.164 170.371 254.991 169.946C254.826 169.521 254.744 169.071 254.744 168.594C254.744 167.953 254.887 167.368 255.173 166.839C255.459 166.31 255.862 165.89 256.382 165.578C256.902 165.257 257.504 165.097 258.189 165.097C258.856 165.097 259.437 165.249 259.931 165.552C260.434 165.847 260.806 166.245 261.049 166.748L259.931 167.099C259.758 166.778 259.515 166.531 259.203 166.358C258.891 166.176 258.544 166.085 258.163 166.085C257.747 166.085 257.366 166.193 257.019 166.41C256.681 166.627 256.412 166.926 256.213 167.307C256.014 167.68 255.914 168.109 255.914 168.594C255.914 169.071 256.014 169.504 256.213 169.894C256.421 170.275 256.694 170.579 257.032 170.804C257.379 171.029 257.76 171.142 258.176 171.142C258.445 171.142 258.7 171.094 258.943 170.999C259.194 170.904 259.411 170.778 259.593 170.622C259.784 170.457 259.914 170.28 259.983 170.089L261.101 170.427C260.962 170.756 260.75 171.051 260.464 171.311C260.187 171.562 259.853 171.762 259.463 171.909C259.082 172.056 258.661 172.13 258.202 172.13ZM262.332 169.283V165.214H263.476V169.062C263.476 169.755 263.598 170.275 263.84 170.622C264.083 170.969 264.443 171.142 264.919 171.142C265.231 171.142 265.53 171.077 265.816 170.947C266.111 170.808 266.375 170.613 266.609 170.362C266.843 170.111 267.025 169.812 267.155 169.465V165.214H268.299V170.7C268.299 170.839 268.325 170.943 268.377 171.012C268.438 171.073 268.533 171.107 268.663 171.116V172C268.533 172.017 268.429 172.026 268.351 172.026C268.282 172.035 268.213 172.039 268.143 172.039C267.927 172.039 267.74 171.974 267.584 171.844C267.428 171.705 267.346 171.536 267.337 171.337L267.311 170.544C267.017 171.047 266.618 171.437 266.115 171.714C265.621 171.991 265.08 172.13 264.49 172.13C263.78 172.13 263.242 171.892 262.878 171.415C262.514 170.93 262.332 170.219 262.332 169.283ZM273.793 166.215C273.221 166.224 272.714 166.371 272.272 166.657C271.838 166.934 271.531 167.32 271.349 167.814V172H270.205V165.214H271.271V166.787C271.505 166.319 271.812 165.942 272.194 165.656C272.584 165.361 272.991 165.197 273.416 165.162C273.502 165.162 273.576 165.162 273.637 165.162C273.697 165.162 273.749 165.166 273.793 165.175V166.215ZM278.515 166.215C277.943 166.224 277.436 166.371 276.994 166.657C276.561 166.934 276.253 167.32 276.071 167.814V172H274.927V165.214H275.993V166.787C276.227 166.319 276.535 165.942 276.916 165.656C277.306 165.361 277.714 165.197 278.138 165.162C278.225 165.162 278.299 165.162 278.359 165.162C278.42 165.162 278.472 165.166 278.515 165.175V166.215ZM282.501 172.13C281.989 172.13 281.521 172.039 281.097 171.857C280.681 171.666 280.317 171.411 280.005 171.09C279.701 170.761 279.463 170.384 279.29 169.959C279.125 169.534 279.043 169.084 279.043 168.607C279.043 167.966 279.19 167.381 279.485 166.852C279.779 166.323 280.187 165.899 280.707 165.578C281.235 165.257 281.838 165.097 282.514 165.097C283.198 165.097 283.792 165.262 284.295 165.591C284.806 165.912 285.2 166.336 285.478 166.865C285.764 167.385 285.907 167.948 285.907 168.555C285.907 168.642 285.902 168.728 285.894 168.815C285.894 168.893 285.889 168.954 285.881 168.997H280.252C280.286 169.439 280.408 169.833 280.616 170.18C280.832 170.518 281.11 170.787 281.448 170.986C281.786 171.177 282.15 171.272 282.54 171.272C282.956 171.272 283.346 171.168 283.71 170.96C284.082 170.752 284.338 170.479 284.477 170.141L285.465 170.414C285.317 170.743 285.096 171.038 284.802 171.298C284.516 171.558 284.173 171.762 283.775 171.909C283.385 172.056 282.96 172.13 282.501 172.13ZM280.213 168.204H284.841C284.806 167.762 284.68 167.372 284.464 167.034C284.247 166.696 283.97 166.432 283.632 166.241C283.294 166.05 282.921 165.955 282.514 165.955C282.115 165.955 281.747 166.05 281.409 166.241C281.071 166.432 280.793 166.696 280.577 167.034C280.369 167.372 280.247 167.762 280.213 168.204ZM293.067 172H291.923V168.204C291.923 167.485 291.811 166.96 291.585 166.631C291.369 166.293 291.035 166.124 290.584 166.124C290.272 166.124 289.96 166.202 289.648 166.358C289.345 166.514 289.072 166.726 288.829 166.995C288.595 167.255 288.426 167.558 288.322 167.905V172H287.178V165.214H288.218V166.67C288.4 166.349 288.634 166.072 288.92 165.838C289.206 165.604 289.531 165.422 289.895 165.292C290.259 165.162 290.641 165.097 291.039 165.097C291.429 165.097 291.754 165.171 292.014 165.318C292.283 165.457 292.491 165.656 292.638 165.916C292.794 166.167 292.903 166.466 292.963 166.813C293.033 167.16 293.067 167.537 293.067 167.944V172ZM298.293 171.662C298.198 171.705 298.068 171.762 297.903 171.831C297.738 171.9 297.548 171.961 297.331 172.013C297.114 172.065 296.885 172.091 296.642 172.091C296.365 172.091 296.109 172.043 295.875 171.948C295.641 171.844 295.455 171.688 295.316 171.48C295.177 171.263 295.108 170.995 295.108 170.674V166.111H294.185V165.214H295.108V162.952H296.252V165.214H297.773V166.111H296.252V170.323C296.269 170.566 296.352 170.748 296.499 170.869C296.646 170.982 296.82 171.038 297.019 171.038C297.244 171.038 297.452 170.999 297.643 170.921C297.834 170.843 297.959 170.787 298.02 170.752L298.293 171.662ZM299.379 162.51H300.523V170.245C300.523 170.618 300.575 170.847 300.679 170.934C300.783 171.021 300.909 171.064 301.056 171.064C301.238 171.064 301.412 171.047 301.576 171.012C301.741 170.969 301.88 170.925 301.992 170.882L302.174 171.818C301.984 171.896 301.758 171.961 301.498 172.013C301.238 172.065 301.009 172.091 300.809 172.091C300.367 172.091 300.016 171.965 299.756 171.714C299.505 171.463 299.379 171.112 299.379 170.661V162.51ZM303.144 173.846C303.256 173.855 303.369 173.863 303.482 173.872C303.594 173.889 303.681 173.898 303.742 173.898C303.88 173.898 304.002 173.85 304.106 173.755C304.21 173.66 304.322 173.473 304.444 173.196C304.574 172.927 304.738 172.529 304.938 172L302.065 165.214H303.274L305.562 170.843L307.629 165.214H308.76L305.458 173.781C305.38 173.98 305.263 174.167 305.107 174.34C304.959 174.522 304.769 174.665 304.535 174.769C304.301 174.873 304.019 174.925 303.69 174.925C303.612 174.925 303.529 174.921 303.443 174.912C303.365 174.903 303.265 174.886 303.144 174.86V173.846ZM129.499 190.13C128.945 190.13 128.451 189.991 128.017 189.714C127.584 189.437 127.242 189.086 126.99 188.661V192.769H125.846V183.214H126.86V184.488C127.129 184.072 127.48 183.738 127.913 183.487C128.347 183.227 128.819 183.097 129.33 183.097C129.798 183.097 130.227 183.192 130.617 183.383C131.007 183.574 131.345 183.834 131.631 184.163C131.917 184.492 132.138 184.869 132.294 185.294C132.459 185.71 132.541 186.148 132.541 186.607C132.541 187.248 132.411 187.838 132.151 188.375C131.9 188.912 131.545 189.341 131.085 189.662C130.626 189.974 130.097 190.13 129.499 190.13ZM129.148 189.142C129.486 189.142 129.79 189.073 130.058 188.934C130.336 188.787 130.57 188.596 130.76 188.362C130.96 188.119 131.111 187.846 131.215 187.543C131.319 187.24 131.371 186.928 131.371 186.607C131.371 186.269 131.311 185.948 131.189 185.645C131.077 185.342 130.912 185.073 130.695 184.839C130.487 184.605 130.24 184.423 129.954 184.293C129.677 184.154 129.374 184.085 129.044 184.085C128.836 184.085 128.62 184.124 128.394 184.202C128.178 184.28 127.97 184.393 127.77 184.54C127.571 184.679 127.402 184.839 127.263 185.021C127.125 185.203 127.034 185.398 126.99 185.606V187.543C127.12 187.838 127.294 188.106 127.51 188.349C127.727 188.592 127.978 188.787 128.264 188.934C128.55 189.073 128.845 189.142 129.148 189.142ZM137.534 184.215C136.962 184.224 136.455 184.371 136.013 184.657C135.58 184.934 135.272 185.32 135.09 185.814V190H133.946V183.214H135.012V184.787C135.246 184.319 135.554 183.942 135.935 183.656C136.325 183.361 136.732 183.197 137.157 183.162C137.244 183.162 137.317 183.162 137.378 183.162C137.439 183.162 137.491 183.166 137.534 183.175V184.215ZM141.48 190.13C140.969 190.13 140.505 190.039 140.089 189.857C139.673 189.666 139.314 189.411 139.01 189.09C138.707 188.761 138.473 188.384 138.308 187.959C138.144 187.534 138.061 187.088 138.061 186.62C138.061 186.143 138.144 185.693 138.308 185.268C138.473 184.843 138.707 184.471 139.01 184.15C139.314 183.821 139.673 183.565 140.089 183.383C140.514 183.192 140.982 183.097 141.493 183.097C141.996 183.097 142.455 183.192 142.871 183.383C143.287 183.565 143.647 183.821 143.95 184.15C144.262 184.471 144.501 184.843 144.665 185.268C144.83 185.693 144.912 186.143 144.912 186.62C144.912 187.088 144.83 187.534 144.665 187.959C144.501 188.384 144.267 188.761 143.963 189.09C143.66 189.411 143.296 189.666 142.871 189.857C142.455 190.039 141.992 190.13 141.48 190.13ZM139.231 186.633C139.231 187.101 139.331 187.526 139.53 187.907C139.738 188.288 140.011 188.592 140.349 188.817C140.687 189.034 141.064 189.142 141.48 189.142C141.896 189.142 142.273 189.029 142.611 188.804C142.958 188.579 143.231 188.275 143.43 187.894C143.638 187.504 143.742 187.075 143.742 186.607C143.742 186.139 143.638 185.714 143.43 185.333C143.231 184.952 142.958 184.648 142.611 184.423C142.273 184.198 141.896 184.085 141.48 184.085C141.064 184.085 140.687 184.202 140.349 184.436C140.011 184.661 139.738 184.965 139.53 185.346C139.331 185.727 139.231 186.156 139.231 186.633ZM149.302 190.13C148.79 190.13 148.322 190.039 147.898 189.857C147.482 189.666 147.118 189.406 146.806 189.077C146.502 188.748 146.264 188.371 146.091 187.946C145.926 187.521 145.844 187.071 145.844 186.594C145.844 185.953 145.987 185.368 146.273 184.839C146.559 184.31 146.962 183.89 147.482 183.578C148.002 183.257 148.604 183.097 149.289 183.097C149.956 183.097 150.537 183.249 151.031 183.552C151.533 183.847 151.906 184.245 152.149 184.748L151.031 185.099C150.857 184.778 150.615 184.531 150.303 184.358C149.991 184.176 149.644 184.085 149.263 184.085C148.847 184.085 148.465 184.193 148.119 184.41C147.781 184.627 147.512 184.926 147.313 185.307C147.113 185.68 147.014 186.109 147.014 186.594C147.014 187.071 147.113 187.504 147.313 187.894C147.521 188.275 147.794 188.579 148.132 188.804C148.478 189.029 148.86 189.142 149.276 189.142C149.544 189.142 149.8 189.094 150.043 188.999C150.294 188.904 150.511 188.778 150.693 188.622C150.883 188.457 151.013 188.28 151.083 188.089L152.201 188.427C152.062 188.756 151.85 189.051 151.564 189.311C151.286 189.562 150.953 189.762 150.563 189.909C150.181 190.056 149.761 190.13 149.302 190.13ZM156.436 190.13C155.925 190.13 155.457 190.039 155.032 189.857C154.616 189.666 154.252 189.411 153.94 189.09C153.637 188.761 153.399 188.384 153.225 187.959C153.061 187.534 152.978 187.084 152.978 186.607C152.978 185.966 153.126 185.381 153.42 184.852C153.715 184.323 154.122 183.899 154.642 183.578C155.171 183.257 155.773 183.097 156.449 183.097C157.134 183.097 157.728 183.262 158.23 183.591C158.742 183.912 159.136 184.336 159.413 184.865C159.699 185.385 159.842 185.948 159.842 186.555C159.842 186.642 159.838 186.728 159.829 186.815C159.829 186.893 159.825 186.954 159.816 186.997H154.187C154.222 187.439 154.343 187.833 154.551 188.18C154.768 188.518 155.045 188.787 155.383 188.986C155.721 189.177 156.085 189.272 156.475 189.272C156.891 189.272 157.281 189.168 157.645 188.96C158.018 188.752 158.274 188.479 158.412 188.141L159.4 188.414C159.253 188.743 159.032 189.038 158.737 189.298C158.451 189.558 158.109 189.762 157.71 189.909C157.32 190.056 156.896 190.13 156.436 190.13ZM154.148 186.204H158.776C158.742 185.762 158.616 185.372 158.399 185.034C158.183 184.696 157.905 184.432 157.567 184.241C157.229 184.05 156.857 183.955 156.449 183.955C156.051 183.955 155.682 184.05 155.344 184.241C155.006 184.432 154.729 184.696 154.512 185.034C154.304 185.372 154.183 185.762 154.148 186.204ZM163.441 190.13C162.878 190.13 162.349 190.039 161.855 189.857C161.361 189.666 160.936 189.385 160.581 189.012L161.023 188.206C161.413 188.57 161.803 188.83 162.193 188.986C162.583 189.142 162.982 189.22 163.389 189.22C163.857 189.22 164.238 189.133 164.533 188.96C164.828 188.778 164.975 188.514 164.975 188.167C164.975 187.916 164.897 187.729 164.741 187.608C164.594 187.487 164.381 187.387 164.104 187.309C163.827 187.222 163.497 187.127 163.116 187.023C162.648 186.884 162.254 186.737 161.933 186.581C161.612 186.425 161.37 186.23 161.205 185.996C161.04 185.762 160.958 185.467 160.958 185.112C160.958 184.679 161.071 184.315 161.296 184.02C161.521 183.717 161.829 183.487 162.219 183.331C162.618 183.175 163.068 183.097 163.571 183.097C164.074 183.097 164.529 183.175 164.936 183.331C165.343 183.487 165.694 183.717 165.989 184.02L165.469 184.813C165.2 184.536 164.906 184.332 164.585 184.202C164.264 184.063 163.905 183.994 163.506 183.994C163.272 183.994 163.042 184.024 162.817 184.085C162.592 184.137 162.405 184.237 162.258 184.384C162.111 184.523 162.037 184.722 162.037 184.982C162.037 185.199 162.093 185.372 162.206 185.502C162.327 185.623 162.501 185.727 162.726 185.814C162.96 185.901 163.242 185.996 163.571 186.1C164.082 186.247 164.524 186.395 164.897 186.542C165.278 186.689 165.573 186.88 165.781 187.114C165.989 187.348 166.093 187.673 166.093 188.089C166.093 188.73 165.85 189.233 165.365 189.597C164.88 189.952 164.238 190.13 163.441 190.13ZM169.789 190.13C169.225 190.13 168.697 190.039 168.203 189.857C167.709 189.666 167.284 189.385 166.929 189.012L167.371 188.206C167.761 188.57 168.151 188.83 168.541 188.986C168.931 189.142 169.329 189.22 169.737 189.22C170.205 189.22 170.586 189.133 170.881 188.96C171.175 188.778 171.323 188.514 171.323 188.167C171.323 187.916 171.245 187.729 171.089 187.608C170.941 187.487 170.729 187.387 170.452 187.309C170.174 187.222 169.845 187.127 169.464 187.023C168.996 186.884 168.601 186.737 168.281 186.581C167.96 186.425 167.717 186.23 167.553 185.996C167.388 185.762 167.306 185.467 167.306 185.112C167.306 184.679 167.418 184.315 167.644 184.02C167.869 183.717 168.177 183.487 168.567 183.331C168.965 183.175 169.416 183.097 169.919 183.097C170.421 183.097 170.876 183.175 171.284 183.331C171.691 183.487 172.042 183.717 172.337 184.02L171.817 184.813C171.548 184.536 171.253 184.332 170.933 184.202C170.612 184.063 170.252 183.994 169.854 183.994C169.62 183.994 169.39 184.024 169.165 184.085C168.939 184.137 168.753 184.237 168.606 184.384C168.458 184.523 168.385 184.722 168.385 184.982C168.385 185.199 168.441 185.372 168.554 185.502C168.675 185.623 168.848 185.727 169.074 185.814C169.308 185.901 169.589 185.996 169.919 186.1C170.43 186.247 170.872 186.395 171.245 186.542C171.626 186.689 171.921 186.88 172.129 187.114C172.337 187.348 172.441 187.673 172.441 188.089C172.441 188.73 172.198 189.233 171.713 189.597C171.227 189.952 170.586 190.13 169.789 190.13ZM173.809 190V183.214H174.953V190H173.809ZM173.809 181.94V180.51H174.953V181.94H173.809ZM182.694 190H181.55V186.204C181.55 185.485 181.438 184.96 181.212 184.631C180.996 184.293 180.662 184.124 180.211 184.124C179.899 184.124 179.587 184.202 179.275 184.358C178.972 184.514 178.699 184.726 178.456 184.995C178.222 185.255 178.053 185.558 177.949 185.905V190H176.805V183.214H177.845V184.67C178.027 184.349 178.261 184.072 178.547 183.838C178.833 183.604 179.158 183.422 179.522 183.292C179.886 183.162 180.268 183.097 180.666 183.097C181.056 183.097 181.381 183.171 181.641 183.318C181.91 183.457 182.118 183.656 182.265 183.916C182.421 184.167 182.53 184.466 182.59 184.813C182.66 185.16 182.694 185.537 182.694 185.944V190ZM187.177 190.078C186.718 190.078 186.293 189.987 185.903 189.805C185.522 189.614 185.193 189.359 184.915 189.038C184.638 188.709 184.421 188.336 184.265 187.92C184.118 187.504 184.044 187.071 184.044 186.62C184.044 186.143 184.118 185.693 184.265 185.268C184.421 184.843 184.638 184.471 184.915 184.15C185.201 183.821 185.535 183.565 185.916 183.383C186.298 183.192 186.722 183.097 187.19 183.097C187.754 183.097 188.243 183.236 188.659 183.513C189.084 183.79 189.439 184.141 189.725 184.566V183.214H190.739V189.922C190.739 190.563 190.583 191.105 190.271 191.547C189.968 191.989 189.552 192.323 189.023 192.548C188.503 192.782 187.923 192.899 187.281 192.899C186.519 192.899 185.895 192.765 185.409 192.496C184.924 192.227 184.521 191.863 184.2 191.404L184.863 190.819C185.132 191.218 185.479 191.517 185.903 191.716C186.337 191.915 186.796 192.015 187.281 192.015C187.697 192.015 188.079 191.937 188.425 191.781C188.781 191.634 189.062 191.404 189.27 191.092C189.487 190.78 189.595 190.39 189.595 189.922V188.726C189.344 189.142 188.997 189.471 188.555 189.714C188.122 189.957 187.663 190.078 187.177 190.078ZM187.528 189.142C187.771 189.142 188.005 189.099 188.23 189.012C188.456 188.925 188.664 188.813 188.854 188.674C189.045 188.527 189.205 188.362 189.335 188.18C189.465 187.998 189.552 187.812 189.595 187.621V185.671C189.474 185.359 189.301 185.086 189.075 184.852C188.85 184.609 188.594 184.423 188.308 184.293C188.022 184.154 187.728 184.085 187.424 184.085C187.078 184.085 186.766 184.159 186.488 184.306C186.22 184.453 185.99 184.653 185.799 184.904C185.609 185.147 185.461 185.42 185.357 185.723C185.253 186.026 185.201 186.334 185.201 186.646C185.201 186.984 185.262 187.305 185.383 187.608C185.505 187.903 185.669 188.167 185.877 188.401C186.085 188.635 186.332 188.817 186.618 188.947C186.904 189.077 187.208 189.142 187.528 189.142ZM195.874 190V183.214H197.018V190H195.874ZM195.874 181.94V180.51H197.018V181.94H195.874ZM202.38 189.662C202.285 189.705 202.155 189.762 201.99 189.831C201.825 189.9 201.635 189.961 201.418 190.013C201.201 190.065 200.972 190.091 200.729 190.091C200.452 190.091 200.196 190.043 199.962 189.948C199.728 189.844 199.542 189.688 199.403 189.48C199.264 189.263 199.195 188.995 199.195 188.674V184.111H198.272V183.214H199.195V180.952H200.339V183.214H201.86V184.111H200.339V188.323C200.356 188.566 200.439 188.748 200.586 188.869C200.733 188.982 200.907 189.038 201.106 189.038C201.331 189.038 201.539 188.999 201.73 188.921C201.921 188.843 202.046 188.787 202.107 188.752L202.38 189.662ZM207.092 190V184.111H206.169V183.214H207.092V183.071C207.092 182.516 207.175 182.04 207.339 181.641C207.513 181.234 207.755 180.922 208.067 180.705C208.379 180.488 208.748 180.38 209.172 180.38C209.441 180.38 209.705 180.419 209.965 180.497C210.225 180.566 210.459 180.666 210.667 180.796L210.381 181.641C210.26 181.554 210.108 181.485 209.926 181.433C209.753 181.381 209.58 181.355 209.406 181.355C209.034 181.355 208.743 181.502 208.535 181.797C208.336 182.083 208.236 182.495 208.236 183.032V183.214H210.043V184.111H208.236V190H207.092ZM213.996 190.13C213.485 190.13 213.021 190.039 212.605 189.857C212.189 189.666 211.829 189.411 211.526 189.09C211.223 188.761 210.989 188.384 210.824 187.959C210.659 187.534 210.577 187.088 210.577 186.62C210.577 186.143 210.659 185.693 210.824 185.268C210.989 184.843 211.223 184.471 211.526 184.15C211.829 183.821 212.189 183.565 212.605 183.383C213.03 183.192 213.498 183.097 214.009 183.097C214.512 183.097 214.971 183.192 215.387 183.383C215.803 183.565 216.163 183.821 216.466 184.15C216.778 184.471 217.016 184.843 217.181 185.268C217.346 185.693 217.428 186.143 217.428 186.62C217.428 187.088 217.346 187.534 217.181 187.959C217.016 188.384 216.782 188.761 216.479 189.09C216.176 189.411 215.812 189.666 215.387 189.857C214.971 190.039 214.507 190.13 213.996 190.13ZM211.747 186.633C211.747 187.101 211.847 187.526 212.046 187.907C212.254 188.288 212.527 188.592 212.865 188.817C213.203 189.034 213.58 189.142 213.996 189.142C214.412 189.142 214.789 189.029 215.127 188.804C215.474 188.579 215.747 188.275 215.946 187.894C216.154 187.504 216.258 187.075 216.258 186.607C216.258 186.139 216.154 185.714 215.946 185.333C215.747 184.952 215.474 184.648 215.127 184.423C214.789 184.198 214.412 184.085 213.996 184.085C213.58 184.085 213.203 184.202 212.865 184.436C212.527 184.661 212.254 184.965 212.046 185.346C211.847 185.727 211.747 186.156 211.747 186.633ZM222.402 184.215C221.83 184.224 221.323 184.371 220.881 184.657C220.448 184.934 220.14 185.32 219.958 185.814V190H218.814V183.214H219.88V184.787C220.114 184.319 220.422 183.942 220.803 183.656C221.193 183.361 221.601 183.197 222.025 183.162C222.112 183.162 222.186 183.162 222.246 183.162C222.307 183.162 222.359 183.166 222.402 183.175V184.215ZM226.477 191.846C226.589 191.855 226.702 191.863 226.815 191.872C226.927 191.889 227.014 191.898 227.075 191.898C227.213 191.898 227.335 191.85 227.439 191.755C227.543 191.66 227.655 191.473 227.777 191.196C227.907 190.927 228.071 190.529 228.271 190L225.398 183.214H226.607L228.895 188.843L230.962 183.214H232.093L228.791 191.781C228.713 191.98 228.596 192.167 228.44 192.34C228.292 192.522 228.102 192.665 227.868 192.769C227.634 192.873 227.352 192.925 227.023 192.925C226.945 192.925 226.862 192.921 226.776 192.912C226.698 192.903 226.598 192.886 226.477 192.86V191.846ZM235.972 190.13C235.46 190.13 234.997 190.039 234.581 189.857C234.165 189.666 233.805 189.411 233.502 189.09C233.198 188.761 232.964 188.384 232.8 187.959C232.635 187.534 232.553 187.088 232.553 186.62C232.553 186.143 232.635 185.693 232.8 185.268C232.964 184.843 233.198 184.471 233.502 184.15C233.805 183.821 234.165 183.565 234.581 183.383C235.005 183.192 235.473 183.097 235.985 183.097C236.487 183.097 236.947 183.192 237.363 183.383C237.779 183.565 238.138 183.821 238.442 184.15C238.754 184.471 238.992 184.843 239.157 185.268C239.321 185.693 239.404 186.143 239.404 186.62C239.404 187.088 239.321 187.534 239.157 187.959C238.992 188.384 238.758 188.761 238.455 189.09C238.151 189.411 237.787 189.666 237.363 189.857C236.947 190.039 236.483 190.13 235.972 190.13ZM233.723 186.633C233.723 187.101 233.822 187.526 234.022 187.907C234.23 188.288 234.503 188.592 234.841 188.817C235.179 189.034 235.556 189.142 235.972 189.142C236.388 189.142 236.765 189.029 237.103 188.804C237.449 188.579 237.722 188.275 237.922 187.894C238.13 187.504 238.234 187.075 238.234 186.607C238.234 186.139 238.13 185.714 237.922 185.333C237.722 184.952 237.449 184.648 237.103 184.423C236.765 184.198 236.388 184.085 235.972 184.085C235.556 184.085 235.179 184.202 234.841 184.436C234.503 184.661 234.23 184.965 234.022 185.346C233.822 185.727 233.723 186.156 233.723 186.633ZM240.725 187.283V183.214H241.869V187.062C241.869 187.755 241.99 188.275 242.233 188.622C242.475 188.969 242.835 189.142 243.312 189.142C243.624 189.142 243.923 189.077 244.209 188.947C244.503 188.808 244.768 188.613 245.002 188.362C245.236 188.111 245.418 187.812 245.548 187.465V183.214H246.692V188.7C246.692 188.839 246.718 188.943 246.77 189.012C246.83 189.073 246.926 189.107 247.056 189.116V190C246.926 190.017 246.822 190.026 246.744 190.026C246.674 190.035 246.605 190.039 246.536 190.039C246.319 190.039 246.133 189.974 245.977 189.844C245.821 189.705 245.738 189.536 245.73 189.337L245.704 188.544C245.409 189.047 245.01 189.437 244.508 189.714C244.014 189.991 243.472 190.13 242.883 190.13C242.172 190.13 241.635 189.892 241.271 189.415C240.907 188.93 240.725 188.219 240.725 187.283ZM248.805 186.88V180.679H249.949V186.88H248.805ZM248.805 190V188.388H249.949V190H248.805Z" fill="#F2EBF3"/>
</g>
</g>
<defs>
<filter id="filter0_d_3294_8600" x="0.4" y="0.9" width="375.2" height="244.2" filterUnits="userSpaceOnUse" color-interpolation-filters="sRGB">
<feFlood flood-opacity="0" result="BackgroundImageFix"/>
<feColorMatrix in="SourceAlpha" type="matrix" values="0 0 0 0 0 0 0 0 0 0 0 0 0 0 0 0 0 0 127 0" result="hardAlpha"/>
<feMorphology radius="4" operator="erode" in="SourceAlpha" result="effect1_dropShadow_3294_8600"/>
<feOffset dy="10"/>
<feGaussianBlur stdDeviation="10.05"/>
<feComposite in2="hardAlpha" operator="out"/>
<feColorMatrix type="matrix" values="0 0 0 0 0.588235 0 0 0 0 0.34902 0 0 0 0 0.603922 0 0 0 1 0"/>
<feBlend mode="normal" in2="BackgroundImageFix" result="effect1_dropShadow_3294_8600"/>
<feBlend mode="normal" in="SourceGraphic" in2="effect1_dropShadow_3294_8600" result="shape"/>
</filter>
<linearGradient id="paint0_linear_3294_8600" x1="187.272" y1="53.5566" x2="187.272" y2="112.067" gradientUnits="userSpaceOnUse">
<stop stop-color="#F3F8FF"/>
<stop offset="1" stop-color="#803785"/>
</linearGradient>
<clipPath id="clip0_3294_8600">
<rect x="16.5" y="7" width="343" height="212" rx="16" fill="white"/>
</clipPath>
</defs>
</svg>
