<svg width="1440" height="850" viewBox="0 0 1440 850" fill="none" xmlns="http://www.w3.org/2000/svg">
<g opacity="0.08" clip-path="url(#clip0_1132_16807)">
<path d="M-139.677 837.674C-110.582 851.984 -71.5061 836.653 -36.9527 823.102C31.4974 796.236 100.232 763.663 173.17 723.486C194.747 711.609 216.386 698.75 237.32 686.343C282.456 659.568 329.103 631.889 378.046 611.981C450.492 582.547 528.015 566.342 601.212 552.242C668.297 539.355 744.66 521.548 801.928 473.509C845.304 437.109 875.17 385.911 888.313 325.442C900.777 268.054 896.574 206.91 876.477 153.279C850.86 84.8956 806.994 30.7363 752.963 0.782256C730.94 -11.4227 706.542 -20.0291 682.946 -28.355C646.36 -41.2571 608.534 -54.5939 579.927 -81.5437C536.138 -122.789 529.076 -192.159 563.843 -239.452C607.463 -298.782 690.653 -291.283 724.407 -285.296C747.79 -281.158 770.936 -275.012 793.301 -269.082C837.724 -257.309 883.631 -245.126 932.661 -248.358C997.524 -252.644 1059.02 -275.46 1118.45 -297.52L1124.24 -299.667C1242.08 -343.367 1365.89 -379.175 1470.75 -297.424C1511.1 -265.975 1541.64 -223.426 1571.19 -182.284C1582.67 -166.286 1594.55 -149.745 1606.84 -134.094C1613.65 -125.372 1620.76 -116.616 1627.61 -108.134C1662.15 -65.4681 1697.88 -21.3429 1713.62 32.6327C1733.79 101.789 1709.05 169.098 1681.98 232.09L1676.08 245.821C1648.22 310.496 1621.92 371.589 1605.39 440.147C1602.9 450.508 1600.63 460.91 1598.2 471.944C1586.34 526.078 1574.09 582.05 1538.03 621.641C1495.36 668.491 1427.63 676.896 1367.86 684.302L1364.26 684.757C1289.78 694.017 1217.49 705.781 1152.07 747.745C1117.45 769.913 1086.82 797.755 1057.2 824.677C1033.06 846.608 1008.11 869.277 981.281 888.594C973.647 894.088 966.021 899.558 958.404 905.002C905.103 943.074 854.772 979.047 809.043 1025.87C767.326 1068.57 734.756 1114.84 700.281 1163.85C693.295 1173.78 686.264 1183.72 679.187 1193.68C662.866 1216.53 646.386 1235.97 629.477 1252.22L648.889 1246.76C662.772 1231.93 675.63 1216.18 687.375 1199.61C694.492 1189.62 701.504 1179.65 708.501 1169.72C742.745 1121.06 775.089 1075.11 816.228 1032.98C861.343 986.804 911.337 951.08 964.249 913.242C971.874 907.802 979.521 902.351 987.159 896.824C1014.45 877.176 1039.62 854.32 1063.96 832.211C1093.27 805.551 1123.59 778.028 1157.5 756.288C1221.16 715.477 1292.24 703.899 1365.53 694.796L1369.14 694.363C1430.6 686.734 1500.3 678.085 1545.49 628.471C1583.35 586.902 1595.91 529.579 1608.06 474.143C1610.45 463.173 1612.71 452.823 1615.2 442.563C1631.51 374.848 1657.64 314.135 1685.34 249.868L1691.24 236.137C1717.82 174.283 1744.41 102.207 1723.28 29.8198C1706.98 -26.1356 1670.6 -71.0615 1635.43 -114.515C1628.58 -122.961 1621.51 -131.701 1614.72 -140.339C1602.58 -155.829 1590.77 -172.281 1579.35 -188.188C1549.39 -229.928 1518.41 -273.075 1476.9 -305.425C1367.97 -390.352 1241.21 -353.841 1120.73 -309.17L1114.94 -307.022C1056.16 -285.206 995.394 -262.648 931.951 -258.458C884.566 -255.334 841.48 -266.768 795.851 -278.863C773.269 -284.848 749.915 -291.048 726.119 -295.262C690.539 -301.572 602.693 -309.345 555.745 -245.479C517.986 -194.124 525.591 -118.859 573.068 -74.1509C603.228 -45.7337 642.078 -32.0382 679.655 -18.7822C702.853 -10.5987 726.858 -2.13309 748.132 9.65942C800.055 38.4457 842.286 90.7068 867.063 156.828C908.158 266.523 878.043 396.438 795.455 465.731C740.036 512.237 665.146 529.653 599.296 542.32C525.598 556.485 447.526 572.818 374.255 602.612C324.619 622.788 277.628 650.668 232.193 677.627C211.325 689.99 189.747 702.809 168.31 714.594C95.7397 754.553 27.4058 786.965 -40.7056 813.683C-73.266 826.446 -110.164 840.935 -135.276 828.572C-148.209 822.219 -157.433 809.318 -163.468 789.128C-178.789 737.819 -173.37 677.974 -147.356 611.286C-142.178 597.997 -136.776 584.569 -131.554 571.575C-110.669 519.602 -89.0662 465.859 -76.4215 409.37C-62.377 346.669 -51.9813 273.889 -44.6292 186.882C-37.1947 98.8643 -46.2101 24.4013 -72.2071 -40.7562C-80.5229 -61.5166 -91.1037 -81.2961 -103.758 -99.7359L-113.935 -96.8726C-100.875 -78.228 -90.0061 -58.1404 -81.5448 -37.0074C-56.1579 26.6462 -47.3664 99.5859 -54.6588 185.993C-61.9735 272.542 -72.3036 344.865 -86.2384 407.118C-98.7138 462.794 -120.15 516.15 -140.886 567.75C-146.123 580.773 -151.533 594.229 -156.735 607.561C-183.589 676.406 -189.093 738.466 -173.103 792.019C-166.227 815.066 -155.294 829.993 -139.677 837.674Z" fill="#B7B6B8"/>
<path d="M352.082 1319.42C338.272 1318.74 323.992 1318.02 310.15 1317.55C243.603 1315.3 167.431 1309.72 105.634 1271.71C58.9936 1243.03 34.9293 1193.83 11.6495 1146.23C5.28539 1133.21 -1.28907 1119.77 -8.22931 1106.96C-25.1979 1075.62 -43.9479 1044.68 -65.5495 1012.38C-72.1918 1002.43 -78.7809 991.935 -85.1574 981.757C-98.8677 959.897 -113.045 937.309 -129.468 917.427C-154.144 887.595 -186.303 886.42 -211.577 888.713C-243.396 891.63 -277.358 893.878 -311.857 886.82C-365.736 875.778 -411.659 843.403 -456.358 784.938C-479.209 755.037 -501.01 723.536 -522.122 692.598L-513.643 722.739C-497.699 745.782 -481.318 768.857 -464.323 791.086C-418.693 850.784 -369.452 885.345 -313.828 896.735C-277.982 904.072 -243.181 901.792 -210.618 898.817C-176.285 895.677 -154.331 903.17 -137.205 923.89C-121.193 943.252 -107.197 965.564 -93.667 987.146C-87.2523 997.364 -80.6114 1007.95 -73.8891 1018C-52.4619 1050.04 -33.876 1080.72 -17.062 1111.78C-10.2223 1124.41 -3.70109 1137.77 2.62007 1150.68C26.531 1199.57 51.2712 1250.13 100.413 1280.36C164.309 1319.65 242.018 1325.38 309.862 1327.68C323.612 1328.14 337.85 1328.85 351.624 1329.55L354.145 1329.67L385.046 1320.98C374.013 1320.53 363.016 1319.97 352.082 1319.42Z" fill="#B7B6B8"/>
<path d="M805.28 -323.325C861.492 -311.835 914.562 -300.974 971.513 -306.787C1031.49 -312.919 1086.46 -337.69 1139.59 -361.656C1153.73 -368.03 1168.33 -374.611 1182.82 -380.74C1254.51 -411.131 1311.62 -420.726 1367.9 -411.884C1423.1 -403.207 1476.75 -377.276 1518.96 -338.863C1552.98 -307.882 1577.56 -267.94 1601.34 -229.309C1613.58 -209.417 1626.23 -188.86 1640.02 -169.773C1649.87 -156.123 1660.76 -142.32 1671.26 -128.968C1706.36 -84.326 1742.68 -38.1889 1755.14 17.1044C1774.38 102.627 1740.24 180.683 1707.21 256.185C1687.65 300.894 1667.41 347.143 1658.07 394.889C1640.59 484.387 1647.21 556.962 1677.75 610.61C1684.92 623.201 1692.66 635.301 1700.13 646.994C1730.14 693.969 1758.49 738.34 1740.03 800.8C1732.83 825.145 1723.76 848.8 1715 871.655C1704.71 898.487 1694.2 925.943 1686.65 954.801L1689.47 954.007C1696.95 925.805 1707.26 898.886 1717.34 872.592C1726.13 849.676 1735.21 825.969 1742.44 801.538C1761.22 737.949 1732.58 693.102 1702.24 645.64C1694.79 633.964 1687.09 621.903 1679.93 609.359C1649.7 556.262 1643.19 484.262 1660.54 395.384C1669.83 347.904 1690.01 301.807 1709.52 257.203C1742.7 181.333 1777.02 102.887 1757.57 16.5591C1745 -39.3023 1708.52 -85.6828 1673.23 -130.537C1662.73 -143.867 1651.88 -157.653 1642.06 -171.263C1628.32 -190.273 1615.7 -210.792 1603.48 -230.632C1579.6 -269.416 1554.93 -309.52 1520.64 -340.729C1478.06 -379.475 1423.96 -405.633 1368.29 -414.381C1311.5 -423.312 1254.02 -413.657 1181.84 -383.08C1167.33 -376.945 1152.7 -370.342 1138.57 -363.971C1085.59 -340.087 1030.82 -315.4 971.26 -309.32C914.679 -303.546 861.776 -314.359 805.777 -325.813C797.622 -327.477 789.454 -329.132 781.275 -330.778C768.519 -333.286 755.583 -335.719 742.552 -337.824L736.735 -336.188C751.567 -333.906 766.304 -331.152 780.805 -328.284C788.996 -326.67 797.151 -324.996 805.28 -323.325Z" fill="#B7B6B8"/>
<path d="M655.515 17.025C618.879 1.20733 581.005 -15.147 549.554 -40.9799C501.079 -80.8179 480.082 -149.083 496.079 -214.882C501.316 -236.998 510.819 -257.88 524.056 -276.355L520.206 -275.272C507.731 -257.155 498.721 -236.885 493.63 -215.486C477.42 -148.752 498.747 -79.4794 547.967 -39.0241C579.688 -12.9504 617.747 3.46646 654.536 19.3418C677.27 29.164 700.794 39.3106 722.493 51.6191C778.284 83.2492 818.237 137.9 832.089 201.541C839.143 233.748 839.327 267.081 832.628 299.363C825.93 331.646 812.5 362.153 793.215 388.895C734.522 469.876 640.471 491.25 549.511 511.943C500.528 523.085 449.873 534.598 405.299 555.29C391.963 561.478 378.348 567.26 365.17 572.844C350.227 579.179 334.76 585.735 319.666 592.924C293.105 605.57 266.677 619.497 241.127 632.975C232.1 637.722 223.082 642.491 214.032 647.191L208.834 649.9C151.698 679.669 86.94 713.435 22.0757 724.936C-16.4152 731.757 -49.0421 726.504 -69.7868 710.148C-85.5973 697.668 -94.4422 679.004 -96.0458 654.664C-98.8917 611.868 -85.1816 569.728 -71.9337 528.972C-64.7092 506.778 -57.2547 483.832 -52.647 461.217C-44.1156 419.29 -40.5781 375.7 -37.1662 333.554C-36.3096 323.029 -35.4639 312.52 -34.5397 302.05C-33.0385 285.168 -31.2806 268.024 -29.58 251.441C-26.1026 217.645 -22.5047 182.699 -21.0117 148.116C-16.8254 51.1589 -32.8316 -31.6332 -71.0454 -108.94L-73.5126 -108.246C-35.3279 -31.2083 -19.3533 51.3122 -23.5286 147.998C-25.0202 182.491 -28.601 217.408 -32.0753 251.168C-33.7845 267.765 -35.545 284.91 -37.0442 301.818C-37.9789 312.287 -38.8259 322.81 -39.6777 333.334C-43.0959 375.42 -46.6168 418.929 -55.1155 460.706C-59.6874 483.172 -67.1363 506.056 -74.3304 528.174C-87.6521 569.166 -101.436 611.543 -98.5643 654.825C-96.8984 679.911 -87.7323 699.192 -71.3358 712.13C-50.0142 728.957 -16.6819 734.391 22.506 727.425C87.7555 715.865 152.703 681.995 209.996 652.158L215.194 649.449C224.238 644.727 233.272 639.98 242.296 635.208C267.829 621.758 294.231 607.838 320.741 595.233C335.79 588.057 351.23 581.508 366.152 575.177C379.353 569.594 392.99 563.799 406.348 557.592C450.686 537.016 501.21 525.529 550.073 514.409C641.487 493.624 735.998 472.12 795.239 390.388C814.734 363.358 828.311 332.522 835.083 299.892C841.855 267.261 841.67 233.569 834.541 201.015C820.531 136.657 780.129 81.3982 723.718 49.4097C701.899 37.0362 678.319 26.867 655.515 17.025Z" fill="#B7B6B8"/>
<path d="M614.798 50.5698C593.064 39.2081 570.587 27.461 549.763 14.0338C485.663 -27.2934 451.187 -83.7621 447.291 -153.768C445.239 -190.676 449.504 -226.456 459.165 -258.1L456.299 -257.294C446.877 -225.743 442.74 -190.228 444.775 -153.645C448.718 -82.7641 483.581 -25.6305 548.407 16.1635C569.323 29.6556 591.857 41.4257 613.639 52.8093C649.332 71.4653 686.245 90.7546 716.948 118.071C767.572 163.112 787.451 226.832 770.115 288.533C749.235 362.883 690.39 404.014 644.701 425.426C599.965 446.395 551.715 461.897 505.053 476.875C479.605 485.047 453.308 493.487 427.942 502.714C380.761 519.856 334.454 540.872 289.658 561.182C264.101 572.787 237.684 584.771 211.374 595.914L211.078 596.035C166.189 615.056 119.77 634.731 71.6373 636.773C47.6658 637.797 28.7488 632.985 15.4008 622.501C-9.24832 603.122 -9.78766 567.946 -8.20741 533.58C-6.6694 500.009 -5.69013 465.851 -4.75018 432.82C-3.4607 387.731 -2.1346 341.1 0.646807 295.321C2.01679 272.78 4.04952 249.764 6.00477 227.506C10.7494 173.695 15.6644 118.053 11.8015 63.4814C7.43752 1.81179 -7.91851 -59.6669 -33.8329 -119.409L-36.2751 -118.722C-10.3979 -59.1491 4.94659 2.15935 9.28726 63.6538C13.1295 118.015 8.23439 173.551 3.50152 227.267C1.52573 249.544 -0.500002 272.586 -1.8628 295.148C-4.64454 340.974 -5.97469 387.617 -7.27445 432.736C-8.21711 465.757 -9.18683 499.9 -10.7305 533.444C-11.9041 559.337 -13.8914 602.67 13.8571 624.487C27.6926 635.357 47.1646 640.34 71.7506 639.295C91.0998 638.48 110.14 634.847 128.894 629.571C157.237 621.597 184.93 609.864 212.064 598.364L212.359 598.242C238.691 587.082 265.128 575.086 290.705 563.494C335.447 543.186 381.714 522.205 428.8 505.078C454.122 495.877 480.408 487.443 505.818 479.277C552.562 464.274 600.897 448.751 645.778 427.717C691.944 406.081 751.389 364.491 772.544 289.225C790.143 226.565 769.989 161.868 718.622 116.173C687.685 88.6478 650.626 69.2886 614.798 50.5698Z" fill="#B7B6B8"/>
<path d="M499.764 23.4074C446.572 -16.0626 415.867 -73.0029 410.98 -141.221C409.224 -165.849 408.385 -203.858 414.28 -245.473L411.636 -244.729C407.044 -210.369 405.988 -175.628 408.485 -141.052C413.414 -72.0583 444.467 -14.499 498.277 25.4534C517.538 39.7411 539.476 52.767 562.698 66.5741C633.704 108.735 707.12 152.336 713.909 237.784C720.684 323.163 635.364 373.237 560.272 407.326C534.498 419.028 507.754 429.71 481.88 440.057C467.394 445.857 452.428 451.843 437.785 457.942C421.736 464.626 405.683 471.39 389.626 478.234C335.482 501.191 279.503 524.927 223.108 544.026C144.22 570.759 91.5072 563.955 66.439 523.848C49.8163 497.256 44.117 463.969 39.7146 432.177C38.7498 426.7 37.495 421.278 35.9556 415.935C31.8306 400.231 26.183 378.715 32.3874 370.073L32.5967 369.599C34.5486 360.4 32.9803 350.812 31.4557 341.541C30.8556 337.931 30.3044 334.524 29.9337 331.127C28.3467 316.432 28.9977 301.122 29.6251 286.31L29.8318 281.229C30.9908 252.448 33.7759 223.31 36.4706 195.113C37.641 182.775 38.8653 170.005 39.9357 157.44C46.4055 80.9115 40.2674 7.17535 21.6665 -61.7499C15.5714 -84.357 7.84441 -106.912 0.0498789 -128.94L-2.3711 -128.258C5.42344 -106.231 13.1539 -83.6634 19.2387 -61.0928C37.759 7.53823 43.8645 80.9926 37.4051 157.196C36.3363 169.755 35.1197 182.517 33.9493 194.855C31.2503 223.08 28.4641 252.255 27.3106 281.1L27.0906 286.182C26.4622 301.082 25.8055 316.498 27.4148 331.376C27.7954 334.844 28.3776 338.446 28.9543 341.936C30.435 350.892 31.9443 360.142 30.1727 368.811C23.5207 378.517 29.0579 399.595 33.5151 416.565C35.0257 421.814 36.2612 427.139 37.2164 432.517C41.6573 464.579 47.4027 498.166 64.297 525.178C87.868 562.89 134.775 572.089 203.894 552.644C210.368 550.823 217.052 548.753 223.907 546.432C280.393 527.295 336.417 503.545 390.606 480.565C406.661 473.752 422.69 466.959 438.739 460.271C453.371 454.181 468.336 448.192 482.816 442.407C508.711 432.052 535.485 421.338 561.306 409.626C631.237 377.879 723.392 325.516 716.411 237.583C709.52 150.832 635.528 106.888 563.971 64.3866C540.796 50.6295 518.916 37.6238 499.764 23.4074Z" fill="#B7B6B8"/>
<path d="M1781.91 886.31C1774.61 901.933 1767.2 917.84 1760.37 934.065L1763.49 933.186C1770.08 917.662 1777.18 902.403 1784.19 887.392C1797.57 858.774 1811.39 829.195 1821.12 798.51C1842.07 732.509 1829.93 675.944 1781.8 615.099C1742.72 565.73 1702.35 514.698 1700 443.356C1697.51 367.615 1727.87 298.917 1757.22 232.482C1781.49 177.491 1806.58 120.647 1813.25 59.8039C1820.79 -8.87867 1798.14 -78.7669 1745.97 -147.901C1742.57 -152.422 1739.12 -156.919 1735.7 -161.433C1718.37 -184.189 1700.43 -207.727 1685.61 -232.747C1673.12 -253.784 1663.57 -276.661 1654.34 -298.793C1651.1 -306.542 1647.75 -314.565 1644.33 -322.416C1629.78 -355.63 1610.9 -383.798 1583.07 -413.746C1562.88 -435.504 1537.81 -451.862 1513.55 -467.671C1503.43 -474.271 1492.96 -481.092 1483.03 -488.199C1466.64 -499.921 1449.19 -514.63 1439.01 -533.757L1436.5 -533.049C1446.86 -513.277 1464.75 -498.174 1481.58 -486.144C1491.55 -478.995 1502.05 -472.157 1512.17 -465.548C1536.3 -449.815 1561.25 -433.55 1581.25 -412.015C1608.85 -382.276 1627.59 -354.327 1642 -321.393C1645.44 -313.573 1648.79 -305.561 1652 -297.821C1661.29 -275.617 1670.88 -252.644 1683.43 -231.452C1698.35 -206.304 1716.32 -182.715 1733.69 -159.889C1737.11 -155.387 1740.56 -150.891 1743.96 -146.365C1795.72 -77.7653 1818.21 -8.50018 1810.76 59.5238C1804.13 119.978 1779.11 176.645 1754.89 231.442C1725.45 298.159 1694.98 367.116 1697.48 443.438C1699.83 515.614 1740.51 566.993 1779.83 616.676C1827.39 676.767 1839.38 732.613 1818.74 797.74C1809.05 828.256 1795.26 857.753 1781.91 886.31Z" fill="#B7B6B8"/>
<path d="M517.2 77.5942C480.74 52.2924 443.032 26.1265 416.418 -9.82969C377.43 -62.5078 374.126 -131.589 376.369 -198.39C376.771 -210.359 377.189 -222.662 377.664 -235.173L367.474 -232.307C367.054 -220.914 366.672 -209.7 366.313 -198.769C364.004 -130.124 367.506 -58.9939 408.358 -3.79642C435.971 33.5044 474.369 60.1463 511.509 85.9214C519.214 91.2718 527.19 96.8139 534.874 102.313C595.532 145.736 629.018 187.598 634.407 226.722C637.798 251.347 630.055 275.577 611.402 298.744C564.359 357.167 487.228 390.197 419.177 419.335L413.282 421.868C403.222 426.182 392.968 430.7 383.062 435.074C346.67 451.129 309.052 467.737 270.616 478.55C254.408 483.197 237.877 486.632 221.159 488.828C181.747 493.868 150.966 488.199 129.681 471.971C107.973 455.432 96.2268 429.011 85.1734 401.075C69.5635 337.206 64.8526 273.491 70.7686 206.304C71.3616 199.67 71.9594 193.056 72.5621 186.462C77.7291 129.821 83.0774 71.251 74.4243 12.5509C68.0221 -30.9404 56.4966 -73.8476 45.3576 -115.336C43.199 -123.416 41.007 -131.613 38.8329 -139.84L29.1459 -137.115C31.301 -128.919 33.4794 -120.77 35.6396 -112.729C46.7001 -71.5227 58.1457 -28.8995 64.4597 14.0121C72.9362 71.5049 67.8817 126.873 62.5301 185.505C61.9277 192.115 61.3305 198.738 60.7385 205.373C54.7097 273.82 59.5265 338.724 75.4768 403.803L75.5572 404.137L75.683 404.455C87.3183 433.912 99.7404 461.839 123.613 480.029C147.075 497.929 180.341 504.256 222.461 498.874C239.665 496.618 256.678 493.086 273.358 488.308C312.478 477.303 350.435 460.552 387.13 444.355C397.009 439.989 407.242 435.477 417.256 431.186L423.142 428.668C492.27 399.064 570.618 365.507 619.234 305.141C639.701 279.715 648.165 252.873 644.37 225.37C638.516 182.774 604.603 139.815 540.694 94.0733C532.942 88.5213 524.937 82.9613 517.2 77.5942Z" fill="#B7B6B8"/>
<path d="M463.044 93.7426C420.605 62.8337 376.73 30.8835 352.726 -16.5379C328.499 -64.4264 329.944 -119.196 331.339 -172.161C331.779 -188.719 332.176 -205.743 331.8 -222.267L329.297 -221.562C329.649 -205.302 329.253 -188.542 328.819 -172.24C327.413 -118.95 325.96 -63.8503 350.487 -15.3834C374.758 32.5676 418.888 64.7159 461.567 95.7963C471.837 103.28 482.457 111.007 492.471 118.743C557.326 168.885 579.995 218.051 559.833 264.883C540.065 310.821 489.329 339.486 452.269 360.425C410.648 383.941 360.981 409.971 308.207 424.818L308.198 424.821C289.655 430.11 270.692 433.795 251.517 435.834C184.945 442.605 137.758 410.139 111.275 339.45C94.5349 280.438 101.881 218.785 108.969 159.155C109.742 152.751 110.497 146.359 111.234 139.98C119.269 69.781 115.534 8.85261 99.4636 -51.7416L96.8165 -61.6864C89.2961 -89.951 81.2914 -120.029 75.7126 -150.225L73.2675 -149.537C78.8703 -119.348 86.8669 -89.2987 94.3882 -61.0313L97.0325 -51.0962C113.013 9.18043 116.727 69.8032 108.734 139.679C108.002 146.048 107.249 152.436 106.476 158.841C99.3558 218.719 91.9828 280.634 108.899 340.23C135.853 412.247 183.93 445.261 251.771 438.361C271.092 436.305 290.2 432.593 308.885 427.264L308.895 427.261C361.928 412.341 411.754 386.214 453.509 362.622C490.878 341.521 542.039 312.608 562.146 265.887C582.821 217.856 559.889 167.673 493.998 116.731C483.952 108.974 473.329 101.235 463.044 93.7426Z" fill="#B7B6B8"/>
<path d="M-111.7 -34.5284C-122.331 -53.4241 -135.245 -70.9409 -150.152 -86.6842L-152.862 -85.9219C-137.73 -70.0693 -124.637 -52.3892 -113.887 -33.292C-82.5092 23.0218 -71.5892 89.429 -78.4716 182.02C-84.5812 264.112 -96.7774 338.948 -114.73 404.461C-129.477 458.281 -153.212 505.169 -178.343 554.807C-184.837 567.653 -191.562 580.934 -198.055 594.236C-204.799 608.028 -211.398 622.172 -217.782 635.851C-226.712 655 -235.958 674.784 -245.69 693.918C-247.581 697.606 -249.478 701.464 -251.422 705.408C-263.726 730.326 -277.671 758.558 -299.313 773.852C-305.081 777.963 -311.509 781.058 -318.32 783.004L-318.332 783.008C-366.143 796.432 -422.103 747.53 -443.943 725.877C-483.319 686.847 -516.941 641.796 -548.99 597.111L-546.997 604.195C-516.092 647.113 -483.574 690.131 -445.709 727.68C-418.187 754.961 -364.949 798.734 -317.654 785.429L-317.642 785.425C-310.559 783.411 -303.874 780.201 -297.874 775.932C-275.702 760.262 -261.617 731.723 -249.185 706.54C-247.235 702.605 -245.337 698.764 -243.457 695.077C-233.696 675.909 -224.457 656.102 -215.503 636.946C-209.131 623.27 -202.531 609.139 -195.805 595.358C-189.32 582.082 -182.595 568.803 -176.097 555.969C-150.911 506.212 -127.117 459.217 -112.312 405.152C-94.3183 339.477 -82.092 264.479 -75.9652 182.218C-69.0441 89.1078 -80.0644 22.2592 -111.7 -34.5284Z" fill="#B7B6B8"/>
<path d="M373.457 95.7401C356.704 85.299 339.382 74.4995 323.946 62.7246C294.385 40.1879 276.613 18.4818 268.005 -5.57826C258.558 -31.997 262.299 -60.388 265.919 -87.8601C266.812 -94.5653 267.725 -101.504 268.407 -108.228C270.762 -131.142 274.697 -169.847 269.214 -204.663L266.783 -203.979C272.144 -169.588 268.224 -131.189 265.908 -108.499C265.216 -101.812 264.309 -94.8876 263.428 -88.196C259.763 -60.4339 255.981 -31.7269 265.633 -4.7166C274.415 19.8222 292.459 41.8955 322.417 64.7389C337.949 76.5876 355.324 87.4115 372.132 97.8862C406.551 119.35 442.148 141.543 465.783 174.395C501.066 223.449 473.759 273.689 436.443 304.36C404.834 330.334 364.415 351.508 325.556 362.44C284.404 374.018 209.324 383.32 168.893 315.731C152.644 276.049 149.913 229.286 160.762 176.753C164.1 160.585 168.879 144.032 173.486 128.042C181.977 98.5919 190.758 68.136 191.531 37.535C192.487 -0.131231 177.771 -35.7211 163.539 -70.1275C152.692 -96.381 141.465 -123.53 137.272 -151.414C136.511 -156.628 136.041 -161.881 135.865 -167.149L133.386 -166.451C133.566 -161.293 134.031 -156.149 134.778 -151.042C139.023 -122.838 150.313 -95.5579 161.227 -69.1572C175.35 -35.0005 189.96 0.340654 189.013 37.457C188.25 67.7372 179.512 98.0305 171.066 127.328C166.448 143.362 161.658 159.965 158.296 176.228C147.338 229.278 150.118 276.529 166.662 316.852C208.032 386.067 284.411 376.652 326.245 364.883L326.257 364.88C365.436 353.858 406.173 332.52 438.038 306.32C476.24 274.929 504.13 223.384 467.824 172.918C443.89 139.659 408.088 117.33 373.457 95.7401Z" fill="#B7B6B8"/>
<path d="M-145.502 -11.8314C-161.888 -35.8669 -186.655 -57.6849 -215.062 -68.4233L-219.269 -67.2399C-189.982 -57.2061 -164.342 -34.9866 -147.575 -10.4119C-117.603 33.5179 -104.082 90.644 -106.215 164.237C-108.217 232.718 -120.396 308.195 -141.463 382.511C-160.013 447.965 -191.209 503.584 -232.337 566.956C-234.166 569.778 -236.052 572.719 -238.013 575.756C-264.167 616.439 -299.987 672.167 -346.484 685.248L-346.497 685.251C-353.716 687.302 -361.209 688.22 -368.709 687.974C-419.182 686.176 -459.007 646.918 -494.547 604.76C-528.366 564.626 -556.761 520.079 -583.281 475.218L-580.65 484.572C-555.447 526.784 -528.375 568.522 -496.452 606.397C-460.554 648.987 -420.24 688.662 -368.783 690.506C-361.027 690.755 -353.278 689.802 -345.813 687.68L-345.801 687.676C-298.386 674.337 -262.264 618.156 -235.901 577.133C-233.94 574.097 -232.053 571.158 -230.232 568.35C-188.971 504.78 -157.676 448.97 -139.045 383.214C-117.918 308.708 -105.698 233.011 -103.705 164.317C-101.539 90.1695 -115.214 32.5393 -145.502 -11.8314Z" fill="#B7B6B8"/>
<path d="M524.574 1266.48L524.562 1266.49C520.016 1267.77 515.378 1268.92 510.759 1269.89C448.116 1283.05 375.522 1280.09 295.012 1261.12C142.051 1225.05 53.5331 1094.71 6.20744 991.715C-17.6954 928.111 16.0376 880.881 48.5269 852.442C86.9197 818.84 131.862 791.487 175.34 765.055C193.329 754.083 211.955 742.758 229.684 731.225C285.717 694.792 353.085 653.851 428.027 626.68C439.042 622.696 450.695 618.961 462.659 615.595C510.345 602.18 558.73 595.54 605.529 589.122C643.592 583.919 690.981 577.433 735.493 564.911C811.18 543.618 862.295 508.722 891.768 458.202C923.49 403.866 940.588 332.483 938.673 262.338C936.443 180.577 899.79 104.202 868.106 46.7937C830.945 -20.5232 788.828 -60.3504 739.334 -74.9452C732.284 -77.0185 724.749 -78.9575 716.779 -81.014C678.037 -90.9639 634.139 -102.237 614.96 -137.231C599.17 -166.052 607.016 -197.753 634.488 -216.122C641.241 -220.614 648.661 -224.011 656.474 -226.187C675.111 -231.43 697.238 -230.617 724.112 -223.712C737.817 -220.2 751.377 -215.455 764.484 -210.874C784.61 -203.843 805.407 -196.582 826.954 -193.648C855.431 -189.787 886.698 -191.509 922.58 -198.916C934.806 -201.442 947.26 -204.501 960.61 -208.256C997.789 -218.716 1035.3 -232.87 1071.57 -246.55C1108.08 -260.32 1145.84 -274.569 1183.51 -285.168C1241.54 -301.491 1290.37 -306.594 1337.21 -301.218C1392.71 -294.856 1445.07 -266.509 1492.83 -216.998C1549.56 -158.151 1598.97 -98.5308 1639.72 -39.7921C1685.25 25.8676 1699.27 93.2017 1681.38 160.335C1667.97 210.724 1645.23 258.46 1623.24 304.615C1615.44 320.964 1607.39 337.885 1599.88 354.633C1592.68 370.683 1585.99 387.479 1579.52 403.703C1562.65 445.96 1545.23 489.636 1516.92 526.185C1473.54 582.238 1406.7 606.088 1360.22 619.166C1353.26 621.123 1346.14 623.024 1338.43 624.942C1320.34 629.421 1301.54 633.367 1283.36 637.162C1258.53 642.372 1232.82 647.751 1208.13 654.699C1176.09 663.711 1150.64 673.941 1127.98 686.861C1083.88 712.044 1051.79 751.69 1020.73 790.05C1008.54 805.091 995.946 820.657 982.798 835.136C953.485 867.38 919.483 896.215 886.604 924.13C863.506 943.718 839.631 963.974 817.631 985.203C776.405 1025.01 740.891 1070.5 706.551 1114.5C696.51 1127.4 686.111 1140.69 675.698 1153.72C626.241 1215.56 578.219 1251.39 524.574 1266.48ZM463.342 618.04C451.439 621.389 439.836 625.085 428.885 629.077C354.191 656.152 286.97 696.977 231.056 733.348C213.297 744.912 194.659 756.243 176.645 767.218C133.268 793.599 88.424 820.901 50.1825 854.357C18.2941 882.274 -14.8225 928.593 8.53703 990.753C55.5891 1093.14 143.602 1222.81 295.573 1258.65C375.729 1277.54 447.951 1280.48 510.235 1267.4C514.797 1266.44 519.392 1265.33 523.88 1264.06C577.005 1249.12 624.624 1213.56 673.741 1152.13C684.141 1139.11 694.522 1125.8 704.566 1112.95C738.966 1068.86 774.532 1023.27 815.879 983.36C837.933 962.093 861.84 941.797 884.972 922.178C917.793 894.328 951.732 865.554 980.923 833.402C994.024 818.989 1006.61 803.452 1018.77 788.441C1049.97 749.914 1082.23 710.075 1126.75 684.667C1149.55 671.631 1175.21 661.32 1207.43 652.255C1232.23 645.279 1257.95 639.895 1282.84 634.693C1300.99 630.879 1319.77 626.965 1337.81 622.474C1345.49 620.568 1352.6 618.695 1359.53 616.745C1405.69 603.759 1472.02 580.078 1514.93 524.637C1543.02 488.354 1560.38 444.848 1577.16 402.738C1583.65 386.484 1590.36 369.684 1597.57 353.579C1605.1 336.8 1613.15 319.879 1620.94 303.508C1642.89 257.465 1665.58 209.843 1678.96 159.667C1696.63 93.2935 1682.73 26.6616 1637.63 -38.3473C1596.97 -96.9806 1547.63 -156.49 1491.01 -215.236C1443.68 -264.321 1391.85 -292.412 1336.92 -298.707C1290.42 -304.04 1241.89 -298.957 1184.19 -282.726C1146.62 -272.154 1108.92 -257.936 1072.44 -244.173C1036.12 -230.48 998.563 -216.315 961.29 -205.829C947.868 -202.053 935.393 -198.985 923.097 -196.44C886.948 -188.985 855.382 -187.243 826.641 -191.14C804.835 -194.098 783.908 -201.411 763.67 -208.488C750.608 -213.043 737.092 -217.762 723.493 -221.255C697.056 -228.056 675.359 -228.864 657.158 -223.743C649.596 -221.642 642.414 -218.354 635.881 -214.004C609.564 -196.405 602.034 -166.046 617.164 -138.45C635.817 -104.422 679.151 -93.2812 717.392 -83.4707C725.389 -81.4094 732.935 -79.4632 740.029 -77.3733C790.195 -62.5864 832.807 -22.3683 870.291 45.5692C902.123 103.225 938.927 179.964 941.185 262.275C943.103 332.874 925.893 404.761 893.94 459.489C864.122 510.589 812.522 545.876 736.176 567.354C691.5 579.923 644.02 586.406 605.862 591.637C559.161 598.032 510.862 604.672 463.342 618.04Z" fill="#B7B6B8"/>
<path d="M521.771 1218.75L521.759 1218.76C480.679 1230.31 435.138 1231.74 390.083 1222.91C330.447 1211.2 271.495 1183.53 219.597 1142.84C168.892 1103.11 127.105 1052.83 98.7509 997.436L98.5623 997.035C80.0437 951.544 94.0373 905.001 140.126 858.683C181.667 816.945 231.942 776.171 293.813 734.036C351.289 694.89 406.951 668.045 463.99 651.998C471.735 649.819 479.608 647.833 487.376 646.054C538.85 634.387 592.483 628.861 644.368 623.52C664.596 621.458 685.496 619.305 705.874 616.818C718.293 615.305 731.09 613.961 743.461 612.636C785.468 608.147 828.9 603.512 869.442 592.107C878.372 589.594 887.004 586.787 895.12 583.769C919.44 574.746 945.841 561.586 957.303 532.77C966.124 510.582 969.043 485.39 971.855 461.037C972.39 456.447 972.917 451.887 973.479 447.387C974.718 437.453 976.05 427.446 977.382 417.353C984.968 360.296 992.817 301.291 985.571 244.883C978.316 188.262 954.404 132.473 931.284 78.5026C926.177 66.5717 920.882 54.2409 915.969 42.2814C890.587 -19.2822 868.743 -88.9947 931.131 -137.233C987.669 -180.934 1056.96 -203.277 1123.97 -224.897L1131.43 -227.313C1145.52 -231.86 1157.98 -235.642 1169.47 -238.876C1237.98 -258.149 1290.47 -262.482 1339.68 -252.903C1404.96 -240.187 1456.05 -194.81 1497.41 -152.094C1505.02 -144.242 1512.96 -136.228 1520.62 -128.469C1561.76 -86.9091 1604.31 -43.9309 1631.32 8.10706C1660.62 64.5382 1662.05 131.56 1635.5 201.901C1623.71 233.191 1608.12 263.243 1593.07 292.33C1591.09 296.186 1589.09 300.071 1587.08 303.934C1581.87 314.074 1576.96 324.784 1572.22 335.148C1563.44 354.33 1554.34 374.189 1542.54 392.092C1536.19 401.692 1530.19 411.825 1524.39 421.62C1512.43 441.849 1500.06 462.756 1483.64 480.767C1460.58 505.993 1431.59 527.262 1397.5 543.904C1375.41 554.543 1352.4 563.163 1328.76 569.66C1277.48 584.087 1223.74 590.428 1171.75 596.557C1163.13 597.561 1154.35 598.359 1145.03 599.205C1120.77 601.414 1095.67 603.682 1072.92 610.083C1039.65 619.441 1018.57 635.695 1006.58 661.235C999.183 676.987 993.384 693.834 987.771 710.123C981.448 728.489 974.905 747.473 965.999 765.298C950.359 796.822 930.324 825.967 906.493 851.86C887.382 872.507 867.554 893.122 848.388 913.07C813.567 949.269 777.574 986.709 744.606 1025.53C734.167 1037.82 723.679 1050.84 713.53 1063.41C677.714 1107.8 640.68 1153.7 593.102 1185.8C571.239 1200.52 547.156 1211.65 521.771 1218.75ZM107.799 993.034C164.661 1103.92 276.178 1190.25 391.978 1212.97C435.501 1221.49 479.441 1220.14 519.018 1209C543.382 1202.19 566.494 1191.51 587.471 1177.37C633.806 1146.13 670.35 1100.82 705.709 1057.02C715.889 1044.39 726.418 1031.33 736.943 1018.93C770.104 979.856 806.208 942.313 841.126 906.008C860.275 886.088 880.072 865.504 899.11 844.959C922.293 819.753 941.782 791.385 956.995 760.703C965.609 743.492 972.04 724.819 978.252 706.764C983.949 690.223 989.852 673.118 997.467 656.873C1010.6 628.882 1034.39 610.373 1070.17 600.308C1093.81 593.656 1119.39 591.356 1144.09 589.121C1153.35 588.294 1162.07 587.491 1170.54 586.498C1222.14 580.404 1275.48 574.116 1326.01 559.901C1349.07 553.572 1371.51 545.163 1393.05 534.779C1426.03 518.677 1454 498.205 1476.2 473.899C1491.95 456.663 1504.04 436.19 1515.73 416.42C1521.59 406.502 1527.66 396.273 1534.13 386.463C1545.53 369.207 1554.44 349.732 1563.06 330.873C1567.85 320.421 1572.79 309.597 1578.12 299.244C1580.13 295.384 1582.13 291.496 1584.13 287.611C1599.06 258.813 1614.49 229.008 1626.08 198.268C1643.87 151.15 1657.66 80.7238 1622.39 12.7713C1596.08 -37.8984 1554.1 -80.3207 1513.49 -121.345C1505.8 -129.109 1497.84 -137.154 1490.21 -145.04C1449.93 -186.624 1400.35 -230.792 1337.79 -242.953C1290.21 -252.227 1239.15 -247.95 1172.21 -229.121C1160.84 -225.92 1148.53 -222.176 1134.55 -217.664L1127.09 -215.252C1060.89 -193.892 992.439 -171.819 937.307 -129.182C880.539 -85.3022 900.237 -22.3181 925.27 38.4412C930.159 50.3293 935.445 62.6274 940.542 74.5216C963.946 129.134 988.147 185.593 995.57 243.623C1002.96 301.359 995.046 361.03 987.364 418.734C986.041 428.767 984.711 438.782 983.477 448.688C982.921 453.157 982.382 457.672 981.86 462.232C978.975 487.267 975.981 513.138 966.668 536.556C953.746 569.053 925.035 583.472 898.652 593.278C890.283 596.394 881.382 599.279 872.194 601.864C830.841 613.497 786.978 618.178 744.569 622.705C732.232 624.02 719.475 625.379 707.134 626.9C686.669 629.385 665.702 631.531 645.45 633.626C593.853 638.909 540.53 644.4 489.645 655.954C482.036 657.664 474.333 659.628 466.752 661.761C410.772 677.51 356.063 703.912 299.485 742.42C238.146 784.204 188.359 824.585 147.271 865.868C104.371 908.937 91.0936 951.729 107.799 993.034Z" fill="#B7B6B8"/>
<path d="M1316.13 495.451C1270.02 508.423 1223.54 512.089 1185.32 505.774C1136.51 497.717 1101.16 474.44 1080.23 436.555C1063.49 395.359 1059.72 351.136 1056.06 308.365C1054.05 285.092 1052 261.029 1047.89 237.761C1039.65 191.255 1022.67 149.939 1004.69 106.202C1000.43 95.8621 996.029 85.161 991.812 74.4966C975.607 33.5686 959.608 -19.5984 980.09 -67.9592C996.743 -107.301 1033.32 -137.298 1091.91 -159.653C1113.53 -167.902 1133.21 -174.491 1152.13 -179.814C1197.13 -192.475 1236.74 -197.62 1273.24 -195.561C1336.63 -191.977 1398.35 -165.884 1451.71 -120.103C1501.29 -77.5457 1555.89 -26.1803 1584.83 32.0639C1613.87 90.5853 1610.38 154.082 1573.81 231.896C1530.96 323.144 1459.11 449.266 1330.48 491.11C1325.76 492.64 1320.94 494.096 1316.13 495.451ZM1152.82 -177.364C1133.99 -172.067 1114.36 -165.493 1092.83 -157.28C1034.91 -135.178 998.784 -105.64 982.402 -66.958C962.288 -19.4507 978.11 33.0981 994.137 73.5682C998.38 84.2172 1002.75 94.9092 1007.01 105.25C1025.06 149.122 1042.09 190.551 1050.36 237.34C1054.5 260.713 1056.57 284.833 1058.56 308.164C1062.2 350.739 1065.99 394.766 1082.48 435.471C1137.09 534.288 1274.59 504.508 1315.44 493.017C1320.23 491.668 1325.03 490.217 1329.7 488.7C1457.4 447.169 1528.88 321.632 1571.56 230.815C1607.75 153.752 1611.24 90.9638 1582.56 33.2032C1553.86 -24.6476 1499.48 -75.784 1450.07 -118.172C1397.15 -163.587 1335.94 -189.48 1273.11 -193.027C1236.88 -195.071 1197.54 -189.951 1152.81 -177.369L1152.82 -177.364Z" fill="#B7B6B8"/>
<path d="M1320.31 421.969L1320.28 421.976C1284.89 432.187 1247.14 430.672 1212.67 417.656C1167.51 400.916 1138.36 357.786 1123.53 285.784C1108.9 214.854 1083.04 150.354 1055.67 82.0712C1052.93 75.2209 1050.19 68.362 1047.45 61.4947C1028.38 6.16789 1033.28 -38.4278 1062.02 -71.0739C1083.68 -95.6824 1115.1 -113.918 1155.4 -125.255C1174.14 -130.458 1193.32 -133.93 1212.69 -135.628C1277.12 -141.442 1342.4 -124.947 1401.46 -87.9327C1466.23 -47.3797 1516.74 5.5956 1540.06 57.3897C1563.46 109.357 1556.35 166.766 1517.71 238.096C1498.43 273.607 1427.26 391.88 1320.31 421.969ZM1156.09 -122.811C1116.26 -111.605 1085.24 -93.6349 1063.89 -69.3813C1035.82 -37.4659 1031.08 6.27199 1049.79 60.6203C1052.52 67.4357 1055.26 74.2883 1058.02 81.1304C1084.23 146.509 1111.34 214.128 1126 285.279C1140.65 356.356 1169.27 398.875 1213.52 415.262C1247.49 428.107 1284.71 429.606 1319.6 419.532C1425.64 389.7 1496.33 272.195 1515.49 236.868C1553.74 166.314 1560.81 109.606 1537.77 58.4295C1514.65 7.08278 1464.48 -45.4816 1400.14 -85.7874C1341.54 -122.511 1276.81 -138.872 1212.94 -133.114C1193.72 -131.424 1174.69 -127.976 1156.09 -122.811Z" fill="#B7B6B8"/>
<path d="M327.093 291.089L327.08 291.093C294.858 300.144 253.911 295.679 235.055 265.256C225.392 244.794 225.564 219.574 235.445 197.686C244.835 176.873 261.521 161.768 281.25 156.217C288.584 154.171 296.22 153.426 303.811 154.014C325.719 155.664 357.607 168.048 375.856 191.357C385.953 204.254 390.029 218.742 387.648 233.272C383.334 259.628 360.137 281.793 327.093 291.089ZM281.934 158.65C262.922 163.998 246.818 178.605 237.739 198.738C228.163 219.96 227.996 244.383 237.269 264.051C255.356 293.226 295.084 297.459 326.398 288.649L326.411 288.646C358.502 279.618 381.018 258.243 385.175 232.846C387.471 218.85 383.671 205.411 373.882 192.924C356.102 170.204 325.013 158.141 303.637 156.534C296.335 155.962 288.988 156.676 281.933 158.645L281.934 158.65Z" fill="#B7B6B8"/>
<path d="M1339.13 317.943L1339.1 317.949C1329.76 320.6 1320.14 322.199 1310.44 322.714C1251.79 325.723 1220.48 277.187 1207.04 247.987C1194.38 220.456 1183.41 191.675 1172.82 163.838C1163.31 138.88 1153.49 113.075 1142.5 88.357L1142.32 87.8768C1131.6 55.1956 1113.65 0.491556 1153.79 -30.5552C1166.31 -40.1578 1180.58 -47.2495 1195.8 -51.4402C1236.76 -62.9638 1280.01 -54.7262 1309.06 -45.7823C1378.17 -24.5181 1492.56 38.5464 1483 140.035C1475.79 216.562 1409.89 298.035 1339.13 317.943ZM1151.79 84.4874C1162.85 109.389 1172.71 135.234 1182.23 160.239C1192.76 187.923 1203.65 216.552 1216.18 243.767C1228.55 270.632 1257.17 315.292 1309.88 312.601C1318.84 312.119 1327.72 310.641 1336.36 308.195C1403.55 289.292 1466.11 211.826 1472.97 139.034C1481.91 44.064 1372.32 -15.7351 1306.15 -36.1018C1278.38 -44.6465 1237.18 -52.5592 1198.54 -41.6895C1184.56 -37.8461 1171.46 -31.3382 1159.96 -22.5236C1128.19 2.05406 1139.04 45.5677 1151.79 84.4874Z" fill="#B7B6B8"/>
<path d="M704.283 1231.17C709.738 1221.85 715.061 1212.51 720.321 1203.25C733.47 1180.12 747.057 1156.21 762.297 1134.02C803.808 1073.65 852.893 1023.42 908.186 984.759C940.265 962.345 975.418 943.73 1009.4 925.724C1040.64 909.175 1072.96 892.042 1102.9 871.979C1108.84 867.998 1115.01 863.728 1121.41 859.342C1171.21 824.964 1233.21 782.211 1293.26 796.057C1309.41 799.807 1319.77 807.264 1324.08 818.252C1335.95 848.543 1300.56 900.806 1279.43 932.033C1274.67 939.103 1270.52 945.19 1267.59 950.021C1240.35 994.892 1219.47 1042.28 1202.89 1090.9L1205.85 1090.07C1222.28 1042.18 1242.91 995.538 1269.74 951.344C1272.66 946.566 1276.76 940.494 1281.53 933.47C1304.33 899.767 1338.79 848.885 1326.43 817.312C1321.79 805.504 1310.82 797.531 1293.81 793.592C1232.68 779.494 1170.2 822.612 1119.98 857.231C1113.61 861.637 1107.44 865.884 1101.5 869.862C1071.67 889.871 1039.41 906.962 1008.21 923.496C974.165 941.521 938.959 960.175 906.754 982.677C851.205 1021.51 801.913 1071.95 760.23 1132.57C744.931 1154.86 731.302 1178.81 718.143 1201.99C712.451 1212.01 706.706 1222.09 700.774 1232.16L704.283 1231.17Z" fill="#B7B6B8"/>
<path d="M18.8629 1376.92C-16.6736 1370.69 -38.9359 1358.54 -51.1739 1338.7C-65.7893 1315.02 -66.4374 1285.76 -67.065 1257.47C-67.1237 1254.37 -67.1924 1251.3 -67.2775 1248.23C-69.759 1161.55 -92.5872 1096.96 -137.074 1050.74C-180.062 1006.07 -237.75 987.177 -293.536 968.912C-350.242 950.348 -408.871 931.155 -451.869 884.844C-460.731 875.229 -468.989 865.076 -476.597 854.441L-474.666 861.306C-468.126 870.089 -461.131 878.524 -453.709 886.575C-410.274 933.378 -351.318 952.652 -294.319 971.336C-238.813 989.503 -181.437 1008.29 -138.883 1052.49C-94.8575 1098.23 -72.2604 1162.28 -69.7971 1248.3C-69.714 1251.34 -69.649 1254.42 -69.5741 1257.52C-68.9717 1284.82 -68.2969 1315.75 -53.3255 1340.01C-36.6854 1366.98 -4.40085 1375.4 18.4323 1379.4C60.8346 1386.82 103.823 1388.72 146.118 1388.19L155.683 1385.5C110.432 1386.44 64.2882 1384.87 18.8629 1376.92Z" fill="#B7B6B8"/>
<path d="M525.362 1154.34C517.466 1156.57 509.426 1158.24 501.299 1159.36C373.673 1176.83 278.115 1064.47 232.516 995.966C205.263 944.845 223.212 885.776 285.788 820.261C340.179 763.342 400.564 724.747 465.271 705.58C545.008 681.956 632.867 680.444 691.361 681.335C695.551 681.403 700.058 681.424 704.797 681.461C760.621 681.786 844.971 682.277 863.309 742.321C877.606 789.123 840.216 841.439 812.918 879.629C810.762 882.671 808.662 885.594 806.67 888.437C777.28 930.056 742.069 968.242 708.002 1005.19C694.766 1019.54 681.098 1034.37 667.993 1049.14C628.092 1094.17 583.189 1138.07 525.362 1154.34ZM472.103 706.244C470.057 706.819 468.031 707.413 465.994 708.012C401.708 727.062 341.693 765.428 287.616 822.03C225.869 886.652 208.063 944.742 234.658 994.654C279.876 1062.58 374.676 1174.14 500.945 1156.85C508.958 1155.74 516.887 1154.09 524.674 1151.9C581.879 1135.8 626.457 1092.2 666.118 1047.46C679.226 1032.66 692.914 1017.8 706.148 1003.46C740.155 966.573 775.321 928.453 804.612 886.962C806.601 884.117 808.703 881.196 810.881 878.148C837.866 840.376 874.827 788.664 860.905 743.053C843.104 684.781 759.873 684.305 704.796 683.975C700.051 683.966 695.531 683.944 691.339 683.88C634.495 683.002 549.927 684.35 472.103 706.244Z" fill="#B7B6B8"/>
<path d="M534.44 1086.28L534.431 1086.28C505.218 1094.5 476.2 1093.58 448.193 1083.56C399.595 1066.18 357.936 1025.38 333.91 971.622C322.7 945.127 321.024 916.18 329.181 890.047C352.094 816.745 430.697 770.793 496.63 752.245C507.335 749.216 518.203 746.794 529.181 744.988C567.638 738.623 606.693 736.646 645.596 739.097C682.766 741.55 724.231 747.485 750.028 772.968C775.844 798.476 771.938 840.075 738.752 893.263C702.859 950.762 655.846 1005.91 609.744 1044.57C585.346 1065.06 560.011 1079.08 534.44 1086.28ZM497.32 754.69C432.023 773.06 354.191 818.467 331.582 890.818C323.616 916.367 325.253 944.719 336.217 970.623C359.954 1023.72 401.079 1064.02 449.019 1081.17C476.545 1091.02 505.047 1091.91 533.743 1083.84L533.752 1083.83C558.983 1076.73 584.009 1062.87 608.13 1042.64C654.027 1004.12 700.864 949.196 736.627 891.913C769.576 839.099 773.492 799.698 748.268 774.763C723.069 749.872 682.142 744.038 645.453 741.628C606.738 739.201 567.872 741.175 529.602 747.512C518.714 749.29 507.936 751.687 497.32 754.69Z" fill="#B7B6B8"/>
<path d="M547.095 986.925C515.651 995.771 474.526 991.083 453.428 951.342L453.349 951.188L452.856 948.992C447.086 923.25 441.629 898.942 457.551 874.4C472.142 851.934 495.137 835.726 524.045 827.594C525.137 827.286 526.237 827.003 527.331 826.721C548.712 821.264 596.537 815.874 624.54 834.6C629.963 838.095 634.564 842.726 638.023 848.172C641.482 853.619 643.717 859.751 644.574 866.146C651.018 909.02 605.702 956.995 573.035 975.922C564.883 980.662 556.168 984.359 547.095 986.925ZM455.738 950.313C476.152 988.572 515.937 993.052 546.407 984.48C555.278 981.968 563.801 978.361 571.779 973.741C603.846 955.162 648.365 908.219 642.084 866.517C641.278 860.474 639.169 854.679 635.902 849.533C632.635 844.387 628.288 840.012 623.163 836.712C595.894 818.489 548.962 823.804 527.965 829.178C526.878 829.461 525.801 829.738 524.733 830.039C496.412 838.006 473.914 853.82 459.659 875.812C444.326 899.427 449.412 922.138 455.317 948.452L455.738 950.313Z" fill="#B7B6B8"/>
<path d="M1256.07 1075.94C1297.95 1000.6 1361.71 934.248 1436.81 888.213C1473.31 865.85 1524.79 842.133 1562.67 856.154C1582.21 863.414 1596.43 880.158 1604.96 905.963C1612.25 927.98 1616.6 950.75 1619.45 973.709L1621.9 973.021C1619.02 950.069 1614.65 927.253 1607.35 905.163C1598.58 878.59 1583.83 861.311 1563.52 853.784C1524.7 839.395 1472.47 863.403 1435.49 886.047C1359.31 932.741 1294.69 1000.27 1252.64 1076.9L1256.07 1075.94Z" fill="#B7B6B8"/>
</g>
<defs>
<clipPath id="clip0_1132_16807">
<rect width="3000" height="1500" fill="white" transform="translate(-698 67.4395) rotate(-15.7126)"/>
</clipPath>
</defs>
</svg>
