<svg width="96" height="97" viewBox="0 0 96 97" fill="none" xmlns="http://www.w3.org/2000/svg">
<circle opacity="0.25" cx="48" cy="48.0059" r="48" fill="#6BD1C9"/>
<path d="M29.4 57.7559C27.9 54.7559 27 51.4559 27 48.0059C27 36.4559 36.45 27.0059 48 27.0059V30.0059C38.1 30.0059 30 38.1059 30 48.0059C30 51.0059 30.75 53.7059 32.1 56.2559L29.4 57.7559ZM66 48.0059C66 57.9059 57.9 66.0059 48 66.0059C43.65 66.0059 39.6 64.5059 36.45 61.8059L45 53.2559L42.9 51.0059L33.15 60.7559C32.55 61.3559 32.55 62.2559 33.15 62.8559C37.05 66.7559 42.45 69.0059 48 69.0059C59.55 69.0059 69 59.5559 69 48.0059H66Z" fill="#007A71"/>
<path d="M52.1281 56.9691L51.5493 52.1938L51.5369 52.0917L51.4352 52.107L48.4352 52.557L48.3373 52.5717L48.351 52.6697L49.4 60.163C49.4035 60.8025 49.875 61.2769 50.3472 61.4435C50.4429 61.5287 50.5713 61.567 50.6836 61.5857C50.8043 61.6059 50.9235 61.6059 50.9981 61.6059H51C51.3238 61.6059 51.6418 61.4468 51.9327 61.3013L51.9447 61.2953L51.9528 61.2913L51.96 61.2859L57.9578 56.7875C58.4415 56.4638 58.6 55.9781 58.6 55.5059V47.1473L63.0707 42.6766C65.0399 40.7074 66.1 38.1317 66.1 35.2559V33.0059C66.1 31.3006 64.7052 29.9059 63 29.9059H60.75C58.0249 29.9059 55.299 30.9654 53.3293 32.9351L48.8586 37.4059H40.5C40.0266 37.4059 39.5576 37.5639 39.0945 37.8727L39.0803 37.8822L39.07 37.8959L34.57 43.8959L34.5699 43.8958L34.5668 43.9004C34.2449 44.3832 34.2485 45.0175 34.4051 45.4875C34.5649 45.9666 35.0439 46.4523 35.6929 46.4558L43.1862 47.5049L43.2842 47.5186L43.2989 47.4207L43.7489 44.4207L43.7642 44.319L43.6621 44.3066L38.8867 43.7278L41.2991 40.6059H49.5C49.7367 40.6059 49.9384 40.5663 50.1219 40.4847C50.3049 40.4034 50.4648 40.2825 50.6207 40.1266L55.4207 35.3266L55.4208 35.3267L55.4243 35.3228C56.7531 33.8464 58.6747 33.1059 60.6 33.1059H62.75V35.4059C62.75 37.3266 61.8626 39.2518 60.5293 40.5851L55.7293 45.3851C55.5734 45.5411 55.4525 45.7009 55.3711 45.884C55.2896 46.0675 55.25 46.2692 55.25 46.5059V54.5568L52.1281 56.9691Z" fill="#007A71" stroke="#007A71" stroke-width="0.2"/>
</svg>
