<svg width="214" height="49" viewBox="0 0 214 49" fill="none" xmlns="http://www.w3.org/2000/svg">
<path d="M19.9651 2.3038L10.1939 0L0.90564 15.0103L19.9651 2.3038Z" fill="#F2EBF3"/>
<path d="M22.2826 5.82422L14.8037 21.4224L1.78906 19.457L22.2826 5.82422Z" fill="#F2EBF3"/>
<path d="M16.8618 26.8308L27.0984 5.43164L43.3478 15.5879L16.8618 26.8308Z" fill="#F2EBF3"/>
<path d="M38.0816 22.4238L22.0736 44.5058L18.0651 30.9206L38.0816 22.4238Z" fill="#F2EBF3"/>
<path d="M37.3589 30.5605L24.1493 48.7831L31.7824 45.4848L37.3589 30.5605Z" fill="#F2EBF3"/>
<path d="M61.4049 32.9188V25.568C61.4049 23.7541 60.477 22.1094 58.6472 22.1094C56.8175 22.1094 55.779 23.7541 55.779 25.568V32.9277H52.4482V19.1465H55.5346L55.7819 20.8179C56.4917 19.4256 58.048 18.9238 59.3337 18.9238C60.9424 18.9238 62.5569 19.5918 63.319 21.4889C64.5233 19.5354 66.0796 18.9802 67.8279 18.9802C71.6502 18.9802 73.5352 21.3761 73.5352 25.5116V32.9336H70.2045V25.5116C70.2045 23.6977 69.4656 22.1658 67.665 22.1658C65.8643 22.1658 64.7415 23.7452 64.7415 25.568V32.9277L61.4049 32.9188Z" fill="#F2EBF3"/>
<path d="M78.8418 15.3045C78.8418 17.9527 74.9089 17.9527 74.9089 15.3045C74.9089 12.6563 78.8418 12.6563 78.8418 15.3045ZM75.2086 19.1254V32.9244H78.5422V19.1254H75.2086Z" fill="#F2EBF3"/>
<path d="M83.5275 13.4355V32.9228H80.2229V13.4355H83.5275Z" fill="#F2EBF3"/>
<path d="M94.7206 22.8296C93.7636 21.9123 92.6844 21.6035 91.387 21.6035C89.8045 21.6035 88.9289 22.1052 88.9289 22.9691C88.9289 23.8331 89.7201 24.3645 91.4422 24.4743C93.9818 24.6436 97.2049 25.2284 97.2049 28.8801C97.2049 31.3056 95.2675 33.3956 91.4161 33.3956C89.2838 33.3956 87.1544 33.0334 85.188 30.9434L86.8257 28.5179C88.1086 29.8835 89.9674 30.412 91.4801 30.4416C92.7367 30.4684 93.9119 29.9399 93.9119 28.9365C93.9119 27.9894 93.1469 27.4521 91.2357 27.3481C88.6962 27.1522 85.6621 26.2052 85.6621 23.082C85.6621 19.9024 88.8853 18.7891 91.3433 18.7891C93.4465 18.7891 95.0319 19.2077 96.5795 20.6L94.7206 22.8296Z" fill="#F2EBF3"/>
<path d="M109.586 19.1824H112.786V32.928H109.644L109.479 30.9181C108.713 32.5361 106.61 33.3169 105.115 33.3436C101.127 33.3733 98.1772 30.8647 98.1772 26.0403C98.1772 21.2902 101.264 18.8202 105.197 18.8499C107 18.8499 108.719 19.7138 109.484 21.0795L109.586 19.1824ZM101.499 26.0403C101.499 28.6618 103.277 30.2234 105.49 30.2234C110.726 30.2234 110.726 21.887 105.49 21.887C103.277 21.887 101.499 23.4218 101.499 26.0403Z" fill="#F2EBF3"/>
<path d="M119.991 15.3047V19.2087H123.706V22.1359H119.965V28.0735C119.965 29.3828 120.675 30.0241 121.71 30.0241C122.271 30.0083 122.822 29.8653 123.322 29.6055L124.25 32.506C123.376 32.8801 122.44 33.0815 121.492 33.0997C118.572 33.2007 116.675 31.5114 116.675 28.0735V22.1359H114.162V19.2087H116.675V15.6669L119.991 15.3047Z" fill="#F2EBF3"/>
<path d="M130.112 28.7681C130.112 28.0398 130.316 27.4061 130.724 26.8671C131.146 26.3136 131.722 25.8911 132.45 25.5998C133.178 25.2938 134.023 25.1409 134.985 25.1409C135.494 25.1409 136.012 25.1773 136.536 25.2501C137.075 25.323 137.548 25.4395 137.956 25.5998V24.8787C137.956 24.0775 137.716 23.4511 137.235 22.9995C136.754 22.5479 136.063 22.3221 135.159 22.3221C134.518 22.3221 133.914 22.4387 133.346 22.6717C132.778 22.8903 132.173 23.2034 131.532 23.6113L130.724 21.9944C131.481 21.4845 132.239 21.1058 132.996 20.8581C133.768 20.6105 134.577 20.4867 135.422 20.4867C136.951 20.4867 138.153 20.8945 139.027 21.7103C139.916 22.5115 140.36 23.655 140.36 25.1409V29.4018C140.36 29.6786 140.404 29.8753 140.491 29.9918C140.593 30.1083 140.76 30.1739 140.994 30.1884V32.1113C140.775 32.155 140.578 32.1842 140.404 32.1987C140.229 32.2133 140.083 32.2206 139.967 32.2206C139.457 32.2206 139.071 32.0968 138.808 31.8491C138.546 31.6015 138.393 31.3101 138.35 30.9751L138.284 30.3196C137.789 30.9605 137.155 31.4558 136.383 31.8054C135.611 32.155 134.832 32.3298 134.045 32.3298C133.287 32.3298 132.61 32.1769 132.013 31.871C131.416 31.5505 130.949 31.1208 130.614 30.5818C130.279 30.0428 130.112 29.4382 130.112 28.7681ZM137.388 29.4674C137.563 29.278 137.701 29.0886 137.803 28.8992C137.905 28.7099 137.956 28.5423 137.956 28.3967V27.0856C137.548 26.9254 137.119 26.8088 136.667 26.736C136.216 26.6486 135.771 26.6049 135.334 26.6049C134.46 26.6049 133.746 26.7797 133.193 27.1293C132.654 27.4789 132.384 27.9597 132.384 28.5715C132.384 28.9065 132.472 29.227 132.647 29.5329C132.836 29.8388 133.098 30.0865 133.433 30.2759C133.783 30.4652 134.213 30.5599 134.722 30.5599C135.247 30.5599 135.749 30.4579 136.23 30.254C136.711 30.0501 137.097 29.7878 137.388 29.4674ZM147.34 32.3298C146.379 32.3298 145.468 32.1769 144.609 31.871C143.749 31.5505 143.014 31.0771 142.402 30.4507L143.298 28.8337C143.953 29.4164 144.609 29.8388 145.264 30.101C145.934 30.3633 146.597 30.4944 147.253 30.4944C147.923 30.4944 148.469 30.3705 148.892 30.1229C149.314 29.8607 149.525 29.4819 149.525 28.9867C149.525 28.6225 149.416 28.353 149.198 28.1782C148.979 28.0034 148.659 27.8504 148.236 27.7193C147.828 27.5882 147.333 27.4425 146.75 27.2823C145.934 27.0346 145.25 26.7797 144.696 26.5175C144.143 26.2407 143.728 25.9057 143.451 25.5124C143.174 25.119 143.036 24.6165 143.036 24.0046C143.036 23.2617 143.225 22.628 143.604 22.1036C143.982 21.5792 144.507 21.1786 145.177 20.9018C145.862 20.625 146.648 20.4867 147.537 20.4867C148.367 20.4867 149.132 20.6178 149.831 20.88C150.545 21.1276 151.171 21.5209 151.71 22.0599L150.683 23.655C150.174 23.1889 149.649 22.8465 149.11 22.628C148.586 22.4095 148.018 22.3003 147.406 22.3003C147.056 22.3003 146.721 22.344 146.401 22.4314C146.08 22.5042 145.811 22.6499 145.592 22.8684C145.388 23.0723 145.286 23.3637 145.286 23.7424C145.286 24.0483 145.374 24.296 145.548 24.4854C145.723 24.6747 145.985 24.835 146.335 24.9661C146.685 25.0972 147.114 25.2429 147.624 25.4031C148.513 25.6653 149.27 25.9275 149.897 26.1897C150.523 26.4374 151.004 26.7651 151.339 27.173C151.689 27.5663 151.863 28.1126 151.863 28.8118C151.863 29.919 151.448 30.7857 150.618 31.4121C149.802 32.0239 148.71 32.3298 147.34 32.3298ZM160.499 32.3298C159.581 32.3298 158.773 32.1113 158.074 31.6743C157.374 31.2373 156.821 30.6692 156.413 29.9699V36.7656H154.009V20.6833H156.129V22.7373C156.566 22.0526 157.134 21.5064 157.833 21.0985C158.532 20.6906 159.312 20.4867 160.171 20.4867C160.958 20.4867 161.679 20.6469 162.335 20.9674C162.99 21.2733 163.558 21.703 164.039 22.2566C164.52 22.8101 164.891 23.4438 165.153 24.1576C165.43 24.8568 165.568 25.5998 165.568 26.3864C165.568 27.4789 165.35 28.4768 164.913 29.38C164.491 30.2831 163.893 31.0042 163.121 31.5432C162.364 32.0676 161.49 32.3298 160.499 32.3298ZM159.712 30.2759C160.222 30.2759 160.681 30.1666 161.089 29.9481C161.512 29.7296 161.868 29.4382 162.16 29.0741C162.466 28.7099 162.699 28.2947 162.859 27.8286C163.019 27.3624 163.099 26.8817 163.099 26.3864C163.099 25.862 163.012 25.3667 162.837 24.9005C162.662 24.4344 162.407 24.0265 162.072 23.6769C161.752 23.3273 161.373 23.0505 160.936 22.8465C160.514 22.6426 160.047 22.5406 159.538 22.5406C159.232 22.5406 158.911 22.5989 158.576 22.7154C158.241 22.832 157.928 22.9922 157.637 23.1962C157.345 23.4001 157.09 23.6405 156.872 23.9172C156.653 24.194 156.5 24.4854 156.413 24.7913V27.7849C156.617 28.251 156.886 28.6735 157.221 29.0522C157.556 29.4164 157.943 29.715 158.38 29.9481C158.817 30.1666 159.261 30.2759 159.712 30.2759ZM167.73 32.1113V20.6833H170.134V32.1113H167.73ZM167.73 18.8041V16.1602H170.134V18.8041H167.73ZM179.446 22.7591C178.514 22.7737 177.684 22.9849 176.955 23.3928C176.242 23.8007 175.732 24.3761 175.426 25.119V32.1113H173.022V20.6833H175.251V23.2399C175.644 22.4532 176.161 21.8268 176.802 21.3607C177.443 20.88 178.121 20.6178 178.835 20.5741C178.98 20.5741 179.097 20.5741 179.184 20.5741C179.286 20.5741 179.374 20.5813 179.446 20.5959V22.7591ZM180.343 28.7681C180.343 28.0398 180.547 27.4061 180.955 26.8671C181.378 26.3136 181.953 25.8911 182.681 25.5998C183.41 25.2938 184.255 25.1409 185.216 25.1409C185.726 25.1409 186.243 25.1773 186.767 25.2501C187.306 25.323 187.78 25.4395 188.188 25.5998V24.8787C188.188 24.0775 187.947 23.4511 187.467 22.9995C186.986 22.5479 186.294 22.3221 185.391 22.3221C184.75 22.3221 184.145 22.4387 183.577 22.6717C183.009 22.8903 182.405 23.2034 181.764 23.6113L180.955 21.9944C181.713 21.4845 182.47 21.1058 183.228 20.8581C184 20.6105 184.808 20.4867 185.653 20.4867C187.183 20.4867 188.384 20.8945 189.258 21.7103C190.147 22.5115 190.591 23.655 190.591 25.1409V29.4018C190.591 29.6786 190.635 29.8753 190.722 29.9918C190.824 30.1083 190.992 30.1739 191.225 30.1884V32.1113C191.007 32.155 190.81 32.1842 190.635 32.1987C190.46 32.2133 190.315 32.2206 190.198 32.2206C189.688 32.2206 189.302 32.0968 189.04 31.8491C188.778 31.6015 188.625 31.3101 188.581 30.9751L188.516 30.3196C188.02 30.9605 187.387 31.4558 186.614 31.8054C185.842 32.155 185.063 32.3298 184.276 32.3298C183.519 32.3298 182.842 32.1769 182.244 31.871C181.647 31.5505 181.181 31.1208 180.846 30.5818C180.511 30.0428 180.343 29.4382 180.343 28.7681ZM187.62 29.4674C187.794 29.278 187.933 29.0886 188.035 28.8992C188.137 28.7099 188.188 28.5423 188.188 28.3967V27.0856C187.78 26.9254 187.35 26.8088 186.899 26.736C186.447 26.6486 186.003 26.6049 185.566 26.6049C184.692 26.6049 183.978 26.7797 183.424 27.1293C182.885 27.4789 182.616 27.9597 182.616 28.5715C182.616 28.9065 182.703 29.227 182.878 29.5329C183.067 29.8388 183.33 30.0865 183.665 30.2759C184.014 30.4652 184.444 30.5599 184.954 30.5599C185.478 30.5599 185.981 30.4579 186.462 30.254C186.942 30.0501 187.328 29.7878 187.62 29.4674ZM203.755 32.1113H201.352V25.709C201.352 24.6456 201.177 23.8663 200.827 23.371C200.492 22.8757 199.99 22.628 199.32 22.628C198.854 22.628 198.387 22.7446 197.921 22.9777C197.47 23.2107 197.062 23.5312 196.698 23.9391C196.333 24.3324 196.071 24.7913 195.911 25.3157V32.1113H193.507V20.6833H195.693V22.9777C195.984 22.4678 196.363 22.0308 196.829 21.6666C197.309 21.2879 197.848 20.9965 198.446 20.7926C199.043 20.5886 199.677 20.4867 200.347 20.4867C201.031 20.4867 201.592 20.6105 202.029 20.8581C202.481 21.1058 202.83 21.4481 203.078 21.8851C203.34 22.3076 203.515 22.8028 203.603 23.371C203.704 23.9245 203.755 24.5145 203.755 25.1409V32.1113ZM212.819 31.5214C212.615 31.6233 212.36 31.7326 212.054 31.8491C211.748 31.9657 211.398 32.0676 211.005 32.155C210.626 32.2424 210.233 32.2861 209.825 32.2861C209.33 32.2861 208.871 32.1987 208.448 32.0239C208.026 31.8491 207.684 31.5723 207.421 31.1936C207.174 30.8003 207.05 30.2977 207.05 29.6859V22.5406H205.542V20.6833H207.05V16.925H209.454V20.6833H211.945V22.5406H209.454V28.9211C209.483 29.3144 209.607 29.6058 209.825 29.7951C210.058 29.9845 210.342 30.0792 210.677 30.0792C211.012 30.0792 211.333 30.0209 211.639 29.9044C211.945 29.7878 212.17 29.6932 212.316 29.6203L212.819 31.5214Z" fill="#F2EBF3"/>
</svg>
