<svg width="24" height="25" viewBox="0 0 24 25" fill="none" xmlns="http://www.w3.org/2000/svg">
<path d="M8.7 17.8516C8.51667 17.6682 8.425 17.4349 8.425 17.1516C8.425 16.8682 8.51667 16.6349 8.7 16.4516L12.6 12.5516L8.7 8.65156C8.51667 8.46823 8.425 8.2349 8.425 7.95156C8.425 7.66823 8.51667 7.4349 8.7 7.25156C8.88334 7.06823 9.11667 6.97656 9.4 6.97656C9.68334 6.97656 9.91667 7.06823 10.1 7.25156L14.7 11.8516C14.8 11.9516 14.871 12.0599 14.913 12.1766C14.955 12.2932 14.9757 12.4182 14.975 12.5516C14.975 12.6849 14.954 12.8099 14.912 12.9266C14.87 13.0432 14.7993 13.1516 14.7 13.2516L10.1 17.8516C9.91667 18.0349 9.68334 18.1266 9.4 18.1266C9.11667 18.1266 8.88334 18.0349 8.7 17.8516Z" fill="#803785"/>
</svg>
