<svg width="96" height="97" viewBox="0 0 96 97" fill="none" xmlns="http://www.w3.org/2000/svg">
<circle opacity="0.15" cx="48" cy="48.0059" r="48" fill="#803785"/>
<path d="M44 65.5592C42.2592 65.1643 40.5873 64.5111 39.04 63.6212M52 30.4512C55.9763 31.3593 59.5265 33.5906 62.0693 36.7796C64.6121 39.9686 65.9969 43.9265 65.9969 48.0052C65.9969 52.0839 64.6121 56.0417 62.0693 59.2308C59.5265 62.4198 55.9763 64.651 52 65.5592M33.158 58.1912C32.067 56.6061 31.2384 54.8557 30.704 53.0072M30.248 45.0052C30.568 43.1052 31.184 41.3052 32.048 39.6552L32.386 39.0452M37.814 33.1632C39.6853 31.875 41.7846 30.9546 44 30.4512" stroke="#803785" stroke-width="4" stroke-linecap="round" stroke-linejoin="round"/>
<path d="M42 48.0059L46 52.0059L54 44.0059" stroke="#803785" stroke-width="4" stroke-linecap="round" stroke-linejoin="round"/>
</svg>
