<svg width="12" height="12" viewBox="0 0 12 12" fill="none" xmlns="http://www.w3.org/2000/svg">
<path d="M11.0628 1.5V8.8125C11.0628 8.96168 11.0036 9.10476 10.8981 9.21025C10.7926 9.31574 10.6495 9.375 10.5003 9.375C10.3511 9.375 10.2081 9.31574 10.1026 9.21025C9.99708 9.10476 9.93781 8.96168 9.93781 8.8125V2.85773L1.89828 10.898C1.79273 11.0035 1.64958 11.0628 1.50031 11.0628C1.35105 11.0628 1.20789 11.0035 1.10234 10.898C0.996796 10.7924 0.9375 10.6493 0.9375 10.5C0.9375 10.3507 0.996796 10.2076 1.10234 10.102L9.14258 2.0625H3.18781C3.03863 2.0625 2.89555 2.00324 2.79007 1.89775C2.68458 1.79226 2.62531 1.64918 2.62531 1.5C2.62531 1.35082 2.68458 1.20774 2.79007 1.10225C2.89555 0.996763 3.03863 0.9375 3.18781 0.9375H10.5003C10.6495 0.9375 10.7926 0.996763 10.8981 1.10225C11.0036 1.20774 11.0628 1.35082 11.0628 1.5Z" fill="#F2EBF3"/>
</svg>
