<svg width="18" height="18" viewBox="0 0 18 18" fill="none" xmlns="http://www.w3.org/2000/svg">
<path d="M14.0625 4.5V11.8125C14.0625 11.9617 14.0032 12.1048 13.8978 12.2102C13.7923 12.3157 13.6492 12.375 13.5 12.375C13.3508 12.375 13.2077 12.3157 13.1023 12.2102C12.9968 12.1048 12.9375 11.9617 12.9375 11.8125V5.85773L4.89798 13.898C4.79243 14.0035 4.64927 14.0628 4.50001 14.0628C4.35074 14.0628 4.20759 14.0035 4.10204 13.898C3.99649 13.7924 3.93719 13.6493 3.93719 13.5C3.93719 13.3507 3.99649 13.2076 4.10204 13.102L12.1423 5.0625H6.18751C6.03832 5.0625 5.89525 5.00324 5.78976 4.89775C5.68427 4.79226 5.62501 4.64918 5.62501 4.5C5.62501 4.35082 5.68427 4.20774 5.78976 4.10225C5.89525 3.99676 6.03832 3.9375 6.18751 3.9375H13.5C13.6492 3.9375 13.7923 3.99676 13.8978 4.10225C14.0032 4.20774 14.0625 4.35082 14.0625 4.5Z" fill="#F2EBF3"/>
</svg>
