<svg width="17" height="18" viewBox="0 0 17 18" fill="none" xmlns="http://www.w3.org/2000/svg">
<path fill-rule="evenodd" clip-rule="evenodd" d="M11.2351 16.152C11.2352 16.603 11.0648 17.0375 10.7581 17.3683C10.4514 17.699 10.031 17.9016 9.58117 17.9355L9.44707 17.9399H7.65908C7.20799 17.9401 6.77352 17.7697 6.44275 17.463C6.11199 17.1563 5.90939 16.7359 5.87556 16.2861L5.87109 16.152H11.2351ZM8.55307 0.954041C10.1757 0.954014 11.7348 1.58421 12.9017 2.7117C14.0685 3.83919 14.7518 5.37582 14.8075 6.99745L14.811 7.212V10.577L16.4399 13.8347C16.511 13.9769 16.5466 14.1341 16.5436 14.293C16.5406 14.4519 16.4991 14.6077 16.4228 14.7471C16.3464 14.8865 16.2374 15.0053 16.1051 15.0933C15.9728 15.1814 15.8211 15.236 15.663 15.2526L15.5602 15.258H1.54594C1.38696 15.258 1.23033 15.2195 1.08949 15.1458C0.948641 15.072 0.827776 14.9652 0.737248 14.8345C0.646721 14.7038 0.58923 14.5531 0.569702 14.3954C0.550175 14.2376 0.569193 14.0774 0.625126 13.9286L0.66625 13.8347L2.29511 10.577V7.212C2.29511 5.55229 2.95443 3.96055 4.12802 2.78696C5.30162 1.61336 6.89336 0.954041 8.55307 0.954041ZM8.55307 2.74203C7.40119 2.7421 6.2938 3.18683 5.46184 3.98349C4.62987 4.78014 4.13756 5.86721 4.08757 7.01801L4.0831 7.212V10.577C4.08311 10.7987 4.04188 11.0185 3.96151 11.2251L3.89447 11.3771L2.84849 13.47H14.2585L13.2126 11.3762C13.1134 11.178 13.0518 10.9631 13.0311 10.7424L13.023 10.577V7.212C13.023 6.02649 12.5521 4.88954 11.7138 4.05126C10.8755 3.21297 9.73858 2.74203 8.55307 2.74203Z" fill="#6E6B6F"/>
</svg>
