<svg width="15" height="14" viewBox="0 0 15 14" fill="none" xmlns="http://www.w3.org/2000/svg">
<path fill-rule="evenodd" clip-rule="evenodd" d="M2.72701 11.773C3.35381 12.3998 4.09793 12.897 4.91688 13.2362C5.73583 13.5754 6.61358 13.75 7.50001 13.75C8.38644 13.75 9.26419 13.5754 10.0831 13.2362C10.9021 12.897 11.6462 12.3998 12.273 11.773C12.8998 11.1462 13.397 10.4021 13.7362 9.58311C14.0755 8.76416 14.2501 7.88641 14.2501 6.99998C14.2501 6.11355 14.0755 5.2358 13.7362 4.41685C13.397 3.5979 12.8998 2.85378 12.273 2.22698C11.0071 0.961102 9.29023 0.249939 7.50001 0.249939C5.70979 0.249939 3.99289 0.961102 2.72701 2.22698C1.46113 3.49286 0.749969 5.20976 0.749969 6.99998C0.749969 8.7902 1.46113 10.5071 2.72701 11.773ZM4.35526 11.2052C5.36644 11.962 6.61654 12.329 7.87635 12.2388C9.13617 12.1487 10.3213 11.6074 11.2144 10.7143C12.1075 9.82123 12.6487 8.63614 12.7389 7.37632C12.829 6.11651 12.4621 4.86641 11.7053 3.85523L9.62101 5.93948C9.47956 6.0761 9.29011 6.1517 9.09346 6.14999C8.89681 6.14828 8.7087 6.0694 8.56965 5.93034C8.43059 5.79129 8.35171 5.60318 8.35001 5.40653C8.3483 5.20988 8.42389 5.02043 8.56051 4.87898L10.644 2.79473C9.6326 2.03994 8.38321 1.67462 7.12449 1.76561C5.86577 1.85661 4.68192 2.39785 3.78959 3.29026C2.89727 4.18268 2.35615 5.36659 2.26528 6.62532C2.17442 7.88404 2.53987 9.1334 3.29476 10.1447L5.37901 8.06048C5.52046 7.92386 5.70991 7.84827 5.90656 7.84997C6.10321 7.85168 6.29132 7.93056 6.43037 8.06962C6.56943 8.20867 6.64831 8.39678 6.65002 8.59343C6.65173 8.79008 6.57613 8.97953 6.43951 9.12098L4.35526 11.2052Z" fill="#803785"/>
</svg>
