<svg width="13" height="8" viewBox="0 0 13 8" fill="none" xmlns="http://www.w3.org/2000/svg">
<path d="M6.97 0.970043C7.11087 0.835932 7.29833 0.76179 7.49282 0.763262C7.68731 0.764733 7.87363 0.841703 8.01245 0.977931C8.15127 1.11416 8.23174 1.29899 8.23689 1.49342C8.24203 1.68785 8.17143 1.87667 8.04 2.02004L4.05 7.01004C3.9814 7.08394 3.89859 7.14325 3.80654 7.18441C3.71448 7.22557 3.61508 7.24775 3.51426 7.24962C3.41344 7.25149 3.31327 7.233 3.21976 7.19528C3.12625 7.15755 3.0413 7.10135 2.97 7.03004L0.324005 4.38404C0.250318 4.31538 0.191216 4.23258 0.150224 4.14058C0.109232 4.04858 0.0871901 3.94927 0.0854134 3.84857C0.0836366 3.74786 0.102161 3.64783 0.139882 3.55445C0.177603 3.46106 0.233748 3.37622 0.304967 3.305C0.376185 3.23379 0.461019 3.17764 0.554407 3.13992C0.647795 3.1022 0.747824 3.08367 0.848527 3.08545C0.94923 3.08723 1.04854 3.10927 1.14054 3.15026C1.23254 3.19125 1.31534 3.25036 1.384 3.32404L3.478 5.41704L6.95 0.992043C6.95623 0.984323 6.96291 0.976976 6.97 0.970043ZM6.05 6.11004L6.97 7.03004C7.04129 7.10119 7.12617 7.15726 7.21959 7.1949C7.31301 7.23253 7.41305 7.25097 7.51375 7.2491C7.61445 7.24723 7.71374 7.22511 7.8057 7.18403C7.89766 7.14296 7.98041 7.08379 8.049 7.01004L12.041 2.02004C12.1127 1.94924 12.1694 1.86472 12.2077 1.77152C12.2461 1.67832 12.2652 1.57835 12.264 1.47758C12.2629 1.37682 12.2414 1.27732 12.2009 1.18504C12.1604 1.09276 12.1018 1.00958 12.0284 0.940472C11.9551 0.871365 11.8686 0.817747 11.774 0.782819C11.6795 0.747891 11.5789 0.732371 11.4783 0.737184C11.3776 0.741998 11.2789 0.767047 11.1882 0.810835C11.0974 0.854623 11.0164 0.916253 10.95 0.992043L7.477 5.41704L6.992 4.93104L6.049 6.11004H6.05Z" fill="#11A263"/>
</svg>
