<svg width="11" height="11" viewBox="0 0 11 11" fill="none" xmlns="http://www.w3.org/2000/svg">
<path fill-rule="evenodd" clip-rule="evenodd" d="M7.82535 1.09037C7.62162 0.886695 7.34533 0.772278 7.05725 0.772278C6.76917 0.772278 6.49289 0.886695 6.28915 1.09037L0.686485 6.69303C0.482728 6.89673 0.368226 7.17302 0.368164 7.46113V10.3037C0.368164 10.6063 0.614238 10.8524 0.916806 10.8524H3.75997C4.04808 10.8523 4.32437 10.7378 4.52807 10.5341L10.1302 4.93086C10.3339 4.72713 10.4483 4.45084 10.4483 4.16276C10.4483 3.87468 10.3339 3.5984 10.1302 3.39466L7.82535 1.09037ZM7.05725 1.85847L9.36209 4.16331L8.42451 5.10089L6.11967 2.79605L7.05725 1.85847ZM5.35157 3.56414L1.45458 7.46113V9.76543H3.75997L7.65696 5.86844L5.35212 3.5636L5.35157 3.56414Z" fill="white"/>
</svg>
