<svg width="24" height="20" viewBox="0 0 24 20" fill="none" xmlns="http://www.w3.org/2000/svg">
<path d="M3.49999 5.99983C3.50019 5.05174 3.74546 4.11981 4.21201 3.29446C4.67855 2.46911 5.35053 1.77838 6.16273 1.2893C6.97492 0.80021 7.89976 0.529382 8.84748 0.503092C9.7952 0.476802 10.7336 0.695943 11.5717 1.13925C12.4097 1.58256 13.119 2.23497 13.6306 3.03319C14.1421 3.8314 14.4387 4.74831 14.4915 5.69492C14.5442 6.64154 14.3514 7.58572 13.9317 8.43584C13.5119 9.28596 12.8796 10.0131 12.096 10.5468C13.7835 11.1658 15.2472 12.2755 16.2986 13.7333C17.3501 15.1911 17.9412 16.9302 17.996 18.7268C17.9937 18.9205 17.9166 19.1058 17.7808 19.244C17.6451 19.3823 17.4612 19.4627 17.2676 19.4685C17.0739 19.4743 16.8855 19.405 16.7418 19.2752C16.598 19.1454 16.5099 18.965 16.496 18.7718C16.4364 16.8233 15.6205 14.9745 14.2212 13.6172C12.8218 12.26 10.9489 11.5009 8.99949 11.5009C7.05004 11.5009 5.17718 12.26 3.77782 13.6172C2.37845 14.9745 1.56254 16.8233 1.50299 18.7718C1.49298 18.9677 1.40667 19.1518 1.26255 19.2848C1.11843 19.4177 0.927967 19.489 0.731962 19.4832C0.535957 19.4775 0.350001 19.3952 0.21393 19.254C0.0778594 19.1128 0.00249738 18.9239 0.00398901 18.7278C0.0585404 16.9311 0.649596 15.1917 1.70107 13.7337C2.75255 12.2758 4.21633 11.1658 5.90399 10.5468C5.16282 10.0425 4.55628 9.36445 4.13726 8.5719C3.71824 7.77935 3.49946 6.89633 3.49999 5.99983ZM8.99999 1.99983C7.93912 1.99983 6.92171 2.42126 6.17156 3.1714C5.42142 3.92155 4.99999 4.93896 4.99999 5.99983C4.99999 7.0607 5.42142 8.07811 6.17156 8.82826C6.92171 9.5784 7.93912 9.99983 8.99999 9.99983C10.0609 9.99983 11.0783 9.5784 11.8284 8.82826C12.5786 8.07811 13 7.0607 13 5.99983C13 4.93896 12.5786 3.92155 11.8284 3.1714C11.0783 2.42126 10.0609 1.99983 8.99999 1.99983ZM17.29 5.99983C17.142 5.99983 16.998 6.00983 16.856 6.02983C16.7568 6.04758 16.6551 6.04518 16.5569 6.02278C16.4588 6.00037 16.3661 5.95842 16.2845 5.89942C16.2028 5.84042 16.1339 5.76558 16.0818 5.67937C16.0298 5.59316 15.9956 5.49734 15.9813 5.39764C15.9671 5.29793 15.9731 5.19638 15.9989 5.09903C16.0248 5.00169 16.07 4.91055 16.1318 4.83106C16.1937 4.75156 16.2709 4.68534 16.3589 4.63633C16.4469 4.58733 16.5438 4.55655 16.644 4.54583C17.6386 4.40203 18.6527 4.59303 19.5269 5.08875C20.401 5.58448 21.0855 6.3568 21.4726 7.28416C21.8597 8.21152 21.9275 9.24127 21.6652 10.2114C21.403 11.1815 20.8256 12.0368 20.024 12.6428C21.2024 13.1705 22.2029 14.0278 22.9049 15.1115C23.6068 16.1951 23.9802 17.4587 23.98 18.7498C23.98 18.9487 23.901 19.1395 23.7603 19.2802C23.6197 19.4208 23.4289 19.4998 23.23 19.4998C23.0311 19.4998 22.8403 19.4208 22.6997 19.2802C22.559 19.1395 22.48 18.9487 22.48 18.7498C22.4799 17.634 22.1203 16.5478 21.4546 15.6523C20.7889 14.7568 19.8525 14.0995 18.784 13.7778L18.25 13.6178V11.9418L18.66 11.7328C19.2677 11.425 19.754 10.9213 20.0403 10.3031C20.3266 9.68486 20.3962 8.98821 20.2378 8.32559C20.0795 7.66297 19.7024 7.07304 19.1676 6.65106C18.6327 6.22907 17.9713 5.99965 17.29 5.99983Z" fill="#803785"/>
</svg>
