<svg width="214" height="50" viewBox="0 0 214 50" fill="none" xmlns="http://www.w3.org/2000/svg">
<path d="M19.7623 3.1421L9.99108 0.862305L0.702789 15.7163L19.7623 3.1421Z" fill="#803785"/>
<path d="M22.0799 6.62573L14.601 22.0614L1.5863 20.1165L22.0799 6.62573Z" fill="#803785"/>
<path d="M16.659 27.4131L26.8956 6.23685L43.145 16.2874L16.659 27.4131Z" fill="#00AFA2"/>
<path d="M37.8787 23.0518L21.8707 44.9038L17.8622 31.46L37.8787 23.0518Z" fill="#803785"/>
<path d="M37.156 31.1049L23.9464 49.1377L31.5795 45.8737L37.156 31.1049Z" fill="#803785"/>
<path d="M61.2021 33.439V26.1648C61.2021 24.3697 60.2741 22.7421 58.4444 22.7421C56.6146 22.7421 55.5761 24.3697 55.5761 26.1648V33.4478H52.2454V19.8101H55.3318L55.579 21.4642C56.2888 20.0863 57.8451 19.5898 59.1309 19.5898C60.7395 19.5898 62.354 20.2508 63.1161 22.1281C64.3205 20.195 65.8767 19.6456 67.625 19.6456C71.4474 19.6456 73.3324 22.0165 73.3324 26.109V33.4537H70.0016V26.109C70.0016 24.3139 69.2628 22.798 67.4621 22.798C65.6615 22.798 64.5386 24.3609 64.5386 26.1648V33.4478L61.2021 33.439Z" fill="#241F5A"/>
<path d="M78.6389 16.0078C78.6389 18.6284 74.706 18.6284 74.706 16.0078C74.706 13.3872 78.6389 13.3872 78.6389 16.0078ZM75.0056 19.7889V33.4442H78.3393V19.7889H75.0056Z" fill="#241F5A"/>
<path d="M83.3246 14.159V33.4433H80.02V14.159H83.3246Z" fill="#241F5A"/>
<path d="M94.5178 23.4543C93.5608 22.5465 92.4815 22.2409 91.1841 22.2409C89.6017 22.2409 88.7261 22.7374 88.7261 23.5924C88.7261 24.4473 89.5173 24.9732 91.2394 25.0819C93.7789 25.2493 97.0021 25.8281 97.0021 29.4417C97.0021 31.842 95.0647 33.9102 91.2132 33.9102C89.081 33.9102 86.9516 33.5518 84.9852 31.4835L86.6229 29.0833C87.9058 30.4347 89.7646 30.9577 91.2772 30.987C92.5339 31.0135 93.7091 30.4905 93.7091 29.4975C93.7091 28.5603 92.9441 28.0286 91.0329 27.9258C88.4934 27.7319 85.4593 26.7947 85.4593 23.704C85.4593 20.5575 88.6824 19.4558 91.1405 19.4558C93.2437 19.4558 94.8291 19.8701 96.3766 21.2479L94.5178 23.4543Z" fill="#241F5A"/>
<path d="M109.383 19.8456H112.583V33.448H109.441L109.276 31.4591C108.511 33.0602 106.407 33.8329 104.912 33.8593C100.924 33.8887 97.9743 31.4062 97.9743 26.6321C97.9743 21.9315 101.061 19.4872 104.994 19.5165C106.797 19.5165 108.516 20.3715 109.281 21.7229L109.383 19.8456ZM101.296 26.6321C101.296 29.2263 103.074 30.7716 105.287 30.7716C110.524 30.7716 110.524 22.522 105.287 22.522C103.074 22.522 101.296 24.0409 101.296 26.6321Z" fill="#241F5A"/>
<path d="M119.788 16.0081V19.8715H123.503V22.7682H119.762V28.644C119.762 29.9396 120.472 30.5742 121.508 30.5742C122.069 30.5586 122.619 30.4171 123.119 30.1599L124.047 33.0303C123.173 33.4004 122.237 33.5998 121.289 33.6178C118.369 33.7177 116.472 32.0461 116.472 28.644V22.7682H113.959V19.8715H116.472V16.3666L119.788 16.0081Z" fill="#241F5A"/>
<path d="M129.909 29.9365C129.909 29.2081 130.113 28.5744 130.521 28.0354C130.943 27.4819 131.519 27.0594 132.247 26.7681C132.975 26.4622 133.82 26.3092 134.782 26.3092C135.292 26.3092 135.809 26.3456 136.333 26.4185C136.872 26.4913 137.346 26.6079 137.753 26.7681V26.047C137.753 25.2458 137.513 24.6194 137.032 24.1678C136.552 23.7163 135.86 23.4905 134.957 23.4905C134.316 23.4905 133.711 23.607 133.143 23.8401C132.575 24.0586 131.97 24.3718 131.329 24.7797L130.521 23.1627C131.278 22.6528 132.036 22.2741 132.793 22.0265C133.565 21.7788 134.374 21.655 135.219 21.655C136.748 21.655 137.95 22.0629 138.824 22.8786C139.713 23.6798 140.157 24.8234 140.157 26.3092V30.5702C140.157 30.8469 140.201 31.0436 140.288 31.1601C140.39 31.2767 140.558 31.3422 140.791 31.3568V33.2797C140.572 33.3234 140.376 33.3525 140.201 33.3671C140.026 33.3816 139.88 33.3889 139.764 33.3889C139.254 33.3889 138.868 33.2651 138.606 33.0175C138.343 32.7698 138.19 32.4785 138.147 32.1434L138.081 31.4879C137.586 32.1288 136.952 32.6241 136.18 32.9738C135.408 33.3234 134.629 33.4982 133.842 33.4982C133.085 33.4982 132.407 33.3452 131.81 33.0393C131.213 32.7188 130.747 32.2891 130.412 31.7501C130.077 31.2111 129.909 30.6066 129.909 29.9365ZM137.185 30.6357C137.36 30.4463 137.499 30.257 137.601 30.0676C137.702 29.8782 137.753 29.7107 137.753 29.565V28.254C137.346 28.0937 136.916 27.9772 136.464 27.9043C136.013 27.8169 135.568 27.7732 135.131 27.7732C134.257 27.7732 133.544 27.948 132.99 28.2977C132.451 28.6473 132.181 29.128 132.181 29.7398C132.181 30.0749 132.269 30.3953 132.444 30.7013C132.633 31.0072 132.895 31.2548 133.23 31.4442C133.58 31.6336 134.01 31.7282 134.52 31.7282C135.044 31.7282 135.547 31.6263 136.027 31.4223C136.508 31.2184 136.894 30.9562 137.185 30.6357ZM147.137 33.4982C146.176 33.4982 145.266 33.3452 144.406 33.0393C143.547 32.7188 142.811 32.2454 142.199 31.619L143.095 30.002C143.751 30.5847 144.406 31.0072 145.062 31.2694C145.732 31.5316 146.394 31.6627 147.05 31.6627C147.72 31.6627 148.266 31.5389 148.689 31.2912C149.111 31.029 149.323 30.6503 149.323 30.155C149.323 29.7908 149.213 29.5213 148.995 29.3465C148.776 29.1717 148.456 29.0187 148.033 28.8876C147.625 28.7565 147.13 28.6109 146.547 28.4506C145.732 28.203 145.047 27.948 144.493 27.6858C143.94 27.4091 143.525 27.074 143.248 26.6807C142.971 26.2874 142.833 25.7848 142.833 25.173C142.833 24.4301 143.022 23.7964 143.401 23.272C143.78 22.7475 144.304 22.3469 144.974 22.0702C145.659 21.7934 146.445 21.655 147.334 21.655C148.164 21.655 148.929 21.7861 149.628 22.0483C150.342 22.2959 150.969 22.6893 151.508 23.2283L150.481 24.8234C149.971 24.3572 149.446 24.0149 148.907 23.7964C148.383 23.5779 147.815 23.4686 147.203 23.4686C146.853 23.4686 146.518 23.5123 146.198 23.5997C145.877 23.6726 145.608 23.8182 145.389 24.0367C145.185 24.2407 145.083 24.532 145.083 24.9108C145.083 25.2167 145.171 25.4643 145.346 25.6537C145.52 25.8431 145.783 26.0033 146.132 26.1344C146.482 26.2655 146.912 26.4112 147.421 26.5714C148.31 26.8336 149.068 27.0959 149.694 27.3581C150.32 27.6057 150.801 27.9335 151.136 28.3414C151.486 28.7347 151.661 29.2809 151.661 29.9802C151.661 31.0873 151.245 31.954 150.415 32.5804C149.599 33.1923 148.507 33.4982 147.137 33.4982ZM160.296 33.4982C159.379 33.4982 158.57 33.2797 157.871 32.8426C157.172 32.4056 156.618 31.8375 156.21 31.1383V37.9339H153.807V21.8516H155.926V23.9056C156.363 23.221 156.931 22.6747 157.63 22.2668C158.33 21.8589 159.109 21.655 159.968 21.655C160.755 21.655 161.476 21.8152 162.132 22.1357C162.787 22.4416 163.355 22.8714 163.836 23.4249C164.317 23.9785 164.688 24.6121 164.95 25.3259C165.227 26.0252 165.366 26.7681 165.366 27.5547C165.366 28.6473 165.147 29.6451 164.71 30.5483C164.288 31.4515 163.69 32.1726 162.918 32.7115C162.161 33.236 161.287 33.4982 160.296 33.4982ZM159.51 31.4442C160.019 31.4442 160.478 31.3349 160.886 31.1164C161.309 30.8979 161.666 30.6066 161.957 30.2424C162.263 29.8782 162.496 29.463 162.656 28.9969C162.816 28.5307 162.897 28.05 162.897 27.5547C162.897 27.0303 162.809 26.535 162.634 26.0689C162.459 25.6027 162.205 25.1948 161.87 24.8452C161.549 24.4956 161.17 24.2188 160.733 24.0149C160.311 23.8109 159.845 23.709 159.335 23.709C159.029 23.709 158.708 23.7672 158.373 23.8838C158.038 24.0003 157.725 24.1606 157.434 24.3645C157.142 24.5684 156.888 24.8088 156.669 25.0856C156.451 25.3624 156.298 25.6537 156.21 25.9596V28.9532C156.414 29.4193 156.684 29.8418 157.019 30.2205C157.354 30.5847 157.74 30.8833 158.177 31.1164C158.614 31.3349 159.058 31.4442 159.51 31.4442ZM167.527 33.2797V21.8516H169.931V33.2797H167.527ZM167.527 19.9725V17.3285H169.931V19.9725H167.527ZM179.244 23.9275C178.311 23.942 177.481 24.1533 176.753 24.5612C176.039 24.969 175.529 25.5444 175.223 26.2874V33.2797H172.819V21.8516H175.048V24.4082C175.441 23.6216 175.959 22.9952 176.6 22.529C177.241 22.0483 177.918 21.7861 178.632 21.7424C178.777 21.7424 178.894 21.7424 178.981 21.7424C179.083 21.7424 179.171 21.7497 179.244 21.7642V23.9275ZM180.14 29.9365C180.14 29.2081 180.344 28.5744 180.752 28.0354C181.175 27.4819 181.75 27.0594 182.478 26.7681C183.207 26.4622 184.052 26.3092 185.013 26.3092C185.523 26.3092 186.04 26.3456 186.565 26.4185C187.104 26.4913 187.577 26.6079 187.985 26.7681V26.047C187.985 25.2458 187.745 24.6194 187.264 24.1678C186.783 23.7163 186.091 23.4905 185.188 23.4905C184.547 23.4905 183.943 23.607 183.374 23.8401C182.806 24.0586 182.202 24.3718 181.561 24.7797L180.752 23.1627C181.51 22.6528 182.267 22.2741 183.025 22.0265C183.797 21.7788 184.605 21.655 185.45 21.655C186.98 21.655 188.182 22.0629 189.056 22.8786C189.944 23.6798 190.389 24.8234 190.389 26.3092V30.5702C190.389 30.8469 190.432 31.0436 190.52 31.1601C190.622 31.2767 190.789 31.3422 191.022 31.3568V33.2797C190.804 33.3234 190.607 33.3525 190.432 33.3671C190.257 33.3816 190.112 33.3889 189.995 33.3889C189.485 33.3889 189.099 33.2651 188.837 33.0175C188.575 32.7698 188.422 32.4785 188.378 32.1434L188.313 31.4879C187.817 32.1288 187.184 32.6241 186.412 32.9738C185.64 33.3234 184.86 33.4982 184.074 33.4982C183.316 33.4982 182.639 33.3452 182.041 33.0393C181.444 32.7188 180.978 32.2891 180.643 31.7501C180.308 31.2111 180.14 30.6066 180.14 29.9365ZM187.417 30.6357C187.592 30.4463 187.73 30.257 187.832 30.0676C187.934 29.8782 187.985 29.7107 187.985 29.565V28.254C187.577 28.0937 187.147 27.9772 186.696 27.9043C186.244 27.8169 185.8 27.7732 185.363 27.7732C184.489 27.7732 183.775 27.948 183.221 28.2977C182.682 28.6473 182.413 29.128 182.413 29.7398C182.413 30.0749 182.5 30.3953 182.675 30.7013C182.865 31.0072 183.127 31.2548 183.462 31.4442C183.811 31.6336 184.241 31.7282 184.751 31.7282C185.275 31.7282 185.778 31.6263 186.259 31.4223C186.739 31.2184 187.125 30.9562 187.417 30.6357ZM203.553 33.2797H201.149V26.8774C201.149 25.8139 200.974 25.0346 200.625 24.5393C200.29 24.044 199.787 23.7964 199.117 23.7964C198.651 23.7964 198.185 23.9129 197.718 24.146C197.267 24.3791 196.859 24.6995 196.495 25.1074C196.131 25.5007 195.868 25.9596 195.708 26.484V33.2797H193.305V21.8516H195.49V24.146C195.781 23.6361 196.16 23.1991 196.626 22.8349C197.107 22.4562 197.646 22.1648 198.243 21.9609C198.84 21.757 199.474 21.655 200.144 21.655C200.829 21.655 201.389 21.7788 201.826 22.0265C202.278 22.2741 202.628 22.6164 202.875 23.0534C203.137 23.4759 203.312 23.9712 203.4 24.5393C203.502 25.0929 203.553 25.6828 203.553 26.3092V33.2797ZM212.616 32.6897C212.412 32.7917 212.157 32.9009 211.851 33.0175C211.545 33.134 211.196 33.236 210.802 33.3234C210.423 33.4108 210.03 33.4545 209.622 33.4545C209.127 33.4545 208.668 33.3671 208.246 33.1923C207.823 33.0175 207.481 32.7407 207.219 32.3619C206.971 31.9686 206.847 31.466 206.847 30.8542V23.709H205.339V21.8516H206.847V18.0933H209.251V21.8516H211.742V23.709H209.251V30.0894C209.28 30.4827 209.404 30.7741 209.622 30.9635C209.855 31.1528 210.139 31.2475 210.474 31.2475C210.809 31.2475 211.13 31.1893 211.436 31.0727C211.742 30.9562 211.968 30.8615 212.113 30.7887L212.616 32.6897Z" fill="#241F5A"/>
</svg>
