<svg width="15" height="14" viewBox="0 0 15 14" fill="none" xmlns="http://www.w3.org/2000/svg">
<path d="M3.9375 8.60254C3.78832 8.60254 3.64524 8.6618 3.53975 8.76729C3.43426 8.87278 3.375 9.01585 3.375 9.16504C3.375 9.31422 3.43426 9.4573 3.53975 9.56279C3.64524 9.66828 3.78832 9.72754 3.9375 9.72754H6.5625C6.71168 9.72754 6.85476 9.66828 6.96025 9.56279C7.06574 9.4573 7.125 9.31422 7.125 9.16504C7.125 9.01585 7.06574 8.87278 6.96025 8.76729C6.85476 8.6618 6.71168 8.60254 6.5625 8.60254H3.9375ZM3.375 5.04004C3.375 4.89085 3.43426 4.74778 3.53975 4.64229C3.64524 4.5368 3.78832 4.47754 3.9375 4.47754H6.5625C6.71168 4.47754 6.85476 4.5368 6.96025 4.64229C7.06574 4.74778 7.125 4.89085 7.125 5.04004C7.125 5.18922 7.06574 5.3323 6.96025 5.43779C6.85476 5.54328 6.71168 5.60254 6.5625 5.60254H3.9375C3.78832 5.60254 3.64524 5.54328 3.53975 5.43779C3.43426 5.3323 3.375 5.18922 3.375 5.04004ZM11.835 4.68754C11.9344 4.58091 11.9885 4.43987 11.9859 4.29415C11.9833 4.14842 11.9243 4.00938 11.8212 3.90632C11.7182 3.80326 11.5791 3.74423 11.4334 3.74166C11.2877 3.73909 11.1466 3.79318 11.04 3.89254L9.9375 4.99504L9.585 4.64254C9.5335 4.58727 9.4714 4.54295 9.4024 4.5122C9.3334 4.48146 9.25892 4.46493 9.18339 4.4636C9.10786 4.46226 9.03284 4.47616 8.9628 4.50445C8.89276 4.53274 8.82914 4.57485 8.77572 4.62826C8.72231 4.68167 8.6802 4.7453 8.65191 4.81534C8.62362 4.88538 8.60972 4.9604 8.61106 5.03593C8.61239 5.11146 8.62892 5.18594 8.65966 5.25494C8.69041 5.32394 8.73474 5.38604 8.79 5.43754L9.54 6.18754C9.64547 6.29288 9.78844 6.35204 9.9375 6.35204C10.0866 6.35204 10.2295 6.29288 10.335 6.18754L11.835 4.68754ZM11.835 8.01754C11.9403 8.12301 11.9995 8.26598 11.9995 8.41504C11.9995 8.5641 11.9403 8.70707 11.835 8.81254L10.335 10.3125C10.2295 10.4179 10.0866 10.477 9.9375 10.477C9.78844 10.477 9.64547 10.4179 9.54 10.3125L8.79 9.56254C8.73474 9.51104 8.69041 9.44894 8.65966 9.37994C8.62892 9.31094 8.61239 9.23646 8.61106 9.16093C8.60972 9.0854 8.62362 9.01038 8.65191 8.94034C8.6802 8.8703 8.72231 8.80667 8.77572 8.75326C8.82914 8.69985 8.89276 8.65774 8.9628 8.62945C9.03284 8.60116 9.10786 8.58726 9.18339 8.5886C9.25892 8.58993 9.3334 8.60646 9.4024 8.6372C9.4714 8.66795 9.5335 8.71227 9.585 8.76754L9.9375 9.12004L11.04 8.01754C11.1455 7.9122 11.2884 7.85303 11.4375 7.85303C11.5866 7.85303 11.7295 7.9122 11.835 8.01754ZM3.1875 0.352539C2.54103 0.352539 1.92105 0.609346 1.46393 1.06647C1.00681 1.52359 0.75 2.14357 0.75 2.79004V11.415C0.75 12.0615 1.00681 12.6815 1.46393 13.1386C1.92105 13.5957 2.54103 13.8525 3.1875 13.8525H11.8125C12.459 13.8525 13.079 13.5957 13.5361 13.1386C13.9932 12.6815 14.25 12.0615 14.25 11.415V2.79004C14.25 2.14357 13.9932 1.52359 13.5361 1.06647C13.079 0.609346 12.459 0.352539 11.8125 0.352539H3.1875ZM1.875 2.79004C1.875 2.06554 2.463 1.47754 3.1875 1.47754H11.8125C12.537 1.47754 13.125 2.06554 13.125 2.79004V11.415C13.125 11.7631 12.9867 12.097 12.7406 12.3431C12.4944 12.5893 12.1606 12.7275 11.8125 12.7275H3.1875C2.8394 12.7275 2.50556 12.5893 2.25942 12.3431C2.01328 12.097 1.875 11.7631 1.875 11.415V2.79004Z" fill="#0C7145"/>
</svg>
