<svg width="20" height="19" viewBox="0 0 20 19" fill="none" xmlns="http://www.w3.org/2000/svg">
<path fill-rule="evenodd" clip-rule="evenodd" d="M11.228 0.687989C10.8769 0.41488 10.4448 0.266602 10 0.266602C9.55521 0.266602 9.1231 0.41488 8.77201 0.687989L0.388012 7.20799C-0.363988 7.79499 0.0500122 8.99999 1.00301 8.99999H2.00001V17C2.00001 17.5304 2.21073 18.0391 2.5858 18.4142C2.96087 18.7893 3.46958 19 4.00001 19H16C16.5304 19 17.0392 18.7893 17.4142 18.4142C17.7893 18.0391 18 17.5304 18 17V8.99999H18.997C19.949 8.99999 20.365 7.79499 19.612 7.20899L11.228 0.687989ZM11 17V11C11 10.7348 10.8947 10.4804 10.7071 10.2929C10.5196 10.1053 10.2652 9.99999 10 9.99999C9.7348 9.99999 9.48044 10.1053 9.29291 10.2929C9.10537 10.4804 9.00001 10.7348 9.00001 11V17H4.00001V8.00999C4.00001 7.69299 3.85401 7.40999 3.62501 7.22499L10 2.26699L16.375 7.22499C16.2579 7.31953 16.1634 7.43911 16.0985 7.57495C16.0336 7.71079 15.9999 7.85944 16 8.00999V17H11Z" fill="#803785"/>
</svg>
