<svg width="258" height="209" viewBox="0 0 258 209" fill="none" xmlns="http://www.w3.org/2000/svg">
<path d="M129 208.973C199.784 208.973 257.165 177.778 257.165 139.297C257.165 100.817 199.784 69.6221 129 69.6221C58.2164 69.6221 0.834961 100.817 0.834961 139.297C0.834961 177.778 58.2164 208.973 129 208.973Z" fill="#F5F5F5"/>
<path d="M193.839 130.908C208.599 130.908 220.565 123.999 220.565 115.476C220.565 106.954 208.599 100.045 193.839 100.045C179.078 100.045 167.113 106.954 167.113 115.476C167.113 123.999 179.078 130.908 193.839 130.908Z" fill="#E0E0E0"/>
<path d="M49.2621 170.041C64.0227 170.041 75.9885 163.132 75.9885 154.609C75.9885 146.086 64.0227 139.177 49.2621 139.177C34.5016 139.177 22.5358 146.086 22.5358 154.609C22.5358 163.132 34.5016 170.041 49.2621 170.041Z" fill="#E0E0E0"/>
<path d="M84.6585 174.167L73.3009 167.611C72.1205 166.912 71.4615 165.158 71.4615 162.901L71.4156 113.087L82.8763 119.694L82.8305 169.668C82.8133 171.869 83.5239 173.439 84.6585 174.167Z" fill="#842A93"/>
<path opacity="0.2" d="M84.6585 174.167L73.3009 167.611C72.1205 166.912 71.4615 165.158 71.4615 162.901L71.4156 113.087L82.8763 119.694L82.8305 169.668C82.8133 171.869 83.5239 173.439 84.6585 174.167Z" fill="black"/>
<path d="M84.7387 174.212L84.6585 174.167C83.5124 173.439 82.8133 171.874 82.8133 169.668L82.8591 119.694L71.3984 113.087L81.2947 107.316L81.3864 107.265L82.7904 106.451L84.3719 105.351L84.435 105.311L84.498 105.265C84.584 105.208 84.6527 105.145 84.7272 105.087L84.8189 105.024L85.094 104.818L85.3576 104.612C85.4302 104.543 85.5046 104.48 85.5811 104.423L85.667 104.354L85.7472 104.285C85.8962 104.17 86.0395 104.044 86.177 103.924L86.3948 103.723L86.475 103.637C86.7443 103.391 87.0136 103.122 87.26 102.852L87.3517 102.766C87.4549 102.656 87.5523 102.547 87.644 102.44C87.6927 102.388 87.7368 102.333 87.7758 102.274C87.8222 102.23 87.8644 102.182 87.9018 102.13V102.09L87.9362 102.039L87.9993 101.97L88.303 101.586C88.3832 101.471 88.4691 101.351 88.5436 101.231L88.6067 101.156V101.122C88.7156 100.967 88.813 100.812 88.9104 100.658C89.0078 100.503 89.0766 100.388 89.1568 100.251L89.1854 100.199C89.2485 100.073 89.3172 99.9586 89.3803 99.8325L89.4777 99.6549C89.5579 99.5001 89.6324 99.3454 89.7012 99.185L89.8272 98.8927C89.8775 98.7971 89.9197 98.6974 89.9533 98.5947C89.9955 98.5141 90.0301 98.4297 90.0565 98.3426C90.0851 98.2624 90.1252 98.1707 90.1539 98.0905C90.2284 97.8899 90.2914 97.6836 90.3602 97.4716C90.4117 97.3054 90.469 97.1278 90.5149 96.9501C90.5149 96.9501 90.5149 96.9043 90.5149 96.8756C90.5722 96.6865 90.6123 96.4917 90.6524 96.3026V96.2396C90.6524 96.0906 90.7212 95.9359 90.7498 95.7754C90.7899 95.5577 90.8358 95.3055 90.8644 95.0706V94.9502C90.8644 94.8987 90.8644 94.8471 90.8644 94.7898C90.8676 94.7689 90.8676 94.7476 90.8644 94.7268C90.8617 94.6733 90.8617 94.6198 90.8644 94.5663C90.8931 94.2855 90.916 93.9933 90.9389 93.7411V93.6151V93.2999C90.9389 92.8873 90.9504 92.469 90.9733 92.045V91.9418C90.9733 91.8215 90.9733 91.7126 90.9733 91.5865V91.2771C90.9733 91.1396 90.9733 90.9906 90.9733 90.8588C90.9763 90.8225 90.9763 90.7861 90.9733 90.7499C90.9762 90.7137 90.9762 90.6773 90.9733 90.641V90.4863C90.9733 90.2743 90.9447 90.068 90.9275 89.8789V89.8445C90.9275 89.6611 90.8874 89.4892 90.8702 89.323C90.7666 88.5486 90.6076 87.7826 90.3945 87.0309C90.2627 86.5725 90.1195 86.1542 89.9934 85.7588C89.6588 84.8609 89.4244 83.9289 89.2943 82.9795C89.2943 82.7904 89.2485 82.5956 89.2313 82.4065C89.2141 82.2174 89.2313 81.9653 89.1912 81.7303V81.6272C89.1855 81.5719 89.1855 81.5163 89.1912 81.461C89.1801 81.3409 89.1801 81.2201 89.1912 81.1C89.1912 78.4583 90.7957 75.3696 92.7841 74.2236C92.9812 74.1074 93.1933 74.0187 93.4144 73.96C93.5567 73.9212 93.7027 73.8981 93.8499 73.8912C93.9908 73.8737 94.1332 73.8737 94.274 73.8912C94.3421 73.9004 94.4092 73.9158 94.4746 73.9371C94.6746 73.9964 94.8669 74.0791 95.0476 74.1835L106.709 80.8249C106.776 80.8629 106.841 80.905 106.904 80.951C107.58 81.4667 107.958 82.4466 107.958 83.7188C107.958 83.8907 107.958 84.0683 107.924 84.3434V84.4179C107.845 86.0717 107.579 87.7114 107.133 89.3058C107.035 89.7127 106.938 90.1196 106.846 90.5493C106.806 90.6926 106.778 90.8416 106.749 90.9848C106.646 91.4203 106.554 91.873 106.48 92.3601C106.451 92.5148 106.428 92.681 106.405 92.8415L114.428 88.2973L125.888 94.9044V108.05C125.888 111.74 125.608 114.204 125.035 115.58C124.633 116.531 124.02 117.127 122.605 117.94C121.494 118.626 120.22 119.004 118.914 119.035C118.502 119.035 118.112 119.109 117.717 119.161L117.253 119.241C117.104 119.27 116.96 119.299 116.806 119.339C116.531 119.402 116.233 119.493 115.958 119.585L115.728 119.671C115.296 119.838 114.873 120.03 114.462 120.244C114.409 120.265 114.359 120.292 114.313 120.324H114.273L114.204 120.359C114.049 120.427 113.872 120.513 113.688 120.616C111.99 121.673 110.547 123.094 109.465 124.777C108.892 125.629 108.388 126.526 107.958 127.459C107.549 128.341 107.2 129.25 106.915 130.18L107.545 129.51C108.142 128.839 108.777 128.204 109.448 127.608C110.008 127.123 110.612 126.694 111.253 126.324C112.17 125.797 112.903 125.373 113.448 125.711L124.805 132.478L124.937 132.576C124.969 132.605 124.997 132.638 125.023 132.673C125.044 132.687 125.06 132.707 125.069 132.73C125.102 132.767 125.131 132.808 125.155 132.851C125.155 132.851 125.155 132.851 125.155 132.879C125.19 132.934 125.221 132.992 125.247 133.051C125.539 133.67 125.734 134.77 125.82 136.616C125.82 136.816 125.82 137.028 125.82 137.257C125.82 137.83 125.82 138.484 125.82 139.2V152.34L88.4004 173.943C87.7921 174.317 87.1056 174.544 86.3948 174.608C86.1698 174.628 85.9435 174.628 85.7186 174.608C85.644 174.604 85.5705 174.589 85.5008 174.562C85.231 174.483 84.9742 174.366 84.7387 174.212Z" fill="#842A93"/>
<path opacity="0.1" d="M113.442 125.711L124.788 132.478C124.249 132.135 123.51 132.57 122.593 133.097C121.953 133.465 121.35 133.895 120.794 134.381C120.119 134.972 119.481 135.606 118.886 136.278C117.575 137.798 116.066 139.136 114.399 140.254C114.176 140.415 113.912 140.581 113.666 140.724C109.511 143.125 106.13 140.57 106.13 135.028C106.151 133.379 106.415 131.741 106.915 130.169C107.127 129.946 107.328 129.722 107.534 129.51C108.13 128.839 108.766 128.204 109.437 127.608C109.994 127.123 110.597 126.694 111.236 126.324C112.158 125.797 112.903 125.373 113.442 125.711Z" fill="black"/>
<path opacity="0.1" d="M106.371 92.8472L114.433 88.2973L125.894 94.9101L116.044 100.595L113.081 102.142H113.047H113.018L112.806 102.234L112.697 102.274L112.204 102.474L111.929 102.572L111.855 102.6C111.694 102.652 111.54 102.709 111.391 102.749L111.07 102.835C110.903 102.881 110.749 102.91 110.594 102.938H110.542L110.33 102.973C110.14 102.999 109.949 103.014 109.757 103.019H109.574C109.351 103.016 109.128 102.993 108.909 102.95L108.795 102.921C108.626 102.875 108.461 102.816 108.302 102.744C108.255 102.728 108.21 102.704 108.17 102.675C108.027 102.592 107.889 102.501 107.757 102.4H107.729L107.631 102.314C107.483 102.176 107.349 102.025 107.23 101.861L107.173 101.792C106.864 101.315 106.635 100.791 106.497 100.239L106.468 100.142C106.394 99.8497 106.342 99.5689 106.291 99.2537V99.099C106.239 98.7552 106.199 98.3885 106.176 98.016C106.142 97.5232 106.13 97.0934 106.13 96.6636C106.114 95.3872 106.194 94.1115 106.371 92.8472Z" fill="black"/>
<path opacity="0.1" d="M82.8591 119.694L71.3984 113.087L81.2947 107.316L81.3807 107.265H81.4151L82.819 106.451L84.4063 105.351L84.4636 105.311L84.5267 105.265C84.6126 105.208 84.6814 105.145 84.7559 105.087L84.8418 105.024L85.1226 104.818L85.3862 104.612C85.4588 104.543 85.5333 104.48 85.6097 104.423L85.6957 104.354L85.7759 104.285C85.9249 104.17 86.0681 104.044 86.2057 103.924L86.4234 103.723L86.5036 103.637C86.773 103.391 87.0423 103.122 87.2887 102.852L87.3804 102.766C87.4835 102.656 87.5809 102.547 87.6726 102.44C87.7214 102.388 87.7655 102.333 87.8044 102.274C87.8503 102.228 87.8847 102.176 87.9248 102.13L87.9591 102.09L87.9993 102.044L88.0566 101.97C88.1597 101.844 88.2686 101.718 88.3603 101.586L88.6067 101.236L88.664 101.156V101.122C88.7729 100.967 88.8703 100.812 88.9677 100.658C89.0651 100.503 89.1339 100.388 89.2141 100.251V100.194C89.2829 100.073 89.3516 99.9586 89.4147 99.8325C89.4524 99.7753 89.4868 99.716 89.5178 99.6549C89.5866 99.4944 89.6668 99.3397 89.7356 99.185L89.8616 98.8928C89.9075 98.8011 89.9476 98.7037 89.9934 98.6005C90.0393 98.4974 90.0622 98.4343 90.0908 98.3427C90.1195 98.251 90.1596 98.1707 90.1883 98.0905C90.2627 97.8842 90.3258 97.6894 90.3945 97.4716C90.4461 97.3054 90.5034 97.1278 90.5493 96.9502C90.5493 96.9502 90.5493 96.9043 90.5493 96.8757C90.5951 96.6923 90.6467 96.4917 90.6868 96.3026V96.2453C90.7154 96.0849 90.7498 95.9359 90.7785 95.7754C90.8186 95.5577 90.8644 95.3056 90.8931 95.0706V94.9503C90.8931 94.9044 90.8931 94.8471 90.8931 94.7898C90.8962 94.7689 90.8962 94.7477 90.8931 94.7268C90.8931 94.6752 90.8931 94.6179 90.8931 94.5606C90.9275 94.2741 90.9504 93.9876 90.9676 93.7412V93.6151C90.9676 93.5062 90.9676 93.4145 90.9676 93.2999C90.9676 92.8873 90.979 92.469 91.002 92.045V91.9418C91.002 91.8215 91.002 91.7126 91.002 91.5866V91.2771C91.002 91.1396 91.002 90.9906 91.002 90.8531V90.7499C91.0048 90.7137 91.0048 90.6773 91.002 90.6411V90.4863C91.002 90.2743 90.9733 90.068 90.9561 89.8789V89.8388L90.9045 89.3231C90.801 88.5486 90.642 87.7826 90.4289 87.0309C90.3029 86.5668 90.1596 86.1485 90.0278 85.7588C89.6932 84.8609 89.4588 83.9289 89.3287 82.9796C89.3287 82.7905 89.2829 82.5956 89.2657 82.4065C89.2485 82.2174 89.2657 81.971 89.2313 81.7304V81.6272C89.2313 81.5699 89.2313 81.5126 89.2313 81.4553C89.2202 81.3352 89.2202 81.2144 89.2313 81.0943C89.2313 78.4526 90.8358 75.3639 92.8242 74.2179C93.0213 74.1017 93.2334 74.013 93.4545 73.9543C93.5968 73.9155 93.7428 73.8925 93.8901 73.8855C94.0305 73.8624 94.1737 73.8624 94.3141 73.8855C94.3822 73.8948 94.4493 73.9101 94.5147 73.9314C94.7147 73.9907 94.907 74.0734 95.0877 74.1778L106.709 80.825C106.465 80.6844 106.193 80.602 105.912 80.5843C105.709 80.5765 105.505 80.5938 105.305 80.6359C104.972 80.7106 104.652 80.8383 104.359 81.0141C104.009 81.2224 103.684 81.4704 103.391 81.7533C102.59 82.543 101.953 83.4837 101.517 84.521C101.414 84.7445 101.334 84.9737 101.248 85.2087C101.139 85.5376 101.049 85.8724 100.979 86.2115C100.853 86.7566 100.788 87.3139 100.784 87.8733C100.784 88.028 100.784 88.2057 100.784 88.4005V88.4578C100.807 89.387 100.94 90.3102 101.179 91.2084C101.213 91.3573 101.259 91.5006 101.299 91.6439C101.391 91.9361 101.483 92.2169 101.574 92.5034C101.706 92.8988 101.85 93.3114 101.981 93.7756C102.027 93.936 102.067 94.0965 102.107 94.2569C102.147 94.4174 102.188 94.595 102.233 94.7726C102.361 95.3705 102.454 95.9751 102.514 96.5834V96.6121C102.509 96.7132 102.509 96.8146 102.514 96.9158V97.2252V97.3054V97.3857C102.514 97.4544 102.514 97.5232 102.514 97.5977C102.52 97.6683 102.52 97.7392 102.514 97.8097C102.514 97.8785 102.514 97.953 102.514 98.0217V98.3369C102.514 98.4458 102.514 98.5604 102.514 98.6865V98.738C102.514 98.9501 102.514 99.1621 102.514 99.3741C102.514 99.5861 102.514 99.7924 102.486 100.004C102.486 100.108 102.486 100.216 102.486 100.314V100.44C102.486 100.709 102.445 100.984 102.411 101.259C102.411 101.391 102.377 101.517 102.36 101.655V101.764L102.239 102.48L102.136 102.944V103.001C102.136 103.11 102.09 103.219 102.056 103.334C102.021 103.448 101.999 103.552 101.97 103.649C101.941 103.746 101.97 103.741 101.941 103.786C101.913 103.832 101.855 104.044 101.821 104.176C101.758 104.382 101.689 104.589 101.615 104.789C101.54 104.99 101.483 105.133 101.42 105.299C101.357 105.465 101.254 105.695 101.168 105.872L100.933 106.354C100.887 106.44 100.841 106.537 100.789 106.623L100.646 106.892L100.612 106.95C100.576 107.021 100.536 107.09 100.491 107.156L100.451 107.225C100.427 107.269 100.398 107.312 100.365 107.351C100.268 107.511 100.171 107.666 100.067 107.821V107.855L100.01 107.935C99.9718 107.995 99.9297 108.053 99.884 108.107C99.8472 108.167 99.807 108.224 99.7637 108.279L99.6548 108.422C99.5944 108.508 99.5294 108.59 99.46 108.669L99.4027 108.743L99.3396 108.829L99.2078 108.984L99.1677 109.03C99.1677 109.064 99.1104 109.104 99.076 109.139L98.927 109.305C98.8869 109.356 98.8354 109.408 98.7838 109.465L98.6978 109.551C98.4487 109.827 98.1847 110.089 97.907 110.336L97.8268 110.422L97.6033 110.623C97.4715 110.749 97.3283 110.869 97.1793 110.99L97.0991 111.053L97.0589 111.093L97.0188 111.127L96.7953 111.31L96.2223 111.723L96.1364 111.792L95.9071 111.964L95.7811 112.05L94.1938 113.15L92.7898 113.964L92.744 113.998L92.6523 114.044L82.8591 119.694Z" fill="black"/>
<mask id="mask0_315_24048" style="mask-type:luminance" maskUnits="userSpaceOnUse" x="106" y="62" width="67" height="91">
<path d="M113.677 135.458C113.797 135.389 113.935 135.292 114.084 135.189C115.338 134.343 116.471 133.331 117.453 132.18C117.963 131.607 118.416 131.149 118.932 130.65L119.012 130.57L119.161 130.427L119.23 130.358C119.488 130.117 119.74 129.894 119.992 129.676L124.742 132.513C124.84 132.573 124.925 132.651 124.994 132.742C125.035 132.79 125.072 132.842 125.103 132.897V132.931C125.133 132.983 125.16 133.036 125.184 133.091V133.143L125.252 133.321C125.252 133.321 125.252 133.367 125.252 133.389C125.277 133.453 125.298 133.518 125.315 133.584C125.315 133.613 125.315 133.642 125.315 133.67C125.315 133.699 125.355 133.825 125.378 133.911V133.985C125.378 134.089 125.418 134.197 125.441 134.318C125.441 134.45 125.481 134.587 125.504 134.73V134.765L125.556 135.177C125.556 135.223 125.556 135.269 125.556 135.315L125.59 135.67C125.59 135.733 125.59 135.796 125.59 135.853C125.59 135.911 125.59 136.088 125.619 136.215C125.648 136.341 125.619 136.358 125.619 136.432V136.805C125.619 136.885 125.619 136.971 125.619 137.057C125.619 137.143 125.619 137.326 125.619 137.464C125.619 137.601 125.619 137.63 125.619 137.716C125.619 137.802 125.619 138.042 125.619 138.209V138.438C125.619 138.69 125.619 138.942 125.619 139.211V152.34L172.608 125.201V117.791C172.611 117.748 172.611 117.704 172.608 117.66V62.4993L162.752 68.1895L162.568 68.2984L162.454 68.3671L160.511 69.5705C159.733 70.0852 158.985 70.6438 158.271 71.2438L158.225 71.2839L158.104 71.3813C157.927 71.5303 157.761 71.685 157.594 71.8397L157.549 71.8856L157.337 72.0919C157.182 72.2409 157.033 72.3899 156.884 72.5446L156.603 72.8483C156.465 73.003 156.328 73.1577 156.196 73.3182C156.064 73.4786 156.024 73.5302 155.927 73.662C155.829 73.7938 155.669 73.9944 155.549 74.1605L155.342 74.4642L155.297 74.5445L155.239 74.6247C155.142 74.7737 155.044 74.9227 154.958 75.0717C154.872 75.2206 154.827 75.2951 154.769 75.4155L154.718 75.5014C154.546 75.8223 154.374 76.1604 154.225 76.5042L154.185 76.5902C154.122 76.7335 154.053 76.8767 153.996 77.0257C153.938 77.1747 153.881 77.3294 153.83 77.4841L153.789 77.5987C153.726 77.7764 153.663 77.9483 153.612 78.1317C153.56 78.315 153.503 78.5041 153.451 78.7047C153.4 78.9053 153.354 79.0944 153.308 79.2777C153.262 79.4611 153.228 79.6559 153.193 79.8508C153.159 80.0456 153.119 80.2634 153.09 80.4754V80.5155C153.09 80.6874 153.039 80.8593 153.016 81.037C152.993 81.2146 152.97 81.4954 152.947 81.7418V81.8793C152.947 82.0111 152.947 82.1429 152.918 82.2747C152.918 82.5555 152.918 82.8477 152.918 83.2603V83.3176C152.918 83.3921 152.918 83.4609 152.918 83.5354C152.873 85.6465 153.223 87.7474 153.95 89.7299C154.431 91.0149 154.698 92.3699 154.741 93.7411V93.8042C154.741 93.9933 154.769 94.1709 154.769 94.3314C154.742 95.7333 154.38 97.1084 153.715 98.3426C153.149 99.5134 152.27 100.505 151.176 101.208C151.003 101.305 150.823 101.389 150.638 101.46L150.546 101.494C150.382 101.55 150.213 101.589 150.042 101.609H149.95C149.788 101.626 149.625 101.626 149.463 101.609H149.429C149.265 101.583 149.107 101.533 148.959 101.46L148.913 101.431L143.956 98.5203C143.956 98.3713 143.956 98.228 143.996 98.079C144.036 97.93 144.036 97.7352 144.059 97.5633C144.105 97.208 144.151 96.8642 144.208 96.5318C144.266 96.1995 144.311 95.9244 144.369 95.6322C144.403 95.4774 144.432 95.3284 144.46 95.1852C144.598 94.5491 144.741 93.913 144.907 93.2311C145.402 91.4815 145.664 89.6742 145.687 87.8561C145.687 86.137 145.538 85.3634 145.074 85.0883L139.423 81.8277L129.831 87.3575L125.883 85.0654V89.6497L122.444 91.6496L121.344 92.2799L125.928 94.9159V101.724V108.061C125.928 111.752 125.648 114.216 125.075 115.591C124.674 116.536 124.06 117.132 122.645 117.952C121.532 118.638 120.256 119.016 118.949 119.046C118.548 119.046 118.147 119.121 117.763 119.172L117.293 119.253C117.15 119.281 117.001 119.31 116.846 119.35C116.559 119.418 116.276 119.5 115.998 119.596H115.94L115.769 119.654C115.336 119.82 114.913 120.012 114.502 120.227L114.347 120.301H114.313H114.244C114.066 120.378 113.892 120.464 113.723 120.559C112.027 121.615 110.588 123.036 109.511 124.719C109.236 125.121 108.978 125.539 108.732 125.969L108.634 126.158C108.422 126.536 108.222 126.92 108.061 127.304L108.021 127.395C107.611 128.277 107.262 129.187 106.978 130.117C106.721 130.957 106.529 131.815 106.405 132.685L111.425 135.584C111.779 135.759 112.173 135.839 112.568 135.817C112.962 135.795 113.344 135.671 113.677 135.458Z" fill="white"/>
</mask>
<g mask="url(#mask0_315_24048)">
<path d="M126.576 119.745L114.376 112.703L114.645 112.33L114.674 112.296L114.806 112.107C115.001 111.82 115.184 111.534 115.379 111.23L115.43 111.138C115.608 110.823 115.78 110.479 115.946 110.118C115.98 110.033 116.021 109.947 116.055 109.855V109.798C116.141 109.591 116.244 109.345 116.341 109.07C116.387 108.95 116.427 108.829 116.473 108.697V108.623C116.542 108.417 116.611 108.21 116.668 107.998C116.725 107.786 116.766 107.66 116.811 107.483C116.857 107.305 116.903 107.099 116.955 106.909C117.006 106.72 117.035 106.531 117.069 106.336C117.104 106.142 117.144 105.975 117.172 105.798V105.712C117.207 105.54 117.235 105.357 117.264 105.173C117.293 104.99 117.293 104.961 117.31 104.858V104.743C117.436 103.827 117.51 102.864 117.574 101.821V101.706L117.637 98.8927V85.5124L129.791 92.6295V106.016L129.728 108.835V108.944C129.676 109.987 129.596 110.949 129.475 111.861V111.981C129.475 112.09 129.447 112.193 129.43 112.302C129.412 112.411 129.378 112.663 129.344 112.835V112.915C129.315 113.104 129.281 113.276 129.246 113.459C129.212 113.643 129.166 113.832 129.12 114.032C129.074 114.233 129.034 114.422 128.988 114.605C128.943 114.789 128.891 114.955 128.845 115.121C128.799 115.287 128.719 115.539 128.645 115.74V115.826C128.604 115.946 128.559 116.078 128.513 116.198C128.421 116.462 128.312 116.714 128.226 116.926L128.198 116.978L128.094 117.241C127.928 117.597 127.756 117.94 127.579 118.267L127.527 118.359C127.361 118.645 127.178 118.932 126.983 119.235C126.942 119.298 126.896 119.358 126.845 119.413V119.453L126.576 119.745Z" fill="#842A93"/>
<path d="M117.642 143.016L117.677 131.968L117.505 132.146C118.009 131.573 118.473 131.109 118.977 130.616L119.063 130.536L119.212 130.392L119.316 130.335C120.279 129.407 121.348 128.595 122.502 127.917L122.628 127.854H122.656L122.742 127.802C123.017 127.648 123.315 127.51 123.562 127.378C123.636 127.338 123.716 127.31 123.791 127.275L123.871 127.235C124.055 127.166 124.249 127.08 124.444 127.017C124.547 126.971 124.645 126.949 124.736 126.914H124.782C124.948 126.874 125.109 126.828 125.258 126.8C125.407 126.771 125.487 126.754 125.596 126.742C125.737 126.731 125.879 126.731 126.02 126.742C126.127 126.737 126.234 126.737 126.341 126.742C126.467 126.753 126.591 126.774 126.713 126.805H126.765L127 126.863C127.12 126.905 127.235 126.958 127.344 127.023C127.467 127.083 127.584 127.154 127.693 127.235C127.826 127.33 127.951 127.435 128.066 127.55C128.131 127.619 128.192 127.692 128.249 127.768L128.289 127.825L128.324 127.865C128.383 127.941 128.439 128.019 128.49 128.1C128.563 128.21 128.628 128.325 128.685 128.444C128.742 128.553 128.794 128.65 128.839 128.759C128.885 128.868 128.954 129.034 129.011 129.183C129.069 129.332 129.086 129.401 129.12 129.516C129.155 129.63 129.218 129.837 129.263 130.009L129.332 130.295V130.341C129.372 130.53 129.418 130.725 129.453 130.914C129.453 130.966 129.453 131.023 129.453 131.08V131.149C129.579 131.957 129.67 132.868 129.733 133.94V133.985L129.796 136.541V150.111L117.642 143.016Z" fill="#842A93"/>
<path d="M111.19 135.561L99.1963 128.616C98.3998 128.192 97.9357 127.08 97.9357 125.608C97.9863 123.861 98.535 122.165 99.5172 120.72L99.7465 120.399C99.6892 120.49 99.6204 120.582 99.5631 120.668L111.757 127.711C111.725 127.75 111.697 127.793 111.671 127.837C110.686 129.278 110.137 130.973 110.09 132.719C110.09 134.1 110.514 135.086 111.19 135.561Z" fill="#842A93"/>
<path d="M126.576 119.745L114.376 112.703L114.645 112.33L114.674 112.296L114.806 112.107C115.001 111.82 115.184 111.534 115.379 111.23L115.43 111.138C115.608 110.823 115.78 110.479 115.946 110.118C115.98 110.033 116.021 109.947 116.055 109.855V109.798C116.141 109.591 116.244 109.345 116.341 109.07C116.387 108.95 116.427 108.829 116.473 108.697V108.623C116.542 108.417 116.611 108.21 116.668 107.998C116.725 107.786 116.766 107.66 116.811 107.483C116.857 107.305 116.903 107.099 116.955 106.909C117.006 106.72 117.035 106.531 117.069 106.336C117.104 106.142 117.144 105.975 117.172 105.798V105.712C117.207 105.54 117.235 105.357 117.264 105.173C117.293 104.99 117.293 104.961 117.31 104.858V104.743C117.436 103.827 117.51 102.864 117.574 101.821V101.706L117.637 98.8927V85.5124L129.791 92.6295V106.016L129.728 108.835V108.944C129.676 109.987 129.596 110.949 129.475 111.861V111.981C129.475 112.09 129.447 112.193 129.43 112.302C129.412 112.411 129.378 112.663 129.344 112.835V112.915C129.315 113.104 129.281 113.276 129.246 113.459C129.212 113.643 129.166 113.832 129.12 114.032C129.074 114.233 129.034 114.422 128.988 114.605C128.943 114.789 128.891 114.955 128.845 115.121C128.799 115.287 128.719 115.539 128.645 115.74V115.826C128.604 115.946 128.559 116.078 128.513 116.198C128.421 116.462 128.312 116.714 128.226 116.926L128.198 116.978L128.094 117.241C127.928 117.597 127.756 117.94 127.579 118.267L127.527 118.359C127.361 118.645 127.178 118.932 126.983 119.235C126.942 119.298 126.896 119.358 126.845 119.413V119.453L126.576 119.745Z" fill="#2BBDB2"/>
<path d="M117.642 143.016L117.677 131.968L117.505 132.146C118.009 131.573 118.473 131.109 118.977 130.616L119.063 130.536L119.212 130.392L119.316 130.335C120.279 129.407 121.348 128.595 122.502 127.917L122.628 127.854H122.656L122.742 127.802C123.017 127.648 123.315 127.51 123.562 127.378C123.636 127.338 123.716 127.31 123.791 127.275L123.871 127.235C124.055 127.166 124.249 127.08 124.444 127.017C124.547 126.971 124.645 126.949 124.736 126.914H124.782C124.948 126.874 125.109 126.828 125.258 126.8C125.407 126.771 125.487 126.754 125.596 126.742C125.737 126.731 125.879 126.731 126.02 126.742C126.127 126.737 126.234 126.737 126.341 126.742C126.467 126.753 126.591 126.774 126.713 126.805H126.765L127 126.863C127.12 126.905 127.235 126.958 127.344 127.023C127.467 127.083 127.584 127.154 127.693 127.235C127.826 127.33 127.951 127.435 128.066 127.55C128.131 127.619 128.192 127.692 128.249 127.768L128.289 127.825L128.324 127.865C128.383 127.941 128.439 128.019 128.49 128.1C128.563 128.21 128.628 128.325 128.685 128.444C128.742 128.553 128.794 128.65 128.839 128.759C128.885 128.868 128.954 129.034 129.011 129.183C129.069 129.332 129.086 129.401 129.12 129.516C129.155 129.63 129.218 129.837 129.263 130.009L129.332 130.295V130.341C129.372 130.53 129.418 130.725 129.453 130.914C129.453 130.966 129.453 131.023 129.453 131.08V131.149C129.579 131.957 129.67 132.868 129.733 133.94V133.985L129.796 136.541V150.111L117.642 143.016Z" fill="#2BBDB2"/>
<path d="M111.19 135.561L99.1963 128.616C98.3998 128.192 97.9357 127.08 97.9357 125.608C97.9863 123.861 98.535 122.165 99.5172 120.72L99.7465 120.399C99.6892 120.49 99.6204 120.582 99.5631 120.668L111.757 127.711C111.725 127.75 111.697 127.793 111.671 127.837C110.686 129.278 110.137 130.973 110.09 132.719C110.09 134.1 110.514 135.086 111.19 135.561Z" fill="#2BBDB2"/>
<path d="M111.293 135.601L111.213 135.555C110.537 135.08 110.113 134.094 110.113 132.736C110.159 130.991 110.709 129.295 111.694 127.854C111.719 127.81 111.748 127.768 111.78 127.728L99.5859 120.685C99.6432 120.599 99.712 120.508 99.7693 120.416C99.924 120.215 100.084 120.026 100.251 119.843C100.328 119.753 100.411 119.667 100.497 119.585C100.582 119.492 100.674 119.405 100.772 119.327C101.008 119.108 101.267 118.916 101.546 118.754C101.648 118.695 101.753 118.641 101.861 118.594L101.998 118.536H102.033C102.539 118.266 103.076 118.057 103.632 117.912L103.826 117.866C104.329 117.764 104.839 117.697 105.351 117.665C107.155 117.603 108.912 117.067 110.445 116.112L110.846 115.866C110.966 115.797 111.075 115.723 111.19 115.643C111.305 115.562 111.368 115.534 111.453 115.476H111.488L111.912 115.167L112.313 114.852L112.388 114.794L112.451 114.737L112.496 114.697L112.668 114.548C112.72 114.502 112.783 114.456 112.835 114.405C112.886 114.353 113.041 114.221 113.144 114.118L113.287 113.975L113.35 113.906L113.602 113.643C113.706 113.534 113.809 113.419 113.906 113.305L113.946 113.259L114.112 113.064C114.187 112.961 114.279 112.858 114.353 112.749L126.559 119.797L126.776 119.499V119.459C126.827 119.404 126.873 119.344 126.914 119.281C127.109 118.983 127.292 118.708 127.458 118.405L127.51 118.313C127.688 117.986 127.859 117.642 128.026 117.287L128.129 117.024L128.157 116.972C128.243 116.76 128.352 116.508 128.444 116.244C128.49 116.124 128.536 115.992 128.576 115.872V115.786C128.65 115.585 128.713 115.379 128.776 115.167C128.839 114.955 128.868 114.829 128.92 114.651C128.971 114.474 129.011 114.267 129.051 114.078C129.092 113.889 129.137 113.706 129.177 113.505C129.218 113.305 129.246 113.15 129.275 112.961V112.881C129.309 112.709 129.332 112.531 129.361 112.348C129.389 112.164 129.389 112.136 129.407 112.027V111.906C129.527 110.995 129.607 110.033 129.659 108.99V108.881L129.722 106.061V92.6352L117.568 85.5181L122.553 82.6529L125.126 81.1688L127.418 79.8393L128.312 79.335C128.547 79.2204 128.759 79.0944 128.977 78.9912C129.737 78.5743 130.54 78.24 131.372 77.9941L131.624 77.9311C131.883 77.8693 132.15 77.85 132.415 77.8738C132.564 77.8738 132.644 78.0056 132.759 78.0744L145.056 85.0654C145.174 85.1426 145.276 85.2427 145.355 85.3599C145.433 85.477 145.488 85.6087 145.515 85.7473C145.515 85.8447 145.566 85.9593 145.589 86.0797C145.612 86.2 145.624 86.3375 145.641 86.4865V86.7157C145.641 86.8762 145.641 87.0481 145.641 87.2372C145.641 87.4263 145.641 87.6269 145.641 87.8446C145.641 88.389 145.641 88.8818 145.572 89.3517C145.572 89.472 145.572 89.5866 145.572 89.7012C145.572 89.8159 145.572 89.9247 145.532 90.0393C145.492 90.1539 145.532 90.2571 145.48 90.3717C145.429 90.4863 145.452 90.5895 145.434 90.6983C145.394 90.9104 145.36 91.1166 145.32 91.3344C145.28 91.5522 145.228 91.7527 145.188 91.959C145.182 91.9737 145.182 91.9901 145.188 92.0048C146.174 89.7993 146.706 87.4178 146.752 85.0024C146.752 84.6643 146.752 84.3262 146.718 84.0397C146.66 82.2018 146.308 80.3851 145.675 78.6589C145.131 77.2287 144.864 75.7078 144.89 74.1777C144.89 71.3469 144.89 69.7883 150.895 66.3329L160.7 60.7171L172.894 67.7597V117.648C172.894 121.803 170.361 126.645 167.25 128.444L129.831 150.048V136.49L129.768 133.934V133.888C129.705 132.828 129.613 131.905 129.487 131.097V131.029C129.487 130.971 129.487 130.914 129.487 130.862C129.453 130.656 129.407 130.461 129.367 130.289V130.243L129.298 129.957C129.252 129.785 129.212 129.625 129.155 129.464C129.097 129.304 129.086 129.241 129.046 129.132C129.006 129.023 128.937 128.84 128.874 128.708C128.811 128.576 128.776 128.501 128.719 128.393C128.662 128.274 128.597 128.159 128.524 128.049C128.473 127.968 128.417 127.889 128.358 127.814L128.324 127.774L128.284 127.716C128.227 127.64 128.165 127.568 128.1 127.499C127.985 127.383 127.86 127.278 127.728 127.183C127.618 127.102 127.501 127.031 127.378 126.971C127.269 126.907 127.154 126.853 127.034 126.811L126.799 126.754H126.748C126.626 126.722 126.501 126.701 126.375 126.691C126.268 126.685 126.161 126.685 126.054 126.691C125.913 126.68 125.772 126.68 125.63 126.691C125.521 126.691 125.413 126.725 125.292 126.748C125.172 126.771 124.983 126.822 124.817 126.863H124.771C124.679 126.897 124.582 126.92 124.479 126.966C124.284 127.029 124.089 127.115 123.906 127.183L123.825 127.224C123.751 127.258 123.671 127.287 123.596 127.327C123.321 127.459 123.052 127.596 122.777 127.751L122.691 127.802H122.662L122.536 127.865C121.368 128.558 120.287 129.387 119.316 130.335L119.241 130.404L119.092 130.547L119.006 130.627C118.502 131.12 118.038 131.613 117.533 132.157C116.551 133.308 115.418 134.32 114.164 135.166C114.015 135.269 113.883 135.366 113.757 135.435C113.422 135.642 113.047 135.777 112.657 135.831C112.416 135.877 112.17 135.877 111.929 135.831C111.705 135.793 111.49 135.715 111.293 135.601Z" fill="#007A71"/>
<path d="M129.836 92.6294L117.682 85.5123L122.668 82.6472L125.241 81.163L127.533 79.8336L128.427 79.3293C128.662 79.2147 128.874 79.0886 129.092 78.9855C129.852 78.5686 130.655 78.2343 131.487 77.9884L131.739 77.9254C131.998 77.8636 132.265 77.8442 132.53 77.8681C132.679 77.8681 132.759 77.9998 132.874 78.0686L145.022 85.0654C144.979 85.0413 144.933 85.0239 144.884 85.0138C144.826 84.9845 144.761 84.9707 144.695 84.9737C144.505 84.9452 144.312 84.9452 144.122 84.9737C143.961 84.9933 143.802 85.0279 143.647 85.0768C142.258 85.5295 140.93 86.1512 139.693 86.9277L137.401 88.2572L134.822 89.7471L129.836 92.6294Z" fill="black"/>
<path d="M145.56 106.228C144.414 105.082 143.841 103.15 143.841 100.818C143.836 100.483 143.849 100.149 143.882 99.8153C143.882 99.8153 143.882 99.8153 143.882 99.7752C143.882 99.2022 143.939 98.6693 144.002 98.0561C144.002 97.8842 144.042 97.718 144.065 97.5461C144.105 97.1908 144.157 96.8413 144.214 96.5146C144.271 96.188 144.317 95.9072 144.374 95.615C144.409 95.4603 144.437 95.3113 144.466 95.168C144.604 94.5319 144.747 93.8959 144.913 93.214C145.022 92.7842 145.119 92.3716 145.211 91.959C146.191 89.768 146.719 87.402 146.764 85.0024C146.764 84.6643 146.764 84.3319 146.724 84.0454C146.669 82.204 146.319 80.3834 145.687 78.6531C145.144 77.2243 144.878 75.7057 144.902 74.1777C144.902 71.3527 144.902 69.794 150.907 66.3272L160.712 60.7171L172.906 67.7597L163.061 73.4442C157.056 76.8825 157.056 78.4698 157.056 81.2948C157.025 82.8252 157.292 84.347 157.841 85.776C158.468 87.5056 158.818 89.3235 158.878 91.1625C158.878 91.449 158.918 91.7814 158.912 92.1137C158.912 97.655 155.537 104.119 151.371 106.514C149.113 107.826 146.999 107.717 145.56 106.228Z" fill="black"/>
<path d="M111.757 127.734L99.5631 120.691C99.6204 120.605 99.6892 120.513 99.7465 120.422C99.9012 120.221 100.062 120.032 100.228 119.849C100.306 119.759 100.388 119.672 100.474 119.591C100.559 119.497 100.651 119.411 100.749 119.333C100.985 119.114 101.245 118.922 101.523 118.76C101.625 118.701 101.73 118.647 101.838 118.599L101.976 118.548H102.01C102.517 118.278 103.053 118.068 103.609 117.923L103.804 117.877C104.306 117.775 104.816 117.708 105.328 117.677C107.133 117.614 108.889 117.079 110.422 116.124L110.823 115.877C110.944 115.809 111.052 115.734 111.167 115.654C111.256 115.602 111.343 115.545 111.425 115.482H111.459L111.883 115.173L112.29 114.857L112.359 114.8L112.422 114.743L112.474 114.703L112.64 114.554C112.691 114.508 112.754 114.462 112.806 114.41C112.858 114.359 113.012 114.227 113.115 114.124L113.259 113.981C113.279 113.957 113.302 113.935 113.327 113.918L113.574 113.648C113.677 113.539 113.78 113.425 113.878 113.31L113.918 113.264L114.084 113.07C114.158 112.966 114.25 112.863 114.324 112.754L126.536 119.803L126.484 119.86C126.404 119.975 126.318 120.084 126.232 120.198C126.146 120.313 126.123 120.318 126.072 120.382L126.026 120.427C125.843 120.639 125.659 120.84 125.453 121.029L125.338 121.144C125.31 121.178 125.275 121.207 125.252 121.241L124.937 121.528L124.605 121.814L124.559 121.86L124.416 121.969C124.152 122.192 123.877 122.399 123.596 122.599C123.596 122.599 123.562 122.599 123.533 122.639C123.212 122.868 122.879 123.081 122.536 123.275L122.181 123.459L121.762 123.671C120.83 124.156 119.826 124.486 118.788 124.651L118.261 124.719H117.998L117.511 124.765C116.785 124.791 116.066 124.914 115.373 125.132C115.161 125.201 114.938 125.287 114.691 125.39C114.537 125.459 114.365 125.539 114.193 125.631L114.049 125.688C113.941 125.734 113.836 125.788 113.734 125.848C113.454 126.016 113.19 126.207 112.943 126.421C112.855 126.495 112.771 126.573 112.691 126.656C112.605 126.736 112.519 126.828 112.439 126.92C112.331 127.027 112.232 127.142 112.141 127.264C112.078 127.336 112.018 127.413 111.964 127.493C111.866 127.602 111.803 127.665 111.757 127.734Z" fill="black"/>
</g>
<mask id="mask1_315_24048" style="mask-type:luminance" maskUnits="userSpaceOnUse" x="113" y="0" width="60" height="107">
<path d="M125.888 89.6497V76.4699L126.02 72.4586V72.3784C126.02 72.281 126.02 72.1893 126.02 72.1034V71.9715C126.02 71.7137 126.066 71.4673 126.095 71.2266C126.101 71.1034 126.116 70.9809 126.141 70.8599V70.7453C126.141 70.5103 126.198 70.2754 126.226 70.0519C126.255 69.8284 126.272 69.7424 126.301 69.5992C126.347 69.3471 126.381 69.1007 126.433 68.86V68.7798C126.433 68.6823 126.473 68.5792 126.496 68.4818C126.565 68.1494 126.651 67.8285 126.731 67.5076C126.731 67.5076 126.731 67.4446 126.759 67.393C126.857 67.032 126.983 66.6595 127.109 66.2928L127.161 66.1381C127.275 65.8286 127.407 65.5249 127.527 65.2269C127.527 65.1696 127.585 65.1009 127.619 65.0378V64.992C127.751 64.7169 127.883 64.419 128.032 64.1668L128.146 63.972C128.32 63.6612 128.511 63.3608 128.719 63.0723C129.165 62.4219 129.669 61.8139 130.226 61.2558L130.272 61.21C130.507 60.9807 130.776 60.7343 131.063 60.4994L131.12 60.4421C131.726 59.9505 132.37 59.5078 133.046 59.1184C133.771 58.6868 134.539 58.3315 135.338 58.0583C135.739 57.9256 136.149 57.8184 136.564 57.7374C137.084 57.649 137.608 57.5897 138.134 57.5597C139.294 57.5302 140.431 57.2341 141.458 56.6944H141.486C141.641 56.6308 141.793 56.5581 141.939 56.4767C143.032 55.7738 143.908 54.7821 144.472 53.6115C144.643 53.2905 144.794 52.9595 144.925 52.6202C145.312 51.6679 145.516 50.6511 145.526 49.6232C145.526 49.4513 145.526 49.2851 145.526 49.1246C145.53 49.0808 145.53 49.0367 145.526 48.9929C145.522 48.8812 145.509 48.77 145.486 48.6605C145.486 48.6089 145.486 48.5745 145.486 48.5287C145.486 48.4829 145.44 48.3224 145.417 48.2364C145.395 48.1505 145.389 48.1562 145.377 48.1218C145.366 48.0875 145.314 47.9327 145.274 47.841L145.234 47.7608C145.198 47.6691 145.154 47.5809 145.102 47.4972C145.094 47.4752 145.08 47.4556 145.062 47.4399C145.011 47.354 144.953 47.2737 144.89 47.1878C144.827 47.1018 144.89 47.1878 144.862 47.1534L144.644 46.9357C144.562 46.8662 144.474 46.8048 144.38 46.7523L139.171 43.7496C138.342 44.4944 137.552 45.2825 136.805 46.1105C135.751 47.3679 134.499 48.4442 133.097 49.2966C132.198 49.8123 131.458 50.2421 130.925 49.9326L125.888 47.0216C125.854 45.8755 125.854 44.6321 125.888 43.3141V32.2144L113.694 25.1775L157.136 0.0556641L172.946 9.17838L172.917 67.7712L163.067 73.4557C157.067 76.8939 157.067 78.4812 157.067 81.3063C157.039 82.836 157.303 84.3571 157.847 85.7874C158.481 87.5152 158.834 89.3341 158.889 91.174C158.889 91.4548 158.924 91.7928 158.93 92.1309C158.846 95.3004 157.967 98.3981 156.374 101.139L146.392 106.898C146.087 106.708 145.807 106.483 145.555 106.228C144.443 105.082 143.836 103.156 143.836 100.824C143.836 100.509 143.836 100.176 143.882 99.8096C143.882 99.8096 143.882 99.8096 143.882 99.7752C143.882 99.2022 143.933 98.6693 144.002 98.0561C144.002 97.8899 144.042 97.7123 144.065 97.5461C144.105 97.1851 144.157 96.8413 144.214 96.5147C144.271 96.188 144.317 95.9072 144.375 95.615C144.409 95.4603 144.438 95.3113 144.466 95.168C144.598 94.532 144.747 93.8959 144.919 93.214C145.409 91.4635 145.669 89.6566 145.692 87.8389C145.692 86.1198 145.544 85.3462 145.074 85.0711L139.429 81.8106L129.831 87.3576L125.888 89.6497Z" fill="white"/>
</mask>
<g mask="url(#mask1_315_24048)">
<path d="M149.022 101.449L136.799 94.3887C136.742 94.3597 136.686 94.3271 136.633 94.2913C135.951 93.7756 135.636 92.704 135.636 91.4261C135.623 91.22 135.623 91.0134 135.636 90.8073V90.7328C135.723 89.0793 135.99 87.4403 136.432 85.8448C136.627 85.0253 136.833 84.1257 137.005 83.2031L139.653 81.6731L139.756 81.6158L139.819 81.5814L141.905 80.464L141.962 80.4353C142.618 80.1088 143.295 79.8292 143.991 79.5987H144.071L144.34 79.5127C144.447 79.478 144.556 79.4512 144.667 79.4325H144.73C144.856 79.3981 144.988 79.3637 145.119 79.3408L145.463 79.295C145.595 79.295 145.733 79.295 145.864 79.295C145.996 79.295 146.071 79.295 146.168 79.295C146.305 79.2973 146.441 79.3127 146.575 79.3408H146.627L146.821 79.3752C146.98 79.4177 147.135 79.4713 147.286 79.5357L147.423 79.593C147.833 79.8108 148.184 80.1231 148.449 80.5041C148.472 80.5369 148.493 80.5713 148.512 80.6072C148.637 80.7874 148.745 80.9793 148.833 81.1803C148.833 81.2204 148.873 81.2662 148.89 81.3006V81.3407C148.976 81.5527 149.05 81.782 149.125 82.0226L149.171 82.206C149.247 82.4865 149.304 82.7717 149.343 83.0598L149.371 83.1916C149.483 84.0062 149.534 84.8278 149.526 85.6499C149.503 88.1444 149.156 90.6253 148.495 93.0306C148.057 94.6289 147.792 96.2695 147.704 97.9244V97.9931C147.704 98.2567 147.675 98.4458 147.675 98.6177C147.675 99.8956 148.048 100.875 148.724 101.391L149.022 101.449Z" fill="#842A93"/>
<path d="M129.831 87.3576L117.683 80.2462V67.1008C117.642 65.1723 117.764 63.2438 118.049 61.3361C118.473 58.9923 119.115 58.2818 120.96 57.2159C122.076 56.5297 123.353 56.152 124.662 56.1214C125.092 56.0871 125.499 56.0469 125.911 55.9839L126.238 55.9266L126.811 55.8063C127.046 55.7375 127.298 55.6687 127.562 55.5771C127.671 55.5456 127.778 55.5073 127.883 55.4625C128.302 55.3092 128.712 55.1293 129.109 54.9238L129.16 54.8952C129.408 54.7952 129.647 54.6764 129.877 54.5399C132.134 53.2391 134.255 50.6776 135.687 47.5259C135.785 47.3196 135.865 47.1133 135.951 46.9128L135.647 47.2165C136.037 46.8325 136.415 46.42 136.793 45.9959C138.107 44.4834 139.613 43.1502 141.274 42.0305C141.509 41.8542 141.756 41.6953 142.014 41.5549C146.168 39.1481 149.555 41.7096 149.555 47.2451C149.507 49.8044 148.921 52.3249 147.836 54.643C146.397 57.8004 144.277 60.3734 142.019 61.6627C141.789 61.7951 141.549 61.9119 141.303 62.0122C141.286 62.0175 141.268 62.0175 141.251 62.0122C140.854 62.2271 140.445 62.4185 140.025 62.5853L139.704 62.6999C139.458 62.7852 139.207 62.8579 138.954 62.9176C138.753 62.9692 138.57 63.0093 138.381 63.0437L138.048 63.101C137.641 63.1583 137.229 63.2099 136.799 63.2385C135.491 63.2656 134.215 63.6437 133.103 64.333C131.258 65.3932 130.61 66.1037 130.192 68.4474C129.902 70.3586 129.776 72.291 129.814 74.2236V82.8764L129.831 87.3576Z" fill="#842A93"/>
<path d="M130.948 49.8181L118.743 42.7583C118.026 42.3228 117.7 40.512 117.7 35.9621L117.648 22.8969L129.842 29.9395V43.0734C129.842 47.6577 130.226 49.4055 130.954 49.8123L130.948 49.8181Z" fill="#842A93"/>
<path opacity="0.2" d="M149.022 101.449L136.799 94.3887C136.742 94.3597 136.686 94.3271 136.633 94.2913C135.951 93.7756 135.636 92.704 135.636 91.4261C135.623 91.22 135.623 91.0134 135.636 90.8073V90.7328C135.723 89.0793 135.99 87.4403 136.432 85.8448C136.627 85.0253 136.833 84.1257 137.005 83.2031L139.653 81.6731L139.756 81.6158L139.819 81.5814L141.905 80.464L141.962 80.4353C142.618 80.1088 143.295 79.8292 143.991 79.5987H144.071L144.34 79.5127C144.447 79.478 144.556 79.4512 144.667 79.4325H144.73C144.856 79.3981 144.988 79.3637 145.119 79.3408L145.463 79.295C145.595 79.295 145.733 79.295 145.864 79.295C145.996 79.295 146.071 79.295 146.168 79.295C146.305 79.2973 146.441 79.3127 146.575 79.3408H146.627L146.821 79.3752C146.98 79.4177 147.135 79.4713 147.286 79.5357L147.423 79.593C147.833 79.8108 148.184 80.1231 148.449 80.5041C148.472 80.5369 148.493 80.5713 148.512 80.6072C148.637 80.7874 148.745 80.9793 148.833 81.1803C148.833 81.2204 148.873 81.2662 148.89 81.3006V81.3407C148.976 81.5527 149.05 81.782 149.125 82.0226L149.171 82.206C149.247 82.4865 149.304 82.7717 149.343 83.0598L149.371 83.1916C149.483 84.0062 149.534 84.8278 149.526 85.6499C149.503 88.1444 149.156 90.6253 148.495 93.0306C148.057 94.6289 147.792 96.2695 147.704 97.9244V97.9931C147.704 98.2567 147.675 98.4458 147.675 98.6177C147.675 99.8956 148.048 100.875 148.724 101.391L149.022 101.449Z" fill="black"/>
<path opacity="0.2" d="M129.831 87.3576L117.683 80.2462V67.1008C117.642 65.1723 117.764 63.2438 118.049 61.3361C118.473 58.9923 119.115 58.2818 120.96 57.2159C122.076 56.5297 123.353 56.152 124.662 56.1214C125.092 56.0871 125.499 56.0469 125.911 55.9839L126.238 55.9266L126.811 55.8063C127.046 55.7375 127.298 55.6687 127.562 55.5771C127.671 55.5456 127.778 55.5073 127.883 55.4625C128.302 55.3092 128.712 55.1293 129.109 54.9238L129.16 54.8952C129.408 54.7952 129.647 54.6764 129.877 54.5399C132.134 53.2391 134.255 50.6776 135.687 47.5259C135.785 47.3196 135.865 47.1133 135.951 46.9128L135.647 47.2165C136.037 46.8325 136.415 46.42 136.793 45.9959C138.107 44.4834 139.613 43.1502 141.274 42.0305C141.509 41.8542 141.756 41.6953 142.014 41.5549C146.168 39.1481 149.555 41.7096 149.555 47.2451C149.507 49.8044 148.921 52.3249 147.836 54.643C146.397 57.8004 144.277 60.3734 142.019 61.6627C141.789 61.7951 141.549 61.9119 141.303 62.0122C141.286 62.0175 141.268 62.0175 141.251 62.0122C140.854 62.2271 140.445 62.4185 140.025 62.5853L139.704 62.6999C139.458 62.7852 139.207 62.8579 138.954 62.9176C138.753 62.9692 138.57 63.0093 138.381 63.0437L138.048 63.101C137.641 63.1583 137.229 63.2099 136.799 63.2385C135.491 63.2656 134.215 63.6437 133.103 64.333C131.258 65.3932 130.61 66.1037 130.192 68.4474C129.902 70.3586 129.776 72.291 129.814 74.2236V82.8764L129.831 87.3576Z" fill="black"/>
<path opacity="0.2" d="M130.948 49.8181L118.743 42.7583C118.026 42.3228 117.7 40.512 117.7 35.9621L117.648 22.8969L129.842 29.9395V43.0734C129.842 47.6577 130.226 49.4055 130.954 49.8123L130.948 49.8181Z" fill="black"/>
<path d="M149.114 101.506L149.022 101.454L148.827 101.328C148.151 100.812 147.778 99.8326 147.778 98.5547C147.778 98.3828 147.778 98.1937 147.807 97.9301V97.8613C147.895 96.2065 148.16 94.5659 148.598 92.9676C149.259 90.5623 149.606 88.0814 149.629 85.5869C149.638 84.7648 149.586 83.9432 149.475 83.1286L149.446 82.9968C149.408 82.7087 149.35 82.4235 149.274 82.143L149.228 81.9596C149.154 81.7189 149.079 81.4897 148.993 81.2777V81.2376C148.993 81.2032 148.959 81.1573 148.936 81.1172C148.848 80.9163 148.74 80.7244 148.615 80.5442C148.597 80.5083 148.576 80.4738 148.552 80.441C148.287 80.0601 147.936 79.7477 147.526 79.5299L147.389 79.4726C147.238 79.4082 147.083 79.3546 146.925 79.3122L146.73 79.2778H146.678C146.544 79.2496 146.408 79.2343 146.271 79.2319C146.174 79.2319 146.071 79.2319 145.968 79.2319C145.865 79.2319 145.698 79.2319 145.567 79.2319L145.223 79.2778C145.091 79.2778 144.959 79.3351 144.833 79.3695H144.77C144.659 79.3882 144.55 79.415 144.443 79.4497L144.174 79.5357H144.094C143.399 79.7662 142.721 80.0457 142.065 80.3723L142.008 80.4009L139.922 81.5183L139.859 81.5527L139.756 81.61L137.109 83.14L129.831 87.3576V82.8707V74.2179C129.792 72.2873 129.916 70.3569 130.204 68.4474C130.622 66.1037 131.269 65.3932 133.115 64.333C134.226 63.6437 135.503 63.2656 136.811 63.2385C137.24 63.2385 137.653 63.1583 138.06 63.101L138.392 63.0437C138.581 63.0093 138.765 62.9692 138.965 62.9176C139.219 62.8579 139.47 62.7852 139.716 62.6999L140.037 62.5853C140.456 62.4185 140.866 62.2271 141.263 62.0122C141.28 62.0175 141.298 62.0175 141.315 62.0122C141.561 61.9119 141.8 61.7951 142.031 61.6627C144.289 60.3504 146.409 57.8004 147.847 54.643C148.933 52.3249 149.518 49.8044 149.566 47.2451C149.566 41.7096 146.18 39.1481 142.025 41.5549C141.768 41.6953 141.521 41.8542 141.286 42.0305C139.625 43.1502 138.118 44.4834 136.805 45.9959C136.409 46.42 136.031 46.8325 135.659 47.2165C135.053 47.8232 134.389 48.3683 133.676 48.8439L133.418 49.0043L133.12 49.182C132.776 49.3768 132.467 49.5602 132.175 49.692L131.894 49.8066C131.81 49.8431 131.721 49.8682 131.63 49.8811C131.551 49.9079 131.468 49.9215 131.384 49.9212C131.231 49.9262 131.081 49.8884 130.948 49.8123C130.221 49.4055 129.837 47.6692 129.837 43.0734V29.9395L117.643 22.8969L155.108 1.22469C155.245 1.1502 155.371 1.0757 155.509 1.01267C155.63 0.949551 155.757 0.895909 155.887 0.852218L156.265 0.731881C156.383 0.692441 156.503 0.663672 156.626 0.645925C156.779 0.617739 156.935 0.600502 157.09 0.594349C157.719 0.566188 158.341 0.732246 158.872 1.06997L170.906 8.00942C171.278 8.21378 171.604 8.49276 171.863 8.82886C171.952 8.94418 172.035 9.06473 172.11 9.18987C172.164 9.27309 172.214 9.35918 172.259 9.44774C172.35 9.63111 172.436 9.82022 172.516 10.0208C172.545 10.1239 172.585 10.2271 172.614 10.3359C172.829 11.0804 172.932 11.8531 172.918 12.6281V62.5165L163.067 68.201L162.889 68.3156L162.769 68.3844H162.74L160.786 69.5935C160.007 70.1049 159.259 70.6617 158.546 71.261L158.494 71.3011L158.38 71.3986L157.87 71.857L157.83 71.9028C157.755 71.9659 157.681 72.0404 157.612 72.1091C157.543 72.1779 157.308 72.4071 157.165 72.5618C157.022 72.7165 156.97 72.7624 156.884 72.8655C156.798 72.9687 156.603 73.175 156.471 73.3354L156.202 73.6735L155.824 74.1778L155.618 74.4815L155.572 74.5617L155.52 74.6419C155.423 74.7852 155.32 74.9342 155.228 75.0889C155.136 75.2436 155.102 75.3124 155.045 75.427L154.999 75.5187C154.821 75.8396 154.649 76.1777 154.494 76.5215L154.46 76.6074C154.391 76.7507 154.328 76.8997 154.271 77.0429C154.219 77.1919 154.162 77.3409 154.111 77.4956L154.065 77.6103L153.893 78.1375C153.835 78.3265 153.784 78.5156 153.732 78.7105C153.681 78.9053 153.635 79.1001 153.589 79.2835C153.543 79.4669 153.509 79.6674 153.474 79.8566C153.44 80.0457 153.4 80.2749 153.371 80.4869V80.5213C153.371 80.6989 153.314 80.8766 153.297 81.0542C153.28 81.2318 153.251 81.5012 153.228 81.7533V81.8908C153.228 82.0226 153.228 82.1544 153.199 82.2862C153.199 82.567 153.199 82.8593 153.199 83.2718V83.3463C153.199 83.4151 153.199 83.4896 153.199 83.5584C153.157 85.6692 153.507 87.7696 154.231 89.7529C154.711 91.038 154.978 92.3929 155.022 93.7641V93.8271C155.022 94.0105 155.05 94.1996 155.056 94.3543C155.056 96.996 153.44 100.085 151.457 101.231C151.096 101.452 150.692 101.594 150.271 101.649C150.185 101.658 150.099 101.658 150.013 101.649H149.973C149.92 101.658 149.866 101.658 149.813 101.649C149.765 101.658 149.717 101.658 149.67 101.649L149.555 101.62L149.417 101.58C149.381 101.574 149.346 101.56 149.314 101.54C149.245 101.549 149.176 101.537 149.114 101.506Z" fill="#842A93"/>
<path opacity="0.3" d="M129.831 29.9395L117.637 22.8969L155.102 1.22469C155.239 1.1502 155.365 1.0757 155.503 1.01267C155.625 0.949551 155.751 0.895909 155.881 0.852218L156.259 0.731881C156.377 0.692441 156.498 0.663672 156.62 0.645925C156.774 0.617739 156.929 0.600502 157.084 0.594349C157.713 0.566188 158.335 0.732246 158.867 1.06997L170.763 7.94639C170.659 7.89205 170.549 7.84975 170.436 7.82032C170.41 7.81331 170.385 7.80371 170.362 7.79167C170.257 7.75601 170.15 7.73105 170.041 7.71717H169.932C169.861 7.70812 169.79 7.70812 169.72 7.71717H169.514C169.497 7.71429 169.479 7.71429 169.462 7.71717C169.363 7.70855 169.263 7.70855 169.164 7.71717L168.935 7.75156C168.779 7.77072 168.625 7.80527 168.476 7.85471L168.247 7.92347L167.8 8.10111C167.628 8.18134 167.456 8.27302 167.273 8.37617L129.831 29.9395Z" fill="white"/>
</g>
<mask id="mask2_315_24048" style="mask-type:luminance" maskUnits="userSpaceOnUse" x="70" y="25" width="76" height="90">
<path d="M82.8133 114.514L70.6077 107.477L70.6535 57.4967C70.6979 55.5083 71.1729 53.5533 72.046 51.7663C73.0832 49.5773 74.6074 47.692 76.3094 46.7064L113.683 25.1832L125.877 32.2201V43.2052V46.9127L130.908 49.818C131.453 50.1332 132.18 49.7091 133.086 49.1877C134.487 48.3353 135.74 47.259 136.793 46.0016C137.54 45.1736 138.33 44.3855 139.16 43.6407L144.369 46.6434C144.409 46.6641 144.448 46.6891 144.483 46.7179C144.49 46.7148 144.496 46.7133 144.503 46.7133C144.51 46.7133 144.517 46.7148 144.523 46.7179C144.57 46.7443 144.612 46.7771 144.65 46.8153C144.835 46.9779 144.99 47.1719 145.108 47.3883C145.151 47.4461 145.186 47.5098 145.211 47.5774C145.24 47.6264 145.263 47.6782 145.28 47.7322C145.378 47.9585 145.451 48.1948 145.498 48.437C145.501 48.4751 145.501 48.5135 145.498 48.5516C145.498 48.6949 145.543 48.8553 145.561 49.0158C145.578 49.1762 145.561 49.3424 145.561 49.5143C145.569 49.6746 145.569 49.8353 145.561 49.9956C145.561 50.1676 145.532 50.3337 145.509 50.4942C145.486 50.6546 145.458 50.8265 145.429 50.9927C145.4 51.1589 145.377 51.2449 145.343 51.3709C145.323 51.462 145.298 51.5519 145.268 51.6403C145.091 52.2871 144.841 52.9119 144.523 53.5026C143.96 54.6732 143.083 55.6649 141.991 56.3678C141.844 56.4492 141.693 56.5219 141.538 56.5855H141.509C140.482 57.1252 139.345 57.4213 138.186 57.4508C137.819 57.4508 137.446 57.5081 137.04 57.5654L136.621 57.6285C135.619 57.8275 134.653 58.1772 133.756 58.6657C133.647 58.7172 133.544 58.7688 133.447 58.8261L133.12 59.0095C132.444 59.3989 131.8 59.8416 131.195 60.3332L131.137 60.3905C130.851 60.6254 130.564 60.8718 130.347 61.1011L130.301 61.1469C129.744 61.705 129.239 62.313 128.794 62.9634C128.585 63.2519 128.394 63.5523 128.221 63.8631L128.106 64.0579C127.957 64.333 127.825 64.631 127.693 64.8831V64.9289C127.659 64.992 127.63 65.0607 127.602 65.118C127.481 65.416 127.35 65.7197 127.235 66.0292L127.183 66.1839C127.057 66.5506 126.931 66.9231 126.834 67.2841C126.834 67.3357 126.805 67.3815 126.805 67.3987C126.725 67.7196 126.639 68.0405 126.57 68.3729C126.57 68.4703 126.53 68.5734 126.507 68.6709V68.7511C126.456 68.9918 126.421 69.2382 126.375 69.4903C126.375 69.6336 126.324 69.7883 126.301 69.943C126.278 70.0977 126.238 70.4014 126.215 70.6364V70.751C126.191 70.872 126.176 70.9945 126.169 71.1177C126.169 71.3584 126.118 71.6048 126.095 71.8627V71.9945C126.095 72.0804 126.095 72.1721 126.095 72.2695V72.3497L125.963 76.361V89.5408L122.525 91.535L121.43 92.171L119.27 93.403L116.124 95.2253C113.935 96.4917 112.422 97.1335 111.482 97.208C111.338 97.2259 111.191 97.2259 111.047 97.208C110.949 97.1867 110.854 97.152 110.766 97.1049L106.279 94.4803C106.277 94.4613 106.277 94.4421 106.279 94.423C106.331 93.85 106.399 93.277 106.48 92.7612C106.531 92.4289 106.589 92.108 106.652 91.81C106.818 90.8702 107.03 90.0279 107.225 89.2256C107.669 87.631 107.933 85.9913 108.01 84.3376V84.3032V84.2574C108.01 83.9881 108.01 83.8104 108.038 83.6443C108.038 82.3664 107.66 81.3808 106.984 80.8708C106.951 80.8459 106.916 80.8229 106.881 80.802L106.789 80.7504L101.775 77.8566C100.385 79.396 99.2656 81.159 98.4629 83.0712C98.354 83.3348 98.2451 83.5984 98.1477 83.8506C98.0503 84.1027 97.9472 84.3835 97.8612 84.6528L97.8211 84.7674C97.7294 85.0367 97.6492 85.3061 97.569 85.5754C97.4887 85.8447 97.42 86.1198 97.3569 86.3891C97.2939 86.6584 97.271 86.7616 97.2309 86.9621C97.1908 87.1627 97.1564 87.3346 97.1335 87.5352C97.0633 87.9142 97.0136 88.2968 96.9845 88.6812C96.9558 88.8875 96.9386 89.0995 96.9272 89.3058C96.9157 89.5121 96.8985 89.8388 96.8985 90.0966C96.8985 90.3545 96.8985 90.4405 96.8985 90.6066C96.8985 90.7728 96.8985 90.9218 96.9329 91.0651C96.9329 91.3115 96.9329 91.5407 96.973 91.7642C97.0033 92.2828 97.0626 92.7993 97.1507 93.3114C97.1507 93.5177 97.2137 93.7182 97.2538 93.8844C97.4358 94.7431 97.6731 95.5891 97.9644 96.4172C98.3139 97.3404 98.5506 98.3024 98.6692 99.2824V99.3913V99.4772V99.5975C98.7036 100.022 98.7208 100.44 98.7208 100.875C98.7208 103.7 98.7208 105.259 92.7154 108.726L82.8133 114.514Z" fill="white"/>
</mask>
<g mask="url(#mask2_315_24048)">
<path d="M110.657 97.1966L98.503 90.068C98.0274 89.7872 97.8784 89.0022 97.8784 87.306C97.8804 85.9082 98.0478 84.5156 98.3769 83.1572C98.0107 84.0011 97.7005 84.8683 97.4486 85.7531C98.5947 81.5413 101.271 77.5357 104.325 75.7593C106.336 74.6133 108.227 74.5502 109.654 75.6275C111.081 76.7048 111.866 78.762 111.866 81.4553C111.866 81.7132 111.866 81.9653 111.838 82.1945V82.3206C111.838 82.3836 111.838 82.4466 111.838 82.5097C111.838 83.0827 111.769 83.6558 111.706 84.2574C111.7 84.3535 111.688 84.4492 111.671 84.544V84.6299C111.62 85.0368 111.568 85.4322 111.505 85.8276C111.459 86.0625 111.413 86.2974 111.373 86.5267C111.333 86.7559 111.282 86.9908 111.236 87.22C111.11 87.7931 110.967 88.4177 110.818 89.0423C110.32 90.7936 110.057 92.6028 110.032 94.4231C110.027 96.1307 110.147 96.9158 110.657 97.1966Z" fill="#842A93"/>
<path d="M82.8133 114.514L70.6077 107.477L70.6535 57.5024C70.6937 55.5135 71.1689 53.5576 72.046 51.7721L84.2287 58.8032C83.3325 60.6139 82.8454 62.5996 82.8019 64.6195L82.8133 114.514Z" fill="#842A93"/>
<path d="M110.657 97.1966L98.503 90.068C98.0274 89.7872 97.8784 89.0022 97.8784 87.306C97.8805 85.9082 98.0478 84.5156 98.377 83.1572C99.7522 79.9654 101.913 77.1633 104.348 75.7593C106.359 74.6133 108.25 74.5502 109.677 75.6275C111.104 76.7048 111.866 78.762 111.866 81.4553C111.866 81.7132 111.866 81.9653 111.838 82.1945V82.3206C111.838 82.3836 111.838 82.4466 111.838 82.5097C111.838 83.0827 111.769 83.6558 111.706 84.2574C111.7 84.3535 111.688 84.4492 111.671 84.544V84.6299C111.62 85.0368 111.568 85.4322 111.505 85.8276C111.459 86.0625 111.414 86.2974 111.373 86.5267C111.333 86.7559 111.282 86.9908 111.236 87.22C111.11 87.7931 110.967 88.4177 110.818 89.0423C110.321 90.7936 110.057 92.6028 110.032 94.4231C110.027 96.1307 110.147 96.9158 110.657 97.1966Z" fill="#2BBDB2"/>
<path d="M82.8133 114.514L70.6077 107.477L70.6535 57.5024C70.6937 55.5135 71.1689 53.5576 72.046 51.7721L84.2287 58.8032C83.3325 60.6139 82.8454 62.5996 82.8019 64.6195L82.8133 114.514Z" fill="#2BBDB2"/>
<path d="M82.8134 114.514V64.6138C82.8569 62.5938 83.344 60.6082 84.2402 58.7975L72.0575 51.7663C72.0919 51.6918 72.1205 51.6231 72.1549 51.5543C72.2053 51.4401 72.2627 51.3291 72.3268 51.2219C72.407 51.0672 72.4873 50.9182 72.5732 50.7692C72.6592 50.6203 72.7795 50.4082 72.8941 50.2421L72.9572 50.1217C72.9725 50.0975 72.9897 50.0745 73.0087 50.0529C73.1062 49.8925 73.2208 49.7263 73.3354 49.5659L73.4385 49.4226C73.497 49.3319 73.5621 49.2457 73.6333 49.1647C73.6952 49.0769 73.7622 48.9927 73.8339 48.9126L73.8912 48.8381C73.9944 48.7063 74.1032 48.5745 74.2178 48.4542L74.3554 48.3109C74.3848 48.2738 74.4174 48.2393 74.4528 48.2078L74.5158 48.1333L74.6362 48.0244L74.8482 47.8181C74.8665 47.7979 74.8878 47.7805 74.9112 47.7665C74.9742 47.7092 75.0316 47.6462 75.0889 47.6004L75.1519 47.5488H75.1805L75.3353 47.4342C75.3926 47.3826 75.4556 47.3425 75.5129 47.2966C75.5702 47.2508 75.6275 47.205 75.6848 47.1591C75.7528 47.1075 75.8235 47.0596 75.8968 47.0159C76.0215 46.9194 76.1537 46.8331 76.2922 46.758L113.671 25.2348L125.865 32.2774V43.2568L126.043 43.0734C127.026 41.9215 128.161 40.9093 129.418 40.065H129.464C129.582 39.9763 129.704 39.894 129.831 39.8185C130.173 39.5821 130.575 39.4483 130.99 39.4331C131.405 39.4178 131.816 39.5218 132.175 39.7326L144.329 46.7523C144.394 46.7849 144.456 46.8253 144.512 46.8726L144.615 46.9528C145.038 47.3473 145.326 47.8644 145.44 48.4313C145.475 48.5745 145.503 48.7292 145.526 48.884C145.56 49.1385 145.575 49.3951 145.572 49.6518C145.541 51.0434 145.182 52.408 144.523 53.6344C143.957 54.8047 143.078 55.7961 141.985 56.4996C141.838 56.5842 141.687 56.6607 141.532 56.7288H141.504C140.477 57.269 139.34 57.5651 138.18 57.5941C136.374 57.6603 134.617 58.1998 133.086 59.1585C132.41 59.5446 131.767 59.9874 131.166 60.4822L131.097 60.5338C130.817 60.7687 130.524 61.0094 130.306 61.2501L130.272 61.2902C129.712 61.8435 129.208 62.45 128.765 63.101C128.576 63.3817 128.393 63.674 128.192 64.0006L128.106 64.1553V64.2012C127.957 64.4648 127.82 64.7742 127.688 65.0264V65.0665C127.657 65.1295 127.63 65.1946 127.608 65.2613C127.476 65.5535 127.355 65.8343 127.241 66.1724L127.183 66.3214C127.052 66.6882 126.931 67.0664 126.834 67.4216L126.805 67.542C126.719 67.8571 126.639 68.1838 126.57 68.5161C126.57 68.6078 126.524 68.711 126.507 68.8084V68.8886C126.461 69.135 126.421 69.3757 126.375 69.6278C126.375 69.7711 126.324 69.9258 126.307 70.0748C126.29 70.2238 126.238 70.539 126.209 70.7796V70.8942C126.209 71.0088 126.181 71.1292 126.175 71.2552C126.175 71.4959 126.123 71.7481 126.106 71.9945V72.1263C126.106 72.2179 126.106 72.3096 126.078 72.4013V72.4873L125.946 76.4985V89.6783L122.507 91.6782L119.258 93.552L116.112 95.3686C113.929 96.635 112.405 97.2768 111.477 97.3455C111.404 97.3511 111.331 97.3511 111.259 97.3455C111.081 97.3436 110.907 97.3004 110.749 97.2195C110.262 96.9387 110.118 96.1536 110.118 94.446C110.143 92.6257 110.406 90.8165 110.904 89.0652C111.053 88.4406 111.196 87.8331 111.322 87.2429C111.368 87.0137 111.419 86.7845 111.459 86.5495C111.499 86.3146 111.545 86.0854 111.591 85.8504C111.654 85.4551 111.706 85.0597 111.757 84.6528V84.5669C111.774 84.4721 111.786 84.3764 111.792 84.2803C111.855 83.6786 111.901 83.1343 111.924 82.5326C111.924 82.4695 111.924 82.4065 111.924 82.3435V82.2002C111.924 81.971 111.958 81.7189 111.952 81.461C111.952 78.7735 111.173 76.7048 109.746 75.6275C108.319 74.5502 106.428 74.5903 104.417 75.7593C101.981 77.1632 99.8325 79.9654 98.4458 83.1572C98.1626 83.7875 97.9176 84.4343 97.7123 85.094C97.6435 85.3118 97.5747 85.5353 97.5174 85.753C97.4601 85.9708 97.3799 86.2745 97.3169 86.5381C97.2987 86.582 97.2871 86.6283 97.2825 86.6756C97.2252 86.9277 97.1736 87.1856 97.1335 87.4378C97.0351 87.982 96.9643 88.5309 96.9215 89.0824C96.9099 89.2464 96.9099 89.4111 96.9215 89.5752C96.9215 89.77 96.9215 89.9648 96.9215 90.1482C96.9215 90.4863 96.9215 90.8416 96.9616 91.1166C97.0172 92.9523 97.3674 94.7671 97.9988 96.4917C98.3457 97.4157 98.5823 98.3774 98.7036 99.3569V99.4715V99.5059V99.5517C98.7008 99.5918 98.7008 99.632 98.7036 99.672C98.7323 100.096 98.7552 100.514 98.7552 100.95C98.7552 103.775 98.7552 105.334 92.7555 108.801L82.8134 114.514Z" fill="#007A71"/>
<path d="M132.238 39.6123L144.392 46.6319C144.019 46.4466 143.603 46.3663 143.188 46.3997C142.773 46.433 142.375 46.5786 142.036 46.821C141.933 46.8784 141.802 46.97 141.67 47.0617L141.63 47.1018H141.601C140.343 47.9448 139.207 48.9571 138.226 50.1103C136.766 51.8065 135.046 53.261 133.131 54.4195L132.891 54.5513L132.799 54.5971L132.73 54.6315C132.547 54.7289 132.369 54.8321 132.203 54.9123L131.882 55.0498L131.773 55.0899L131.71 55.1243L131.309 55.2733C131.19 55.3201 131.067 55.3584 130.942 55.3879H130.897L130.49 55.4853C130.352 55.5197 130.226 55.5255 130.094 55.5484H129.716C129.596 55.5484 129.476 55.5484 129.361 55.5484C129.246 55.5484 129.137 55.5083 129.029 55.4911C128.919 55.47 128.812 55.4393 128.708 55.3994C128.606 55.3648 128.508 55.3207 128.415 55.2676H128.364C128.279 55.2264 128.197 55.1805 128.117 55.1301C128.04 55.075 127.967 55.0136 127.9 54.9467L127.854 54.9123L127.808 54.8665C127.745 54.8149 127.676 54.7519 127.613 54.6888C127.54 54.6026 127.471 54.5127 127.407 54.4195L127.372 54.3679C127.245 54.1847 127.13 53.9933 127.029 53.7949L126.994 53.7204C126.945 53.6335 126.901 53.5435 126.862 53.4511C126.822 53.3537 126.777 53.2333 126.736 53.1187V53.0385V52.9697C126.702 52.8666 126.662 52.7749 126.628 52.6603C126.593 52.5457 126.547 52.3508 126.507 52.1904C126.467 52.0299 126.433 51.9153 126.41 51.7721C126.387 51.6288 126.341 51.4282 126.312 51.2449C126.284 51.0615 126.261 50.9469 126.238 50.7979C126.215 50.6489 126.192 50.414 126.169 50.2249C126.146 50.0358 126.135 49.9097 126.118 49.7493C126.1 49.5888 126.077 49.3309 126.066 49.1075C126.066 48.9929 126.066 48.8553 126.066 48.7235V48.5516C126.066 48.3511 126.066 48.139 126.032 47.9213V47.8353L125.991 45.5432V43.1708C126.043 43.1078 126.106 43.0505 126.158 42.9932C127.14 41.8413 128.276 40.8291 129.533 39.9847H129.561L129.607 39.9504C129.722 39.8623 129.843 39.7819 129.968 39.7097C130.302 39.4886 130.69 39.3627 131.089 39.3456C131.489 39.3284 131.886 39.4206 132.238 39.6123Z" fill="black"/>
<path d="M84.2459 58.8032L72.0518 51.7606C72.0861 51.6861 72.1148 51.6231 72.1549 51.5543C72.2053 51.4401 72.2627 51.3291 72.3268 51.2219C72.407 51.0672 72.4873 50.9182 72.5732 50.7692C72.6592 50.6202 72.7795 50.4082 72.8941 50.242C72.9268 50.1758 72.9651 50.1125 73.0087 50.0529C73.1061 49.8925 73.2207 49.7263 73.3354 49.5659L73.4385 49.4226C73.497 49.3319 73.5621 49.2457 73.6333 49.1647C73.7129 49.051 73.799 48.9419 73.8912 48.8381C73.9943 48.7063 74.1032 48.5745 74.2178 48.4542L74.3554 48.3109C74.3848 48.2738 74.4174 48.2393 74.4528 48.2078L74.6361 48.0244L74.8482 47.8181C74.8665 47.7979 74.8877 47.7805 74.9112 47.7665C74.9859 47.688 75.0663 47.6153 75.1519 47.5488H75.1805L75.3352 47.4342C75.4467 47.3362 75.5634 47.2444 75.6848 47.1591C75.7527 47.1075 75.8235 47.0596 75.8968 47.0159C76.0214 46.9194 76.1537 46.8331 76.2922 46.758L113.666 25.2291L125.86 32.2717L109.431 41.7554L88.4348 53.8865C88.2744 53.9782 88.1197 54.0756 87.9649 54.1788C87.8102 54.2819 87.6784 54.3851 87.5466 54.4997C87.4692 54.5506 87.3963 54.6081 87.3289 54.6716C87.1913 54.7805 87.0538 54.9123 86.922 55.0383C86.7902 55.1644 86.6011 55.3535 86.4464 55.514C86.1019 55.8901 85.7822 56.2882 85.4894 56.7059C85.3748 56.8663 85.2602 57.0268 85.1513 57.1987C84.816 57.7139 84.5136 58.2498 84.2459 58.8032Z" fill="#803785"/>
</g>
</svg>
