<svg width="16" height="16" viewBox="0 0 16 16" fill="none" xmlns="http://www.w3.org/2000/svg">
<path d="M14.9999 6.5944H3.82992L8.70992 1.7144C9.09993 1.3244 9.09993 0.684397 8.70992 0.294397C8.61741 0.201693 8.50752 0.128146 8.38655 0.0779643C8.26558 0.0277828 8.13589 0.00195313 8.00492 0.00195312C7.87396 0.00195312 7.74427 0.0277828 7.6233 0.0779643C7.50233 0.128146 7.39244 0.201693 7.29992 0.294397L0.709925 6.8844C0.617221 6.97691 0.543674 7.0868 0.493492 7.20777C0.443311 7.32875 0.41748 7.45843 0.41748 7.5894C0.41748 7.72037 0.443311 7.85005 0.493492 7.97102C0.543674 8.09199 0.617221 8.20188 0.709925 8.2944L7.29992 14.8844C7.39251 14.977 7.50242 15.0504 7.62338 15.1005C7.74435 15.1506 7.87399 15.1764 8.00492 15.1764C8.13586 15.1764 8.2655 15.1506 8.38647 15.1005C8.50743 15.0504 8.61734 14.977 8.70992 14.8844C8.80251 14.7918 8.87595 14.6819 8.92605 14.5609C8.97616 14.44 9.00195 14.3103 9.00195 14.1794C9.00195 14.0485 8.97616 13.9188 8.92605 13.7979C8.87595 13.6769 8.80251 13.567 8.70992 13.4744L3.82992 8.5944H14.9999C15.5499 8.5944 15.9999 8.1444 15.9999 7.5944C15.9999 7.0444 15.5499 6.5944 14.9999 6.5944Z" fill="#9A989A"/>
</svg>
