<svg width="96" height="97" viewBox="0 0 96 97" fill="none" xmlns="http://www.w3.org/2000/svg">
<circle opacity="0.25" cx="48" cy="48.0059" r="48" fill="#6BD1C9"/>
<path d="M33.5 37.7859C34.9 36.3659 36.32 35.0859 36.92 35.3459C37.92 35.7459 36.92 37.4059 36.32 38.3859C35.82 39.2259 30.6 46.1659 30.6 51.0059C30.6 53.5659 31.56 55.6859 33.32 57.0059C34.0672 57.5451 34.9286 57.9049 35.8373 58.0575C36.746 58.2101 37.6776 58.1514 38.56 57.8859C40.7 57.2659 42.46 55.0859 44.68 52.3459C47.1 49.3659 50.32 45.4659 52.84 45.4659C56.1 45.4659 56.14 47.4859 56.32 49.0059C48.8 50.3259 45.6 56.3859 45.6 59.7859C45.6 63.1859 48.48 66.0059 52.02 66.0059C55.32 66.0059 60.6 63.3059 61.4 53.7659H66.32V48.7659H61.38C61.08 45.4659 59.2 40.3659 53.32 40.3659C48.82 40.3659 44.96 44.1859 43.44 46.0059C42.32 47.5059 39.32 51.0059 38.86 51.4859C38.32 52.0859 37.5 53.1659 36.64 53.1659C35.74 53.1659 35.2 51.5059 35.92 49.3259C36.62 47.1459 38.72 43.6059 39.62 42.2859C41.18 40.0059 42.22 38.4459 42.22 35.7259C42.22 31.3859 38.94 30.0059 37.2 30.0059C34.56 30.0059 32.26 32.0059 31.76 32.5059C31.04 33.2259 30.44 33.8259 30 34.3659L33.5 37.7859ZM52.08 61.1059C51.46 61.1059 50.6 60.5859 50.6 59.6659C50.6 58.4659 52.06 55.2659 56.32 54.1459C55.74 59.5259 53.48 61.1059 52.08 61.1059Z" fill="#007A71"/>
</svg>
