<svg width="1440" height="667" viewBox="0 0 1440 667" fill="none" xmlns="http://www.w3.org/2000/svg">
<g opacity="0.08" clip-path="url(#clip0_1124_16271)">
<path d="M63.4508 598.348C92.5455 612.658 131.622 597.327 166.175 583.776C234.625 556.91 303.36 524.337 376.298 484.16C397.875 472.282 419.514 459.424 440.448 447.017C485.584 420.242 532.231 392.563 581.174 372.655C653.62 343.221 731.143 327.016 804.34 312.916C871.425 300.029 947.788 282.222 1005.06 234.182C1048.43 197.783 1078.3 146.585 1091.44 86.1155C1103.91 28.7275 1099.7 -32.416 1079.6 -86.0475C1053.99 -154.431 1010.12 -208.59 956.091 -238.544C934.068 -250.749 909.67 -259.355 886.074 -267.681C849.488 -280.583 811.662 -293.92 783.055 -320.87C739.266 -362.116 732.204 -431.485 766.971 -478.778C810.591 -538.108 893.781 -530.609 927.535 -524.622C950.918 -520.484 974.064 -514.338 996.429 -508.408C1040.85 -496.636 1086.76 -484.453 1135.79 -487.684C1200.65 -491.97 1262.15 -514.787 1321.58 -536.846L1327.37 -538.994C1445.2 -582.693 1569.02 -618.501 1673.88 -536.75C1714.23 -505.301 1744.77 -462.752 1774.32 -421.611C1785.79 -405.612 1797.67 -389.072 1809.97 -373.42C1816.78 -364.698 1823.89 -355.942 1830.74 -347.46C1865.28 -304.794 1901.01 -260.669 1916.75 -206.693C1936.91 -137.537 1912.18 -70.228 1885.11 -7.23595L1879.21 6.49444C1851.35 71.1694 1825.04 132.263 1808.51 200.821C1806.03 211.182 1803.76 221.584 1801.33 232.618C1789.47 286.752 1777.22 342.724 1741.16 382.315C1698.49 429.165 1630.76 437.57 1570.98 444.976L1567.38 445.431C1492.91 454.691 1420.62 466.455 1355.2 508.419C1320.58 530.587 1289.95 558.429 1260.33 585.351C1236.19 607.282 1211.23 629.951 1184.41 649.267C1176.77 654.762 1169.15 660.232 1161.53 665.676C1108.23 703.748 1057.9 739.721 1012.17 786.541C970.454 829.246 937.884 875.512 903.409 924.523C896.423 934.452 889.392 944.394 882.315 954.35C865.993 977.201 849.514 996.648 832.605 1012.89L852.017 1007.43C865.9 992.608 878.758 976.855 890.503 960.283C897.62 950.289 904.632 940.328 911.629 930.398C945.873 881.733 978.217 835.781 1019.36 793.649C1064.47 747.478 1114.47 711.754 1167.38 673.916C1175 668.476 1182.65 663.025 1190.29 657.498C1217.58 637.85 1242.75 614.994 1267.09 592.885C1296.4 566.225 1326.72 538.702 1360.62 516.962C1424.29 476.151 1495.37 464.573 1568.66 455.47L1572.27 455.037C1633.73 447.408 1703.43 438.759 1748.61 389.145C1786.48 347.576 1799.03 290.253 1811.18 234.817C1813.58 223.846 1815.84 213.497 1818.33 203.237C1834.63 135.522 1860.77 74.8089 1888.46 10.5421L1894.37 -3.18933C1920.94 -65.0432 1947.53 -137.119 1926.41 -209.506C1910.11 -265.462 1873.73 -310.388 1838.56 -353.841C1831.71 -362.287 1824.64 -371.027 1817.85 -379.665C1805.7 -395.155 1793.9 -411.607 1782.48 -427.514C1752.52 -469.254 1721.54 -512.401 1680.03 -544.751C1571.1 -629.678 1444.34 -593.167 1323.86 -548.496L1318.07 -546.348C1259.28 -524.532 1198.52 -501.974 1135.08 -497.784C1087.69 -494.66 1044.61 -506.094 998.979 -518.189C976.397 -524.175 953.043 -530.374 929.247 -534.588C893.667 -540.898 805.821 -548.671 758.873 -484.805C721.114 -433.45 728.719 -358.185 776.196 -313.477C806.356 -285.06 845.206 -271.364 882.783 -258.108C905.981 -249.925 929.986 -241.459 951.259 -229.667C1003.18 -200.88 1045.41 -148.619 1070.19 -82.4985C1111.29 27.1964 1081.17 157.112 998.583 226.405C943.164 272.911 868.274 290.327 802.424 302.994C728.726 317.159 650.654 333.492 577.383 363.285C527.747 383.461 480.756 411.342 435.321 438.301C414.452 450.664 392.875 463.483 371.438 475.267C298.868 515.227 230.534 547.638 162.422 574.357C129.862 587.12 92.9639 601.609 67.8523 589.245C54.9186 582.893 45.6951 569.991 39.6598 549.801C24.3394 498.493 29.7581 438.648 55.772 371.959C60.9497 358.671 66.3522 345.243 71.5735 332.249C92.4589 280.276 114.062 226.532 126.706 170.044C140.751 107.343 151.147 34.5629 158.499 -52.4444C165.933 -140.462 156.918 -214.925 130.921 -280.082C122.605 -300.843 112.024 -320.622 99.3704 -339.062L89.1925 -336.199C102.253 -317.554 113.122 -297.467 121.583 -276.334C146.97 -212.68 155.762 -139.74 148.469 -53.3335C141.154 33.2156 130.824 105.539 116.89 167.792C104.414 223.468 82.9777 276.824 62.2417 328.423C57.005 341.447 51.5949 354.903 46.393 368.235C19.5386 437.08 14.0345 499.14 30.0248 552.693C36.9012 575.74 47.8342 590.667 63.4508 598.348Z" fill="#B7B6B8"/>
<path d="M555.212 1080.1C541.402 1079.42 527.122 1078.69 513.28 1078.22C446.733 1075.97 370.56 1070.39 308.764 1032.38C262.123 1003.71 238.059 954.505 214.779 906.908C208.415 893.887 201.841 880.443 194.901 867.634C177.932 836.293 159.182 805.351 137.58 773.054C130.938 763.106 124.349 752.609 117.973 742.431C104.262 720.571 90.0851 697.982 73.6623 678.101C48.9863 648.269 16.8264 647.094 -8.44703 649.387C-40.2663 652.303 -74.2285 654.552 -108.727 647.494C-162.606 636.452 -208.529 604.077 -253.228 545.612C-276.079 515.71 -297.88 484.21 -318.992 453.271L-310.513 483.412C-294.57 506.456 -278.188 529.531 -261.193 551.76C-215.563 611.458 -166.322 646.019 -110.699 657.409C-74.8522 664.746 -40.0512 662.466 -7.48794 659.491C26.8446 656.351 48.7991 663.844 65.9254 684.564C81.9373 703.926 95.9325 726.238 109.463 747.82C115.878 758.038 122.519 768.62 129.241 778.675C150.668 810.713 169.254 841.397 186.068 872.454C192.908 885.087 199.429 898.445 205.75 911.35C229.661 960.242 254.401 1010.8 303.543 1041.03C367.439 1080.32 445.148 1086.05 512.992 1088.35C526.742 1088.82 540.98 1089.53 554.754 1090.22L557.275 1090.35L588.175 1081.65C577.142 1081.21 566.145 1080.65 555.212 1080.1Z" fill="#B7B6B8"/>
<path d="M1008.41 -562.651C1064.62 -551.161 1117.69 -540.3 1174.64 -546.113C1234.62 -552.245 1289.59 -577.016 1342.72 -600.982C1356.86 -607.356 1371.46 -613.937 1385.95 -620.066C1457.64 -650.457 1514.75 -660.053 1571.03 -651.21C1626.23 -642.533 1679.88 -616.602 1722.09 -578.189C1756.11 -547.208 1780.69 -507.266 1804.47 -468.635C1816.71 -448.744 1829.36 -428.186 1843.15 -409.099C1853 -395.45 1863.89 -381.646 1874.39 -368.294C1909.49 -323.652 1945.81 -277.515 1958.27 -222.222C1977.51 -136.699 1943.37 -58.6432 1910.34 16.8588C1890.78 61.5675 1870.54 107.817 1861.2 155.563C1843.72 245.061 1850.34 317.635 1880.88 371.283C1888.05 383.875 1895.79 395.975 1903.26 407.668C1933.27 454.642 1961.62 499.014 1943.16 561.474C1935.96 585.819 1926.89 609.474 1918.13 632.329C1907.84 659.161 1897.33 686.617 1889.78 715.474L1892.6 714.681C1900.08 686.478 1910.39 659.56 1920.47 633.266C1929.26 610.35 1938.34 586.643 1945.57 562.212C1964.35 498.623 1935.71 453.776 1905.37 406.313C1897.92 394.638 1890.22 382.577 1883.06 370.033C1852.83 316.936 1846.32 244.936 1863.67 156.058C1872.96 108.578 1893.14 62.4804 1912.65 17.8771C1945.83 -57.9935 1980.15 -136.44 1960.7 -222.767C1948.13 -278.628 1911.65 -325.009 1876.36 -369.863C1865.86 -383.193 1855.01 -396.979 1845.19 -410.59C1831.45 -429.599 1818.83 -450.118 1806.61 -469.958C1782.73 -508.742 1758.06 -548.846 1723.77 -580.055C1681.19 -618.801 1627.09 -644.959 1571.42 -653.708C1514.63 -662.638 1457.15 -652.984 1384.97 -622.406C1370.46 -616.271 1355.83 -609.669 1341.7 -603.297C1288.71 -579.413 1233.95 -554.726 1174.39 -548.646C1117.81 -542.872 1064.91 -553.685 1008.91 -565.139C1000.75 -566.803 992.584 -568.458 984.404 -570.104C971.648 -572.613 958.713 -575.045 945.681 -577.15L939.865 -575.514C954.697 -573.232 969.434 -570.478 983.934 -567.61C992.126 -565.996 1000.28 -564.322 1008.41 -562.651Z" fill="#B7B6B8"/>
<path d="M858.644 -222.301C822.008 -238.119 784.134 -254.473 752.683 -280.306C704.207 -320.144 683.211 -388.409 699.208 -454.208C704.444 -476.324 713.948 -497.206 727.185 -515.682L723.335 -514.598C710.86 -496.482 701.85 -476.211 696.759 -454.812C680.549 -388.079 701.876 -318.806 751.096 -278.35C782.817 -252.277 820.875 -235.86 857.664 -219.984C880.399 -210.162 903.923 -200.016 925.622 -187.707C981.413 -156.077 1021.37 -101.427 1035.22 -37.7849C1042.27 -5.57792 1042.46 27.7544 1035.76 60.037C1029.06 92.3197 1015.63 122.827 996.343 149.569C937.651 230.55 843.6 251.924 752.64 272.617C703.657 283.759 653.002 295.272 608.428 315.963C595.092 322.152 581.477 327.934 568.299 333.518C553.356 339.853 537.889 346.409 522.795 353.598C496.234 366.244 469.806 380.171 444.256 393.649C435.229 398.396 426.211 403.165 417.161 407.865L411.963 410.574C354.827 440.343 290.069 474.109 225.205 485.61C186.714 492.431 154.087 487.178 133.342 470.821C117.532 458.342 108.687 439.678 107.083 415.337C104.237 372.542 117.947 330.401 131.195 289.646C138.42 267.452 145.874 244.506 150.482 221.891C159.013 179.964 162.551 136.374 165.963 94.2278C166.819 83.7025 167.665 73.1938 168.589 62.7243C170.09 45.8419 171.848 28.6982 173.549 12.115C177.026 -21.6816 180.624 -56.6268 182.117 -91.2105C186.304 -188.167 170.297 -270.959 132.084 -348.266L129.616 -347.572C167.801 -270.534 183.776 -188.014 179.6 -91.3283C178.109 -56.8354 174.528 -21.9179 171.054 11.8415C169.344 28.4386 167.584 45.5841 166.085 62.4919C165.15 72.9612 164.303 83.4838 163.451 94.0077C160.033 136.094 156.512 179.602 148.013 221.38C143.442 243.846 135.993 266.73 128.799 288.848C115.477 329.839 101.693 372.217 104.565 415.499C106.231 440.585 115.397 459.866 131.793 472.804C153.115 489.631 186.447 495.065 225.635 488.099C290.884 476.539 355.832 442.669 413.125 412.832L418.323 410.123C427.367 405.4 436.401 400.654 445.425 395.882C470.958 382.432 497.36 368.512 523.87 355.906C538.919 348.731 554.359 342.182 569.281 335.851C582.482 330.267 596.119 324.473 609.477 318.266C653.815 297.69 704.339 286.203 753.202 275.083C844.615 254.297 939.127 232.794 998.368 151.061C1017.86 124.032 1031.44 93.1962 1038.21 60.5656C1044.98 27.935 1044.8 -5.75701 1037.67 -38.3116C1023.66 -102.669 983.258 -157.928 926.847 -189.916C905.028 -202.29 881.448 -212.459 858.644 -222.301Z" fill="#B7B6B8"/>
<path d="M817.927 -188.756C796.193 -200.118 773.716 -211.865 752.892 -225.292C688.792 -266.62 654.316 -323.088 650.42 -393.094C648.368 -430.003 652.633 -465.783 662.294 -497.426L659.428 -496.62C650.006 -465.069 645.869 -429.554 647.904 -392.971C651.847 -322.09 686.71 -264.957 751.536 -223.163C772.451 -209.671 794.986 -197.9 816.768 -186.517C852.461 -167.861 889.374 -148.572 920.077 -121.256C970.701 -76.2143 990.58 -12.4946 973.244 49.2069C952.364 123.557 893.519 164.688 847.83 186.1C803.094 207.069 754.844 222.571 708.182 237.549C682.734 245.721 656.437 254.161 631.071 263.387C583.89 280.53 537.583 301.546 492.787 321.856C467.23 333.461 440.813 345.445 414.503 356.587L414.206 356.709C369.318 375.729 322.899 395.405 274.766 397.447C250.795 398.471 231.878 393.659 218.53 383.175C193.881 363.796 193.341 328.62 194.921 294.254C196.46 260.683 197.439 226.525 198.379 193.494C199.668 148.405 200.994 101.773 203.776 55.9945C205.146 33.4542 207.178 10.4376 209.134 -11.8206C213.878 -65.6313 218.793 -121.274 214.93 -175.845C210.566 -237.514 195.21 -298.993 169.296 -358.736L166.854 -358.049C192.731 -298.475 208.075 -237.167 212.416 -175.672C216.258 -121.312 211.363 -65.7757 206.63 -12.0597C204.655 10.2179 202.629 33.2595 201.266 55.8216C198.484 101.647 197.154 148.291 195.854 193.41C194.912 226.431 193.942 260.574 192.398 294.118C191.225 320.011 189.238 363.344 216.986 385.161C230.822 396.031 250.294 401.014 274.879 399.969C294.229 399.154 313.269 395.521 332.023 390.245C360.366 382.271 388.058 370.538 415.193 359.038L415.488 358.916C441.82 347.756 468.257 335.76 493.834 324.168C538.576 303.86 584.843 282.879 631.929 265.752C657.25 256.551 683.537 248.117 708.947 239.951C755.69 224.948 804.026 209.424 848.907 188.391C895.073 166.755 954.518 125.165 975.673 49.8989C993.272 -12.7615 973.118 -77.4581 921.751 -123.153C890.814 -150.678 853.755 -170.038 817.927 -188.756Z" fill="#B7B6B8"/>
<path d="M702.893 -215.919C649.701 -255.389 618.995 -312.329 614.109 -380.547C612.353 -405.175 611.513 -443.185 617.409 -484.799L614.765 -484.055C610.173 -449.695 609.117 -414.954 611.614 -380.378C616.543 -311.384 647.596 -253.825 701.406 -213.873C720.667 -199.585 742.605 -186.559 765.826 -172.752C836.833 -130.591 910.248 -86.9907 917.038 -1.54225C923.813 83.8365 838.493 133.911 763.401 168C737.627 179.702 710.883 190.384 685.008 200.731C670.523 206.53 655.557 212.517 640.914 218.615C624.865 225.3 608.811 232.064 592.755 238.908C538.611 261.865 482.632 285.6 426.237 304.7C347.348 331.433 294.636 324.628 269.568 284.522C252.945 257.93 247.246 224.643 242.844 192.85C241.879 187.374 240.624 181.952 239.084 176.608C234.96 160.905 229.312 139.389 235.516 130.747L235.726 130.273C237.678 121.074 236.109 111.486 234.585 102.215C233.984 98.6047 233.433 95.1977 233.063 91.8011C231.476 77.1058 232.127 61.7954 232.754 46.984L232.961 41.9031C234.12 13.1218 236.905 -16.0163 239.6 -44.2127C240.77 -56.5507 241.994 -69.3215 243.065 -81.8859C249.534 -158.415 243.396 -232.151 224.795 -301.076C218.7 -323.683 210.973 -346.238 203.179 -368.266L200.758 -367.585C208.552 -345.557 216.283 -322.99 222.368 -300.419C240.888 -231.788 246.993 -158.334 240.534 -82.1297C239.465 -69.5709 238.249 -56.8096 237.078 -44.4716C234.379 -16.2459 231.593 12.9288 230.44 41.7741L230.219 46.8556C229.591 61.7555 228.934 77.1714 230.544 92.0495C230.924 95.5181 231.506 99.12 232.083 102.61C233.564 111.566 235.073 120.816 233.302 129.485C226.65 139.191 232.187 160.269 236.644 177.239C238.155 182.488 239.39 187.813 240.345 193.191C244.786 225.253 250.532 258.84 267.426 285.851C290.997 323.564 337.904 332.763 407.023 313.318C413.496 311.497 420.181 309.426 427.036 307.106C483.521 287.969 539.546 264.219 593.735 241.239C609.79 234.426 625.819 227.633 641.868 220.945C656.5 214.855 671.465 208.865 685.945 203.081C711.84 192.726 738.614 182.012 764.435 170.3C834.366 138.552 926.521 86.1899 919.54 -1.74334C912.649 -88.494 838.657 -132.438 767.1 -174.94C743.925 -188.697 722.045 -201.702 702.893 -215.919Z" fill="#B7B6B8"/>
<path d="M720.327 -161.732C683.868 -187.034 646.16 -213.2 619.546 -249.156C580.558 -301.834 577.254 -370.915 579.497 -437.716C579.898 -449.685 580.317 -461.988 580.792 -474.499L570.602 -471.633C570.182 -460.24 569.8 -449.026 569.441 -438.095C567.132 -369.45 570.634 -298.32 611.486 -243.123C639.099 -205.822 677.497 -179.18 714.637 -153.405C722.342 -148.054 730.318 -142.512 738.002 -137.013C798.66 -93.5902 832.146 -51.7284 837.535 -12.6037C840.926 12.0213 833.183 36.2506 814.53 59.4178C767.487 117.841 690.356 150.871 622.304 180.009L616.41 182.542C606.35 186.856 596.096 191.373 586.19 195.748C549.798 211.803 512.18 228.411 473.744 239.224C457.536 243.871 441.005 247.306 424.287 249.501C384.874 254.541 354.094 248.873 332.809 232.645C311.101 216.106 299.355 189.685 288.301 161.749C272.691 97.8799 267.98 34.1647 273.897 -33.0221C274.489 -39.6559 275.087 -46.2699 275.69 -52.8642C280.857 -109.505 286.205 -168.075 277.552 -226.775C271.15 -270.267 259.625 -313.174 248.486 -354.663C246.327 -362.742 244.135 -370.94 241.961 -379.166L232.274 -376.441C234.429 -368.245 236.607 -360.096 238.768 -352.055C249.828 -310.849 261.274 -268.226 267.588 -225.314C276.064 -167.821 271.01 -112.453 265.658 -53.8212C265.056 -47.211 264.458 -40.5885 263.866 -33.9536C257.838 34.4938 262.654 99.3977 278.605 164.477L278.685 164.811L278.811 165.129C290.446 194.586 302.868 222.513 326.741 240.702C350.203 258.603 383.469 264.93 425.589 259.548C442.793 257.291 459.806 253.76 476.486 248.982C515.606 237.977 553.563 221.225 590.258 205.029C600.136 200.663 610.37 196.15 620.384 191.86L626.27 189.342C695.398 159.738 773.746 126.181 822.362 65.8148C842.829 40.3889 851.293 13.5466 847.498 -13.9564C841.644 -56.5526 807.731 -99.5108 743.822 -145.253C736.07 -150.805 728.065 -156.365 720.327 -161.732Z" fill="#B7B6B8"/>
<path d="M666.174 -145.584C623.734 -176.492 579.86 -208.443 555.856 -255.864C531.629 -303.753 533.073 -358.522 534.469 -411.488C534.909 -428.046 535.306 -445.069 534.93 -461.593L532.427 -460.889C532.779 -444.628 532.383 -427.868 531.949 -411.566C530.543 -358.276 529.09 -303.177 553.617 -254.71C577.888 -206.759 622.018 -174.61 664.697 -143.53C674.967 -136.047 685.587 -128.319 695.601 -120.584C760.456 -70.4416 783.125 -21.2754 762.963 25.5569C743.195 71.495 692.459 100.16 655.399 121.099C613.777 144.615 564.111 170.645 511.337 185.492L511.328 185.494C492.785 190.784 473.821 194.468 454.647 196.508C388.075 203.279 340.888 170.813 314.405 100.124C297.665 41.1118 305.011 -20.5414 312.099 -80.1713C312.872 -86.5751 313.627 -92.9668 314.364 -99.3462C322.398 -169.545 318.664 -230.474 302.593 -291.068L299.946 -301.013C292.426 -329.277 284.421 -359.355 278.842 -389.551L276.397 -388.863C282 -358.674 289.997 -328.625 297.518 -300.357L300.162 -290.422C316.143 -230.146 319.856 -169.523 311.864 -99.6474C311.132 -93.2777 310.379 -86.8902 309.606 -80.4849C302.486 -20.6071 295.113 41.3083 312.029 100.904C338.982 172.921 387.06 205.935 454.901 199.035C474.222 196.979 493.33 193.267 512.015 187.938L512.025 187.935C565.058 173.015 614.884 146.888 656.639 123.296C694.007 102.195 745.169 73.2819 765.276 26.5609C785.951 -21.47 763.019 -71.6529 697.128 -122.595C687.082 -130.352 676.459 -138.091 666.174 -145.584Z" fill="#B7B6B8"/>
<path d="M91.4285 -273.855C80.7978 -292.75 67.8838 -310.267 52.9772 -326.01L50.2674 -325.248C65.3989 -309.395 78.4916 -291.715 89.2417 -272.618C120.62 -216.304 131.54 -149.897 124.657 -57.3064C118.548 24.7858 106.352 99.6222 88.3994 165.135C73.6514 218.955 49.9173 265.843 24.7858 315.48C18.2921 328.327 11.5674 341.607 5.07422 354.91C-1.66979 368.702 -8.26913 382.845 -14.6532 396.524C-23.5829 415.674 -32.8288 435.458 -42.5606 454.592C-44.4525 458.28 -46.3487 462.138 -48.2932 466.082C-60.5968 491 -74.5425 519.232 -96.1843 534.526C-101.952 538.637 -108.38 541.732 -115.191 543.678L-115.203 543.682C-163.015 557.106 -218.974 508.203 -240.814 486.551C-280.19 447.521 -313.812 402.47 -345.861 357.785L-343.868 364.869C-312.964 407.787 -280.446 450.805 -242.58 488.353C-215.058 515.635 -161.82 559.408 -114.526 546.103L-114.513 546.099C-107.431 544.085 -100.745 540.875 -94.7452 536.606C-72.5733 520.936 -58.4877 492.397 -46.056 467.214C-44.1058 463.279 -42.2082 459.438 -40.3284 455.751C-30.5675 436.583 -21.3283 416.776 -12.3743 397.62C-6.00201 383.944 0.597925 369.813 7.32405 356.032C13.8093 342.756 20.5343 329.477 27.0315 316.643C52.2177 266.886 76.0121 219.891 90.8169 165.826C108.811 100.151 121.037 25.1524 127.164 -57.1077C134.085 -150.218 123.065 -217.067 91.4285 -273.855Z" fill="#B7B6B8"/>
<path d="M576.587 -143.586C559.834 -154.027 542.512 -164.827 527.076 -176.602C497.515 -199.138 479.743 -220.844 471.135 -244.904C461.688 -271.323 465.429 -299.714 469.049 -327.186C469.942 -333.891 470.855 -340.83 471.537 -347.554C473.892 -370.468 477.827 -409.173 472.344 -443.989L469.913 -443.305C475.274 -408.914 471.354 -370.516 469.038 -347.825C468.346 -341.138 467.439 -334.214 466.558 -327.522C462.893 -299.76 459.111 -271.053 468.763 -244.043C477.545 -219.504 495.589 -197.431 525.547 -174.587C541.079 -162.739 558.454 -151.915 575.262 -141.44C609.681 -119.976 645.278 -97.7829 668.913 -64.9309C704.196 -15.8769 676.889 34.3625 639.573 65.0343C607.964 91.008 567.545 112.182 528.686 123.114C487.534 134.691 412.454 143.994 372.022 76.4053C355.774 36.7228 353.043 -10.04 363.892 -62.5731C367.23 -78.7413 372.009 -95.294 376.615 -111.284C385.107 -140.734 393.888 -171.19 394.661 -201.791C395.616 -239.457 380.901 -275.047 366.669 -309.454C355.822 -335.707 344.595 -362.856 340.402 -390.74C339.641 -395.954 339.171 -401.208 338.995 -406.475L336.516 -405.777C336.696 -400.619 337.161 -395.475 337.908 -390.369C342.153 -362.164 353.443 -334.884 364.357 -308.483C378.48 -274.327 393.09 -238.986 392.143 -201.869C391.38 -171.589 382.642 -141.296 374.196 -111.998C369.578 -95.9639 364.788 -79.3611 361.426 -63.098C350.468 -10.0481 353.248 37.2027 369.792 77.5263C411.162 146.741 487.541 137.326 529.375 125.557L529.387 125.554C568.566 114.531 609.303 93.194 641.168 66.9935C679.37 35.603 707.26 -15.9421 670.954 -66.4079C647.02 -99.667 611.218 -121.996 576.587 -143.586Z" fill="#B7B6B8"/>
<path d="M57.6271 -251.158C41.2406 -275.193 16.4735 -297.011 -11.9331 -307.75L-16.1398 -306.566C13.1469 -296.532 38.7874 -274.313 55.554 -249.738C85.5258 -205.808 99.0465 -148.682 96.9136 -75.0896C94.9124 -6.60859 82.7327 68.8693 61.6659 143.184C43.1157 208.639 11.9202 264.257 -29.2077 327.63C-31.0366 330.452 -32.9227 333.393 -34.8837 336.43C-61.0384 377.113 -96.8581 432.841 -143.355 445.921L-143.368 445.925C-150.587 447.975 -158.08 448.894 -165.58 448.648C-216.053 446.85 -255.878 407.592 -291.418 365.434C-325.238 325.3 -353.633 280.753 -380.153 235.892L-377.521 245.246C-352.318 287.458 -325.246 329.196 -293.323 367.071C-257.426 409.661 -217.112 449.336 -165.654 451.18C-157.898 451.429 -150.149 450.476 -142.684 448.354L-142.672 448.35C-95.2575 435.011 -59.1355 378.83 -32.7717 337.807C-30.8108 334.77 -28.9241 331.832 -27.1035 329.024C14.1579 265.454 45.4531 209.644 64.0838 143.888C85.2112 69.3822 97.4311 -6.31472 99.4241 -75.0094C101.59 -149.157 87.9151 -206.787 57.6271 -251.158Z" fill="#B7B6B8"/>
<path d="M-151.892 364.465L-151.903 364.469C-174.265 370.759 -196.473 368.359 -217.903 357.33C-276.616 327.119 -310.809 266.106 -339.009 204.675C-341.838 196.023 -344.018 188.494 -345.75 181.526C-352.021 156.128 -356.013 118.588 -339.356 83.9995C-327.556 59.5035 -308.526 39.0714 -290.129 19.314C-287.306 16.2761 -284.502 13.2467 -281.716 10.226C-235.583 -40.0354 -186.909 -94.7392 -143.496 -154.262C-113.986 -194.736 -84.6141 -219.319 -56.1972 -227.314C-33.8353 -233.605 -11.9576 -229.579 8.81889 -215.362C55.1754 -183.601 60.4234 -115.548 60.3427 -67.1107C60.1133 69.8701 19.2288 195.855 -54.7809 287.612C-76.9575 315.118 -111.174 353.01 -151.892 364.465ZM-55.5102 -224.871C-83.3707 -217.034 -112.293 -192.766 -141.474 -152.753C-184.948 -93.1353 -233.681 -38.363 -279.862 11.9484C-282.639 14.9736 -285.462 18.0135 -288.294 21.0542C-306.566 40.6633 -325.448 60.9517 -337.09 85.1124C-353.416 119.024 -349.488 155.937 -343.306 180.928C-341.591 187.837 -339.427 195.308 -336.667 203.762C-308.711 264.641 -274.789 325.223 -216.769 355.083C-195.911 365.803 -174.315 368.147 -152.588 362.035L-152.576 362.032C-112.541 350.769 -78.7132 313.253 -56.7406 286.007C16.9038 194.71 57.5909 69.2864 57.8278 -67.1252C57.908 -114.98 52.7697 -182.19 7.40748 -213.264C-12.726 -227.041 -33.8895 -230.954 -55.5102 -224.871Z" fill="#B7B6B8"/>
<path d="M727.702 1027.16L727.69 1027.16C723.144 1028.44 718.505 1029.59 713.887 1030.56C651.244 1043.72 578.65 1040.77 498.14 1021.79C345.179 985.72 256.661 855.383 209.335 752.389C185.433 688.785 219.165 641.555 251.655 613.116C290.048 579.514 334.99 552.161 378.468 525.728C396.457 514.757 415.083 503.431 432.812 491.899C488.844 455.466 556.213 414.524 631.155 387.354C642.17 383.37 653.823 379.634 665.787 376.269C713.473 362.853 761.858 356.214 808.656 349.796C846.72 344.593 894.109 338.107 938.621 325.585C1014.31 304.292 1065.42 269.396 1094.9 218.876C1126.62 164.54 1143.72 93.157 1141.8 23.0115C1139.57 -58.7488 1102.92 -135.125 1071.23 -192.532C1034.07 -259.849 991.955 -299.677 942.462 -314.271C935.412 -316.345 927.877 -318.284 919.907 -320.34C881.165 -330.29 837.267 -341.563 818.088 -376.557C802.298 -405.378 810.144 -437.079 837.616 -455.448C844.369 -459.94 851.789 -463.337 859.602 -465.514C878.238 -470.757 900.365 -469.943 927.24 -463.038C940.945 -459.527 954.505 -454.781 967.612 -450.2C987.738 -443.17 1008.53 -435.908 1030.08 -432.974C1058.56 -429.114 1089.83 -430.835 1125.71 -438.243C1137.93 -440.768 1150.39 -443.827 1163.74 -447.582C1200.92 -458.042 1238.42 -472.196 1274.7 -485.877C1311.2 -499.647 1348.96 -513.895 1386.64 -524.494C1444.66 -540.818 1493.5 -545.92 1540.34 -540.544C1595.84 -534.182 1648.2 -505.835 1695.96 -456.324C1752.68 -397.478 1802.1 -337.857 1842.84 -279.118C1888.38 -213.459 1902.4 -146.124 1884.51 -78.9916C1871.09 -28.6021 1848.36 19.1343 1826.37 65.2892C1818.57 81.6378 1810.52 98.5587 1803 115.307C1795.8 131.357 1789.11 148.153 1782.65 164.377C1765.77 206.634 1748.36 250.31 1720.05 286.859C1676.67 342.912 1609.83 366.762 1563.35 379.84C1556.39 381.797 1549.26 383.697 1541.56 385.615C1523.47 390.095 1504.67 394.04 1486.49 397.836C1461.65 403.046 1435.95 408.424 1411.25 415.373C1379.22 424.385 1353.77 434.614 1331.1 447.535C1287.01 472.718 1254.91 512.364 1223.85 550.724C1211.67 565.765 1199.07 581.33 1185.93 595.81C1156.61 628.053 1122.61 656.889 1089.73 684.804C1066.63 704.391 1042.76 724.648 1020.76 745.877C979.533 785.679 944.019 831.177 909.679 875.176C899.638 888.069 889.239 901.368 878.826 914.392C829.369 976.238 781.347 1012.07 727.702 1027.16ZM666.47 378.714C654.567 382.063 642.964 385.759 632.013 389.751C557.319 416.826 490.098 457.651 434.184 494.022C416.424 505.586 397.787 516.916 379.773 527.892C336.396 554.273 291.552 581.574 253.31 615.031C221.422 642.948 188.305 689.267 211.665 751.427C258.717 853.81 346.73 983.48 498.701 1019.32C578.857 1038.22 651.079 1041.15 713.363 1028.07C717.925 1027.12 722.52 1026 727.008 1024.74C780.133 1009.79 827.752 974.23 876.869 912.808C887.269 899.788 897.65 886.469 907.694 873.626C942.094 829.533 977.66 783.945 1019.01 744.034C1041.06 722.767 1064.97 702.471 1088.1 682.851C1120.92 655.002 1154.86 626.228 1184.05 594.076C1197.15 579.663 1209.74 564.126 1221.9 549.115C1253.1 510.588 1285.36 470.749 1329.87 445.341C1352.68 432.305 1378.34 421.993 1410.56 412.928C1435.36 405.953 1461.08 400.569 1485.96 395.367C1504.12 391.553 1522.9 387.638 1540.94 383.148C1548.62 381.241 1555.72 379.369 1562.66 377.419C1608.82 364.433 1675.14 340.752 1718.06 285.311C1746.14 249.028 1763.5 205.522 1780.29 163.412C1786.78 147.158 1793.49 130.358 1800.7 114.253C1808.23 97.4739 1816.27 80.5525 1824.07 64.182C1846.02 18.139 1868.71 -29.4834 1882.09 -79.659C1899.76 -146.033 1885.85 -212.665 1840.76 -277.673C1800.09 -336.307 1750.76 -395.816 1694.14 -454.562C1646.8 -503.647 1594.97 -531.738 1540.04 -538.033C1493.55 -543.367 1445.02 -538.283 1387.32 -522.052C1349.74 -511.48 1312.05 -497.262 1275.57 -483.499C1239.25 -469.806 1201.69 -455.641 1164.42 -445.155C1151 -441.379 1138.52 -438.311 1126.23 -435.766C1090.08 -428.311 1058.51 -426.569 1029.77 -430.466C1007.96 -433.425 987.036 -440.737 966.798 -447.814C953.736 -452.369 940.22 -457.088 926.621 -460.581C900.184 -467.383 878.487 -468.19 860.286 -463.07C852.724 -460.968 845.542 -457.681 839.009 -453.33C812.692 -435.731 805.162 -405.372 820.292 -377.776C838.945 -343.748 882.279 -332.607 920.52 -322.797C928.517 -320.736 936.063 -318.789 943.157 -316.699C993.323 -301.913 1035.93 -261.694 1073.42 -193.757C1105.25 -136.101 1142.05 -59.3623 1144.31 22.9489C1146.23 93.5476 1129.02 165.435 1097.07 220.163C1067.25 271.263 1015.65 306.55 939.304 328.028C894.628 340.597 847.147 347.08 808.99 352.311C762.289 358.706 713.99 365.346 666.47 378.714Z" fill="#B7B6B8"/>
<path d="M-148.853 298.099L-148.863 298.101C-161.87 301.807 -175.499 302.805 -188.907 301.035C-237.183 294.593 -267.111 244.605 -280.645 215.378L-280.884 214.75C-281.542 212.639 -282.202 210.516 -282.88 208.374C-290.99 182.657 -300.166 153.51 -291.901 125.506C-283.321 96.4624 -272.145 72.9523 -256.718 51.5186C-235.823 22.485 -211.332 -4.09889 -187.649 -29.8081C-176.1 -42.3517 -164.148 -55.3126 -152.816 -68.3537C-150.832 -70.6363 -148.743 -73.0763 -146.549 -75.6465C-126.088 -99.5477 -95.1794 -135.676 -61.3429 -145.195C-51.1362 -148.223 -40.2985 -148.418 -29.9893 -145.76C-4.35583 -138.934 11.6661 -111.726 17.6495 -64.9052C29.8105 30.432 4.19681 139.745 -47.6207 213.567C-80.126 259.906 -114.187 288.346 -148.853 298.099ZM-271.37 211.439C-258.645 238.816 -230.962 285.211 -187.613 290.997C-175.553 292.585 -163.295 291.679 -151.6 288.336C-119.215 279.225 -86.9987 252.101 -55.857 207.708C-5.40522 135.83 19.5169 29.3284 7.65357 -63.6327C3.94163 -92.7422 -6.04217 -128.903 -32.5331 -135.952C-41.1082 -138.142 -50.1172 -137.962 -58.5975 -135.429C-89.5028 -126.734 -119.231 -91.9956 -138.9 -69.0122C-141.113 -66.4239 -143.225 -63.9653 -145.217 -61.667C-156.655 -48.5075 -168.639 -35.4886 -180.24 -22.9038C-203.738 2.57903 -228.014 28.9363 -248.552 57.4768C-263.297 77.9581 -273.995 100.508 -282.247 128.421C-289.636 153.451 -281.326 179.835 -273.287 205.346C-272.651 207.385 -272 209.422 -271.37 211.439Z" fill="#B7B6B8"/>
<path d="M724.9 979.428L724.888 979.431C683.808 990.988 638.267 992.412 593.212 983.582C533.576 971.877 474.624 944.205 422.726 903.517C372.021 863.785 330.234 813.508 301.88 758.11L301.691 757.709C283.173 712.218 297.166 665.675 343.255 619.357C384.796 577.618 435.07 536.845 496.942 494.71C554.418 455.564 610.08 428.718 667.119 412.672C674.863 410.493 682.737 408.507 690.505 406.728C741.979 395.061 795.612 389.535 847.497 384.194C867.725 382.132 888.625 379.979 909.003 377.492C921.422 375.978 934.219 374.634 946.589 373.31C988.597 368.821 1032.03 364.186 1072.57 352.78C1081.5 350.268 1090.13 347.46 1098.25 344.443C1122.57 335.419 1148.97 322.26 1160.43 293.444C1169.25 271.256 1172.17 246.064 1174.98 221.711C1175.52 217.121 1176.05 212.561 1176.61 208.061C1177.85 198.127 1179.18 188.119 1180.51 178.027C1188.1 120.97 1195.95 61.9645 1188.7 5.55715C1181.44 -51.064 1157.53 -106.853 1134.41 -160.824C1129.31 -172.754 1124.01 -185.085 1119.1 -197.045C1093.72 -258.608 1071.87 -328.321 1134.26 -376.559C1190.8 -420.26 1260.09 -442.603 1327.1 -464.223L1334.56 -466.639C1348.65 -471.187 1361.1 -474.969 1372.6 -478.202C1441.11 -497.475 1493.6 -501.809 1542.81 -492.229C1608.09 -479.513 1659.18 -434.136 1700.54 -391.42C1708.15 -383.568 1716.09 -375.555 1723.75 -367.795C1764.89 -326.235 1807.44 -283.257 1834.45 -231.219C1863.74 -174.788 1865.18 -107.766 1838.63 -37.4249C1826.84 -6.13529 1811.25 23.9165 1796.2 53.0042C1794.22 56.8594 1792.21 60.7448 1790.21 64.6074C1784.99 74.7482 1780.09 85.4577 1775.35 95.8223C1766.57 115.004 1757.47 134.863 1745.67 152.766C1739.32 162.366 1733.32 172.499 1727.52 182.294C1715.56 202.523 1703.18 223.429 1686.77 241.441C1663.71 266.667 1634.72 287.936 1600.63 304.578C1578.54 315.217 1555.53 323.837 1531.89 330.334C1480.61 344.761 1426.87 351.102 1374.88 357.231C1366.26 358.235 1357.48 359.032 1348.16 359.879C1323.9 362.088 1298.8 364.356 1276.05 370.756C1242.78 380.115 1221.7 396.369 1209.71 421.909C1202.31 437.66 1196.51 454.508 1190.9 470.797C1184.58 489.163 1178.03 508.146 1169.13 525.972C1153.49 557.496 1133.45 586.641 1109.62 612.534C1090.51 633.181 1070.68 653.796 1051.52 673.744C1016.7 709.943 980.703 747.383 947.735 786.205C937.296 798.498 926.808 811.518 916.659 824.086C880.842 868.477 843.808 914.376 796.231 946.473C774.368 961.199 750.285 972.325 724.9 979.428ZM310.928 753.708C367.79 864.597 479.306 950.928 595.107 973.639C638.63 982.166 682.57 980.811 722.146 969.677C746.511 962.866 769.623 952.185 790.6 938.044C836.935 906.799 873.479 861.495 908.837 817.689C919.018 805.06 929.547 792.003 940.072 779.608C973.233 740.53 1009.34 702.986 1044.25 666.682C1063.4 646.761 1083.2 626.178 1102.24 605.633C1125.42 580.426 1144.91 552.059 1160.12 521.377C1168.74 504.166 1175.17 485.493 1181.38 467.438C1187.08 450.897 1192.98 433.792 1200.6 417.547C1213.73 389.556 1237.51 371.047 1273.29 360.981C1296.94 354.33 1322.51 352.029 1347.22 349.795C1356.47 348.968 1365.2 348.164 1373.67 347.171C1425.27 341.078 1478.61 334.79 1529.14 320.575C1552.2 314.245 1574.64 305.837 1596.18 295.452C1629.16 279.351 1657.13 258.879 1679.33 234.572C1695.08 217.337 1707.17 196.864 1718.86 177.093C1724.72 167.176 1730.79 156.947 1737.26 147.137C1748.66 129.881 1757.57 110.406 1766.18 91.5472C1770.98 81.0945 1775.92 70.2707 1781.25 59.9178C1783.26 56.0573 1785.26 52.1697 1787.26 48.2851C1802.19 19.4866 1817.62 -10.3178 1829.21 -41.0583C1847 -88.1761 1860.79 -158.602 1825.52 -226.555C1799.21 -277.225 1757.23 -319.647 1716.62 -360.671C1708.93 -368.435 1700.96 -376.48 1693.34 -384.366C1653.06 -425.95 1603.48 -470.118 1540.92 -482.279C1493.34 -491.553 1442.27 -487.276 1375.34 -468.447C1363.97 -465.246 1351.66 -461.502 1337.68 -456.99L1330.22 -454.579C1264.02 -433.219 1195.57 -411.145 1140.44 -368.509C1083.67 -324.628 1103.37 -261.644 1128.4 -200.885C1133.29 -188.997 1138.57 -176.699 1143.67 -164.805C1167.08 -110.192 1191.28 -53.7332 1198.7 4.29713C1206.09 62.0328 1198.17 121.704 1190.49 179.408C1189.17 189.441 1187.84 199.456 1186.61 209.362C1186.05 213.831 1185.51 218.345 1184.99 222.906C1182.1 247.941 1179.11 273.812 1169.8 297.23C1156.87 329.726 1128.16 344.146 1101.78 353.952C1093.41 357.067 1084.51 359.953 1075.32 362.538C1033.97 374.171 990.107 378.852 947.698 383.379C935.361 384.694 922.604 386.053 910.263 387.574C889.798 390.059 868.831 392.205 848.579 394.3C796.982 399.583 743.659 405.074 692.774 416.628C685.165 418.338 677.462 420.302 669.881 422.435C613.901 438.183 559.192 464.586 502.614 503.094C441.275 544.878 391.488 585.259 350.4 626.542C307.5 669.611 294.223 712.403 310.928 753.708Z" fill="#B7B6B8"/>
<path d="M1519.25 256.125C1473.14 269.097 1426.67 272.762 1388.45 266.448C1339.64 258.391 1304.29 235.114 1283.36 197.229C1266.62 156.032 1262.85 111.81 1259.19 69.0387C1257.18 45.7657 1255.13 21.7026 1251.02 -1.5649C1242.78 -48.0714 1225.8 -89.387 1207.82 -133.124C1203.56 -143.464 1199.16 -154.165 1194.94 -164.83C1178.74 -205.758 1162.74 -258.925 1183.22 -307.285C1199.87 -346.627 1236.45 -376.624 1295.04 -398.979C1316.66 -407.229 1336.34 -413.817 1355.26 -419.14C1400.26 -431.801 1439.87 -436.946 1476.37 -434.887C1539.76 -431.304 1601.48 -405.21 1654.84 -359.429C1704.42 -316.872 1759.02 -265.506 1787.96 -207.262C1817 -148.741 1813.51 -85.2442 1776.94 -7.43026C1734.08 83.8178 1662.24 209.94 1533.6 251.784C1528.89 253.314 1524.07 254.77 1519.25 256.125ZM1355.94 -416.69C1337.12 -411.394 1317.49 -404.819 1295.96 -396.606C1238.04 -374.504 1201.91 -344.966 1185.53 -306.284C1165.42 -258.777 1181.24 -206.228 1197.27 -165.758C1201.51 -155.109 1205.88 -144.417 1210.14 -134.076C1228.18 -90.2038 1245.22 -48.7748 1253.49 -1.98605C1257.62 21.3864 1259.69 45.5072 1261.69 68.838C1265.33 111.413 1269.12 155.44 1285.61 196.145C1340.22 294.962 1477.72 265.182 1518.57 253.691C1523.36 252.342 1528.15 250.89 1532.83 249.374C1660.53 207.843 1732.01 82.3055 1774.68 -8.51135C1810.88 -85.5744 1814.37 -148.362 1785.69 -206.123C1756.99 -263.974 1702.61 -315.11 1653.2 -357.499C1600.28 -402.913 1539.07 -428.806 1476.24 -432.353C1440.01 -434.397 1400.67 -429.277 1355.94 -416.695L1355.94 -416.69Z" fill="#B7B6B8"/>
<path d="M1523.44 182.643L1523.41 182.649C1488.02 192.861 1450.27 191.346 1415.8 178.33C1370.64 161.59 1341.49 118.46 1326.66 46.4583C1312.03 -24.4726 1286.17 -88.9724 1258.8 -157.255C1256.06 -164.105 1253.32 -170.964 1250.58 -177.831C1231.51 -233.158 1236.41 -277.754 1265.15 -310.4C1286.81 -335.009 1318.23 -353.244 1358.53 -364.582C1377.27 -369.784 1396.45 -373.256 1415.82 -374.955C1480.25 -380.768 1545.53 -364.273 1604.59 -327.259C1669.36 -286.706 1719.87 -233.731 1743.19 -181.936C1766.59 -129.969 1759.48 -72.5607 1720.84 -1.22993C1701.56 34.2807 1630.39 152.553 1523.44 182.643ZM1359.22 -362.137C1319.38 -350.931 1288.37 -332.961 1267.02 -308.707C1238.95 -276.792 1234.21 -233.054 1252.92 -178.706C1255.65 -171.89 1258.39 -165.038 1261.15 -158.196C1287.36 -92.8173 1314.47 -25.1978 1329.13 45.9526C1343.78 117.029 1372.4 159.549 1416.65 175.936C1450.62 188.781 1487.83 190.279 1522.73 180.206C1628.77 150.374 1699.46 32.8685 1718.61 -2.45787C1756.87 -73.0124 1763.94 -129.72 1740.9 -180.897C1717.78 -232.243 1667.61 -284.808 1603.27 -325.114C1544.67 -361.838 1479.94 -378.198 1416.07 -372.44C1396.85 -370.751 1377.82 -367.302 1359.22 -362.137Z" fill="#B7B6B8"/>
<path d="M530.223 51.7631L530.21 51.7666C497.987 60.8182 457.041 56.3531 438.185 25.9299C428.522 5.46799 428.694 -19.7519 438.575 -41.6399C447.965 -62.4534 464.651 -77.5586 484.38 -83.1089C491.714 -85.1547 499.35 -85.9004 506.941 -85.3121C528.848 -83.6623 560.737 -71.2783 578.986 -47.9694C589.083 -35.0719 593.159 -20.5843 590.778 -6.05452C586.464 20.3015 563.267 42.4669 530.223 51.7631ZM485.064 -80.6763C466.052 -75.3278 449.948 -60.7208 440.869 -40.5877C431.293 -19.3665 431.126 5.05645 440.399 24.7252C458.486 53.9002 498.214 58.1326 529.528 49.3231L529.541 49.3196C561.632 40.2915 584.148 18.9171 588.305 -6.47983C590.601 -20.4765 586.801 -33.9147 577.012 -46.4022C559.231 -69.1221 528.143 -81.1857 506.767 -82.7919C499.465 -83.3645 492.118 -82.65 485.063 -80.6811L485.064 -80.6763Z" fill="#B7B6B8"/>
<path d="M1542.26 78.6164L1542.23 78.6232C1532.89 81.2743 1523.27 82.8724 1513.57 83.3877C1454.92 86.3968 1423.61 37.8612 1410.17 8.66065C1397.5 -18.8706 1386.53 -47.6515 1375.95 -75.488C1366.44 -100.446 1356.62 -126.251 1345.63 -150.969L1345.44 -151.449C1334.73 -184.131 1316.78 -238.835 1356.92 -269.881C1369.44 -279.484 1383.71 -286.576 1398.92 -290.766C1439.89 -302.29 1483.14 -294.052 1512.19 -285.109C1581.3 -263.844 1695.69 -200.78 1686.13 -99.291C1678.92 -22.7639 1613.02 58.7089 1542.26 78.6164ZM1354.92 -154.839C1365.98 -129.938 1375.84 -104.092 1385.36 -79.0872C1395.89 -51.4031 1406.78 -22.7739 1419.31 4.44106C1431.68 31.3054 1460.3 75.9659 1513.01 73.275C1521.97 72.7927 1530.85 71.3149 1539.49 68.8688C1606.68 49.9661 1669.24 -27.5004 1676.1 -100.292C1685.04 -195.262 1575.44 -255.061 1509.28 -275.428C1481.51 -283.973 1440.31 -291.885 1401.67 -281.016C1387.69 -277.172 1374.59 -270.664 1363.08 -261.85C1331.32 -237.272 1342.17 -193.758 1354.92 -154.839Z" fill="#B7B6B8"/>
<path d="M907.412 991.843C912.867 982.523 918.189 973.187 923.45 963.921C936.599 940.796 950.186 916.885 965.426 894.694C1006.94 834.321 1056.02 784.094 1111.32 745.433C1143.39 723.019 1178.55 704.403 1212.52 686.398C1243.77 669.849 1276.09 652.715 1306.03 632.653C1311.97 628.672 1318.14 624.402 1324.54 620.015C1374.34 585.638 1436.34 542.885 1496.39 556.73C1512.54 560.481 1522.9 567.938 1527.21 578.926C1539.08 609.217 1503.69 661.48 1482.55 692.707C1477.8 699.777 1473.65 705.864 1470.72 710.695C1443.48 755.566 1422.6 802.956 1406.02 851.573L1408.98 850.74C1425.41 802.851 1446.04 756.212 1472.87 712.018C1475.79 707.24 1479.89 701.167 1484.66 694.143C1507.46 660.441 1541.92 609.559 1529.56 577.985C1524.92 566.178 1513.95 558.205 1496.94 554.266C1435.81 540.168 1373.33 583.285 1323.11 617.905C1316.74 622.311 1310.57 626.558 1304.63 630.536C1274.8 650.545 1242.54 667.636 1211.34 684.17C1177.29 702.195 1142.09 720.848 1109.88 743.351C1054.33 782.185 1005.04 832.624 963.359 893.248C948.06 915.533 934.431 939.479 921.272 962.659C915.58 972.68 909.835 982.768 903.903 992.83L907.412 991.843Z" fill="#B7B6B8"/>
<path d="M221.991 1137.6C186.454 1131.36 164.192 1119.21 151.954 1099.37C137.339 1075.69 136.69 1046.43 136.063 1018.15C136.004 1015.05 135.936 1011.97 135.85 1008.9C133.369 922.227 110.541 857.636 66.0536 811.413C23.066 766.747 -34.6221 747.851 -90.4081 729.586C-147.114 711.022 -205.743 691.829 -248.741 645.518C-257.603 635.903 -265.861 625.75 -273.469 615.115L-271.538 621.98C-264.998 630.763 -258.003 639.198 -250.581 647.249C-207.146 694.052 -148.191 713.326 -91.1907 732.01C-35.6847 750.177 21.6907 768.959 64.245 813.164C108.27 858.908 130.868 922.955 133.331 1008.97C133.414 1012.02 133.479 1015.09 133.554 1018.19C134.156 1045.49 134.831 1076.42 149.802 1100.69C166.443 1127.66 198.727 1136.08 221.56 1140.07C263.963 1147.5 306.951 1149.4 349.246 1148.87L358.811 1146.18C313.56 1147.12 267.416 1145.54 221.991 1137.6Z" fill="#B7B6B8"/>
<path d="M728.49 915.014C720.595 917.239 712.555 918.917 704.428 920.034C576.802 937.501 481.244 825.146 435.645 756.64C408.392 705.518 426.341 646.45 488.917 580.935C543.308 524.016 603.693 485.421 668.4 466.254C748.137 442.629 835.995 441.118 894.49 442.009C898.68 442.077 903.187 442.098 907.926 442.135C963.75 442.46 1048.1 442.951 1066.44 502.995C1080.73 549.797 1043.35 602.113 1016.05 640.302C1013.89 643.345 1011.79 646.268 1009.8 649.111C980.409 690.73 945.197 728.916 911.131 765.864C897.895 780.213 884.227 795.04 871.122 809.811C831.221 854.843 786.318 898.746 728.49 915.014ZM675.232 466.918C673.186 467.493 671.159 468.087 669.123 468.686C604.837 487.735 544.822 526.102 490.744 582.704C428.997 647.326 411.192 705.415 437.787 755.328C483.005 823.257 577.805 934.809 704.074 917.521C712.087 916.414 720.016 914.76 727.803 912.572C785.008 896.479 829.585 852.869 869.247 808.131C882.355 793.337 896.043 778.478 909.277 764.13C943.284 727.247 978.45 689.127 1007.74 647.636C1009.73 644.791 1011.83 641.869 1014.01 638.822C1040.99 601.05 1077.96 549.338 1064.03 503.726C1046.23 445.455 963.002 444.979 907.924 444.648C903.18 444.64 898.66 444.618 894.468 444.554C837.624 443.676 753.056 445.024 675.232 466.918Z" fill="#B7B6B8"/>
<path d="M737.569 846.952L737.56 846.955C708.347 855.173 679.329 854.255 651.322 844.229C602.724 826.858 561.065 786.053 537.039 732.296C525.829 705.801 524.153 676.854 532.31 650.72C555.223 577.419 633.826 531.467 699.759 512.919C710.464 509.89 721.332 507.468 732.31 505.662C770.767 499.297 809.822 497.32 848.725 499.77C885.895 502.224 927.36 508.159 953.157 533.642C978.972 559.15 975.067 600.749 941.881 653.937C905.988 711.435 858.975 766.585 812.873 805.244C788.474 825.73 763.14 839.759 737.569 846.952ZM700.449 515.364C635.152 533.734 557.32 579.141 534.711 651.492C526.745 677.041 528.381 705.393 539.346 731.297C563.083 784.395 604.207 824.692 652.148 841.841C679.674 851.697 708.176 852.582 736.872 844.509L736.881 844.506C762.112 837.408 787.138 823.546 811.259 803.318C857.156 764.792 903.993 709.87 939.756 652.587C972.705 599.773 976.621 560.372 951.397 535.437C926.198 510.545 885.271 504.712 848.582 502.302C809.867 499.875 771.001 501.848 732.731 508.185C721.843 509.964 711.065 512.361 700.449 515.364Z" fill="#B7B6B8"/>
<path d="M750.225 747.599C718.781 756.445 677.656 751.757 656.558 712.015L656.479 711.861L655.986 709.666C650.216 683.923 644.759 659.616 660.681 635.074C675.272 612.608 698.267 596.4 727.175 588.267C728.267 587.96 729.367 587.677 730.461 587.395C751.842 581.938 799.667 576.548 827.669 595.274C833.093 598.769 837.694 603.399 841.153 608.846C844.612 614.293 846.847 620.425 847.704 626.82C854.148 669.694 808.832 717.669 776.165 736.596C768.013 741.336 759.298 745.032 750.225 747.599ZM658.868 710.987C679.282 749.246 719.067 753.726 749.537 745.154C758.408 742.642 766.931 739.035 774.909 734.415C806.976 715.836 851.495 668.893 845.213 627.191C844.408 621.148 842.298 615.353 839.031 610.207C835.764 605.061 831.418 600.686 826.293 597.386C799.024 579.163 752.091 584.478 731.095 589.852C730.008 590.135 728.931 590.412 727.862 590.713C699.542 598.68 677.044 614.494 662.789 636.486C647.456 660.101 652.542 682.812 658.446 709.126L658.868 710.987Z" fill="#B7B6B8"/>
<path d="M1459.2 836.612C1501.08 761.272 1564.84 694.921 1639.94 648.887C1676.44 626.524 1727.92 602.807 1765.8 616.828C1785.34 624.088 1799.56 640.832 1808.09 666.636C1815.37 688.654 1819.72 711.424 1822.58 734.383L1825.03 733.695C1822.15 710.743 1817.78 687.927 1810.48 665.837C1801.71 639.264 1786.95 621.984 1766.65 614.458C1727.83 600.068 1675.59 624.077 1638.62 646.721C1562.44 693.415 1497.82 760.949 1455.77 837.573L1459.2 836.612Z" fill="#B7B6B8"/>
</g>
<defs>
<clipPath id="clip0_1124_16271">
<rect width="3000" height="1500" fill="white" transform="translate(-494.871 -171.887) rotate(-15.7126)"/>
</clipPath>
</defs>
</svg>
