<svg width="22" height="22" viewBox="0 0 22 22" fill="none" xmlns="http://www.w3.org/2000/svg">
<path d="M22 11C22 16.8346 17.2701 21.5645 11.4355 21.5645C5.60096 21.5645 0.871094 16.8346 0.871094 11C0.871094 5.16541 5.60096 0.435547 11.4355 0.435547C17.2701 0.435547 22 5.16541 22 11ZM3.2311 11C3.2311 15.5312 6.90436 19.2044 11.4355 19.2044C15.9667 19.2044 19.64 15.5312 19.64 11C19.64 6.46881 15.9667 2.79556 11.4355 2.79556C6.90436 2.79556 3.2311 6.46881 3.2311 11Z" fill="#F2EBF3"/>
<path d="M21.0763 11C21.5865 11 22.0042 11.4143 21.9596 11.9225C21.8415 13.2702 21.4653 14.5857 20.8485 15.7962C20.0917 17.2816 18.994 18.5669 17.6452 19.5468C16.2964 20.5268 14.7348 21.1736 13.0882 21.4344C11.7463 21.6469 10.379 21.5982 9.06077 21.2941C8.5637 21.1794 8.29874 20.6541 8.45638 20.1689L8.65027 19.5722C8.80791 19.087 9.32858 18.8271 9.82854 18.9285C10.7723 19.1197 11.7451 19.1415 12.7011 18.9901C13.962 18.7904 15.1577 18.2951 16.1905 17.5447C17.2234 16.7943 18.0639 15.8101 18.6435 14.6726C19.0829 13.8103 19.3628 12.8783 19.4726 11.9217C19.5307 11.4149 19.9388 11 20.4489 11H21.0763Z" fill="#803785"/>
</svg>
