<svg width="164" height="164" viewBox="0 0 164 164" fill="none" xmlns="http://www.w3.org/2000/svg">
<path d="M54.6698 159.547L65.5089 162.152C65.5484 162.162 65.5889 162.167 65.6296 162.167L81.3178 163.988L81.3664 164L81.3981 163.998L87.4872 163.553L92.1761 163.212C92.1808 163.212 92.1845 163.209 92.1893 163.208L105.155 159.72L113.695 157.169L122.694 152.762L131.474 146.816L139.478 139.714L146.191 131.912L151.169 123.905L151.172 123.897L151.19 123.868L156.761 112.965L156.776 112.926C156.778 112.921 156.783 112.917 156.785 112.913L160.832 102.159L160.857 102.093L161.469 95.0933L161.72 92.3154L161.714 92.2965L163.226 74.9949V74.9878L163.234 74.9045L159.172 58.0343L155.809 47.1922L155.8 47.1615L155.771 47.0694L155.724 47.0228L146.349 31.6676L146.316 31.6339C146.303 31.6122 146.29 31.5914 146.274 31.5718L138.23 23.5616L138.145 23.4769L138.127 23.4708L124.712 11.9281L124.705 11.922L124.642 11.8677L108.256 5.11368L97.6479 1.48198L97.6338 1.47692H97.5592L81.5394 0.722656L70.7112 0.8053L58.3177 3.9536L49.257 7.79916L40.2567 11.9949L31.4524 17.9282L23.5471 25.147L17.0663 33.1755L12.3673 40.1437L5.95801 51.7016L2.64644 62.7896L0.382288 77.8888L0.371155 77.9263V77.9634L0.451436 89.774L3.69352 106.664V106.723L8.29098 117.108C8.293 117.113 8.29638 117.116 8.2984 117.12L8.31156 117.15L16.9907 132.78L17.0295 132.85L30.1398 145.184L30.1516 145.211L38.7944 152.008C38.8498 152.05 38.9133 152.08 38.9809 152.096L54.6269 159.511L54.6698 159.547ZM39.3847 151.164L33.7337 146.721L46.7682 153.093L46.8977 153.397L51.0489 156.68L39.3847 151.164ZM9.23247 116.691L8.05485 114.031L12.2627 121.569V122.07L12.427 122.441L9.23247 116.691ZM1.40169 78.0717L5.01956 65.9572L8.30683 78.154L8.22959 78.2919L4.08043 91.9794L1.41047 79.2402L1.40169 78.0717ZM23.404 26.9524L24.2689 25.8797L32.0582 18.7597L32.0771 18.7469L32.6506 18.9493L22.9092 27.8548L23.404 26.9524ZM58.6101 4.94096L59.1286 4.80873L67.8243 6.04032L53.1143 12.9019L53 12.9792L46.2696 10.4121L51.7502 7.85684L58.6101 4.94096ZM74.6572 1.80379L81.8005 2.21399L69.0414 5.47158L68.6787 5.64024L60.4374 4.47275L70.7806 1.83213L74.6572 1.80379ZM97.4665 2.50747L97.7852 2.61676L101.042 3.72995L110.808 7.81434L97.8284 7.95264L97.5157 8.03326L85.9426 2.59821L97.4665 2.50747ZM137.589 24.3745L138.244 25.0266L146.792 38.8929L136.013 35.3421L135.906 35.3445L126.604 20.6706L137.589 24.3745ZM92.0523 162.189L86.3214 162.607L96.8535 160.166L97.3652 160.292L99.7077 160.124L92.0523 162.189ZM55.1309 158.599L48.8114 153.6L66.0884 156.645L66.1464 156.787L71.3187 160.936L57.3293 159.127L55.1309 158.599ZM5.38151 64.7448L12.8868 51.2543L17.1769 62.342L8.66677 77.5127L5.29954 65.0197L5.38151 64.7448ZM45.6398 10.7221L52.4896 13.3233L37.7746 23.2465L33.5374 18.8912L45.6398 10.7221ZM98.9241 159.147L112.252 151.136L112.475 151.193L115.263 151.001L105.458 158.554L104.914 158.716L98.9241 159.147ZM69.4458 6.43095L80.1112 12.6715L62.963 20.7L54.042 13.6046L69.3433 6.45759L69.4458 6.43095ZM43.9832 143.859L44.1926 132.839L63.3331 139.682L63.0295 148.66L43.9832 143.859ZM141.22 127.911L128.681 134.779L141.47 125.169L141.265 127.789L141.22 127.911ZM139.753 131.757L128.293 135.58L140.947 128.649L139.841 131.617L139.753 131.757ZM137.264 135.748L127.608 136.348L139.33 132.439L137.33 135.671L137.264 135.748ZM133.941 139.619L126.857 136.91L136.795 136.293L133.941 139.619ZM120.72 148.601L117.279 149.623L124.603 138.753L120.839 148.542L120.72 148.601ZM116.368 149.894L113.418 150.097L123.693 139.189L116.525 149.849L116.368 149.894ZM91.5025 157.788L87.8114 154.762L106.842 148.423L108.624 149.925L91.6135 157.816L91.5025 157.788ZM64.0539 148.806L64.3329 139.927L84.7353 142.996L84.4381 149.237L64.0539 148.806ZM45.9731 33.4389L55.8494 45.3638L40.0104 59.7402L30.7605 47.2927L45.9731 33.4389ZM84.1031 106.313L98.9946 118.891L92.4925 126.578L74.9632 117.218L84.1031 106.313ZM127.106 119.961L122.727 122.082L117.132 105.988L125.72 101.834L127.106 119.961ZM117.537 125.583L113.592 129.095L100.166 119.162L107.836 112.301L117.537 125.583ZM122.552 123.384L125.143 135.542L118.539 126.101L122.552 123.384ZM114.096 130.05L124.273 136.193L111.086 133.588L114.096 130.05ZM114.481 129.679L118.136 126.42L124.752 135.879L114.481 129.679ZM110.714 134.034L123.674 136.597L108.565 137.566L110.714 134.034ZM123.014 123.087L127.059 121.118L125.575 135.095L123.014 123.087ZM99.7971 119.526L113.241 129.474L109.986 133.292L93.4711 127.014L99.7971 119.526ZM108.24 138.102L123.045 137.153L107.067 141.382L108.24 138.102ZM127.605 120.858L131.38 119.762L126.147 134.575L127.605 120.858ZM122.272 122.336L117.941 125.264L108.24 111.981L116.686 106.264L122.272 122.336ZM93.1409 127.436L109.702 133.73L107.365 137.559L88.6041 134.988L93.1409 127.436ZM106.866 141.96L122.541 137.818L106.704 144.78L106.866 141.96ZM131.987 119.588L135.239 119.405L126.859 134.104L131.987 119.588ZM131.698 118.612L127.609 119.787L126.218 101.615L134.314 99.3059L131.698 118.612ZM99.3457 118.515L84.4644 105.946L95.5767 95.969L107.224 111.473L99.3457 118.515ZM83.6902 105.258L68.5273 91.0137L82.2627 78.6337L94.9554 95.1503L83.6902 105.258ZM68.1704 91.3837L83.3374 105.632L74.071 116.68L56.9144 104.931L68.1704 91.3837ZM74.6545 117.634L92.2068 127.005L87.5392 134.763L68.1353 128.649L74.6545 117.634ZM88.3414 135.467L107.175 138.051L105.895 141.598L85.8795 142.536L88.3414 135.467ZM107.539 147.521L106.719 145.328L122.291 138.488L107.539 147.521ZM135.841 119.388L138.374 120.091L127.617 133.815L135.841 119.388ZM135.74 118.347L132.228 118.544L134.847 99.1797L141.871 98.8424L135.74 118.347ZM107.629 111.155L95.9829 95.6523L108.248 87.354L116.304 105.287L107.629 111.155ZM95.3582 94.8302L82.6675 78.3159L97.8598 68.0418L107.792 86.423L95.3582 94.8302ZM82.0336 77.5012L69.3028 61.2851L86.3133 49.7889L97.3413 67.1564L82.0336 77.5012ZM68.8994 61.6032L81.6325 77.8227L67.7939 90.2904L53.5515 75.4908L68.8994 61.6032ZM56.6206 105.351L73.7829 117.104L67.1712 128.263L48.6437 119.04L56.6206 105.351ZM67.9086 129.113L87.3449 135.237L84.8068 142.495L64.4277 139.429L67.9086 129.113ZM85.7439 143.052L105.846 142.116L105.655 145.139L85.472 149.14L85.7439 143.052ZM105.74 145.646L106.607 147.962L87.4029 154.366L85.5506 149.649L105.74 145.646ZM109.565 149.373L107.855 147.932L122.402 139.026L109.565 149.373ZM138.861 120.305L140.539 121.814L128.273 133.814L138.861 120.305ZM138.962 119.185L136.248 118.431L142.404 98.8694L147.88 100.467L138.962 119.185ZM126.064 100.589L121.67 80.884L133.471 77.5873L134.385 98.2291L126.064 100.589ZM125.579 100.768L116.752 105.03L108.69 87.0875L121.188 81.08L125.579 100.768ZM108.236 86.1645L98.3047 67.7851L113.807 60.3858L120.908 80.0822L108.236 86.1645ZM97.7839 66.8939L86.7633 49.538L104.141 41.299L113.403 59.4474L97.7839 66.8939ZM68.6626 60.4776L56.9015 45.8429L74.493 33.9614L85.7335 48.947L68.6626 60.4776ZM56.4964 46.16L68.2615 60.8001L52.859 74.7318L40.6524 60.5501L56.4964 46.16ZM53.1983 75.8649L67.439 90.6628L56.0967 104.304L40.6605 91.0808L53.1983 75.8649ZM48.4359 119.509L66.9614 128.732L63.4269 139.176L44.251 132.32L48.4359 119.509ZM112.568 150.156L110.169 149.545L122.897 139.284L112.663 150.148L112.568 150.156ZM125.389 138.147L125.312 146.349L125.306 146.353L121.519 148.208L125.389 138.147ZM128.665 134.146L140.782 122.293L141.524 124.479V124.484L128.665 134.146ZM141.184 121.009L139.416 119.42L148.317 100.738L151.916 104.077L141.184 121.009ZM142.101 97.8004L134.893 98.1458L133.982 77.4918L144.223 77.0927L142.101 97.8004ZM121.385 79.8949L114.287 60.205L128.934 56.2009L133.349 76.5675L121.385 79.8949ZM113.88 59.2504L104.631 41.131L121.057 36.7323L128.635 55.2297L113.88 59.2504ZM86.174 48.6781L74.949 33.7138L92.9412 25.2371L103.613 40.4206L86.174 48.6781ZM56.2488 45.042L46.3782 33.1235L63.2899 21.7076L73.8358 33.1717L56.2488 45.042ZM45.7089 32.3338L38.4769 24.0136L53.5306 13.8542L62.514 20.9962L45.7089 32.3338ZM30.4107 47.6853L39.6465 60.1136L26.75 75.8763L18.0469 62.9023L30.4107 47.6853ZM40.3022 60.9286L52.5011 75.1018L39.9214 90.3606L27.3933 76.7156L40.3022 60.9286ZM40.3748 91.5116L55.8012 104.725L47.7616 118.506L31.5428 106.895L40.3748 91.5116ZM66.9975 156.151L64.1976 149.325L84.4833 149.755L86.3724 154.563L67.0245 156.173L66.9975 156.151ZM97.4536 159.255L92.3991 158.01L109.058 150.293L109.115 150.34L111.551 150.96L97.8159 159.229L97.4536 159.255ZM125.831 145.999L125.91 137.595L129.632 143.423L125.831 145.999ZM126.297 137.246L133.516 140.008L130.035 143.1L126.297 137.246ZM141.558 121.378L152.134 104.694L153.644 109.323L153.627 109.525L142.329 123.649L141.558 121.378ZM148.218 99.4931L142.612 97.8577L144.733 77.1632L152.706 79.6004L148.218 99.4931ZM133.852 76.4667L129.44 56.1331L142.15 55.7502L144.225 76.0639L133.852 76.4667ZM129.137 55.1127L121.589 36.6898L135.835 36.375L141.917 54.7278L129.137 55.1127ZM104.088 40.2115L93.4516 25.0789L110.464 20.6072L120.56 35.8147L104.088 40.2115ZM74.275 32.8935L63.7588 21.4627L81.0655 13.3499L92.2493 24.4346L74.275 32.8935ZM38.0705 24.3283L45.3102 32.6604L30.1918 46.4234L24.5368 36.6833L38.0705 24.3283ZM9.15454 78.745L17.7565 63.3938L26.4225 76.3064L17.3979 92.2226L9.13836 78.8L9.15454 78.745ZM27.112 77.1636L39.6144 90.7829L30.7555 106.198L18.0671 93.1301L27.112 77.1636ZM31.3532 107.388L47.539 118.977L43.318 131.866L26.7939 121.78L31.3532 107.388ZM47.7417 152.754L44.2142 144.443L63.0332 149.193L65.8573 156.083L47.962 152.929L47.7417 152.754ZM72.917 160.901L67.6077 156.641L86.5687 155.062L86.5761 155.081L90.3286 158.157L73.34 161.002L72.917 160.901ZM134.615 140.408L134.783 140.21L137.863 139.772L131.188 145.7L130.526 144.034L134.615 140.408ZM135.294 139.618L138.136 136.312L138.376 135.926L144.045 132.828L138.768 138.968L138.561 139.151L135.294 139.618ZM142.525 124.228L153.549 110.449L153.085 115.913L152.928 116.33L142.349 126.96L142.566 124.352L142.525 124.228ZM148.695 99.6878L153.151 79.9671L158.282 84.8635L158.324 84.9984L152.357 103.086L148.695 99.6878ZM144.746 76.0942L142.679 55.874L152.523 59.0112L152.545 59.0318L152.801 78.5568L144.746 76.0942ZM142.458 54.7217L136.442 36.566L147.314 40.1481L147.498 40.3292L152.34 57.8703L142.458 54.7217ZM121.099 35.6707L121.082 35.6757L111.071 20.5893L125.699 20.364L125.83 20.4082L135.314 35.359L121.099 35.6707ZM92.7452 24.2015H92.7415L81.6406 13.1941L97.9036 8.98217H98.0116L109.685 19.7497L92.7452 24.2015ZM80.7953 12.3497L80.6772 12.4051L70.1542 6.24946L84.3372 2.61271L84.7528 2.60934L96.7345 8.23769L80.7953 12.3497ZM13.2359 50.6265L24.1863 37.0875L29.816 46.7945L17.55 61.8819L13.2119 50.6694L13.2359 50.6265ZM4.65929 93.6158L8.94338 79.446L17.1108 92.7367L12.5326 107.54L4.66199 93.9194L4.65929 93.6158ZM13.2949 108.56L17.8853 93.6738L30.5099 106.679L25.937 121.077L13.2939 108.627L13.2949 108.56ZM26.6694 134.627L26.7723 122.362L43.1955 132.393L42.9644 143.435L26.72 134.743L26.6694 134.627ZM90.8582 158.59L91.0315 158.733L95.7495 159.894L82.9984 162.85L81.4551 162.962L74.6178 161.309L90.8582 158.59ZM106.835 158.144L116.189 150.939L116.497 150.918L119.705 149.973L113.927 155.917L113.36 156.196L106.835 158.144ZM120.682 149.685L121.056 149.575L124.714 147.788L122.557 151.617L122.21 151.853L115.291 155.247L120.682 149.685ZM125.528 147.392L125.792 147.263L130.098 144.349L130.773 146.048L123.511 150.971L125.528 147.392ZM144.998 131.722L138.927 135.04L140.742 132.116L140.895 131.708L149.149 125.209L145.384 131.272L144.998 131.722ZM150.269 123.406L149.946 123.926L141.244 130.777L142.256 128.081L142.284 127.754L152.49 117.499L150.269 123.406ZM154.586 108.897L160.462 94.8086L159.845 101.863L158.85 104.508L154.262 114.04L154.686 109.204L154.586 108.897ZM160.61 93.1183L154.346 108.16L152.835 103.529L152.768 103.465L158.592 85.8353L160.673 92.4109L160.61 93.1183ZM153.333 78.7177L153.317 78.7129L153.066 59.5384L159.264 65.5837L159.42 66.084L158.522 83.6707L153.333 78.7177ZM154.866 47.6202L156.08 51.537L159.137 64.0222L153.068 58.1031L152.915 58.0545L148.231 41.0558L154.866 47.6202ZM110.357 19.572L110.266 19.5959L98.7601 8.97306L112.575 8.82633L113.033 8.98251L124.822 19.3486L110.357 19.572ZM43.1742 11.7699L33.1063 18.5657L32.6074 18.3889L40.7286 12.91L43.1742 11.7699ZM33.1269 19.2063L37.3772 23.5754L24.1293 35.6606L22.2311 29.167L33.1269 19.2063ZM12.4081 50.0143L5.39534 62.6058L6.48154 53.511L6.88634 52.1509L12.5579 41.9163L12.5511 49.8375L12.4081 50.0143ZM12.3251 108.21L12.288 108.33L12.2647 120.518L5.79946 108.935L4.72237 106.502L4.6657 94.957L12.3251 108.21ZM13.2909 121.853L13.2936 109.338L25.7707 121.636L25.6473 133.893L13.4768 122.274L13.2909 121.853ZM42.9513 144.013V144.097L46.4632 152.371L31.81 145.207L30.9916 144.564L27.0448 135.491L42.9513 144.013ZM65.719 161.146L61.9915 160.25L72.0871 161.555L72.4514 161.847L73.0809 161.999L65.719 161.146ZM154.136 115.487L156.799 109.954L155.831 112.523L154.099 115.915L154.136 115.487ZM159.184 84.3015L159.005 84.1304L159.861 67.5025L162.193 74.9993L160.905 89.7385L159.184 84.3015ZM147.866 39.2467L147.55 39.1428L139.809 26.5857L143.016 29.7792L145.504 32.2569L152.682 44.0108L147.866 39.2467ZM125.86 19.3328L125.572 19.3372L114.305 9.41665L124.11 12.7667L135.536 22.5961L125.86 19.3328ZM21.8297 29.6264L23.708 36.0525L13.0659 49.2013L13.0733 40.9863L13.242 40.68L14.9151 38.1986L21.8297 29.6264ZM5.61663 56.4168L4.7362 63.7891L4.4552 64.2951L2.46158 70.951L3.64224 63.0494L5.61663 56.4168ZM1.48063 89.72L1.4469 84.8068L1.427 81.8326L3.76874 93.0046L3.65135 93.3912L3.62875 93.4654L3.66653 101.076L1.48063 89.72ZM17.8691 132.228L14.0084 123.479L25.6399 134.598L25.6375 134.837L29.1012 142.798L17.8691 132.228Z" fill="#312F31"/>
</svg>
