<svg width="14" height="14" viewBox="0 0 14 14" fill="none" xmlns="http://www.w3.org/2000/svg">
<path fill-rule="evenodd" clip-rule="evenodd" d="M9.00415 6.17446C8.64064 5.48777 7.91886 5.01994 7.08775 5.01994C5.89094 5.01994 4.92081 5.99006 4.92081 7.18687C4.92081 7.47942 4.9787 7.75834 5.08363 8.01284C5.40828 8.80021 6.18328 9.35381 7.08775 9.35381C8.28456 9.35381 9.25469 8.38369 9.25469 7.18687C9.25469 6.82117 9.16411 6.47663 9.00415 6.17446ZM4.02239 8.50954C3.84713 8.10399 3.75 7.65678 3.75 7.18687C3.75 5.34331 5.24419 3.84913 7.08775 3.84913C8.38745 3.84913 9.51415 4.59241 10.0654 5.67732C10.2957 6.13063 10.4255 6.64358 10.4255 7.18687C10.4255 9.03044 8.93131 10.5246 7.08775 10.5246C5.7147 10.5246 4.53471 9.69507 4.02239 8.50954ZM9.81309 3.9522C9.78973 3.87812 9.77713 3.79927 9.77713 3.7175C9.77713 3.28688 10.1265 2.9375 10.5571 2.9375C10.8325 2.9375 11.0746 3.08034 11.2134 3.29593C11.2917 3.41751 11.3371 3.56222 11.3371 3.7175C11.3371 4.14813 10.9886 4.4975 10.5571 4.4975C10.2083 4.4975 9.91275 4.26822 9.81309 3.9522ZM13.461 4.32037C13.4927 5.01344 13.5 5.23525 13.5 7C13.5 8.76556 13.4927 8.98656 13.461 9.67963C13.3546 12.0432 12.0383 13.3529 9.68044 13.461C8.98656 13.4927 8.76556 13.5 7 13.5C5.23444 13.5 5.01425 13.4927 4.32037 13.461C1.95762 13.3529 0.647875 12.0408 0.539 9.67963C0.507312 8.98656 0.5 8.76556 0.5 7C0.5 5.23525 0.507312 5.01344 0.539 4.31956C0.647875 1.95681 1.95925 0.647062 4.32037 0.539C5.01425 0.507312 5.23444 0.5 7 0.5C8.76556 0.5 8.98656 0.507312 9.68044 0.539812C12.0432 0.647875 13.3546 1.9625 13.461 4.32037Z" fill="#803785"/>
</svg>
