<svg width="20" height="21" viewBox="0 0 20 21" fill="none" xmlns="http://www.w3.org/2000/svg">
<path fill-rule="evenodd" clip-rule="evenodd" d="M13.2074 9.08973C12.6627 8.05803 11.5791 7.35491 10.3312 7.35491C8.53601 7.35491 7.08082 8.81009 7.08082 10.6053C7.08082 11.0427 7.16707 11.4597 7.32348 11.8404C7.80952 13.0235 8.97307 13.8557 10.3312 13.8557C12.1264 13.8557 13.5816 12.4005 13.5816 10.6053C13.5816 10.058 13.4464 9.54225 13.2074 9.08973ZM5.73074 12.5836C5.46939 11.9768 5.3246 11.308 5.3246 10.6053C5.3246 7.83997 7.56588 5.59869 10.3312 5.59869C12.2827 5.59869 13.9742 6.71585 14.8001 8.34587C15.144 9.02463 15.3379 9.79232 15.3379 10.6053C15.3379 13.3707 13.0966 15.6119 10.3312 15.6119C8.26946 15.6119 6.49792 14.365 5.73074 12.5836ZM14.4187 5.75166C14.384 5.64102 14.3653 5.52331 14.3653 5.40125C14.3653 4.75531 14.8894 4.23125 15.5353 4.23125C15.9487 4.23125 16.3121 4.44589 16.5203 4.76975C16.6374 4.95194 16.7053 5.1687 16.7053 5.40125C16.7053 6.04719 16.1825 6.57125 15.5353 6.57125C15.0114 6.57125 14.5677 6.22653 14.4187 5.75166ZM19.8911 6.30478C19.9387 7.34437 19.9496 7.67709 19.9496 10.3242C19.9496 12.9726 19.9387 13.3041 19.8911 14.3437C19.7315 17.889 17.7571 19.8536 14.2203 20.0157C13.1795 20.0632 12.848 20.0742 10.1996 20.0742C7.55129 20.0742 7.22101 20.0632 6.1802 20.0157C2.63607 19.8536 0.671443 17.8853 0.508131 14.3437C0.460599 13.3041 0.449631 12.9726 0.449631 10.3242C0.449631 7.67709 0.460599 7.34438 0.508131 6.30356C0.671443 2.75944 2.63851 0.794812 6.1802 0.632719C7.22101 0.585187 7.55129 0.574219 10.1996 0.574219C12.848 0.574219 13.1795 0.585187 14.2203 0.633937C17.7644 0.796031 19.7315 2.76797 19.8911 6.30478Z" fill="#803785"/>
</svg>
