<svg width="20" height="20" viewBox="0 0 20 20" fill="none" xmlns="http://www.w3.org/2000/svg">
<mask id="mask0_3190_7946" style="mask-type:luminance" maskUnits="userSpaceOnUse" x="0" y="0" width="20" height="21">
<path d="M19.701 0.400391H0.399902V20.0478H19.701V0.400391Z" fill="white"/>
</mask>
<g mask="url(#mask0_3190_7946)">
<path d="M17.0031 17.0036H14.1158V12.482C14.1158 11.4038 14.0965 10.0158 12.6141 10.0158C11.1103 10.0158 10.8803 11.1905 10.8803 12.4035V17.0033H7.99296V7.70504H10.7648V8.97575H10.8036C11.081 8.50147 11.4818 8.11129 11.9634 7.8468C12.445 7.5823 12.9893 7.45338 13.5384 7.47376C16.4647 7.47376 17.0044 9.39862 17.0044 11.9027L17.0031 17.0036ZM4.73515 6.43403C4.40377 6.4341 4.07979 6.33589 3.80422 6.15182C3.52864 5.96776 3.31386 5.70613 3.18698 5.39998C3.06012 5.09384 3.02687 4.75695 3.09146 4.43193C3.15605 4.1069 3.31558 3.80831 3.54987 3.57395C3.78415 3.33957 4.08267 3.17995 4.40768 3.11524C4.7327 3.05053 5.06958 3.08365 5.37577 3.21041C5.68195 3.33717 5.94367 3.55187 6.12783 3.82739C6.31199 4.10289 6.41032 4.42682 6.41038 4.75821C6.41042 4.97825 6.36711 5.19613 6.28294 5.39942C6.19877 5.60273 6.07541 5.78746 5.91985 5.94307C5.76429 6.09869 5.5796 6.22214 5.37631 6.30638C5.17304 6.39062 4.95519 6.43399 4.73515 6.43403ZM6.17879 17.0036H3.28851V7.70504H6.17879V17.0036ZM18.4426 0.401718H1.83764C1.46077 0.397465 1.09759 0.543013 0.827967 0.806379C0.558341 1.06975 0.404319 1.42938 0.399719 1.80626V18.48C0.404161 18.8572 0.558093 19.2169 0.827709 19.4807C1.09733 19.7443 1.46058 19.8901 1.83764 19.886H18.4426C18.8204 19.8908 19.1847 19.7454 19.4554 19.4818C19.7259 19.2182 19.8809 18.8578 19.8862 18.48V1.80506C19.8808 1.42743 19.7256 1.06739 19.4551 0.804026C19.1844 0.540666 18.8202 0.395534 18.4426 0.400515" fill="#803785"/>
</g>
</svg>
