<svg width="14" height="14" viewBox="0 0 14 14" fill="none" xmlns="http://www.w3.org/2000/svg">
<path d="M11.8687 11.4516H9.94384V8.43722C9.94384 7.71841 9.93102 6.79307 8.94275 6.79307C7.94022 6.79307 7.78682 7.57624 7.78682 8.38488V11.4514H5.86196V5.25258H7.70983V6.09972H7.7357C7.92063 5.78353 8.18785 5.52341 8.50891 5.34709C8.82997 5.17075 9.19286 5.0848 9.5589 5.09839C11.5098 5.09839 11.8696 6.38163 11.8696 8.05104L11.8687 11.4516ZM3.69009 4.40524C3.46917 4.40529 3.25319 4.33981 3.06947 4.2171C2.88575 4.09439 2.74256 3.91997 2.65798 3.71587C2.5734 3.51178 2.55124 3.28719 2.5943 3.0705C2.63736 2.85382 2.74371 2.65476 2.89991 2.49852C3.05609 2.34227 3.2551 2.23585 3.47178 2.19271C3.68846 2.14957 3.91305 2.17165 4.11717 2.25616C4.32129 2.34067 4.49577 2.4838 4.61854 2.66748C4.74132 2.85114 4.80687 3.0671 4.80691 3.28802C4.80694 3.43472 4.77807 3.57997 4.72195 3.7155C4.66584 3.85104 4.58359 3.97419 4.47989 4.07793C4.37619 4.18168 4.25305 4.26398 4.11753 4.32014C3.98202 4.3763 3.83679 4.40521 3.69009 4.40524ZM4.65251 11.4516H2.72566V5.25258H4.65251V11.4516ZM12.8284 0.383698H1.75842C1.50717 0.380862 1.26505 0.477894 1.0853 0.653472C0.905553 0.829049 0.802871 1.06881 0.799805 1.32006V12.4359C0.802766 12.6873 0.905387 12.9272 1.08513 13.103C1.26488 13.2787 1.50704 13.376 1.75842 13.3732H12.8284C13.0802 13.3764 13.3231 13.2795 13.5036 13.1037C13.6839 12.928 13.7873 12.6878 13.7908 12.4359V1.31926C13.7872 1.06751 13.6838 0.827475 13.5034 0.651903C13.3229 0.47633 13.0801 0.379575 12.8284 0.382895" fill="#803785"/>
</svg>
