<svg width="215" height="53" viewBox="0 0 215 53" fill="none" xmlns="http://www.w3.org/2000/svg">
<path d="M19.0595 2.49578L9.28829 0L0 16.2612L19.0595 2.49578Z" fill="#803785"/>
<path d="M21.3771 6.30859L13.8982 23.2066L0.883499 21.0774L21.3771 6.30859Z" fill="#803785"/>
<path d="M15.9562 29.0653L26.1928 5.88281L42.4422 16.8855L15.9562 29.0653Z" fill="#00AFA2"/>
<path d="M37.1759 24.291L21.168 48.2132L17.1594 33.4958L37.1759 24.291Z" fill="#803785"/>
<path d="M36.4532 33.1074L23.2436 52.8485L30.8767 49.2753L36.4532 33.1074Z" fill="#803785"/>
<path d="M60.4993 35.6632V27.6998C60.4993 25.7347 59.5713 23.9529 57.7416 23.9529C55.9118 23.9529 54.8734 25.7347 54.8734 27.6998V35.6728H51.5426V20.7432H54.629L54.8763 22.5539C55.586 21.0455 57.1423 20.502 58.4281 20.502C60.0367 20.502 61.6512 21.2256 62.4134 23.2808C63.6177 21.1645 65.174 20.5631 66.9222 20.5631C70.7446 20.5631 72.6296 23.1585 72.6296 27.6387V35.6793H69.2989V27.6387C69.2989 25.6736 68.56 24.0141 66.7593 24.0141C64.9587 24.0141 63.8358 25.7251 63.8358 27.6998V35.6728L60.4993 35.6632Z" fill="#241F5A"/>
<path d="M77.9361 16.5813C77.9361 19.4502 74.0032 19.4502 74.0032 16.5813C74.0032 13.7125 77.9361 13.7125 77.9361 16.5813ZM74.3029 20.7206V35.6696H77.6365V20.7206H74.3029Z" fill="#241F5A"/>
<path d="M82.6218 14.5566V35.6679H79.3172V14.5566H82.6218Z" fill="#241F5A"/>
<path d="M93.815 24.7327C92.858 23.7389 91.7788 23.4044 90.4814 23.4044C88.8989 23.4044 88.0233 23.948 88.0233 24.8839C88.0233 25.8198 88.8145 26.3955 90.5366 26.5145C93.0762 26.6978 96.2993 27.3314 96.2993 31.2874C96.2993 33.915 94.3619 36.1792 90.5105 36.1792C88.3782 36.1792 86.2488 35.7869 84.2824 33.5226L85.9201 30.895C87.203 32.3745 89.0618 32.9469 90.5745 32.9791C91.8311 33.008 93.0063 32.4356 93.0063 31.3485C93.0063 30.3225 92.2413 29.7404 90.3301 29.6278C87.7906 29.4155 84.7566 28.3896 84.7566 25.0061C84.7566 21.5615 87.9797 20.3555 90.4377 20.3555C92.5409 20.3555 94.1263 20.809 95.6739 22.3174L93.815 24.7327Z" fill="#241F5A"/>
<path d="M108.68 20.7824H111.88V35.6734H108.739L108.573 33.4961C107.808 35.2489 105.705 36.0948 104.209 36.1237C100.221 36.1559 97.2716 33.4382 97.2716 28.2118C97.2716 23.0659 100.358 20.39 104.291 20.4222C106.094 20.4222 107.814 21.3581 108.579 22.8375L108.68 20.7824ZM100.594 28.2118C100.594 31.0517 102.371 32.7435 104.585 32.7435C109.821 32.7435 109.821 23.7123 104.585 23.7123C102.371 23.7123 100.594 25.3751 100.594 28.2118Z" fill="#241F5A"/>
<path d="M119.086 16.582V20.8114H122.8V23.9825H119.059V30.415C119.059 31.8333 119.769 32.528 120.805 32.528C121.366 32.5109 121.916 32.356 122.416 32.0745L123.344 35.2168C122.47 35.622 121.534 35.8403 120.587 35.86C117.666 35.9694 115.769 34.1393 115.769 30.415V23.9825H113.256V20.8114H115.769V16.9744L119.086 16.582Z" fill="#241F5A"/>
<path d="M129.141 32.285C129.141 31.5421 129.345 30.8938 129.752 30.3403C130.175 29.7721 130.758 29.3351 131.501 29.0292C132.243 28.7233 133.096 28.5703 134.057 28.5703C134.538 28.5703 135.026 28.6068 135.521 28.6796C136.016 28.7524 136.446 28.869 136.81 29.0292V28.4174C136.81 27.689 136.592 27.1282 136.155 26.7349C135.732 26.3415 135.099 26.1449 134.254 26.1449C133.627 26.1449 133.03 26.2541 132.462 26.4726C131.894 26.6912 131.297 27.0116 130.67 27.4341L129.731 25.5112C130.488 25.0159 131.26 24.6445 132.047 24.3968C132.848 24.1492 133.686 24.0253 134.56 24.0253C136.191 24.0253 137.459 24.4332 138.362 25.249C139.279 26.0648 139.738 27.2301 139.738 28.7451V32.3942C139.738 32.7002 139.789 32.9187 139.891 33.0498C140.008 33.1809 140.19 33.261 140.438 33.2901V35.6719C140.175 35.7156 139.935 35.752 139.716 35.7811C139.513 35.8103 139.338 35.8248 139.192 35.8248C138.609 35.8248 138.165 35.6937 137.859 35.4315C137.568 35.1693 137.386 34.8488 137.313 34.4701L137.247 33.8801C136.752 34.5211 136.133 35.0163 135.39 35.366C134.647 35.7156 133.89 35.8904 133.117 35.8904C132.36 35.8904 131.675 35.7374 131.064 35.4315C130.466 35.111 129.993 34.6813 129.643 34.1423C129.308 33.5888 129.141 32.9696 129.141 32.285ZM136.264 32.875C136.424 32.7002 136.555 32.5253 136.657 32.3505C136.759 32.1757 136.81 32.0155 136.81 31.8698V30.7117C136.461 30.566 136.082 30.4568 135.674 30.384C135.266 30.2966 134.88 30.2529 134.516 30.2529C133.758 30.2529 133.132 30.4204 132.637 30.7554C132.156 31.0759 131.916 31.5056 131.916 32.0446C131.916 32.336 131.996 32.6127 132.156 32.875C132.316 33.1372 132.549 33.3484 132.855 33.5086C133.161 33.6689 133.525 33.749 133.948 33.749C134.385 33.749 134.815 33.6689 135.237 33.5086C135.659 33.3338 136.002 33.1226 136.264 32.875ZM146.692 35.8904C145.716 35.8904 144.783 35.7301 143.895 35.4097C143.006 35.0892 142.241 34.6157 141.6 33.9894L142.649 32.0883C143.334 32.6419 144.004 33.0498 144.66 33.312C145.33 33.5742 145.971 33.7053 146.582 33.7053C147.151 33.7053 147.602 33.6033 147.937 33.3994C148.287 33.1954 148.462 32.8895 148.462 32.4816C148.462 32.2049 148.367 31.9936 148.178 31.848C147.988 31.6877 147.711 31.5493 147.347 31.4328C146.998 31.3163 146.568 31.1852 146.058 31.0395C145.213 30.7627 144.507 30.4932 143.938 30.231C143.37 29.9688 142.941 29.641 142.649 29.2477C142.372 28.8398 142.234 28.3227 142.234 27.6963C142.234 26.9388 142.423 26.2906 142.802 25.7516C143.196 25.198 143.735 24.7683 144.419 24.4624C145.118 24.1565 145.934 24.0035 146.866 24.0035C147.682 24.0035 148.454 24.1346 149.183 24.3968C149.911 24.6445 150.574 25.0523 151.171 25.6205L149.991 27.4778C149.408 27.0262 148.855 26.6984 148.33 26.4945C147.806 26.276 147.274 26.1667 146.735 26.1667C146.429 26.1667 146.138 26.2032 145.861 26.276C145.599 26.3488 145.381 26.4726 145.206 26.6475C145.046 26.8077 144.965 27.0408 144.965 27.3467C144.965 27.6235 145.038 27.842 145.184 28.0022C145.344 28.1479 145.577 28.279 145.883 28.3955C146.204 28.5121 146.59 28.6432 147.041 28.7888C147.959 29.0511 148.731 29.3205 149.357 29.5973C149.998 29.8741 150.479 30.2164 150.8 30.6243C151.12 31.0176 151.28 31.5639 151.28 32.2631C151.28 33.3994 150.865 34.288 150.035 34.9289C149.205 35.5699 148.09 35.8904 146.692 35.8904ZM160.133 35.8904C159.244 35.8904 158.458 35.6937 157.773 35.3004C157.103 34.8925 156.579 34.3463 156.2 33.6616V40.3261H153.272V24.222H155.828V26.1886C156.265 25.5185 156.819 24.9941 157.489 24.6153C158.159 24.222 158.924 24.0253 159.783 24.0253C160.556 24.0253 161.262 24.1783 161.903 24.4842C162.559 24.7901 163.127 25.2199 163.607 25.7734C164.088 26.3124 164.46 26.9388 164.722 27.6526C164.999 28.3518 165.137 29.1093 165.137 29.9251C165.137 31.0322 164.918 32.0373 164.481 32.9405C164.059 33.8437 163.469 34.5648 162.711 35.1038C161.969 35.6282 161.109 35.8904 160.133 35.8904ZM159.15 33.3994C159.601 33.3994 160.009 33.3047 160.373 33.1153C160.738 32.9259 161.051 32.671 161.313 32.3505C161.59 32.0155 161.794 31.644 161.925 31.2361C162.07 30.8137 162.143 30.3767 162.143 29.9251C162.143 29.4444 162.063 29.0001 161.903 28.5922C161.757 28.1843 161.539 27.8274 161.247 27.5215C160.956 27.201 160.614 26.9534 160.22 26.7786C159.842 26.6038 159.427 26.5164 158.975 26.5164C158.698 26.5164 158.414 26.5673 158.123 26.6693C157.846 26.7567 157.576 26.8878 157.314 27.0626C157.052 27.2374 156.819 27.4414 156.615 27.6744C156.426 27.9075 156.287 28.1625 156.2 28.4392V31.1269C156.375 31.5493 156.608 31.9354 156.899 32.285C157.205 32.6346 157.555 32.9114 157.948 33.1153C158.341 33.3047 158.742 33.3994 159.15 33.3994ZM167.121 35.6719V24.222H170.049V35.6719H167.121ZM167.121 22.6269V19.7207H170.049V22.6269H167.121ZM179.508 26.7567C178.619 26.7567 177.825 26.9315 177.126 27.2811C176.427 27.6162 175.924 28.1042 175.618 28.7451V35.6719H172.69V24.222H175.378V26.6693C175.786 25.8827 176.303 25.2636 176.929 24.812C177.556 24.3604 178.218 24.1128 178.918 24.0691C179.078 24.0691 179.202 24.0691 179.289 24.0691C179.377 24.0691 179.449 24.0763 179.508 24.0909V26.7567ZM180.29 32.285C180.29 31.5421 180.494 30.8938 180.901 30.3403C181.324 29.7721 181.907 29.3351 182.65 29.0292C183.392 28.7233 184.245 28.5703 185.206 28.5703C185.687 28.5703 186.175 28.6068 186.67 28.6796C187.165 28.7524 187.595 28.869 187.959 29.0292V28.4174C187.959 27.689 187.741 27.1282 187.304 26.7349C186.881 26.3415 186.248 26.1449 185.403 26.1449C184.776 26.1449 184.179 26.2541 183.611 26.4726C183.043 26.6912 182.446 27.0116 181.819 27.4341L180.88 25.5112C181.637 25.0159 182.409 24.6445 183.196 24.3968C183.997 24.1492 184.835 24.0253 185.709 24.0253C187.34 24.0253 188.608 24.4332 189.511 25.249C190.428 26.0648 190.887 27.2301 190.887 28.7451V32.3942C190.887 32.7002 190.938 32.9187 191.04 33.0498C191.157 33.1809 191.339 33.261 191.587 33.2901V35.6719C191.324 35.7156 191.084 35.752 190.865 35.7811C190.662 35.8103 190.487 35.8248 190.341 35.8248C189.758 35.8248 189.314 35.6937 189.008 35.4315C188.717 35.1693 188.535 34.8488 188.462 34.4701L188.396 33.8801C187.901 34.5211 187.282 35.0163 186.539 35.366C185.796 35.7156 185.039 35.8904 184.267 35.8904C183.509 35.8904 182.824 35.7374 182.213 35.4315C181.615 35.111 181.142 34.6813 180.792 34.1423C180.457 33.5888 180.29 32.9696 180.29 32.285ZM187.413 32.875C187.573 32.7002 187.704 32.5253 187.806 32.3505C187.908 32.1757 187.959 32.0155 187.959 31.8698V30.7117C187.61 30.566 187.231 30.4568 186.823 30.384C186.415 30.2966 186.029 30.2529 185.665 30.2529C184.907 30.2529 184.281 30.4204 183.786 30.7554C183.305 31.0759 183.065 31.5056 183.065 32.0446C183.065 32.336 183.145 32.6127 183.305 32.875C183.465 33.1372 183.698 33.3484 184.004 33.5086C184.31 33.6689 184.674 33.749 185.097 33.749C185.534 33.749 185.964 33.6689 186.386 33.5086C186.808 33.3338 187.151 33.1226 187.413 32.875ZM204.265 35.6719H201.337V29.2477C201.337 28.33 201.177 27.6599 200.856 27.2374C200.536 26.815 200.091 26.6038 199.523 26.6038C199.13 26.6038 198.729 26.7057 198.321 26.9097C197.928 27.1136 197.571 27.3977 197.251 27.7619C196.93 28.1115 196.697 28.5193 196.551 28.9855V35.6719H193.623V24.222H196.267V26.3415C196.559 25.8463 196.93 25.4311 197.382 25.096C197.833 24.7464 198.351 24.4842 198.933 24.3094C199.53 24.12 200.157 24.0253 200.812 24.0253C201.526 24.0253 202.109 24.1565 202.56 24.4187C203.027 24.6663 203.376 25.0086 203.609 25.4457C203.857 25.8681 204.024 26.3488 204.112 26.8878C204.214 27.4268 204.265 27.9731 204.265 28.5266V35.6719ZM213.608 35.0819C213.36 35.1839 213.062 35.3004 212.712 35.4315C212.362 35.5626 211.984 35.6646 211.576 35.7374C211.183 35.8248 210.782 35.8685 210.374 35.8685C209.835 35.8685 209.34 35.7738 208.888 35.5845C208.437 35.3951 208.072 35.0965 207.796 34.6886C207.533 34.2661 207.402 33.7199 207.402 33.0498V26.4726H205.895V24.222H207.402V20.5074H210.33V24.222H212.734V26.4726H210.33V32.0665C210.345 32.4598 210.454 32.7439 210.658 32.9187C210.862 33.0935 211.117 33.1809 211.423 33.1809C211.729 33.1809 212.027 33.1299 212.319 33.0279C212.61 32.9259 212.843 32.8385 213.018 32.7657L213.608 35.0819Z" fill="#241F5A"/>
</svg>
