<svg width="95" height="96" viewBox="0 0 95 96" fill="none" xmlns="http://www.w3.org/2000/svg">
<path d="M17.892 55.7749C5.84258 71.7506 0.427087 85.5601 5.23334 90.3664C12.0027 97.1357 36.3724 83.597 59.3882 60.3104C82.4041 37.0238 96.2136 12.9248 89.4442 6.15548C85.1118 1.7554 73.3331 6.15548 59.1852 15.7003" stroke="white" stroke-width="6.76936" stroke-linecap="round" stroke-linejoin="round"/>
<path d="M81.6595 34.0439C84.0191 39.2019 85.0446 44.8701 84.6418 50.5279C84.239 56.1856 82.4208 61.6514 79.3543 66.4231C76.2877 71.1947 72.0712 75.1192 67.0921 77.836C62.113 80.5527 56.531 81.9746 50.8589 81.971C46.3275 81.9728 41.8408 81.0755 37.6587 79.331M23.7815 68.4323C18.893 61.9143 16.5197 53.8518 17.0973 45.7248C17.6748 37.5979 21.1645 29.952 26.9256 24.1909C32.6867 18.4298 40.3326 14.9401 48.4596 14.3625C56.5865 13.785 64.6491 16.1583 71.167 21.0468" stroke="white" stroke-width="6.76936" stroke-linecap="round" stroke-linejoin="round"/>
</svg>
