<svg width="112" height="34" viewBox="0 0 112 34" fill="none" xmlns="http://www.w3.org/2000/svg">
<path fill-rule="evenodd" clip-rule="evenodd" d="M106.888 33.8213H4.12954C1.85357 33.8213 0 31.9677 0 29.7102V5.0437C0 2.77799 1.85357 0.932617 4.12954 0.932617H106.888C109.162 0.932617 111.018 2.77799 111.018 5.0437V29.7102C111.018 31.9677 109.162 33.8213 106.888 33.8213Z" fill="black"/>
<path fill-rule="evenodd" clip-rule="evenodd" d="M106.888 1.5908C108.797 1.5908 110.359 3.14296 110.359 5.0437V29.7102C110.359 31.6109 108.807 33.1631 106.888 33.1631H4.12954C2.2206 33.1631 0.658183 31.6109 0.658183 29.7102V5.0437C0.658183 3.14296 2.21035 1.5908 4.12954 1.5908H106.888ZM106.888 0.932617H4.12954C1.85357 0.932617 0 2.78619 0 5.0437V29.7102C0 31.9759 1.85357 33.8213 4.12954 33.8213H106.888C109.162 33.8213 111.018 31.9759 111.018 29.7102V5.0437C111.018 2.78619 109.162 0.932617 106.888 0.932617Z" fill="#A6A6A6"/>
<path d="M56.0225 18.8177C54.0886 18.8177 52.5124 20.2879 52.5124 22.3146C52.5124 24.3282 54.0886 25.8115 56.0225 25.8115C57.9563 25.8115 59.5325 24.3282 59.5325 22.3146C59.5325 20.2879 57.9563 18.8177 56.0225 18.8177ZM56.0225 24.4343C54.9627 24.4343 54.0483 23.5603 54.0483 22.3146C54.0483 21.0558 54.9627 20.195 56.0225 20.195C57.0823 20.195 57.9958 21.0558 57.9958 22.3146C57.9958 23.5595 57.0823 24.4343 56.0225 24.4343ZM48.3644 18.8177C46.4305 18.8177 44.8543 20.2879 44.8543 22.3146C44.8543 24.3282 46.4305 25.8115 48.3644 25.8115C50.2982 25.8115 51.8744 24.3282 51.8744 22.3146C51.8752 20.2879 50.2982 18.8177 48.3644 18.8177ZM48.3644 24.4343C47.3045 24.4343 46.391 23.5603 46.391 22.3146C46.391 21.0558 47.3054 20.195 48.3644 20.195C49.4242 20.195 50.3377 21.0558 50.3377 22.3146C50.3385 23.5595 49.4242 24.4343 48.3644 24.4343ZM39.2559 19.8907V21.374H42.8062C42.7001 22.2086 42.4222 22.8178 41.9979 23.2421C41.4816 23.7584 40.6734 24.3282 39.2559 24.3282C37.0704 24.3282 35.3618 22.5662 35.3618 20.3808C35.3618 18.1953 37.0704 16.4333 39.2559 16.4333C40.4349 16.4333 41.2958 16.897 41.9313 17.4932L42.978 16.4465C42.0909 15.5988 40.9118 14.9492 39.2559 14.9492C36.2622 14.9492 33.7454 17.3863 33.7454 20.38C33.7454 23.3736 36.2622 25.8107 39.2559 25.8107C40.8715 25.8107 42.0909 25.2812 43.0446 24.2871C44.0247 23.307 44.3298 21.929 44.3298 20.8166C44.3298 20.472 44.3034 20.1538 44.25 19.8891H39.2559V19.8907ZM76.5088 21.0427C76.2178 20.2607 75.3298 18.8169 73.5151 18.8169C71.7137 18.8169 70.2172 20.2344 70.2172 22.3138C70.2172 24.274 71.7005 25.8107 73.6878 25.8107C75.2903 25.8107 76.2178 24.8306 76.6017 24.2608L75.4095 23.4657C75.0124 24.0487 74.4689 24.4327 73.6878 24.4327C72.9059 24.4327 72.3501 24.075 71.9924 23.3728L76.6683 21.439L76.5088 21.0427ZM71.74 22.2086C71.7005 20.8577 72.7867 20.1686 73.5678 20.1686C74.177 20.1686 74.6934 20.4729 74.866 20.9103L71.74 22.2086ZM67.938 25.5994H69.4748V15.3209H67.938V25.5994ZM65.4212 19.5989H65.3686C65.0241 19.1886 64.3622 18.8169 63.5277 18.8169C61.7788 18.8169 60.1763 20.3536 60.1763 22.327C60.1763 24.2871 61.7788 25.8107 63.5277 25.8107C64.3622 25.8107 65.0241 25.4399 65.3686 25.0156H65.4212V25.5188C65.4212 26.8566 64.7059 27.5719 63.5532 27.5719C62.6126 27.5719 62.0296 26.896 61.7912 26.327L60.4534 26.8837C60.8374 27.8111 61.8578 28.9499 63.5532 28.9499C65.3546 28.9499 66.8782 27.8901 66.8782 25.3075V19.0291H65.4212V19.5989ZM63.6601 24.4343C62.6002 24.4343 61.713 23.5471 61.713 22.3278C61.713 21.0961 62.6002 20.195 63.6601 20.195C64.7067 20.195 65.5273 21.0953 65.5273 22.3278C65.5273 23.5463 64.7067 24.4343 63.6601 24.4343ZM83.7065 15.3209H80.0304V25.5994H81.5638V21.7054H83.7057C85.406 21.7054 87.0776 20.4745 87.0776 18.5135C87.0776 16.5525 85.4069 15.3209 83.7065 15.3209ZM83.746 20.2747H81.5638V16.7515H83.746C84.893 16.7515 85.5442 17.7012 85.5442 18.5135C85.5442 19.3094 84.893 20.2747 83.746 20.2747ZM93.2278 18.7988C92.117 18.7988 90.9667 19.2881 90.4906 20.3726L91.853 20.9415C92.1441 20.3726 92.6859 20.1876 93.2549 20.1876C94.0484 20.1876 94.8549 20.6636 94.8681 21.5097V21.6157C94.5902 21.4571 93.9949 21.2186 93.2681 21.2186C91.8004 21.2186 90.3056 22.0252 90.3056 23.5332C90.3056 24.9087 91.5093 25.7943 92.8578 25.7943C93.8897 25.7943 94.4578 25.3313 94.8147 24.7895H94.8673V25.5829H96.3481V21.6421C96.3481 19.8167 94.9865 18.7988 93.2278 18.7988ZM93.042 24.4318C92.5396 24.4318 91.8382 24.1802 91.8382 23.5595C91.8382 22.766 92.7114 22.4618 93.4646 22.4618C94.1388 22.4618 94.4562 22.6073 94.8665 22.8055C94.7481 23.7576 93.9283 24.4318 93.042 24.4318ZM101.743 19.0233L99.9847 23.4797H99.9321L98.1076 19.0233H96.455L99.1921 25.2516L97.6316 28.7164H99.2316L103.45 19.0233H101.743ZM87.9245 25.5994H89.4587V15.3209H87.9245V25.5994Z" fill="white"/>
<path fill-rule="evenodd" clip-rule="evenodd" d="M60.5225 10.9833C60.0374 11.4823 59.4347 11.7306 58.7136 11.7306C57.9925 11.7306 57.3898 11.4815 56.9055 10.9833C56.4204 10.485 56.1787 9.8749 56.1787 9.15382C56.1787 8.43274 56.4204 7.82265 56.9055 7.32439C57.3898 6.8253 57.9925 6.57617 58.7136 6.57617C59.4306 6.57617 60.0324 6.82695 60.5192 7.32768C61.0059 7.82841 61.2493 8.43685 61.2493 9.15382C61.2493 9.87573 61.0068 10.4858 60.5225 10.9833ZM57.3734 10.5705C57.7385 10.9405 58.1849 11.1247 58.7136 11.1247C59.2423 11.1247 59.6888 10.9397 60.0538 10.5705C60.4189 10.2005 60.6022 9.72855 60.6022 9.15464C60.6022 8.58074 60.4189 8.10796 60.0538 7.73879C59.6896 7.36879 59.2423 7.18461 58.7136 7.18461C58.1849 7.18461 57.7385 7.36961 57.3734 7.73879C57.0091 8.10878 56.8258 8.58074 56.8258 9.15464C56.8258 9.72855 57.0091 10.2005 57.3734 10.5705Z" fill="white"/>
<path d="M38.9878 9.35444C38.9878 10.0435 38.7839 10.5919 38.3753 11.0013C37.9115 11.4881 37.3064 11.7315 36.5631 11.7315C35.8511 11.7315 35.2451 11.4848 34.7476 10.9915C34.2494 10.4973 34.0002 9.88559 34.0002 9.15546C34.0002 8.42451 34.2494 7.81278 34.7476 7.31945C35.2451 6.8253 35.8511 6.57864 36.5631 6.57864C36.9166 6.57864 37.2546 6.6477 37.5752 6.78501C37.8967 6.92315 38.1541 7.1065 38.3465 7.3359L37.9132 7.77003C37.5868 7.37948 37.137 7.18461 36.5623 7.18461C36.0426 7.18461 35.5937 7.36714 35.2147 7.73221C34.8364 8.09727 34.6473 8.57087 34.6473 9.15464C34.6473 9.73841 34.8364 10.212 35.2155 10.5779C35.5945 10.943 36.0435 11.1255 36.5631 11.1255C37.114 11.1255 37.5736 10.9421 37.9411 10.5746C38.1796 10.3353 38.3177 10.0023 38.3547 9.57562H36.5631V8.98198H38.9533C38.9771 9.11106 38.9878 9.23522 38.9878 9.35444Z" fill="white"/>
<path d="M42.7782 7.29397H40.5319V8.85782H42.5579V9.45064H40.5319V11.0145H42.7782V11.6213H39.898V6.68799H42.7782V7.29397Z" fill="white"/>
<path d="M44.8165 11.6213H45.4504V7.29397H46.8285V6.68799H43.4385V7.29397H44.8165V11.6213Z" fill="white"/>
<path d="M49.282 11.6213V6.68799H49.9159V11.6213H49.282Z" fill="white"/>
<path d="M52.0923 11.6213H52.7262V7.29397H54.1043V6.68799H50.7143V7.29397H52.0923V11.6213Z" fill="white"/>
<path d="M62.1389 6.68799V11.6213H62.7712V8.54785L62.7441 7.59737H62.7712L65.2798 11.6213H65.9417V6.68799H65.3078V9.57562L65.3349 10.5261H65.3078L62.9102 6.68799H62.1389Z" fill="white"/>
<path fill-rule="evenodd" clip-rule="evenodd" d="M60.5225 10.9833C60.0374 11.4823 59.4347 11.7306 58.7136 11.7306C57.9925 11.7306 57.3898 11.4815 56.9055 10.9833C56.4204 10.485 56.1787 9.8749 56.1787 9.15382C56.1787 8.43274 56.4204 7.82265 56.9055 7.32439C57.3898 6.8253 57.9925 6.57617 58.7136 6.57617C59.4306 6.57617 60.0324 6.82695 60.5192 7.32768C61.0059 7.82841 61.2493 8.43685 61.2493 9.15382C61.2493 9.87573 61.0068 10.4858 60.5225 10.9833ZM57.3734 10.5705C57.7385 10.9405 58.1849 11.1247 58.7136 11.1247C59.2423 11.1247 59.6888 10.9397 60.0538 10.5705C60.4189 10.2005 60.6022 9.72855 60.6022 9.15464C60.6022 8.58074 60.4189 8.10796 60.0538 7.73879C59.6896 7.36879 59.2423 7.18461 58.7136 7.18461C58.1849 7.18461 57.7385 7.36961 57.3734 7.73879C57.0091 8.10878 56.8258 8.58074 56.8258 9.15464C56.8258 9.72855 57.0091 10.2005 57.3734 10.5705Z" stroke="white" stroke-width="0.2" stroke-miterlimit="10"/>
<path d="M38.9878 9.35444C38.9878 10.0435 38.7839 10.5919 38.3753 11.0013C37.9115 11.4881 37.3064 11.7315 36.5631 11.7315C35.8511 11.7315 35.2451 11.4848 34.7476 10.9915C34.2494 10.4973 34.0002 9.88559 34.0002 9.15546C34.0002 8.42451 34.2494 7.81278 34.7476 7.31945C35.2451 6.8253 35.8511 6.57864 36.5631 6.57864C36.9166 6.57864 37.2546 6.6477 37.5752 6.78501C37.8967 6.92315 38.1541 7.1065 38.3465 7.3359L37.9132 7.77003C37.5868 7.37948 37.137 7.18461 36.5623 7.18461C36.0426 7.18461 35.5937 7.36714 35.2147 7.73221C34.8364 8.09727 34.6473 8.57087 34.6473 9.15464C34.6473 9.73841 34.8364 10.212 35.2155 10.5779C35.5945 10.943 36.0435 11.1255 36.5631 11.1255C37.114 11.1255 37.5736 10.9421 37.9411 10.5746C38.1796 10.3353 38.3177 10.0023 38.3547 9.57562H36.5631V8.98198H38.9533C38.9771 9.11106 38.9878 9.23522 38.9878 9.35444Z" stroke="white" stroke-width="0.2" stroke-miterlimit="10"/>
<path d="M42.7782 7.29397H40.5319V8.85782H42.5579V9.45064H40.5319V11.0145H42.7782V11.6213H39.898V6.68799H42.7782V7.29397Z" stroke="white" stroke-width="0.2" stroke-miterlimit="10"/>
<path d="M44.8165 11.6213H45.4504V7.29397H46.8285V6.68799H43.4385V7.29397H44.8165V11.6213Z" stroke="white" stroke-width="0.2" stroke-miterlimit="10"/>
<path d="M49.282 11.6213V6.68799H49.9159V11.6213H49.282Z" stroke="white" stroke-width="0.2" stroke-miterlimit="10"/>
<path d="M52.0923 11.6213H52.7262V7.29397H54.1043V6.68799H50.7143V7.29397H52.0923V11.6213Z" stroke="white" stroke-width="0.2" stroke-miterlimit="10"/>
<path d="M62.1389 6.68799V11.6213H62.7712V8.54785L62.7441 7.59737H62.7712L65.2798 11.6213H65.9417V6.68799H65.3078V9.57562L65.3349 10.5261H65.3078L62.9102 6.68799H62.1389Z" stroke="white" stroke-width="0.2" stroke-miterlimit="10"/>
<path d="M8.57978 7.13033C8.34052 7.38358 8.1991 7.7766 8.1991 8.28555V26.4697C8.1991 26.9795 8.34052 27.3717 8.57978 27.6249L8.64063 27.6841L18.8271 17.4977V17.3776V17.2576L8.64063 7.07031L8.57978 7.13033Z" fill="url(#paint0_linear_927_4586)"/>
<path d="M22.2228 20.8957L18.8279 17.4991V17.3791V17.259L22.2236 13.8633L22.3001 13.9069L26.3232 16.1926C27.4727 16.8455 27.4727 17.9135 26.3232 18.5672L22.3001 20.8529L22.2228 20.8957Z" fill="url(#paint1_linear_927_4586)"/>
<path d="M22.3002 20.851L18.8279 17.3779L8.57983 27.6252C8.95888 28.0265 9.58376 28.0758 10.2884 27.6754L22.3002 20.851Z" fill="url(#paint2_linear_927_4586)"/>
<path d="M22.3001 13.9045L10.2891 7.08012C9.58449 6.6797 8.95961 6.72986 8.58057 7.13028L18.8278 17.3776L22.3001 13.9045Z" fill="url(#paint3_linear_927_4586)"/>
<path opacity="0.2" d="M22.2237 20.7744L10.2892 27.5552C9.62158 27.9343 9.02465 27.9096 8.6415 27.5643L8.57983 27.6259L8.64068 27.6851C9.02383 28.0305 9.62076 28.056 10.2884 27.6761L22.2993 20.8517L22.2237 20.7744Z" fill="black"/>
<path opacity="0.12" d="M8.57991 27.5048C8.34064 27.2516 8.19922 26.8586 8.19922 26.3496V26.4697C8.19922 26.9786 8.34064 27.3716 8.57991 27.6249L8.64157 27.5632L8.57991 27.5048Z" fill="black"/>
<path opacity="0.12" d="M26.3232 18.4453L22.2236 20.7747L22.3001 20.8511L26.3232 18.5654C26.8979 18.2389 27.1849 17.8089 27.1849 17.3789C27.1364 17.7678 26.8437 18.1493 26.3232 18.4453Z" fill="black"/>
<path opacity="0.25" d="M10.2883 7.20057L26.3224 16.3107C26.8437 16.6067 27.1356 16.9882 27.1841 17.378C27.1841 16.9479 26.8971 16.5171 26.3224 16.1907L10.2883 7.08053C9.13889 6.42769 8.1991 6.96953 8.1991 8.2859V8.40676C8.1991 7.09039 9.13971 6.54773 10.2883 7.20057Z" fill="white"/>
<defs>
<linearGradient id="paint0_linear_927_4586" x1="17.9239" y1="8.09381" x2="4.12518" y2="21.8926" gradientUnits="userSpaceOnUse">
<stop stop-color="#00A0FF"/>
<stop offset="0.0066" stop-color="#00A1FF"/>
<stop offset="0.2601" stop-color="#00BEFF"/>
<stop offset="0.5122" stop-color="#00D2FF"/>
<stop offset="0.7604" stop-color="#00DFFF"/>
<stop offset="1" stop-color="#00E3FF"/>
</linearGradient>
<linearGradient id="paint1_linear_927_4586" x1="27.8191" y1="17.3787" x2="7.92398" y2="17.3787" gradientUnits="userSpaceOnUse">
<stop stop-color="#FFE000"/>
<stop offset="0.4087" stop-color="#FFBD00"/>
<stop offset="0.7754" stop-color="#FFA500"/>
<stop offset="1" stop-color="#FF9C00"/>
</linearGradient>
<linearGradient id="paint2_linear_927_4586" x1="20.4131" y1="19.2651" x2="1.70084" y2="37.9773" gradientUnits="userSpaceOnUse">
<stop stop-color="#FF3A44"/>
<stop offset="1" stop-color="#C31162"/>
</linearGradient>
<linearGradient id="paint3_linear_927_4586" x1="5.99979" y1="1.07737" x2="14.3556" y2="9.43314" gradientUnits="userSpaceOnUse">
<stop stop-color="#32A071"/>
<stop offset="0.0685" stop-color="#2DA771"/>
<stop offset="0.4762" stop-color="#15CF74"/>
<stop offset="0.8009" stop-color="#06E775"/>
<stop offset="1" stop-color="#00F076"/>
</linearGradient>
</defs>
</svg>
