<svg width="121" height="121" viewBox="0 0 121 121" fill="none" xmlns="http://www.w3.org/2000/svg">
<path d="M32.5736 73.5574L17.6559 69.828C17.6559 69.828 17.6559 58.6397 21.3853 47.4515C25.1147 36.2632 51.2206 36.2632 51.2206 36.2632M32.5736 73.5574L47.4912 88.4751M32.5736 73.5574C32.5736 73.5574 47.4912 36.2632 66.1383 25.075C84.7854 13.8867 107.162 13.8867 107.162 13.8867C107.162 13.8867 107.162 36.2632 95.9737 54.9103C84.7854 73.5574 47.4912 88.4751 47.4912 88.4751M47.4912 88.4751L51.2206 103.393C51.2206 103.393 62.4089 103.393 73.5972 99.6633C84.7854 95.9339 84.7854 69.828 84.7854 69.828" stroke="#F2EBF3" stroke-width="11.1883" stroke-linecap="round" stroke-linejoin="round"/>
<path d="M13.9265 107.121L28.8441 99.662L21.3853 92.2031L13.9265 107.121Z" fill="#F2EBF3" stroke="#F2EBF3" stroke-width="11.1883" stroke-linecap="round" stroke-linejoin="round"/>
<path d="M77.3265 47.451C79.3862 47.451 81.0559 45.7813 81.0559 43.7216C81.0559 41.6619 79.3862 39.9922 77.3265 39.9922C75.2668 39.9922 73.597 41.6619 73.597 43.7216C73.597 45.7813 75.2668 47.451 77.3265 47.451Z" fill="#F2EBF3" stroke="#F2EBF3" stroke-width="11.1883" stroke-linecap="round" stroke-linejoin="round"/>
</svg>
