<svg width="17" height="14" viewBox="0 0 17 14" fill="none" xmlns="http://www.w3.org/2000/svg">
<path d="M15.0508 3.67555C15.0605 3.81489 15.0605 3.95421 15.0605 4.09483C15.0605 8.37937 11.7988 13.3207 5.83453 13.3207V13.3182C4.07269 13.3207 2.34744 12.8161 0.864258 11.8645C1.12044 11.8954 1.37791 11.9107 1.63603 11.9114C3.0961 11.9126 4.51443 11.4227 5.6631 10.5207C4.27558 10.4943 3.05886 9.58971 2.6338 8.26893C3.11985 8.36267 3.62067 8.34341 4.09773 8.21307C2.58501 7.90744 1.4967 6.57835 1.4967 5.03482C1.4967 5.02069 1.4967 5.00721 1.4967 4.99373C1.94743 5.24478 2.4521 5.3841 2.96832 5.39951C1.54357 4.44732 1.10439 2.55193 1.96477 1.07003C3.61104 3.09577 6.03999 4.32726 8.64744 4.4576C8.38611 3.33141 8.74311 2.15128 9.5855 1.3596C10.8915 0.131967 12.9455 0.194889 14.1731 1.50022C14.8993 1.35704 15.5953 1.09058 16.2322 0.71304C15.9902 1.46363 15.4835 2.1012 14.8068 2.50635C15.4495 2.43058 16.0775 2.25851 16.6688 1.9959C16.2335 2.64824 15.6852 3.21647 15.0508 3.67555Z" fill="#803785"/>
</svg>
